<?xml version="1.0" encoding="UTF-8"?><svg xmlns="http://www.w3.org/2000/svg" xmlns:xlink="http://www.w3.org/1999/xlink" viewBox="0 0 1717.9 1109"><defs><clipPath id="b"><rect x="31.3" y="736.2" width="677" height="217" style="fill:none;"/></clipPath><mask id="c" x="31.3" y="742.5" width="676.1" height="209.5" maskUnits="userSpaceOnUse"><g id="d"><path d="M602.7,952h104.7v-189.4h-104.7v189.4Z" style="fill:#d9d9d9;"/><path d="M502,952h122.9v-65.8h-122.9v65.8Z" style="fill:#d9d9d9;"/><path d="M31.3,952h497.4v-209.5H31.3v209.5Z" style="fill:#d9d9d9;"/></g></mask><clipPath id="e"><rect x="32.8" y="750.8" width="677" height="217" style="fill:none;"/></clipPath><mask id="f" x="32.8" y="757.1" width="676.1" height="209.5" maskUnits="userSpaceOnUse"><g id="g"><path d="M604.2,966.6h104.7v-189.4h-104.7v189.4Z" style="fill:#d9d9d9;"/><path d="M503.5,966.6h122.9v-65.8h-122.9v65.8Z" style="fill:#d9d9d9;"/><path d="M32.8,966.6h497.4v-209.5H32.8v209.5Z" style="fill:#d9d9d9;"/></g></mask><clipPath id="h"><rect x="937.3" y="125.2" width="677" height="217" style="fill:none;"/></clipPath><mask id="i" x="937.3" y="125.2" width="676.1" height="209.5" maskUnits="userSpaceOnUse"><g id="j"><path d="M1042,125.2h-104.7v189.4h104.7V125.2Z" style="fill:#d9d9d9;"/><path d="M1142.7,125.2h-122.9v65.8h122.9v-65.8Z" style="fill:#d9d9d9;"/><path d="M1613.4,125.2h-497.4v209.5h497.4V125.2Z" style="fill:#d9d9d9;"/></g></mask><clipPath id="k"><rect x="783.5" y="84.4" width="677" height="217" style="fill:none;"/></clipPath><mask id="l" x="783.5" y="84.4" width="676.1" height="209.5" maskUnits="userSpaceOnUse"><g id="m"><path d="M888.2,84.4h-104.7v189.4h104.7V84.4Z" style="fill:#d9d9d9;"/><path d="M988.9,84.4h-122.9v65.8h122.9v-65.8Z" style="fill:#d9d9d9;"/><path d="M1459.6,84.4h-497.4v209.5h497.4V84.4Z" style="fill:#d9d9d9;"/></g></mask><mask id="n" x="681.3" y="56.8" width="676.1" height="209.5" maskUnits="userSpaceOnUse"><g id="o"><path d="M786,56.8h-104.7v189.4h104.7V56.8Z" style="fill:#d9d9d9;"/><path d="M886.7,56.8h-122.9v65.8h122.9V56.8Z" style="fill:#d9d9d9;"/><path d="M1357.3,56.8h-497.4v209.5h497.4V56.8Z" style="fill:#d9d9d9;"/></g></mask><clipPath id="p"><rect x="15.9" y="770.2" width="677" height="217" style="fill:none;"/></clipPath><mask id="q" x="15.9" y="776.5" width="676.1" height="209.5" maskUnits="userSpaceOnUse"><g id="r"><path d="M587.3,986h104.7v-189.4h-104.7v189.4Z" style="fill:#d9d9d9;"/><path d="M486.6,986h122.9v-65.8h-122.9v65.8Z" style="fill:#d9d9d9;"/><path d="M15.9,986h497.4v-209.5H15.9v209.5Z" style="fill:#d9d9d9;"/></g></mask><filter id="t" x="0" y="0" width="1689" height="1109" filterUnits="userSpaceOnUse"><feOffset dx="12" dy="18"/><feGaussianBlur result="u" stdDeviation="12"/><feFlood flood-color="#000" flood-opacity=".8"/><feComposite in2="u" operator="in"/><feComposite in="SourceGraphic"/></filter></defs><g id="a"><g style="clip-path:url(#b);"><path d="M115.8,938.6h477.4c45.2,0,81.8-36.6,81.8-81.8h0c0-45.2-36.6-81.8-81.8-81.8H115.8c-45.2,0-81.8,36.6-81.8,81.8s36.6,81.8,81.8,81.8Z" style="fill:#fff;"/><path d="M593.1,938.6H115.8c-45.2,0-81.8-36.6-81.8-81.8h0c0-45.2,36.6-81.8,81.8-81.8h477.4c45.2,0,81.8,36.6,81.8,81.8h0c0,45.2-36.6,81.8-81.8,81.8Z" style="fill:none; stroke:#fff; stroke-width:2px;"/><g style="mask:url(#c);"><path d="M116.1,938.7h477.4c45.2,0,81.8-36.6,81.8-81.8h0c0-45.2-36.6-81.8-81.8-81.8H116.1c-45.2,0-81.8,36.6-81.8,81.8s36.6,81.8,81.8,81.8Z" style="fill:#fff;"/><path d="M593.5,938.7H116.1c-45.2,0-81.8-36.6-81.8-81.8h0c0-45.2,36.6-81.8,81.8-81.8h477.4c45.2,0,81.8,36.6,81.8,81.8h0c0,45.2-36.6,81.8-81.8,81.8Z" style="fill:none; stroke:#00e526; stroke-width:2px;"/></g><path d="M550,772c.4,0,3.9.5,6.7.9,1.1.2,2,0,5.1,0,2.9,0,8.4,0,11.2,0,2.8,0,2.9.3,2.9.5,0,.2.1.4.4.6,1.6,1,5.3.7,7,.4.6-.1,1.5-.4,2.5-.6.4,0,.7,0,0-1-3.7-5.3-4.6-6-4.9-7-.1-.3-.2-.7-.3-1.1,0-.4-.2-.7.2,0,2.2,4.8,3.4,6.6,4.3,7.4,2.2,1.9,6.5,3.3,6.4,3.3-3-1.7-4.8-3.2-4.6-3.1.5.2,1.6.9,2,1.2.9.6-3-1.2-3.5-1.5-.2,0,1.2.6,1.7.5,2.4,0-3.5-3.6-4.2-4-.2-.1-.5-2.4-1.4-5.7-.4-1.5-.4-1.8-.4-6.1,0-3,1.5-5.2,2.1-6.2.7-1.4,1-2.9,1.3-3.6.8-1.7,3.9-3.3,7-5.5,2.4-1.6,3.3-1.7,4.4-2.4,2-1.2,2.9-1.3,3.4-1.3.6,0-1.5.2-3.1.6-.2,0,0,.2.2.3,1.6.5,3.4,0,3.7,0,.4-.2-1,0-2.5.2-6.5,1-7.7,1.1-8.5,1.2-.4,0-.9.1-1.3.3-.2,0-.4.2.2.2.6,0,1.9,0,2.3,0,.9,0-2.7.8-4.8,1.6-1.6.6-2.3,1.1-4.4,1.9-2.3.8-3.7,2.1-4.3,2.6-.6.6-1.2,1.9-1.8,2.8-.5.7-1,1.3-1.4,2-.4.8-.2,1.4-.5,1.7-.7.8-2.3,1.8-3.8,3.8-.8,1.1-1,2-1.6,2.8-.7.9-1.5,2.5-2.8,4-1.2,1.3-2,2.1-2.7,2.6-.9.6-2.8,2.4-4.5,3.6-.9.7-1.7,1-2.7,1.5-1,.5-2,.8-2.9,1.4-1.3.9-2.4,1.7-3.3,2.2-.2.1-.4.2-.4.2.5-.9,2.9-1.3,7.5-1.5.9,0,1.1,0,.8.1-3.1.4-6,.7-6.8.6-.7,0,1.4-1.1,5-2.4,2.6-.7,4.5-1.3,5.5-1.6.5-.2,1-.4,1.6-.8" style="fill:none; stroke:#fff; stroke-linecap:round; stroke-width:2px;"/><path d="M580.7,773.1c0-.5-.7-1.8-1.9-3.2-.2-.3-.3-.5-.2-.6,1.1-.9,3.4,2.3,4.2,3.4,0,.1-.3.2-.6.3-2.2.2-4.8-3.6-6.2-4-1-.3-3.5,1.5-7.2,3.8-3,1.9-5.5,1.7-6.6,1.7-.4,0-.6-.1-.8-.3-.3-.3-.5-.7-.5-1.2-.1-.8,1-1.2,2.2-2.3,2.3-2.3,4.5-2.9,6.3-4.1,1.2-.8,2.3-2.3,3.4-3.4,1.1-1.1,1.9-2.5,2.2-2.5,1.6,0,1,3.3,1.4,4,.1.2.4,0,.6-.2.6-.9.4-5.4.6-8.4,0-1.3.3-2.3.5-3.1.1-.5.3-.9.3-1,0-.5-.5.9-1.3,2.2-2,3.2-3.7,5.5-4.4,6.3-1.6,1.7-2.6,3.3-4.4,5.5-.4.5-.7.8-.9,1-.2.2-.4.4-.8.9" style="fill:none; stroke:#fff; stroke-linecap:round; stroke-width:7px;"/><path d="M582.2,746.6s-.2.3-.8,1.1c-.4.5-1,1.4-1.5,1.9-.5.6-.7.9-1.1,1.1" style="fill:none; stroke:#fff; stroke-linecap:round; stroke-width:7px;"/><path d="M582.1,745.8s.4-.2,1.1-.6c.7-.4,1.3-.7,1.7-.9.2,0,.5-.2,1.1-.5" style="fill:none; stroke:#fff; stroke-linecap:round; stroke-width:7px;"/><path d="M604,775.8c-5.5-.7-6.8-1.3-12.5-3.4-5.5-2-7.8-6.7-8.8-11.4-1.1-5,2.9-13.6,6.6-16.2,5.9-4,14.1-6.9,20.2-7.8,3.1-.4,6.1-.4,9.3-.5" style="fill:none; stroke:#00e526; stroke-linecap:round; stroke-width:2px;"/><path d="M528.7,775c4,0,15.5.6,24.6-4.6,3-1.7,8.5-6.1,12.3-10.7,4.6-5.5,8.5-11.9,12.2-15.1,4-3.5,7.4-4.3,12.1-5.9,7.6-2.6,26-2.2,28.2-2.6" style="fill:none; stroke:#00e526; stroke-linecap:round; stroke-width:2px;"/><path d="M87.8,848.7c-6.2,0-10.7-5.7-10.7-13.9s4.7-14.5,11-14.5,7.8,2.9,9.5,7.7l-2.7.8c-1.3-3.3-3.8-5.2-6.8-5.2-4.8,0-8.1,4.7-8.1,11.1s3.3,10.7,7.8,10.7,6.1-2.4,7.4-6.4l2.6.7c-1.7,5.7-5.2,8.9-9.9,8.9ZM99.1,848.1l8.5-27.1h3.1l8.4,27.1h-2.8l-2.4-7.8h-9.5l-2.4,7.8h-2.8ZM105.4,837.1h7.5l-3.7-12.2-3.8,12.2ZM121,848.1v-27.1h2.6v23.8h12.5v3.2h-15.1ZM138.6,848.1v-27.1h2.6v23.8h12.5v3.2h-15.1ZM156.6,848.1v-27.1h2.7v27.1h-2.7ZM163.2,848.1v-27.1h2.8l11.4,21.4v-21.4h2.6v27.1h-2.7l-11.5-21.5v21.5h-2.6ZM192.5,848.7c-5.7,0-9.6-5.7-9.6-13.9s3.7-14.5,10.1-14.5,7.3,3,8.7,7.8l-2.6.7c-1.2-3.6-3.5-5.3-6.2-5.3-4.7,0-7.4,4.9-7.4,11.2s3.2,10.7,7.1,10.7,6.6-3.6,6.7-8.6h-6.1v-3.2h8.7v14.4h-2.3l-.3-3.5c-1.4,2.6-3.9,4.2-6.9,4.2ZM211,848.1l8.5-27.1h3.1l8.4,27.1h-2.8l-2.4-7.8h-9.5l-2.4,7.8h-2.8ZM217.2,837.1h7.5l-3.7-12.2-3.8,12.2ZM232.9,848.1v-27.1h2.6v23.8h12.5v3.2h-15.1ZM250.5,848.1v-27.1h2.6v23.8h12.5v3.2h-15.1ZM275.3,848.1v-27.1h8.8c4.2,0,6.9,3.3,6.9,7.7s-2.8,7.8-6.9,7.8h-6.2v11.6h-2.6ZM277.9,833.3h6.2c2.6,0,4.3-1.8,4.3-4.6s-1.7-4.5-4.3-4.5h-6.2v9.1ZM293.8,848.1v-27.1h2.6v11.7h11.8v-11.7h2.6v27.1h-2.6v-12.2h-11.8v12.2h-2.6ZM324.3,848.7c-6.2,0-10.7-6-10.7-14.1s4.2-14.3,10.7-14.3,10.6,6.3,10.6,14.3-4.4,14.1-10.6,14.1ZM324.3,845.5c4.5,0,7.8-4.5,7.8-10.9s-3-11-7.8-11-7.8,4.8-7.8,11,3.3,10.9,7.8,10.9ZM343.7,848.1v-23.9h-7.4v-3.2h17.5v3.2h-7.5v23.9h-2.6ZM365.8,848.7c-6.2,0-10.7-6-10.7-14.1s4.2-14.3,10.7-14.3,10.6,6.3,10.6,14.3-4.4,14.1-10.6,14.1ZM365.8,845.5c4.5,0,7.8-4.5,7.8-10.9s-3-11-7.8-11-7.8,4.8-7.8,11,3.3,10.9,7.8,10.9ZM388.1,848.7c-5.7,0-9.6-5.7-9.6-13.9s3.7-14.5,10.1-14.5,7.3,3,8.7,7.8l-2.6.7c-1.2-3.6-3.5-5.3-6.2-5.3-4.7,0-7.4,4.9-7.4,11.2s3.2,10.7,7.1,10.7,6.6-3.6,6.7-8.6h-6.1v-3.2h8.7v14.4h-2.3l-.3-3.5c-1.4,2.6-3.9,4.2-6.9,4.2ZM401.1,848.1v-27.1h9c4.2,0,6.9,3.3,6.9,7.8s-1.3,5.5-3.7,6.8c2.7,2,1.8,6.6,4.2,12.5h-3c-1.7-4-1.3-11.7-5.2-11.7h-5.7v11.7h-2.6ZM403.7,833.2h6.3c2.6,0,4.4-1.9,4.4-4.6s-1.7-4.4-4.4-4.4h-6.3v9ZM418.9,848.1l8.5-27.1h3.1l8.4,27.1h-2.8l-2.4-7.8h-9.5l-2.4,7.8h-2.8ZM425.1,837.1h7.5l-3.7-12.2-3.8,12.2ZM440.8,848.1v-27.1h8.8c4.2,0,6.9,3.3,6.9,7.7s-2.8,7.8-6.9,7.8h-6.2v11.6h-2.6ZM443.4,833.3h6.2c2.6,0,4.3-1.8,4.3-4.6s-1.7-4.5-4.3-4.5h-6.2v9.1ZM459.2,848.1v-27.1h2.6v11.7h11.8v-11.7h2.6v27.1h-2.6v-12.2h-11.8v12.2h-2.6ZM479.9,848.1v-27.1h15.1v3.2h-12.5v8.4h11.6v3.2h-11.6v9.1h12.8v3.2h-15.4ZM498.2,848.1v-27.1h9c4.2,0,6.9,3.3,6.9,7.8s-1.3,5.5-3.7,6.8c2.7,2,1.8,6.6,4.2,12.5h-3c-1.7-4-1.3-11.7-5.2-11.7h-5.7v11.7h-2.6ZM500.8,833.2h6.3c2.6,0,4.4-1.9,4.4-4.6s-1.7-4.4-4.4-4.4h-6.3v9ZM525.8,848.7c-4.8,0-7.7-3-8.5-8.4l2.6-.6c.5,3.9,2.5,5.8,5.7,5.8s5.3-1.9,5.3-4.5-1.7-4-5.8-5.5c-5-1.8-7.2-4.5-7.2-8.2s2.8-6.9,7.3-6.9,7.1,2.5,8,7.3l-2.7.7c-.6-3.2-2.3-4.9-5.4-4.9s-4.6,1.4-4.6,3.7,1.5,3.6,5.6,5.2c5.4,2.1,7.5,4.7,7.5,8.5s-3.1,7.8-7.9,7.8ZM539.1,853.3l-.9-1.5c1.1-.8,1.9-1.9,2-3.4-1.3.5-2.5-.8-2.5-2.3s.9-2.4,2-2.4,2.2.6,2.2,3.6-.9,4.4-2.8,6ZM77.9,891.1v-27.1h8.8c4.2,0,6.9,3.3,6.9,7.7s-2.8,7.8-6.9,7.8h-6.2v11.6h-2.6ZM80.5,876.3h6.2c2.6,0,4.3-1.8,4.3-4.6s-1.7-4.5-4.3-4.5h-6.2v9.1ZM96.3,891.1v-27.1h2.6v11.7h11.8v-11.7h2.6v27.1h-2.6v-12.2h-11.8v12.2h-2.6ZM126.9,891.7c-6.2,0-10.7-6-10.7-14.1s4.2-14.3,10.7-14.3,10.6,6.3,10.6,14.3-4.4,14.1-10.6,14.1ZM126.9,888.5c4.5,0,7.8-4.5,7.8-10.9s-3-11-7.8-11-7.8,4.8-7.8,11,3.3,10.9,7.8,10.9ZM146.3,891.1v-23.9h-7.4v-3.2h17.5v3.2h-7.5v23.9h-2.6ZM168.3,891.7c-6.2,0-10.7-6-10.7-14.1s4.2-14.3,10.7-14.3,10.6,6.3,10.6,14.3-4.4,14.1-10.6,14.1ZM168.3,888.5c4.5,0,7.8-4.5,7.8-10.9s-3-11-7.8-11-7.8,4.8-7.8,11,3.3,10.9,7.8,10.9ZM181.8,891.1v-27.1h8.8c4.2,0,6.6,2.5,6.6,6.8s-.9,4.8-2.7,6c2.4,1,3.7,3.4,3.7,6.5,0,4.7-3,7.8-7.5,7.8h-8.9ZM184.4,875.3h5.4c2.9,0,4.8-1.7,4.8-4.3s-1.5-3.7-4.2-3.7h-6.1v8.1ZM184.4,887.8h6.1c3.1,0,5-1.7,5-4.6s-2-4.8-5.3-4.8h-5.8v9.4ZM199.5,891.1l8.5-27.1h3.1l8.4,27.1h-2.8l-2.4-7.8h-9.5l-2.4,7.8h-2.8ZM205.8,880.1h7.5l-3.7-12.2-3.8,12.2ZM229.4,891.7c-4.8,0-7.7-3-8.5-8.4l2.6-.6c.5,3.9,2.5,5.8,5.7,5.8s5.3-1.9,5.3-4.5-1.7-4-5.8-5.5c-5-1.8-7.2-4.5-7.2-8.2s2.8-6.9,7.3-6.9,7.1,2.5,8,7.3l-2.7.7c-.6-3.2-2.3-4.9-5.4-4.9s-4.6,1.4-4.6,3.7,1.5,3.6,5.6,5.2c5.4,2.1,7.5,4.7,7.5,8.5s-3.1,7.8-7.9,7.8ZM240.5,891.1v-27.1h15.1v3.2h-12.5v8.4h11.6v3.2h-11.6v9.1h12.8v3.2h-15.4ZM258.9,891.1v-27.1h7.6c6.7,0,10.3,5.2,10.3,13.4s-3.6,13.7-10.3,13.7h-7.6ZM261.4,887.9h4.6c5.2,0,8.1-3.6,8.1-10.5s-2.9-10.2-8.1-10.2h-4.6v20.7ZM285.3,891.1l8.5-27.1h3.1l8.4,27.1h-2.8l-2.4-7.8h-9.5l-2.4,7.8h-2.8ZM291.6,880.1h7.5l-3.7-12.2-3.8,12.2ZM307.2,891.1v-27.1h9c4.2,0,6.9,3.3,6.9,7.8s-1.3,5.5-3.7,6.8c2.7,2,1.8,6.6,4.2,12.5h-3c-1.7-4-1.3-11.7-5.2-11.7h-5.7v11.7h-2.6ZM309.8,876.2h6.3c2.6,0,4.4-1.9,4.4-4.6s-1.7-4.4-4.4-4.4h-6.3v9ZM332.6,891.1v-23.9h-7.4v-3.2h17.5v3.2h-7.5v23.9h-2.6ZM345.1,891.1v-27.1h2.7v27.1h-2.7ZM359.8,891.7c-4.8,0-7.7-3-8.5-8.4l2.6-.6c.5,3.9,2.5,5.8,5.7,5.8s5.3-1.9,5.3-4.5-1.7-4-5.8-5.5c-5-1.8-7.2-4.5-7.2-8.2s2.8-6.9,7.3-6.9,7.1,2.5,8,7.3l-2.7.7c-.6-3.2-2.3-4.9-5.4-4.9s-4.6,1.4-4.6,3.7,1.5,3.6,5.6,5.2c5.4,2.1,7.5,4.7,7.5,8.5s-3.1,7.8-7.9,7.8ZM376.7,891.1v-23.9h-7.4v-3.2h17.5v3.2h-7.5v23.9h-2.6ZM391.2,896.3l-.9-1.5c1.1-.8,1.9-1.9,2-3.4-1.3.5-2.5-.8-2.5-2.3s.9-2.4,2-2.4,2.2.6,2.2,3.6-.9,4.4-2.8,6ZM404,891.1l8.5-27.1h3.1l8.4,27.1h-2.8l-2.4-7.8h-9.5l-2.4,7.8h-2.8ZM410.2,880.1h7.5l-3.7-12.2-3.8,12.2ZM425.9,891.1v-27.1h2.8l11.4,21.4v-21.4h2.6v27.1h-2.7l-11.5-21.5v21.5h-2.6ZM446.3,891.1v-27.1h7.6c6.7,0,10.3,5.2,10.3,13.4s-3.6,13.7-10.3,13.7h-7.6ZM448.9,887.9h4.6c5.2,0,8.1-3.6,8.1-10.5s-2.9-10.2-8.1-10.2h-4.6v20.7ZM484.4,891.7c-6.2,0-10.7-5.7-10.7-13.9s4.7-14.5,11-14.5,7.8,2.9,9.5,7.7l-2.7.8c-1.3-3.3-3.8-5.2-6.8-5.2-4.8,0-8.1,4.7-8.1,11.1s3.3,10.7,7.8,10.7,6.1-2.4,7.4-6.4l2.6.7c-1.7,5.7-5.2,8.9-9.9,8.9ZM505.8,891.7c-5.2,0-8.4-3.8-8.4-10.9v-16.8h2.6v16.8c0,5,2.1,7.7,5.7,7.7s5.9-2.6,5.9-7.6v-16.9h2.6v16.9c0,7-3.2,10.9-8.5,10.9ZM517.9,891.1v-27.1h9c4.2,0,6.9,3.3,6.9,7.8s-1.3,5.5-3.7,6.8c2.7,2,1.8,6.6,4.2,12.5h-3c-1.7-4-1.3-11.7-5.2-11.7h-5.7v11.7h-2.6ZM520.5,876.2h6.3c2.6,0,4.4-1.9,4.4-4.6s-1.7-4.4-4.4-4.4h-6.3v9ZM535.7,891.1l8.5-27.1h3.1l8.4,27.1h-2.8l-2.4-7.8h-9.5l-2.4,7.8h-2.8ZM541.9,880.1h7.5l-3.7-12.2-3.8,12.2ZM563.5,891.1v-23.9h-7.4v-3.2h17.5v3.2h-7.5v23.9h-2.6ZM585.5,891.7c-6.2,0-10.7-6-10.7-14.1s4.2-14.3,10.7-14.3,10.6,6.3,10.6,14.3-4.4,14.1-10.6,14.1ZM585.5,888.5c4.5,0,7.8-4.5,7.8-10.9s-3-11-7.8-11-7.8,4.8-7.8,11,3.3,10.9,7.8,10.9ZM599,891.1v-27.1h9c4.2,0,6.9,3.3,6.9,7.8s-1.3,5.5-3.7,6.8c2.7,2,1.8,6.6,4.2,12.5h-3c-1.7-4-1.3-11.7-5.2-11.7h-5.7v11.7h-2.6ZM601.6,876.2h6.3c2.6,0,4.4-1.9,4.4-4.6s-1.7-4.4-4.4-4.4h-6.3v9ZM626.6,891.7c-4.8,0-7.7-3-8.5-8.4l2.6-.6c.5,3.9,2.5,5.8,5.7,5.8s5.3-1.9,5.3-4.5-1.7-4-5.8-5.5c-5-1.8-7.2-4.5-7.2-8.2s2.8-6.9,7.3-6.9,7.1,2.5,8,7.3l-2.7.7c-.6-3.2-2.3-4.9-5.4-4.9s-4.6,1.4-4.6,3.7,1.5,3.6,5.6,5.2c5.4,2.1,7.5,4.7,7.5,8.5s-3.1,7.8-7.9,7.8Z"/></g><g style="clip-path:url(#e);"><path d="M117.3,953.2h477.4c45.2,0,81.8-36.6,81.8-81.8h0c0-45.2-36.6-81.8-81.8-81.8H117.3c-45.2,0-81.8,36.6-81.8,81.8s36.6,81.8,81.8,81.8Z" style="fill:#fff;"/><path d="M594.6,953.2H117.3c-45.2,0-81.8-36.6-81.8-81.8h0c0-45.2,36.6-81.8,81.8-81.8h477.4c45.2,0,81.8,36.6,81.8,81.8h0c0,45.2-36.6,81.8-81.8,81.8Z" style="fill:none; stroke:#fff; stroke-width:2px;"/><g style="mask:url(#f);"><path d="M117.6,953.3h477.4c45.2,0,81.8-36.6,81.8-81.8h0c0-45.2-36.6-81.8-81.8-81.8H117.6c-45.2,0-81.8,36.6-81.8,81.8s36.6,81.8,81.8,81.8Z" style="fill:#fff;"/><path d="M595,953.3H117.6c-45.2,0-81.8-36.6-81.8-81.8h0c0-45.2,36.6-81.8,81.8-81.8h477.4c45.2,0,81.8,36.6,81.8,81.8h0c0,45.2-36.6,81.8-81.8,81.8Z" style="fill:none; stroke:#00e526; stroke-width:2px;"/></g><path d="M551.5,786.6c.4,0,3.9.5,6.7.9,1.1.2,2,0,5.1,0,2.9,0,8.4,0,11.2,0,2.8,0,2.9.3,2.9.5,0,.2.1.4.4.6,1.6,1,5.3.7,7,.4.6-.1,1.5-.4,2.5-.6.4,0,.7,0,0-1-3.7-5.3-4.6-6-4.9-7-.1-.3-.2-.7-.3-1.1,0-.4-.2-.7.2,0,2.2,4.9,3.4,6.6,4.3,7.4,2.2,1.9,6.5,3.3,6.4,3.3-3-1.7-4.8-3.2-4.6-3.1.5.2,1.6.9,2,1.2.9.6-3-1.2-3.5-1.5-.2,0,1.2.6,1.7.5,2.4,0-3.5-3.6-4.2-4-.2-.1-.5-2.4-1.4-5.7-.4-1.5-.4-1.8-.4-6.1,0-3,1.5-5.2,2.1-6.2.7-1.4,1-2.9,1.3-3.6.8-1.7,3.9-3.3,7-5.5,2.4-1.6,3.3-1.7,4.4-2.4,2-1.2,2.9-1.3,3.4-1.3.6,0-1.5.2-3.1.6-.2,0,0,.2.2.3,1.6.5,3.4,0,3.7,0,.4-.2-1,0-2.5.2-6.5,1-7.7,1.1-8.5,1.2-.4,0-.9.1-1.3.3-.2,0-.4.2.2.2.6,0,1.9,0,2.3,0,.9,0-2.7.8-4.8,1.6-1.6.6-2.3,1.1-4.4,1.9-2.3.8-3.7,2.1-4.3,2.6-.6.6-1.2,1.9-1.8,2.8-.5.7-1,1.3-1.4,2-.4.8-.2,1.4-.5,1.7-.7.8-2.3,1.8-3.8,3.8-.8,1.1-1,2-1.6,2.8-.7.9-1.5,2.5-2.8,4-1.2,1.3-2,2.1-2.7,2.6-.9.6-2.8,2.4-4.5,3.6-.9.7-1.7,1-2.7,1.5-1,.5-2,.8-2.9,1.4-1.3.9-2.4,1.7-3.3,2.2-.2.1-.4.2-.4.2.5-.9,2.9-1.3,7.5-1.5.9,0,1.1,0,.8.1-3.1.4-6,.7-6.8.6-.7,0,1.4-1.1,5-2.4,2.6-.7,4.5-1.3,5.5-1.6.5-.2,1-.4,1.6-.8" style="fill:none; stroke:#fff; stroke-linecap:round; stroke-width:2px;"/><path d="M582.2,787.7c0-.5-.7-1.8-1.9-3.2-.2-.3-.3-.5-.2-.6,1.1-.9,3.4,2.3,4.2,3.4,0,.1-.3.2-.6.3-2.2.2-4.8-3.6-6.2-4-1-.3-3.5,1.5-7.2,3.8-3,1.9-5.5,1.7-6.6,1.7-.4,0-.6-.1-.8-.3-.3-.3-.5-.7-.5-1.2-.1-.8,1-1.2,2.2-2.3,2.3-2.3,4.5-2.9,6.3-4.1,1.2-.8,2.3-2.3,3.4-3.4,1.1-1.1,1.9-2.5,2.2-2.5,1.6,0,1,3.3,1.4,4,.1.2.4,0,.6-.2.6-.9.4-5.4.6-8.4,0-1.3.3-2.3.5-3.1.1-.5.3-.9.3-1,0-.5-.5.9-1.3,2.2-2,3.2-3.7,5.5-4.4,6.3-1.6,1.7-2.6,3.3-4.4,5.5-.4.5-.7.8-.9,1-.2.2-.4.4-.8.9" style="fill:none; stroke:#fff; stroke-linecap:round; stroke-width:7px;"/><path d="M583.7,761.2s-.2.3-.8,1.1c-.4.5-1,1.4-1.5,1.9-.5.6-.7.8-1.1,1.1" style="fill:none; stroke:#fff; stroke-linecap:round; stroke-width:7px;"/><path d="M583.6,760.4s.4-.2,1.1-.6c.7-.4,1.3-.7,1.7-.9.2,0,.5-.2,1.1-.5" style="fill:none; stroke:#fff; stroke-linecap:round; stroke-width:7px;"/><path d="M605.5,790.4c-5.5-.7-6.8-1.3-12.5-3.4-5.5-2-7.8-6.7-8.8-11.4-1.1-5,2.9-13.6,6.6-16.2,5.9-4,14.1-6.9,20.2-7.8,3.1-.4,6.1-.4,9.3-.5" style="fill:none; stroke:#00e526; stroke-linecap:round; stroke-width:2px;"/><path d="M530.2,789.6c4,0,15.5.6,24.6-4.6,3-1.7,8.5-6.1,12.3-10.7,4.6-5.5,8.5-11.9,12.2-15.1,4-3.5,7.4-4.3,12.1-5.9,7.6-2.6,26-2.2,28.2-2.6" style="fill:none; stroke:#00e526; stroke-linecap:round; stroke-width:2px;"/></g><g style="clip-path:url(#h);"><path d="M1528.9,138.6h-477.4c-45.2,0-81.8,36.6-81.8,81.8h0c0,45.2,36.6,81.8,81.8,81.8h477.4c45.2,0,81.8-36.6,81.8-81.8s-36.6-81.8-81.8-81.8Z" style="fill:#fff;"/><path d="M1051.5,138.6h477.4c45.2,0,81.8,36.6,81.8,81.8h0c0,45.2-36.6,81.8-81.8,81.8h-477.4c-45.2,0-81.8-36.6-81.8-81.8h0c0-45.2,36.6-81.8,81.8-81.8Z" style="fill:none; stroke:#fff; stroke-width:2px;"/><g style="mask:url(#i);"><path d="M1528.6,138.5h-477.4c-45.2,0-81.8,36.6-81.8,81.8h0c0,45.2,36.6,81.8,81.8,81.8h477.4c45.2,0,81.8-36.6,81.8-81.8s-36.6-81.8-81.8-81.8Z" style="fill:#fff;"/><path d="M1051.2,138.5h477.4c45.2,0,81.8,36.6,81.8,81.8h0c0,45.2-36.6,81.8-81.8,81.8h-477.4c-45.2,0-81.8-36.6-81.8-81.8h0c0-45.2,36.6-81.8,81.8-81.8Z" style="fill:none; stroke:#00e526; stroke-width:2px;"/></g><path d="M1094.7,305.2c-.4,0-3.9-.5-6.7-.9-1.1-.2-2,0-5.1,0-2.9,0-8.4,0-11.2,0-2.8,0-2.9-.3-2.9-.5,0-.2-.1-.4-.4-.6-1.6-1-5.3-.7-7-.4-.6.1-1.5.4-2.5.6-.4,0-.7,0,0,1,3.7,5.3,4.6,6,4.9,7,0,.3.2.7.2,1.1,0,.4.2.7-.2,0-2.2-4.8-3.4-6.6-4.3-7.4-2.2-1.9-6.5-3.3-6.4-3.3,3,1.7,4.8,3.2,4.6,3.1-.5-.2-1.6-.9-2.1-1.2-.9-.6,3,1.2,3.5,1.5.2,0-1.2-.6-1.7-.5-2.4,0,3.5,3.6,4.2,4,.2.1.5,2.4,1.4,5.7.4,1.5.4,1.8.4,6.1,0,3-1.6,5.2-2.1,6.2-.7,1.4-1,2.9-1.3,3.6-.8,1.7-3.9,3.3-7.1,5.5-2.4,1.6-3.3,1.7-4.4,2.4-2,1.2-2.9,1.3-3.4,1.3-.6,0,1.5-.2,3.1-.6.2,0,0-.2-.2-.3-1.6-.5-3.4,0-3.7,0-.4.2,1,0,2.5-.2,6.5-1,7.7-1.1,8.5-1.2.4,0,.9-.1,1.2-.3.2,0,.4-.2-.2-.2-.6,0-1.9,0-2.3,0-.9,0,2.7-.8,4.8-1.6,1.6-.6,2.3-1.1,4.4-1.9,2.3-.8,3.7-2.1,4.3-2.6.6-.6,1.2-1.9,1.8-2.8.5-.7,1-1.3,1.4-2,.4-.8.2-1.4.5-1.7.7-.8,2.3-1.8,3.8-3.8.8-1.1,1-2,1.6-2.8.7-.9,1.5-2.4,2.8-4,1.2-1.3,2-2.1,2.7-2.6.9-.6,2.8-2.4,4.5-3.6.8-.7,1.7-1,2.7-1.5,1-.5,2-.8,2.9-1.4,1.3-.9,2.4-1.7,3.3-2.2.2-.1.4-.2.4-.2-.5.9-2.9,1.3-7.5,1.5-.9,0-1.1,0-.8-.1,3.1-.4,6-.7,6.8-.6.7,0-1.4,1.1-5,2.4-2.6.7-4.5,1.3-5.5,1.6-.5.2-1,.4-1.5.8" style="fill:none; stroke:#fff; stroke-linecap:round; stroke-width:2px;"/><path d="M1063.9,304.1c0,.5.7,1.8,1.9,3.2.2.3.3.5.2.6-1.1.9-3.4-2.3-4.2-3.4,0-.1.3-.2.6-.3,2.2-.2,4.8,3.6,6.2,4,1,.3,3.5-1.5,7.2-3.8,3-1.9,5.5-1.7,6.6-1.7.4,0,.6.1.8.3.3.3.5.7.5,1.2.1.8-1,1.2-2.2,2.3-2.3,2.3-4.5,2.9-6.3,4.1-1.2.8-2.3,2.3-3.4,3.4-1.1,1.1-1.9,2.5-2.2,2.5-1.6,0-1-3.3-1.5-4-.2-.2-.4,0-.6.2-.6.9-.4,5.4-.6,8.4,0,1.3-.3,2.3-.5,3.1-.1.5-.3.9-.3,1,0,.5.5-.9,1.3-2.2,2-3.2,3.8-5.5,4.4-6.3,1.6-1.7,2.6-3.3,4.4-5.5.4-.5.7-.8.9-1,.2-.2.4-.4.8-.9" style="fill:none; stroke:#fff; stroke-linecap:round; stroke-width:7px;"/><path d="M1062.5,330.6s.2-.3.8-1.1c.4-.5,1-1.4,1.5-1.9.5-.6.8-.9,1.1-1.1" style="fill:none; stroke:#fff; stroke-linecap:round; stroke-width:7px;"/><path d="M1062.5,331.4s-.4.2-1.1.6c-.7.4-1.3.7-1.8.9-.2.1-.5.2-1.1.5" style="fill:none; stroke:#fff; stroke-linecap:round; stroke-width:7px;"/><path d="M1040.7,301.4c5.5.7,6.8,1.3,12.6,3.4,5.5,2,7.8,6.7,8.8,11.4,1.1,5-2.9,13.6-6.6,16.2-5.9,4-14.2,6.9-20.2,7.8-3,.4-6.1.4-9.3.5" style="fill:none; stroke:#00e526; stroke-linecap:round; stroke-width:2px;"/><path d="M1115.9,302.2c-4,0-15.5-.6-24.6,4.6-3,1.7-8.5,6.1-12.3,10.7-4.6,5.5-8.5,11.9-12.2,15.1-4,3.5-7.4,4.3-12,5.9-7.7,2.6-26,2.2-28.2,2.6" style="fill:none; stroke:#00e526; stroke-linecap:round; stroke-width:2px;"/><path d="M1022.4,212.6c-6.2,0-10.7-5.7-10.7-13.9s4.7-14.5,11-14.5,7.8,2.9,9.5,7.7l-2.7.8c-1.3-3.3-3.8-5.2-6.8-5.2-4.8,0-8.1,4.7-8.1,11.1s3.3,10.7,7.8,10.7,6.1-2.4,7.4-6.4l2.6.7c-1.7,5.7-5.2,8.9-9.9,8.9ZM1033.7,211.9l8.5-27.1h3.1l8.4,27.1h-2.8l-2.4-7.8h-9.5l-2.4,7.8h-2.8ZM1040,201h7.5l-3.7-12.2-3.8,12.2ZM1055.6,211.9v-27.1h2.6v23.8h12.5v3.2h-15.1ZM1073.2,211.9v-27.1h2.6v23.8h12.5v3.2h-15.1ZM1091.2,211.9v-27.1h2.7v27.1h-2.7ZM1097.8,211.9v-27.1h2.8l11.4,21.4v-21.4h2.6v27.1h-2.7l-11.5-21.5v21.5h-2.6ZM1127.1,212.6c-5.7,0-9.6-5.7-9.6-13.9s3.7-14.5,10.1-14.5,7.3,3,8.8,7.8l-2.6.7c-1.2-3.6-3.5-5.3-6.2-5.3-4.7,0-7.4,4.9-7.4,11.2s3.2,10.7,7,10.7,6.6-3.6,6.7-8.6h-6.1v-3.2h8.7v14.4h-2.3l-.2-3.5c-1.4,2.6-3.9,4.2-6.9,4.2ZM1145.6,211.9l8.5-27.1h3.1l8.4,27.1h-2.8l-2.4-7.8h-9.5l-2.4,7.8h-2.8ZM1151.8,201h7.5l-3.7-12.2-3.8,12.2ZM1167.5,211.9v-27.1h2.6v23.8h12.5v3.2h-15.1ZM1185.1,211.9v-27.1h2.6v23.8h12.5v3.2h-15.1ZM1209.9,211.9v-27.1h8.8c4.2,0,7,3.3,7,7.7s-2.8,7.8-7,7.8h-6.2v11.6h-2.6ZM1212.5,197.2h6.2c2.6,0,4.3-1.8,4.3-4.6s-1.7-4.5-4.3-4.5h-6.2v9.1ZM1228.4,211.9v-27.1h2.6v11.7h11.8v-11.7h2.6v27.1h-2.6v-12.2h-11.8v12.2h-2.6ZM1258.9,212.6c-6.2,0-10.7-6-10.7-14.1s4.2-14.3,10.7-14.3,10.6,6.3,10.6,14.3-4.4,14.1-10.6,14.1ZM1258.9,209.4c4.5,0,7.8-4.5,7.8-10.9s-3-11-7.8-11-7.8,4.8-7.8,11,3.3,10.9,7.8,10.9ZM1278.3,211.9v-23.9h-7.4v-3.2h17.5v3.2h-7.5v23.9h-2.6ZM1300.4,212.6c-6.2,0-10.7-6-10.7-14.1s4.2-14.3,10.7-14.3,10.6,6.3,10.6,14.3-4.4,14.1-10.6,14.1ZM1300.4,209.4c4.5,0,7.8-4.5,7.8-10.9s-3-11-7.8-11-7.8,4.8-7.8,11,3.3,10.9,7.8,10.9ZM1322.7,212.6c-5.7,0-9.6-5.7-9.6-13.9s3.7-14.5,10.1-14.5,7.3,3,8.8,7.8l-2.6.7c-1.1-3.6-3.5-5.3-6.2-5.3-4.7,0-7.4,4.9-7.4,11.2s3.2,10.7,7,10.7,6.6-3.6,6.7-8.6h-6.1v-3.2h8.7v14.4h-2.3l-.2-3.5c-1.4,2.6-3.9,4.2-6.9,4.2ZM1335.7,211.9v-27.1h9c4.2,0,6.9,3.3,6.9,7.8s-1.3,5.5-3.7,6.8c2.7,2,1.8,6.6,4.2,12.5h-2.9c-1.7-4-1.3-11.7-5.2-11.7h-5.7v11.7h-2.6ZM1338.3,197.1h6.3c2.6,0,4.3-1.9,4.3-4.6s-1.7-4.4-4.3-4.4h-6.3v9ZM1353.5,211.9l8.5-27.1h3.1l8.4,27.1h-2.8l-2.4-7.8h-9.5l-2.4,7.8h-2.8ZM1359.7,201h7.5l-3.7-12.2-3.8,12.2ZM1375.4,211.9v-27.1h8.8c4.2,0,6.9,3.3,6.9,7.7s-2.8,7.8-6.9,7.8h-6.2v11.6h-2.6ZM1378,197.2h6.2c2.6,0,4.3-1.8,4.3-4.6s-1.7-4.5-4.3-4.5h-6.2v9.1ZM1393.8,211.9v-27.1h2.6v11.7h11.8v-11.7h2.6v27.1h-2.6v-12.2h-11.8v12.2h-2.6ZM1414.5,211.9v-27.1h15.1v3.2h-12.5v8.4h11.6v3.2h-11.6v9.1h12.8v3.2h-15.4ZM1432.8,211.9v-27.1h9c4.2,0,6.9,3.3,6.9,7.8s-1.3,5.5-3.7,6.8c2.7,2,1.8,6.6,4.2,12.5h-2.9c-1.7-4-1.3-11.7-5.2-11.7h-5.7v11.7h-2.6ZM1435.4,197.1h6.3c2.6,0,4.4-1.9,4.4-4.6s-1.7-4.4-4.4-4.4h-6.3v9ZM1460.4,212.6c-4.8,0-7.7-3-8.5-8.4l2.6-.6c.5,3.9,2.5,5.8,5.7,5.8s5.3-1.9,5.3-4.5-1.7-4-5.8-5.5c-5-1.8-7.2-4.5-7.2-8.2s2.8-6.9,7.3-6.9,7.1,2.5,8,7.3l-2.7.7c-.6-3.2-2.3-4.9-5.4-4.9s-4.6,1.4-4.6,3.7,1.5,3.6,5.6,5.2c5.4,2.1,7.5,4.7,7.5,8.5s-3.1,7.8-7.9,7.8ZM1473.7,217.2l-.9-1.5c1.1-.8,1.9-1.9,2-3.4-1.3.5-2.5-.8-2.5-2.3s.9-2.4,2-2.4,2.2.6,2.2,3.6-.9,4.4-2.8,6ZM1012.5,254.9v-27.1h8.8c4.2,0,6.9,3.3,6.9,7.7s-2.8,7.8-6.9,7.8h-6.2v11.6h-2.6ZM1015.1,240.2h6.2c2.5,0,4.3-1.8,4.3-4.6s-1.7-4.5-4.3-4.5h-6.2v9.1ZM1030.9,254.9v-27.1h2.6v11.7h11.8v-11.7h2.6v27.1h-2.6v-12.2h-11.8v12.2h-2.6ZM1061.5,255.6c-6.2,0-10.7-6-10.7-14.1s4.2-14.3,10.7-14.3,10.6,6.3,10.6,14.3-4.4,14.1-10.6,14.1ZM1061.5,252.4c4.5,0,7.8-4.5,7.8-10.9s-3-11-7.8-11-7.8,4.8-7.8,11,3.3,10.9,7.8,10.9ZM1080.9,254.9v-23.9h-7.4v-3.2h17.5v3.2h-7.4v23.9h-2.6ZM1102.9,255.6c-6.2,0-10.7-6-10.7-14.1s4.2-14.3,10.7-14.3,10.6,6.3,10.6,14.3-4.4,14.1-10.6,14.1ZM1102.9,252.4c4.5,0,7.8-4.5,7.8-10.9s-3-11-7.8-11-7.8,4.8-7.8,11,3.3,10.9,7.8,10.9ZM1116.4,254.9v-27.1h8.8c4.2,0,6.6,2.5,6.6,6.8s-.9,4.8-2.7,6c2.4,1,3.7,3.4,3.7,6.5,0,4.7-3,7.8-7.5,7.8h-8.9ZM1119,239.1h5.4c2.9,0,4.8-1.7,4.8-4.3s-1.5-3.7-4.2-3.7h-6.1v8.1ZM1119,251.7h6.1c3.1,0,5-1.7,5-4.6s-2-4.8-5.3-4.8h-5.8v9.4ZM1134.1,254.9l8.5-27.1h3.1l8.4,27.1h-2.8l-2.4-7.8h-9.5l-2.4,7.8h-2.8ZM1140.4,244h7.5l-3.7-12.2-3.8,12.2ZM1164,255.6c-4.8,0-7.7-3-8.5-8.4l2.6-.6c.5,3.9,2.5,5.8,5.7,5.8s5.3-1.9,5.3-4.5-1.7-4-5.8-5.5c-5-1.8-7.2-4.5-7.2-8.2s2.8-6.9,7.3-6.9,7.1,2.5,8,7.3l-2.7.7c-.6-3.2-2.3-4.9-5.4-4.9s-4.6,1.4-4.6,3.7,1.5,3.6,5.6,5.2c5.4,2.1,7.4,4.7,7.4,8.5s-3.1,7.8-7.9,7.8ZM1175.1,254.9v-27.1h15.1v3.2h-12.5v8.4h11.6v3.2h-11.6v9.1h12.8v3.2h-15.4ZM1193.4,254.9v-27.1h7.6c6.7,0,10.3,5.2,10.3,13.4s-3.6,13.7-10.3,13.7h-7.6ZM1196,251.7h4.6c5.2,0,8.1-3.6,8.1-10.5s-2.9-10.2-8.1-10.2h-4.6v20.7ZM1219.9,254.9l8.5-27.1h3.1l8.4,27.1h-2.8l-2.4-7.8h-9.5l-2.4,7.8h-2.8ZM1226.1,244h7.5l-3.7-12.2-3.8,12.2ZM1241.8,254.9v-27.1h9c4.2,0,7,3.3,7,7.8s-1.3,5.5-3.7,6.8c2.7,2,1.8,6.6,4.2,12.5h-3c-1.7-4-1.3-11.7-5.2-11.7h-5.7v11.7h-2.6ZM1244.4,240.1h6.3c2.6,0,4.3-1.9,4.3-4.6s-1.7-4.4-4.3-4.4h-6.3v9ZM1267.2,254.9v-23.9h-7.4v-3.2h17.5v3.2h-7.5v23.9h-2.6ZM1279.7,254.9v-27.1h2.7v27.1h-2.7ZM1294.4,255.6c-4.8,0-7.7-3-8.5-8.4l2.6-.6c.5,3.9,2.5,5.8,5.7,5.8s5.3-1.9,5.3-4.5-1.7-4-5.8-5.5c-5-1.8-7.2-4.5-7.2-8.2s2.8-6.9,7.3-6.9,7.1,2.5,8,7.3l-2.7.7c-.6-3.2-2.3-4.9-5.4-4.9s-4.6,1.4-4.6,3.7,1.5,3.6,5.6,5.2c5.4,2.1,7.5,4.7,7.5,8.5s-3.1,7.8-7.9,7.8ZM1311.3,254.9v-23.9h-7.4v-3.2h17.5v3.2h-7.5v23.9h-2.6ZM1325.8,260.2l-.9-1.5c1.1-.8,1.9-1.9,2-3.4-1.3.5-2.5-.8-2.5-2.3s.9-2.4,2-2.4,2.2.6,2.2,3.6-.9,4.4-2.8,6ZM1338.6,254.9l8.5-27.1h3.1l8.4,27.1h-2.8l-2.4-7.8h-9.5l-2.4,7.8h-2.8ZM1344.8,244h7.5l-3.7-12.2-3.8,12.2ZM1360.5,254.9v-27.1h2.8l11.4,21.4v-21.4h2.6v27.1h-2.7l-11.5-21.5v21.5h-2.6ZM1380.9,254.9v-27.1h7.6c6.7,0,10.3,5.2,10.3,13.4s-3.6,13.7-10.3,13.7h-7.6ZM1383.5,251.7h4.6c5.2,0,8.1-3.6,8.1-10.5s-2.9-10.2-8.1-10.2h-4.6v20.7ZM1419,255.6c-6.2,0-10.7-5.7-10.7-13.9s4.7-14.5,11-14.5,7.8,2.9,9.5,7.7l-2.7.8c-1.3-3.3-3.8-5.2-6.8-5.2-4.8,0-8.1,4.7-8.1,11.1s3.3,10.7,7.9,10.7,6.1-2.4,7.4-6.4l2.6.7c-1.7,5.7-5.2,8.9-9.9,8.9ZM1440.4,255.6c-5.2,0-8.4-3.8-8.4-10.9v-16.8h2.6v16.8c0,5,2.1,7.7,5.7,7.7s5.9-2.6,5.9-7.6v-16.9h2.6v16.9c0,7-3.2,10.9-8.5,10.9ZM1452.5,254.9v-27.1h9c4.2,0,6.9,3.3,6.9,7.8s-1.3,5.5-3.7,6.8c2.7,2,1.8,6.6,4.2,12.5h-3c-1.7-4-1.3-11.7-5.2-11.7h-5.7v11.7h-2.6ZM1455.1,240.1h6.3c2.6,0,4.4-1.9,4.4-4.6s-1.7-4.4-4.4-4.4h-6.3v9ZM1470.3,254.9l8.5-27.1h3.1l8.4,27.1h-2.8l-2.4-7.8h-9.5l-2.4,7.8h-2.8ZM1476.5,244h7.5l-3.7-12.2-3.8,12.2ZM1498.1,254.9v-23.9h-7.4v-3.2h17.5v3.2h-7.5v23.9h-2.6ZM1520.1,255.6c-6.2,0-10.6-6-10.6-14.1s4.2-14.3,10.6-14.3,10.6,6.3,10.6,14.3-4.4,14.1-10.6,14.1ZM1520.1,252.4c4.5,0,7.8-4.5,7.8-10.9s-3-11-7.8-11-7.8,4.8-7.8,11,3.3,10.9,7.8,10.9ZM1533.6,254.9v-27.1h9c4.2,0,6.9,3.3,6.9,7.8s-1.3,5.5-3.7,6.8c2.7,2,1.8,6.6,4.2,12.5h-3c-1.7-4-1.3-11.7-5.2-11.7h-5.7v11.7h-2.6ZM1536.2,240.1h6.3c2.6,0,4.3-1.9,4.3-4.6s-1.7-4.4-4.3-4.4h-6.3v9ZM1561.2,255.6c-4.8,0-7.7-3-8.5-8.4l2.6-.6c.5,3.9,2.5,5.8,5.7,5.8s5.3-1.9,5.3-4.5-1.7-4-5.8-5.5c-5-1.8-7.2-4.5-7.2-8.2s2.8-6.9,7.3-6.9,7.1,2.5,8,7.3l-2.7.7c-.6-3.2-2.3-4.9-5.4-4.9s-4.6,1.4-4.6,3.7,1.5,3.6,5.6,5.2c5.4,2.1,7.4,4.7,7.4,8.5s-3.1,7.8-7.9,7.8Z"/></g><path d="M216.2,277.8h120.9c37.6,0,47.5,20.1,47.5,40.5v2.6c0,22.3-13.6,32.3-22,35,11.4,3.8,29.6,14.4,29.6,45.8v2.9c0,28.1-12.3,51.5-54.2,51.5h-121.8v-178.2ZM265.2,318.3v25.2h57c10.1,0,13.2-5.7,13.2-12.5v-.5c0-6.9-3-12.2-13.2-12.2h-57ZM265.2,383.5v30.7h60c12.7,0,15.1-8.4,15.1-15.4v-.7c0-7.7-2.6-14.6-15.1-14.6h-60Z" style="stroke:#fff; stroke-miterlimit:10;"/><path d="M450.6,456.1c-59.4,0-70.4-39.1-70.4-66.9v-3.8c0-27.3,10.8-65.4,70.4-65.4h13.2c61.7,0,70.2,38.4,70.2,65.2v4.4c0,27.6-7.8,66.6-70.4,66.6h-13ZM456.9,356.3c-23.1,0-29.1,16-29.1,30.2v.9c0,14.2,5.8,31.9,29.1,31.9s28.9-18.4,28.9-31.9v-.9c0-14.2-6-30.2-28.9-30.2Z" style="stroke:#fff; stroke-miterlimit:10;"/><path d="M533.5,416.3h21.2c3.5,0,4.3-1.9,4.3-4.1v-.3c0-2.6-1.3-6.2-3.9-13l-43.8-116.9h50.1l25.9,82.9,24-82.9h46.6l-44.7,134.4c-9.1,27.1-19,39.6-35.8,39.6h-43.6v-39.7h-.2Z" style="stroke:#fff; stroke-miterlimit:10;"/><path d="M704.5,456.1c-59.6,0-68.4-39.7-68.4-66.6v-4.4c0-26.6,8.6-65.2,68.2-65.2h10.8c62,0,68.4,39.7,68.4,57.5v.7h-47.9c-.4-4.8-3.7-22.3-25.7-22.3h-.6c-20.1,0-25.3,15.4-25.3,29.9v1.2c0,15.6,5.6,32.6,25.3,32.6h.6c22,0,25.3-18.3,25.7-23.3h47.9v.5c0,17.5-5,59.2-68.7,59.2h-10.4Z" style="stroke:#fff; stroke-miterlimit:10;"/><path d="M842.7,456.1c-59.4,0-70.4-39.1-70.4-66.9v-3.8c0-27.3,10.8-65.4,70.4-65.4h13.2c61.7,0,70.2,38.4,70.2,65.2v4.4c0,27.6-7.8,66.6-70.4,66.6h-13ZM848.9,356.3c-23.1,0-29.1,16-29.1,30.2v.9c0,14.2,5.8,31.9,29.1,31.9s28.9-18.4,28.9-31.9v-.9c0-14.2-6-30.2-28.9-30.2Z" style="stroke:#fff; stroke-miterlimit:10;"/><path d="M954.3,456.1c-16,0-24.6-12-24.6-36.7v-52.7h-17.7v-39.6h17.7v-37.6h46.6v37.6h17.7v39.6h-17.7v38.1c0,7.9,1.1,11.3,7.8,11.3h9.9v40h-39.7Z" style="stroke:#fff; stroke-miterlimit:10;"/><path d="M1025.7,456.1c-16,0-24.6-12-24.6-36.7v-52.7h-17.7v-39.6h17.7v-37.6h46.6v37.6h17.7v39.6h-17.7v38.1c0,7.9,1.1,11.3,7.8,11.3h9.9v40h-39.7Z" style="stroke:#fff; stroke-miterlimit:10;"/><path d="M83.9,723.9c-59.2,0-65.4-49.6-65.4-78.4v-3h45c.4,11.8,3.4,31.2,26.8,31.2h1.3c22.9,0,26.3-10.1,26.3-20.8v-.3c0-11.2-2.7-18.4-25.2-19.9l-19.8-1.1c-41.4-2.4-52.6-32.4-52.6-66.4v-2.6c0-35.9,11.7-67.4,61.6-67.4h12.8c52.9,0,65.2,34.8,65.2,69.8v2.4h-44.5c-.4-8-2.7-23.4-25.9-23.4h-1.4c-21.4,0-23.6,7.7-23.6,16.3v.3c0,9,3.2,16.1,23.4,16.9l19.3.9c40.7,2.4,56.5,21.9,56.5,66.4v4.1c0,37.1-10.1,75.2-66.4,75.2h-13.1l-.2-.2Z" style="fill:red; stroke:#fff; stroke-miterlimit:10;"/><path d="M211.8,723.9c-49.7,0-57.1-49.2-57.1-82.5v-5.4c0-32.9,7.2-80.8,56.9-80.8h9c51.7,0,57.1,49.2,57.1,71.3v.9h-40c-.4-6-3.1-27.7-21.4-27.7h-.5c-16.7,0-21.1,19-21.1,37.1v1.5c0,19.3,4.7,40.4,21.1,40.4h.5c18.4,0,21.1-22.6,21.4-28.8h40v.6c0,21.7-4.1,73.3-57.3,73.3h-8.6Z" style="fill:red; stroke:#fff; stroke-miterlimit:10;"/><path d="M326.8,723.9c-49.5,0-58.7-48.4-58.7-82.9v-4.7c0-33.9,9-81,58.7-81h11c51.5,0,58.5,47.5,58.5,80.8v5.4c0,34.2-6.5,82.5-58.7,82.5h-10.8ZM332.2,600.3c-19.3,0-24.3,19.9-24.3,37.4v1.1c0,17.6,4.9,39.5,24.3,39.5s24.1-22.8,24.1-39.5v-1.1c0-17.6-5-37.4-24.1-37.4Z" style="fill:red; stroke:#fff; stroke-miterlimit:10;"/><path d="M420.1,723.9c-13.3,0-20.5-14.8-20.5-45.4v-65.3h-14.8v-49h14.8v-46.6h38.9v46.6h14.8v49h-14.8v47.2c0,9.8.9,14,6.5,14h8.3v49.6h-33.1Z" style="fill:red; stroke:#fff; stroke-miterlimit:10;"/><path d="M487.2,550.7h-39.2v-47.7h39.2v47.9h0ZM487.2,723.9h-39.2v-159.7h39.2v159.7Z" style="fill:red; stroke:#fff; stroke-miterlimit:10;"/><path d="M518.2,723.9h-1.6c-25.9,0-35.8-25.2-35.8-51.4v-3.6c0-26.7,8.3-42.5,31.3-46.4l37.3-6.9c3.2-.9,4.3-3.2,4.3-7.7s-1.6-12.2-16.9-12.2h-.5c-16.6,0-16.9,11.2-17.5,16.3h-36.4v-1.8c0-21.3,3.2-53.5,49.7-53.5h8.1c48.4,0,51.7,29.7,51.7,51.4v59.1c0,4.5.5,6.9,3.2,6.9h4.1v46.6h-32.6c-6.8,0-11.3-7.5-12.6-21.3-3.8,7.7-13.7,24.3-36.4,24.3h.5ZM553.7,645.5l-25.9,9.5c-6.8,2.4-9.5,5.6-9.5,13.7v.3c0,7.5,2.5,16.3,12.2,16.3,14.4,0,23.2-16.3,23.2-32.9v-6.8h0Z" style="fill:red; stroke:#fff; stroke-miterlimit:10;"/><path d="M631.1,500v82.9c3.2-4.7,14.8-24.7,37.6-24.7h3.1c35.1,0,46.1,37.8,46.1,79v6.2c0,41-12.2,80.4-47.5,80.4h-2.9c-21.6,0-33.5-18.7-37.1-24.1-1.1,5.6-1.6,14.2-2,21.1h-36.4v-220.8h39.2-.2ZM631.1,641.3c0,18.1,7.7,38,23.4,38h.9c17.5,0,22.7-20.2,22.7-38v-1.1c0-19-5.2-38-22.7-38h-.9c-16.2,0-23.4,19-23.4,38v1.1Z" style="fill:red; stroke:#fff; stroke-miterlimit:10;"/><path d="M745.7,723.9h-1.6c-25.9,0-35.8-25.2-35.8-51.4v-3.6c0-26.7,8.3-42.5,31.3-46.4l37.3-6.9c3.2-.9,4.3-3.2,4.3-7.7s-1.6-12.2-16.9-12.2h-.5c-16.6,0-16.9,11.2-17.5,16.3h-36.4v-1.8c0-21.3,3.2-53.5,49.7-53.5h8.1c48.4,0,51.7,29.7,51.7,51.4v59.1c0,4.5.5,6.9,3.2,6.9h4.1v46.6h-32.6c-6.8,0-11.3-7.5-12.6-21.3-3.8,7.7-13.7,24.3-36.4,24.3h.5ZM781.4,645.5l-25.9,9.5c-6.8,2.4-9.5,5.6-9.5,13.7v.3c0,7.5,2.5,16.3,12.2,16.3,14.4,0,23.2-16.3,23.2-32.9v-6.8h0Z" style="fill:red; stroke:#fff; stroke-miterlimit:10;"/><path d="M819.6,564.1h38.9v28.2c4-7.5,15.8-31.8,40-31.8h.9c29,0,38,35.3,38,60.6v102.7h-39.2v-76.3c0-21.3-5.4-36.8-18.7-36.8s-20.5,16.3-20.5,38.9v74.2h-39.2v-159.7Z" style="fill:red; stroke:#fff; stroke-miterlimit:10;"/><path d="M934.4,723.9v-220.9h39.2v123.5l26.5-62.3h42.1l-31.5,70.7,36.2,89.1h-44.5l-28.8-71.8v71.8h-39.2Z" style="fill:red; stroke:#fff; stroke-miterlimit:10;"/><path d="M1172.2,654.8v69.2h-40.9v-220.9h89.3c39.6,0,50.8,32.4,50.8,73v4.7c0,40-11.7,73.9-50.8,73.9h-48.4ZM1172.2,599.6h43.6c9.4,0,13.5-8,13.5-20.2v-.9c0-12.7-4-20.2-13.5-20.2h-43.6v41.3Z" style="fill:red; stroke:#fff; stroke-miterlimit:10;"/><path d="M1265.1,503.1h39.2v89.1c3.2-6.8,15.7-31.4,39.8-31.4h.9c29,0,38,35.3,38,60.6v102.7h-39.2v-76.3c0-21.3-5.4-36.8-18.7-36.8s-20.5,16.3-20.5,38.9v74.2h-39.2v-220.9h-.2Z" style="fill:red; stroke:#fff; stroke-miterlimit:10;"/><path d="M1435.6,724c-49.5,0-58.7-48.4-58.7-82.9v-4.7c0-33.9,9-81,58.7-81h11c51.5,0,58.5,47.5,58.5,80.8v5.4c0,34.2-6.5,82.5-58.7,82.5h-10.8ZM1441,600.4c-19.3,0-24.3,19.9-24.3,37.4v1.1c0,17.6,4.9,39.5,24.3,39.5s24.1-22.8,24.1-39.5v-1.1c0-17.6-5-37.4-24.1-37.4Z" style="fill:red; stroke:#fff; stroke-miterlimit:10;"/><path d="M1528.9,724c-13.3,0-20.5-14.8-20.5-45.4v-65.3h-14.8v-49h14.8v-46.6h38.9v46.6h14.8v49h-14.8v47.2c0,9.8.9,14,6.5,14h8.3v49.6h-33.1Z" style="fill:red; stroke:#fff; stroke-miterlimit:10;"/><path d="M1612.1,724c-49.5,0-58.7-48.4-58.7-82.9v-4.7c0-33.9,9-81,58.7-81h11c51.5,0,58.5,47.5,58.5,80.8v5.4c0,34.2-6.5,82.5-58.7,82.5h-10.8ZM1617.5,600.4c-19.3,0-24.3,19.9-24.3,37.4v1.1c0,17.6,4.9,39.5,24.3,39.5s24.1-22.8,24.1-39.5v-1.1c0-17.6-5-37.4-24.1-37.4Z" style="fill:red; stroke:#fff; stroke-miterlimit:10;"/><path d="M800.8,952h-58.6l-7.9,35.6h-39.6l50.7-220.9h52.7l53.6,220.9h-42.9l-7.9-35.6ZM771,820.8l-16.9,76h34.1l-17.2-76Z" style="fill:red; stroke:#fff; stroke-miterlimit:10;"/><path d="M850.9,987.7l-29.3-159.7h38.9l14.5,100.6,14.1-100.6h38.6l14.5,100.3,14.1-100.3h35.8l-27.6,159.7h-41.9l-14.8-96.7-14.8,96.7h-42.4.2Z" style="fill:red; stroke:#fff; stroke-miterlimit:10;"/><path d="M1012.6,987.7h-1.6c-24.8,0-34.3-25.2-34.3-51.4v-3.6c0-26.7,7.9-42.5,30-46.4l35.7-6.9c3.1-.9,4.1-3.2,4.1-7.7s-1.5-12.2-16.2-12.2h-.5c-15.9,0-16.2,11.2-16.7,16.3h-34.8v-1.8c0-21.3,3.1-53.5,47.6-53.5h7.8c46.4,0,49.5,29.7,49.5,51.4v59.1c0,4.5.5,6.9,3.1,6.9h4v46.6h-31.2c-6.6,0-10.9-7.5-12.1-21.3-3.6,7.7-13.1,24.3-34.8,24.3h.5ZM1046.7,909.3l-24.8,9.5c-6.5,2.4-9.1,5.6-9.1,13.7v.3c0,7.5,2.4,16.3,11.7,16.3,13.8,0,22.2-16.3,22.2-32.9v-6.8h0Z" style="fill:red; stroke:#fff; stroke-miterlimit:10;"/><path d="M1120.5,857.3c2.9-9.2,12.6-32.9,31-32.9h1.7c24.5,0,31.2,36.5,31.2,70.7v16.1h-36.4v-5.6c0-17.8-3.6-32.7-13.4-32.7s-13.8,14.2-13.8,34.4v80.4h-37.6v-159.7h37.2v29.4Z" style="fill:red; stroke:#fff; stroke-miterlimit:10;"/><path d="M1295.7,763.8v220.9h-37.4v-23.2c-2.4,6-12.6,26.2-35.7,26.2h-2.4c-32.4,0-45-38.3-45-80.8v-6.2c0-40.6,11.5-78.7,43.8-78.7h2.6c22.9,0,32.9,17.6,36.4,23.2v-81.4h37.7ZM1258.3,903.4c0-17.8-7.6-36.8-23.3-36.8h-.7c-16.2,0-20.8,19-20.8,36.8v1.5c0,17.6,5.5,37.8,21,37.8h.5c16,0,23.3-19.9,23.3-37.8v-1.5Z" style="fill:red; stroke:#fff; stroke-miterlimit:10;"/><g style="clip-path:url(#k);"><path d="M1375.1,97.8h-477.4c-45.2,0-81.8,36.6-81.8,81.8h0c0,45.2,36.6,81.8,81.8,81.8h477.4c45.2,0,81.8-36.6,81.8-81.8s-36.6-81.8-81.8-81.8Z" style="fill:#fff;"/><path d="M897.7,97.8h477.4c45.2,0,81.8,36.6,81.8,81.8h0c0,45.2-36.6,81.8-81.8,81.8h-477.4c-45.2,0-81.8-36.6-81.8-81.8h0c0-45.2,36.6-81.8,81.8-81.8Z" style="fill:none; stroke:#fff; stroke-width:2px;"/><g style="mask:url(#l);"><path d="M1374.8,97.7h-477.4c-45.2,0-81.8,36.6-81.8,81.8h0c0,45.2,36.6,81.8,81.8,81.8h477.4c45.2,0,81.8-36.6,81.8-81.8s-36.6-81.8-81.8-81.8Z" style="fill:#fff;"/><path d="M897.4,97.7h477.4c45.2,0,81.8,36.6,81.8,81.8h0c0,45.2-36.6,81.8-81.8,81.8h-477.4c-45.2,0-81.8-36.6-81.8-81.8h0c0-45.2,36.6-81.8,81.8-81.8Z" style="fill:none; stroke:#00e526; stroke-width:2px;"/></g><path d="M940.9,264.4c-.4,0-3.9-.5-6.7-.9-1.1-.2-2,0-5.1,0-2.9,0-8.4,0-11.2,0-2.8,0-2.9-.3-2.9-.5,0-.2-.1-.4-.4-.6-1.6-1-5.3-.7-7-.4-.6.1-1.5.4-2.5.6-.4,0-.7,0,0,1,3.7,5.3,4.6,6,4.9,7,.1.3.2.7.3,1.1,0,.4.2.7-.2,0-2.2-4.8-3.4-6.6-4.3-7.4-2.2-1.9-6.5-3.3-6.4-3.3,3,1.7,4.8,3.2,4.6,3.1-.5-.2-1.6-.9-2.1-1.2-.9-.6,3,1.2,3.5,1.5.2,0-1.2-.6-1.7-.5-2.4,0,3.5,3.6,4.2,4,.2.1.5,2.4,1.4,5.7.4,1.5.4,1.8.4,6.1,0,3-1.5,5.2-2.1,6.2-.7,1.4-1,2.9-1.3,3.6-.8,1.7-3.9,3.3-7,5.5-2.4,1.6-3.3,1.7-4.4,2.4-2,1.2-2.9,1.3-3.4,1.3-.6,0,1.5-.2,3.1-.6.2,0,0-.2-.2-.3-1.6-.5-3.4,0-3.7,0-.4.2,1,0,2.5-.2,6.5-1,7.7-1.1,8.5-1.2.4,0,.9-.1,1.3-.3.2,0,.4-.2-.2-.2s-1.9,0-2.3,0c-.9,0,2.7-.8,4.8-1.6,1.6-.6,2.3-1.1,4.4-1.9,2.3-.8,3.7-2.1,4.3-2.6.6-.6,1.2-1.9,1.8-2.8.5-.7,1-1.3,1.4-2,.4-.8.2-1.4.5-1.7.7-.8,2.3-1.8,3.8-3.8.8-1.1,1-2,1.6-2.8.7-.9,1.5-2.5,2.8-4,1.2-1.3,2-2.1,2.7-2.6.9-.6,2.8-2.4,4.5-3.6.9-.7,1.7-1,2.7-1.5,1-.5,2-.8,2.9-1.4,1.3-.9,2.4-1.7,3.3-2.2.2-.1.4-.2.4-.2-.5.9-2.9,1.3-7.5,1.5-.9,0-1.1,0-.8-.1,3.1-.4,6-.7,6.8-.6.7,0-1.4,1.1-5,2.4-2.6.7-4.5,1.3-5.5,1.6-.5.2-1,.4-1.6.8" style="fill:none; stroke:#fff; stroke-linecap:round; stroke-width:2px;"/><path d="M910.1,263.3c0,.5.7,1.8,1.9,3.2.2.3.3.5.2.6-1.1.9-3.4-2.3-4.2-3.4,0-.1.3-.2.6-.3,2.2-.2,4.8,3.6,6.2,4,1,.3,3.5-1.5,7.2-3.8,3-1.9,5.5-1.7,6.6-1.7.4,0,.6.1.8.3.3.3.5.7.5,1.2.1.8-1,1.2-2.2,2.3-2.3,2.3-4.5,2.9-6.3,4.1-1.2.8-2.3,2.3-3.4,3.4-1.1,1.1-1.9,2.5-2.2,2.5-1.6,0-1-3.3-1.4-4-.1-.2-.4,0-.6.2-.6.9-.4,5.4-.6,8.4,0,1.3-.3,2.3-.5,3.1-.1.5-.3.9-.3,1,0,.5.5-.9,1.3-2.2,2-3.2,3.7-5.5,4.4-6.3,1.6-1.7,2.6-3.3,4.4-5.5.4-.5.7-.8.9-1,.2-.2.4-.4.8-.9" style="fill:none; stroke:#fff; stroke-linecap:round; stroke-width:7px;"/><path d="M908.7,289.9s.2-.3.8-1.1c.4-.5,1-1.4,1.5-1.9.5-.6.7-.8,1.1-1.1" style="fill:none; stroke:#fff; stroke-linecap:round; stroke-width:7px;"/><path d="M908.8,290.6s-.4.2-1.1.6c-.7.4-1.3.7-1.7.9-.2.1-.5.2-1.1.5" style="fill:none; stroke:#fff; stroke-linecap:round; stroke-width:7px;"/><path d="M886.9,260.7c5.5.7,6.8,1.3,12.5,3.4,5.5,2,7.8,6.7,8.8,11.4,1.1,5-2.9,13.6-6.6,16.2-5.9,4-14.1,6.9-20.2,7.8-3.1.4-6.1.4-9.3.5" style="fill:none; stroke:#00e526; stroke-linecap:round; stroke-width:2px;"/><path d="M962.2,261.4c-4,0-15.5-.6-24.6,4.6-3,1.7-8.5,6.1-12.3,10.7-4.6,5.5-8.5,11.9-12.2,15.1-4,3.5-7.4,4.3-12.1,5.9-7.6,2.6-26,2.2-28.2,2.6" style="fill:none; stroke:#00e526; stroke-linecap:round; stroke-width:2px;"/><path d="M868.7,171.9c-6.2,0-10.7-5.7-10.7-13.9s4.7-14.5,11-14.5,7.8,2.9,9.5,7.7l-2.7.8c-1.3-3.3-3.8-5.2-6.8-5.2-4.8,0-8.1,4.7-8.1,11.1s3.3,10.7,7.8,10.7,6.1-2.4,7.4-6.4l2.6.7c-1.7,5.7-5.2,8.9-9.9,8.9ZM879.9,171.2l8.5-27.1h3.1l8.4,27.1h-2.8l-2.4-7.8h-9.5l-2.4,7.8h-2.8ZM886.2,160.2h7.5l-3.7-12.2-3.8,12.2ZM901.8,171.2v-27.1h2.6v23.8h12.5v3.2h-15.1ZM919.4,171.2v-27.1h2.6v23.8h12.5v3.2h-15.1ZM937.4,171.2v-27.1h2.7v27.1h-2.7ZM944,171.2v-27.1h2.8l11.4,21.4v-21.4h2.6v27.1h-2.7l-11.5-21.5v21.5h-2.6ZM973.3,171.9c-5.7,0-9.6-5.7-9.6-13.9s3.7-14.5,10.1-14.5,7.3,3,8.7,7.8l-2.6.7c-1.2-3.6-3.5-5.3-6.2-5.3-4.7,0-7.4,4.9-7.4,11.2s3.2,10.7,7.1,10.7,6.6-3.6,6.7-8.6h-6.1v-3.2h8.7v14.4h-2.3l-.3-3.5c-1.4,2.6-3.9,4.2-6.9,4.2ZM991.8,171.2l8.5-27.1h3.1l8.4,27.1h-2.8l-2.4-7.8h-9.5l-2.4,7.8h-2.8ZM998,160.2h7.5l-3.7-12.2-3.8,12.2ZM1013.7,171.2v-27.1h2.6v23.8h12.5v3.2h-15.1ZM1031.3,171.2v-27.1h2.6v23.8h12.5v3.2h-15.1ZM1056.1,171.2v-27.1h8.8c4.2,0,7,3.3,7,7.7s-2.8,7.8-7,7.8h-6.1v11.6h-2.6ZM1058.7,156.4h6.1c2.6,0,4.3-1.8,4.3-4.6s-1.7-4.5-4.3-4.5h-6.1v9.1ZM1074.6,171.2v-27.1h2.6v11.7h11.8v-11.7h2.6v27.1h-2.6v-12.2h-11.8v12.2h-2.6ZM1105.1,171.9c-6.2,0-10.7-6-10.7-14.1s4.2-14.3,10.7-14.3,10.6,6.3,10.6,14.3-4.4,14.1-10.6,14.1ZM1105.1,168.6c4.5,0,7.8-4.5,7.8-10.9s-3-11-7.8-11-7.8,4.8-7.8,11,3.3,10.9,7.8,10.9ZM1124.5,171.2v-23.9h-7.4v-3.2h17.5v3.2h-7.5v23.9h-2.6ZM1146.6,171.9c-6.2,0-10.7-6-10.7-14.1s4.2-14.3,10.7-14.3,10.6,6.3,10.6,14.3-4.4,14.1-10.6,14.1ZM1146.6,168.6c4.5,0,7.8-4.5,7.8-10.9s-3-11-7.8-11-7.8,4.8-7.8,11,3.3,10.9,7.8,10.9ZM1168.9,171.9c-5.7,0-9.6-5.7-9.6-13.9s3.7-14.5,10.1-14.5,7.3,3,8.7,7.8l-2.5.7c-1.2-3.6-3.5-5.3-6.2-5.3-4.7,0-7.4,4.9-7.4,11.2s3.2,10.7,7.1,10.7,6.5-3.6,6.7-8.6h-6.1v-3.2h8.7v14.4h-2.3l-.3-3.5c-1.4,2.6-3.9,4.2-6.9,4.2ZM1181.9,171.2v-27.1h9c4.2,0,7,3.3,7,7.8s-1.3,5.5-3.7,6.8c2.7,2,1.8,6.6,4.2,12.5h-3c-1.7-4-1.3-11.7-5.2-11.7h-5.7v11.7h-2.6ZM1184.5,156.3h6.3c2.6,0,4.3-1.9,4.3-4.6s-1.7-4.4-4.3-4.4h-6.3v9ZM1199.7,171.2l8.5-27.1h3.1l8.4,27.1h-2.8l-2.4-7.8h-9.5l-2.4,7.8h-2.8ZM1206,160.2h7.5l-3.7-12.2-3.8,12.2ZM1221.6,171.2v-27.1h8.8c4.2,0,6.9,3.3,6.9,7.7s-2.8,7.8-6.9,7.8h-6.2v11.6h-2.6ZM1224.2,156.4h6.2c2.6,0,4.3-1.8,4.3-4.6s-1.7-4.5-4.3-4.5h-6.2v9.1ZM1240.1,171.2v-27.1h2.6v11.7h11.8v-11.7h2.6v27.1h-2.6v-12.2h-11.8v12.2h-2.6ZM1260.7,171.2v-27.1h15.1v3.2h-12.5v8.4h11.6v3.2h-11.6v9.1h12.8v3.2h-15.4ZM1279,171.2v-27.1h9c4.2,0,6.9,3.3,6.9,7.8s-1.3,5.5-3.7,6.8c2.7,2,1.8,6.6,4.2,12.5h-2.9c-1.7-4-1.3-11.7-5.2-11.7h-5.7v11.7h-2.6ZM1281.6,156.3h6.3c2.6,0,4.4-1.9,4.4-4.6s-1.7-4.4-4.4-4.4h-6.3v9ZM1306.6,171.9c-4.8,0-7.7-3-8.5-8.4l2.6-.6c.5,3.9,2.5,5.8,5.7,5.8s5.3-1.9,5.3-4.5-1.7-4-5.8-5.5c-5-1.8-7.2-4.5-7.2-8.2s2.8-6.9,7.3-6.9,7.1,2.5,8,7.3l-2.7.7c-.6-3.2-2.3-4.9-5.4-4.9s-4.6,1.4-4.6,3.7,1.5,3.6,5.6,5.2c5.4,2.1,7.5,4.7,7.5,8.5s-3.1,7.8-7.9,7.8ZM1319.9,176.4l-.9-1.5c1.1-.8,1.9-1.9,2-3.4-1.3.5-2.5-.8-2.5-2.3s.9-2.4,2-2.4,2.2.6,2.2,3.6-.9,4.4-2.8,6ZM858.7,214.2v-27.1h8.8c4.2,0,6.9,3.3,6.9,7.7s-2.8,7.8-6.9,7.8h-6.2v11.6h-2.6ZM861.3,199.4h6.2c2.6,0,4.3-1.8,4.3-4.6s-1.7-4.5-4.3-4.5h-6.2v9.1ZM877.1,214.2v-27.1h2.6v11.7h11.8v-11.7h2.6v27.1h-2.6v-12.2h-11.8v12.2h-2.6ZM907.7,214.9c-6.2,0-10.7-6-10.7-14.1s4.2-14.3,10.7-14.3,10.6,6.3,10.6,14.3-4.4,14.1-10.6,14.1ZM907.7,211.6c4.5,0,7.8-4.5,7.8-10.9s-3-11-7.8-11-7.8,4.8-7.8,11,3.3,10.9,7.8,10.9ZM927.1,214.2v-23.9h-7.4v-3.2h17.5v3.2h-7.5v23.9h-2.6ZM949.2,214.9c-6.2,0-10.7-6-10.7-14.1s4.2-14.3,10.7-14.3,10.6,6.3,10.6,14.3-4.4,14.1-10.6,14.1ZM949.2,211.6c4.5,0,7.8-4.5,7.8-10.9s-3-11-7.8-11-7.8,4.8-7.8,11,3.3,10.9,7.8,10.9ZM962.6,214.2v-27.1h8.8c4.2,0,6.6,2.5,6.6,6.8s-.9,4.8-2.7,6c2.4,1,3.7,3.4,3.7,6.5,0,4.7-3,7.8-7.5,7.8h-8.9ZM965.2,198.4h5.4c2.9,0,4.8-1.7,4.8-4.3s-1.5-3.7-4.2-3.7h-6.1v8.1ZM965.2,210.9h6.1c3.1,0,5-1.7,5-4.6s-2-4.8-5.3-4.8h-5.8v9.4ZM980.4,214.2l8.5-27.1h3.1l8.4,27.1h-2.8l-2.4-7.8h-9.5l-2.4,7.8h-2.8ZM986.6,203.2h7.5l-3.7-12.2-3.8,12.2ZM1010.3,214.9c-4.8,0-7.7-3-8.5-8.4l2.6-.6c.5,3.9,2.5,5.8,5.7,5.8s5.3-1.9,5.3-4.5-1.7-4-5.8-5.5c-5-1.8-7.2-4.5-7.2-8.2s2.8-6.9,7.3-6.9,7.1,2.5,8,7.3l-2.7.7c-.6-3.2-2.3-4.9-5.4-4.9s-4.6,1.4-4.6,3.7,1.5,3.6,5.6,5.2c5.4,2.1,7.5,4.7,7.5,8.5s-3.1,7.8-7.9,7.8ZM1021.3,214.2v-27.1h15.1v3.2h-12.5v8.4h11.5v3.2h-11.5v9.1h12.8v3.2h-15.4ZM1039.7,214.2v-27.1h7.6c6.7,0,10.3,5.2,10.3,13.4s-3.6,13.7-10.3,13.7h-7.6ZM1042.3,211h4.6c5.2,0,8.1-3.6,8.1-10.5s-2.9-10.2-8.1-10.2h-4.6v20.7ZM1066.1,214.2l8.5-27.1h3.1l8.4,27.1h-2.8l-2.4-7.8h-9.5l-2.4,7.8h-2.8ZM1072.4,203.2h7.5l-3.7-12.2-3.8,12.2ZM1088,214.2v-27.1h9c4.2,0,6.9,3.3,6.9,7.8s-1.3,5.5-3.7,6.8c2.7,2,1.8,6.6,4.2,12.5h-3c-1.7-4-1.3-11.7-5.2-11.7h-5.7v11.7h-2.6ZM1090.6,199.3h6.3c2.6,0,4.4-1.9,4.4-4.6s-1.7-4.4-4.4-4.4h-6.3v9ZM1113.4,214.2v-23.9h-7.4v-3.2h17.5v3.2h-7.5v23.9h-2.6ZM1125.9,214.2v-27.1h2.7v27.1h-2.7ZM1140.6,214.9c-4.8,0-7.7-3-8.5-8.4l2.6-.6c.5,3.9,2.5,5.8,5.7,5.8s5.3-1.9,5.3-4.5-1.7-4-5.8-5.5c-5-1.8-7.2-4.5-7.2-8.2s2.8-6.9,7.3-6.9,7.1,2.5,8,7.3l-2.7.7c-.6-3.2-2.3-4.9-5.4-4.9s-4.6,1.4-4.6,3.7,1.5,3.6,5.6,5.2c5.4,2.1,7.4,4.7,7.4,8.5s-3.1,7.8-7.9,7.8ZM1157.5,214.2v-23.9h-7.4v-3.2h17.5v3.2h-7.5v23.9h-2.6ZM1172,219.4l-.9-1.5c1.1-.8,1.9-1.9,2-3.4-1.3.5-2.5-.8-2.5-2.3s.9-2.4,2-2.4,2.2.6,2.2,3.6-.9,4.4-2.8,6ZM1184.8,214.2l8.5-27.1h3.1l8.4,27.1h-2.8l-2.4-7.8h-9.5l-2.4,7.8h-2.8ZM1191,203.2h7.5l-3.7-12.2-3.8,12.2ZM1206.7,214.2v-27.1h2.8l11.4,21.4v-21.4h2.6v27.1h-2.7l-11.5-21.5v21.5h-2.6ZM1227.1,214.2v-27.1h7.6c6.7,0,10.3,5.2,10.3,13.4s-3.6,13.7-10.3,13.7h-7.6ZM1229.7,211h4.6c5.2,0,8.1-3.6,8.1-10.5s-2.9-10.2-8.1-10.2h-4.6v20.7ZM1265.2,214.9c-6.2,0-10.7-5.7-10.7-13.9s4.7-14.5,11-14.5,7.8,2.9,9.5,7.7l-2.7.8c-1.3-3.3-3.8-5.2-6.8-5.2-4.8,0-8.1,4.7-8.1,11.1s3.3,10.7,7.8,10.7,6.1-2.4,7.4-6.4l2.6.7c-1.7,5.7-5.2,8.9-9.9,8.9ZM1286.6,214.9c-5.2,0-8.3-3.8-8.3-10.9v-16.8h2.6v16.8c0,5,2,7.7,5.7,7.7s5.9-2.6,5.9-7.6v-16.9h2.6v16.9c0,7-3.2,10.9-8.5,10.9ZM1298.7,214.2v-27.1h9c4.2,0,6.9,3.3,6.9,7.8s-1.3,5.5-3.7,6.8c2.7,2,1.8,6.6,4.2,12.5h-3c-1.7-4-1.3-11.7-5.2-11.7h-5.7v11.7h-2.6ZM1301.3,199.3h6.3c2.6,0,4.3-1.9,4.3-4.6s-1.7-4.4-4.3-4.4h-6.3v9ZM1316.5,214.2l8.5-27.1h3.1l8.4,27.1h-2.8l-2.4-7.8h-9.5l-2.4,7.8h-2.8ZM1322.7,203.2h7.5l-3.7-12.2-3.8,12.2ZM1344.3,214.2v-23.9h-7.4v-3.2h17.5v3.2h-7.5v23.9h-2.6ZM1366.4,214.9c-6.2,0-10.7-6-10.7-14.1s4.2-14.3,10.7-14.3,10.6,6.3,10.6,14.3-4.4,14.1-10.6,14.1ZM1366.4,211.6c4.5,0,7.8-4.5,7.8-10.9s-3-11-7.8-11-7.8,4.8-7.8,11,3.3,10.9,7.8,10.9ZM1379.8,214.2v-27.1h9c4.2,0,6.9,3.3,6.9,7.8s-1.3,5.5-3.7,6.8c2.7,2,1.8,6.6,4.2,12.5h-3c-1.7-4-1.3-11.7-5.2-11.7h-5.7v11.7h-2.6ZM1382.4,199.3h6.3c2.6,0,4.4-1.9,4.4-4.6s-1.7-4.4-4.4-4.4h-6.3v9ZM1407.4,214.9c-4.8,0-7.7-3-8.5-8.4l2.6-.6c.5,3.9,2.5,5.8,5.7,5.8s5.3-1.9,5.3-4.5-1.7-4-5.8-5.5c-5-1.8-7.2-4.5-7.2-8.2s2.8-6.9,7.3-6.9,7.1,2.5,8,7.3l-2.7.7c-.6-3.2-2.3-4.9-5.4-4.9s-4.6,1.4-4.6,3.7,1.5,3.6,5.6,5.2c5.4,2.1,7.5,4.7,7.5,8.5s-3.1,7.8-7.9,7.8Z"/></g><path d="M1210.6,456c-16,0-24.6-12-24.6-36.7v-52.7h-17.7v-39.6h17.7v-37.6h46.6v37.6h17.7v39.6h-17.7v38.1c0,7.9,1.1,11.3,7.8,11.3h9.9v40h-39.7Z" style="stroke:#fff; stroke-miterlimit:10;"/><path d="M1244.3,277.7h47.1v71.9c3.9-5.5,18.8-25.4,47.7-25.4h1.1c34.8,0,45.6,28.5,45.6,48.9v82.9h-47.1v-61.6c0-17.2-6.5-29.7-22.4-29.7s-24.6,13.2-24.6,31.4v59.9h-47.1v-178.3h-.2Z" style="stroke:#fff; stroke-miterlimit:10;"/><path d="M1517.6,405.9c0,18-7.6,50.1-65,50.1h-8.6c-54.2,0-65.6-36.2-65.6-66.4v-4.8c0-29.7,10.6-64.9,65-64.9h9.1c57.4,0,65.6,39.3,65.6,70.2v7.2h-95.9c1.3,13.4,8.8,23.7,26.8,23.7s24.4-12.7,24.8-15.6h43.8v.5ZM1422.4,370.9h50.7c-1.7-12.2-8.4-19.5-25.5-19.5s-23.3,7.9-25.5,19.5h.2Z" style="stroke:#fff; stroke-miterlimit:10;"/><path d="M1272.9,70.2h-477.4c-45.2,0-81.8,36.6-81.8,81.8h0c0,45.2,36.6,81.8,81.8,81.8h477.4c45.2,0,81.8-36.6,81.8-81.8s-36.6-81.8-81.8-81.8Z" style="fill:#fff;"/><path d="M795.5,70.2h477.4c45.2,0,81.8,36.6,81.8,81.8h0c0,45.2-36.6,81.8-81.8,81.8h-477.4c-45.2,0-81.8-36.6-81.8-81.8h0c0-45.2,36.6-81.8,81.8-81.8Z" style="fill:none; stroke:#fff; stroke-width:2px;"/><g style="mask:url(#n);"><path d="M1272.5,70.1h-477.4c-45.2,0-81.8,36.6-81.8,81.8h0c0,45.2,36.6,81.8,81.8,81.8h477.4c45.2,0,81.8-36.6,81.8-81.8s-36.6-81.8-81.8-81.8Z" style="fill:#fff;"/><path d="M795.1,70.1h477.4c45.2,0,81.8,36.6,81.8,81.8h0c0,45.2-36.6,81.8-81.8,81.8h-477.4c-45.2,0-81.8-36.6-81.8-81.8h0c0-45.2,36.6-81.8,81.8-81.8Z" style="fill:none; stroke:#00e526; stroke-width:2px;"/></g><path d="M838.6,236.8c-.4,0-3.9-.5-6.7-.9-1.1-.2-2,0-5.1,0-2.9,0-8.4,0-11.2,0-2.8,0-2.9-.3-2.9-.5,0-.2-.1-.4-.4-.6-1.6-1-5.3-.7-7-.4-.6.1-1.5.4-2.5.6-.4,0-.7,0,0,1,3.7,5.3,4.6,6,4.9,7,.1.3.2.7.3,1.1,0,.4.2.7-.2,0-2.2-4.9-3.4-6.6-4.3-7.4-2.2-1.9-6.5-3.3-6.4-3.3,3,1.7,4.8,3.2,4.6,3.1-.5-.2-1.6-.9-2-1.2-.9-.6,3,1.2,3.5,1.5.2,0-1.2-.6-1.7-.5-2.4,0,3.5,3.6,4.2,4,.2.1.5,2.4,1.4,5.7.4,1.5.4,1.8.4,6.1,0,3-1.5,5.2-2.1,6.2-.7,1.4-1,2.9-1.3,3.6-.8,1.7-3.9,3.3-7,5.5-2.4,1.6-3.3,1.7-4.4,2.4-2,1.2-2.9,1.3-3.4,1.3-.6,0,1.5-.2,3.1-.6.2,0,0-.2-.2-.3-1.6-.5-3.4,0-3.7,0-.4.2,1,0,2.5-.2,6.5-1,7.7-1.1,8.5-1.2.4,0,.9-.1,1.3-.3.2,0,.4-.2-.2-.2-.6,0-1.9,0-2.3,0-.9,0,2.7-.8,4.8-1.6,1.6-.6,2.3-1.1,4.4-1.9,2.3-.8,3.7-2.1,4.3-2.6.6-.6,1.2-1.9,1.8-2.8.5-.7,1-1.3,1.4-2,.4-.8.2-1.4.5-1.7.7-.8,2.3-1.8,3.8-3.8.8-1.1,1-2,1.6-2.8.7-.9,1.5-2.4,2.8-4,1.2-1.3,2-2.1,2.7-2.6.9-.6,2.8-2.4,4.5-3.6.9-.7,1.7-1,2.7-1.5,1-.5,2-.8,2.9-1.4,1.3-.9,2.4-1.7,3.3-2.2.2-.1.4-.2.4-.2-.5.9-2.9,1.3-7.5,1.5-.9,0-1.1,0-.8-.1,3.1-.4,6-.7,6.8-.6.7,0-1.4,1.1-5,2.4-2.6.7-4.5,1.3-5.5,1.6-.5.2-1,.4-1.6.8" style="fill:none; stroke:#fff; stroke-linecap:round; stroke-width:2px;"/><path d="M807.9,235.7c0,.5.7,1.8,1.9,3.2.2.3.3.5.2.6-1.1.9-3.4-2.3-4.2-3.4,0-.1.3-.2.6-.3,2.2-.2,4.8,3.6,6.2,4,1,.3,3.5-1.5,7.2-3.8,3-1.9,5.5-1.7,6.6-1.7.4,0,.6.1.8.3.3.3.5.7.5,1.2.1.8-1,1.2-2.2,2.3-2.3,2.3-4.5,2.9-6.3,4.1-1.2.8-2.3,2.3-3.4,3.4-1.1,1.1-1.9,2.5-2.2,2.5-1.6,0-1-3.3-1.4-4-.1-.2-.4,0-.6.2-.6.9-.4,5.4-.6,8.4,0,1.3-.3,2.3-.5,3.1-.1.5-.3.9-.3,1,0,.5.5-.9,1.3-2.2,2-3.2,3.7-5.5,4.4-6.3,1.6-1.7,2.6-3.3,4.4-5.5.4-.5.7-.8.9-1,.2-.2.4-.4.8-.9" style="fill:none; stroke:#fff; stroke-linecap:round; stroke-width:7px;"/><path d="M806.4,262.3s.2-.3.8-1.1c.4-.5,1-1.4,1.5-1.9.5-.6.7-.9,1.1-1.1" style="fill:none; stroke:#fff; stroke-linecap:round; stroke-width:7px;"/><path d="M806.5,263s-.4.2-1.1.6c-.7.4-1.3.7-1.7.9-.2.1-.5.2-1.1.5" style="fill:none; stroke:#fff; stroke-linecap:round; stroke-width:7px;"/><path d="M784.7,233.1c5.5.7,6.8,1.3,12.5,3.4,5.5,2,7.8,6.7,8.8,11.4,1.1,5-2.9,13.6-6.6,16.2-5.9,4-14.1,6.9-20.2,7.8-3.1.4-6.1.4-9.3.5" style="fill:none; stroke:#00e526; stroke-linecap:round; stroke-width:2px;"/><path d="M859.9,233.8c-4,0-15.5-.6-24.6,4.6-3,1.7-8.5,6.1-12.3,10.7-4.6,5.5-8.5,11.9-12.2,15.1-4,3.5-7.4,4.3-12.1,5.9-7.6,2.6-26,2.2-28.2,2.6" style="fill:none; stroke:#00e526; stroke-linecap:round; stroke-width:2px;"/><path d="M766.4,144.2c-6.2,0-10.7-5.7-10.7-13.9s4.7-14.5,11-14.5,7.8,2.9,9.5,7.7l-2.7.8c-1.3-3.3-3.8-5.2-6.8-5.2-4.8,0-8.1,4.7-8.1,11.1s3.3,10.7,7.8,10.7,6.1-2.4,7.4-6.4l2.6.7c-1.7,5.7-5.2,8.9-9.9,8.9ZM777.7,143.6l8.5-27.1h3.1l8.4,27.1h-2.8l-2.4-7.8h-9.5l-2.4,7.8h-2.8ZM783.9,132.6h7.5l-3.7-12.2-3.8,12.2ZM799.6,143.6v-27.1h2.6v23.8h12.5v3.2h-15.1ZM817.2,143.6v-27.1h2.6v23.8h12.5v3.2h-15.1ZM835.2,143.6v-27.1h2.7v27.1h-2.7ZM841.8,143.6v-27.1h2.8l11.4,21.4v-21.4h2.6v27.1h-2.7l-11.5-21.5v21.5h-2.6ZM871.1,144.2c-5.7,0-9.6-5.7-9.6-13.9s3.7-14.5,10.1-14.5,7.3,3,8.7,7.8l-2.6.7c-1.2-3.6-3.5-5.3-6.2-5.3-4.7,0-7.4,4.9-7.4,11.2s3.2,10.7,7.1,10.7,6.6-3.6,6.7-8.6h-6.1v-3.2h8.7v14.4h-2.3l-.3-3.5c-1.4,2.6-3.9,4.2-6.9,4.2ZM889.6,143.6l8.5-27.1h3.1l8.4,27.1h-2.8l-2.4-7.8h-9.5l-2.4,7.8h-2.8ZM895.8,132.6h7.5l-3.7-12.2-3.8,12.2ZM911.4,143.6v-27.1h2.6v23.8h12.5v3.2h-15.1ZM929.1,143.6v-27.1h2.6v23.8h12.5v3.2h-15.1ZM953.9,143.6v-27.1h8.8c4.2,0,6.9,3.3,6.9,7.7s-2.8,7.8-6.9,7.8h-6.2v11.6h-2.6ZM956.5,128.8h6.2c2.6,0,4.3-1.8,4.3-4.6s-1.7-4.5-4.3-4.5h-6.2v9.1ZM972.3,143.6v-27.1h2.6v11.7h11.8v-11.7h2.6v27.1h-2.6v-12.2h-11.8v12.2h-2.6ZM1002.9,144.2c-6.2,0-10.7-6-10.7-14.1s4.2-14.3,10.7-14.3,10.6,6.3,10.6,14.3-4.4,14.1-10.6,14.1ZM1002.9,141c4.5,0,7.8-4.5,7.8-10.9s-3-11-7.8-11-7.8,4.8-7.8,11,3.3,10.9,7.8,10.9ZM1022.3,143.6v-23.9h-7.4v-3.2h17.5v3.2h-7.5v23.9h-2.6ZM1044.3,144.2c-6.2,0-10.7-6-10.7-14.1s4.2-14.3,10.7-14.3,10.6,6.3,10.6,14.3-4.4,14.1-10.6,14.1ZM1044.3,141c4.5,0,7.8-4.5,7.8-10.9s-3-11-7.8-11-7.8,4.8-7.8,11,3.3,10.9,7.8,10.9ZM1066.7,144.2c-5.7,0-9.6-5.7-9.6-13.9s3.7-14.5,10.1-14.5,7.3,3,8.8,7.8l-2.6.7c-1.2-3.6-3.5-5.3-6.2-5.3-4.7,0-7.4,4.9-7.4,11.2s3.2,10.7,7.1,10.7,6.5-3.6,6.7-8.6h-6.1v-3.2h8.7v14.4h-2.3l-.2-3.5c-1.4,2.6-3.9,4.2-6.9,4.2ZM1079.7,143.6v-27.1h9c4.2,0,7,3.3,7,7.8s-1.3,5.5-3.7,6.8c2.7,2,1.8,6.6,4.2,12.5h-2.9c-1.7-4-1.3-11.7-5.2-11.7h-5.7v11.7h-2.6ZM1082.2,128.7h6.3c2.6,0,4.4-1.9,4.4-4.6s-1.7-4.4-4.4-4.4h-6.3v9ZM1097.5,143.6l8.5-27.1h3.1l8.4,27.1h-2.8l-2.4-7.8h-9.5l-2.4,7.8h-2.8ZM1103.7,132.6h7.5l-3.7-12.2-3.8,12.2ZM1119.3,143.6v-27.1h8.8c4.2,0,7,3.3,7,7.7s-2.8,7.8-7,7.8h-6.2v11.6h-2.6ZM1122,128.8h6.2c2.6,0,4.3-1.8,4.3-4.6s-1.7-4.5-4.3-4.5h-6.2v9.1ZM1137.8,143.6v-27.1h2.6v11.7h11.8v-11.7h2.6v27.1h-2.6v-12.2h-11.8v12.2h-2.6ZM1158.4,143.6v-27.1h15.1v3.2h-12.5v8.4h11.6v3.2h-11.6v9.1h12.8v3.2h-15.4ZM1176.8,143.6v-27.1h9c4.2,0,7,3.3,7,7.8s-1.3,5.5-3.7,6.8c2.7,2,1.8,6.6,4.2,12.5h-2.9c-1.7-4-1.3-11.7-5.2-11.7h-5.7v11.7h-2.6ZM1179.4,128.7h6.3c2.6,0,4.3-1.9,4.3-4.6s-1.7-4.4-4.3-4.4h-6.3v9ZM1204.3,144.2c-4.8,0-7.7-3-8.5-8.4l2.6-.6c.5,3.9,2.5,5.8,5.7,5.8s5.3-1.9,5.3-4.5-1.7-4-5.8-5.5c-5-1.8-7.2-4.5-7.2-8.2s2.8-6.9,7.3-6.9,7,2.5,7.9,7.3l-2.7.7c-.6-3.2-2.3-4.9-5.4-4.9s-4.6,1.4-4.6,3.7,1.5,3.6,5.6,5.2c5.4,2.1,7.5,4.7,7.5,8.5s-3.1,7.8-7.9,7.8ZM1217.7,148.8l-.9-1.5c1.1-.8,1.9-1.9,2-3.4-1.3.5-2.5-.8-2.5-2.3s.9-2.4,2-2.4,2.2.6,2.2,3.6-.9,4.4-2.8,6ZM756.4,186.6v-27.1h8.8c4.2,0,6.9,3.3,6.9,7.7s-2.8,7.8-6.9,7.8h-6.2v11.6h-2.6ZM759.1,171.8h6.2c2.6,0,4.3-1.8,4.3-4.6s-1.7-4.5-4.3-4.5h-6.2v9.1ZM774.9,186.6v-27.1h2.6v11.7h11.8v-11.7h2.6v27.1h-2.6v-12.2h-11.8v12.2h-2.6ZM805.5,187.2c-6.2,0-10.7-6-10.7-14.1s4.2-14.3,10.7-14.3,10.6,6.3,10.6,14.3-4.4,14.1-10.6,14.1ZM805.5,184c4.5,0,7.8-4.5,7.8-10.9s-3-11-7.8-11-7.8,4.8-7.8,11,3.3,10.9,7.8,10.9ZM824.8,186.6v-23.9h-7.4v-3.2h17.5v3.2h-7.5v23.9h-2.6ZM846.9,187.2c-6.2,0-10.7-6-10.7-14.1s4.2-14.3,10.7-14.3,10.6,6.3,10.6,14.3-4.4,14.1-10.6,14.1ZM846.9,184c4.5,0,7.8-4.5,7.8-10.9s-3-11-7.8-11-7.8,4.8-7.8,11,3.3,10.9,7.8,10.9ZM860.4,186.6v-27.1h8.8c4.2,0,6.6,2.5,6.6,6.8s-.9,4.8-2.7,6c2.4,1,3.7,3.4,3.7,6.5,0,4.7-3,7.8-7.5,7.8h-8.9ZM863,170.8h5.4c2.9,0,4.8-1.7,4.8-4.3s-1.5-3.7-4.2-3.7h-6.1v8.1ZM863,183.3h6.1c3.1,0,5-1.7,5-4.6s-2-4.8-5.3-4.8h-5.8v9.4ZM878.1,186.6l8.5-27.1h3.1l8.4,27.1h-2.8l-2.4-7.8h-9.5l-2.4,7.8h-2.8ZM884.3,175.6h7.5l-3.7-12.2-3.8,12.2ZM908,187.2c-4.8,0-7.7-3-8.5-8.4l2.6-.6c.5,3.9,2.5,5.8,5.7,5.8s5.3-1.9,5.3-4.5-1.7-4-5.8-5.5c-5-1.8-7.2-4.5-7.2-8.2s2.8-6.9,7.3-6.9,7.1,2.5,8,7.3l-2.7.7c-.6-3.2-2.3-4.9-5.4-4.9s-4.6,1.4-4.6,3.7,1.5,3.6,5.6,5.2c5.4,2.1,7.5,4.7,7.5,8.5s-3.1,7.8-7.9,7.8ZM919.1,186.6v-27.1h15.1v3.2h-12.5v8.4h11.6v3.2h-11.6v9.1h12.8v3.2h-15.4ZM937.4,186.6v-27.1h7.6c6.7,0,10.3,5.2,10.3,13.4s-3.6,13.7-10.3,13.7h-7.6ZM940,183.4h4.6c5.2,0,8.1-3.6,8.1-10.5s-2.9-10.2-8.1-10.2h-4.6v20.7ZM963.9,186.6l8.5-27.1h3.1l8.4,27.1h-2.8l-2.4-7.8h-9.5l-2.4,7.8h-2.8ZM970.1,175.6h7.5l-3.7-12.2-3.8,12.2ZM985.8,186.6v-27.1h9c4.2,0,6.9,3.3,6.9,7.8s-1.3,5.5-3.7,6.8c2.7,2,1.8,6.6,4.2,12.5h-3c-1.7-4-1.3-11.7-5.2-11.7h-5.7v11.7h-2.6ZM988.4,171.7h6.3c2.6,0,4.4-1.9,4.4-4.6s-1.7-4.4-4.4-4.4h-6.3v9ZM1011.2,186.6v-23.9h-7.4v-3.2h17.5v3.2h-7.5v23.9h-2.6ZM1023.7,186.6v-27.1h2.7v27.1h-2.7ZM1038.3,187.2c-4.8,0-7.7-3-8.5-8.4l2.6-.6c.5,3.9,2.5,5.8,5.7,5.8s5.3-1.9,5.3-4.5-1.7-4-5.8-5.5c-5-1.8-7.2-4.5-7.2-8.2s2.8-6.9,7.3-6.9,7.1,2.5,7.9,7.3l-2.7.7c-.6-3.2-2.3-4.9-5.4-4.9s-4.6,1.4-4.6,3.7,1.5,3.6,5.6,5.2c5.4,2.1,7.5,4.7,7.5,8.5s-3.1,7.8-7.9,7.8ZM1055.3,186.6v-23.9h-7.4v-3.2h17.5v3.2h-7.5v23.9h-2.6ZM1069.7,191.8l-.9-1.5c1.1-.8,1.9-1.9,2-3.4-1.3.5-2.5-.8-2.5-2.3s.9-2.4,2-2.4,2.2.6,2.2,3.6-.9,4.4-2.8,6ZM1082.6,186.6l8.5-27.1h3.1l8.4,27.1h-2.8l-2.4-7.8h-9.5l-2.4,7.8h-2.8ZM1088.8,175.6h7.5l-3.7-12.2-3.8,12.2ZM1104.4,186.6v-27.1h2.8l11.4,21.4v-21.4h2.6v27.1h-2.7l-11.5-21.5v21.5h-2.6ZM1124.9,186.6v-27.1h7.6c6.7,0,10.3,5.2,10.3,13.4s-3.6,13.7-10.3,13.7h-7.6ZM1127.5,183.4h4.6c5.2,0,8.1-3.6,8.1-10.5s-2.9-10.2-8.1-10.2h-4.6v20.7ZM1163,187.2c-6.2,0-10.7-5.7-10.7-13.9s4.7-14.5,11-14.5,7.8,2.9,9.5,7.7l-2.7.8c-1.3-3.3-3.8-5.2-6.8-5.2-4.8,0-8.1,4.7-8.1,11.1s3.3,10.7,7.8,10.7,6.1-2.4,7.4-6.4l2.6.7c-1.7,5.7-5.2,8.9-9.9,8.9ZM1184.3,187.2c-5.2,0-8.3-3.8-8.3-10.9v-16.8h2.6v16.8c0,5,2,7.7,5.7,7.7s5.9-2.6,5.9-7.6v-16.9h2.6v16.9c0,7-3.2,10.9-8.5,10.9ZM1196.4,186.6v-27.1h9c4.2,0,6.9,3.3,6.9,7.8s-1.3,5.5-3.7,6.8c2.7,2,1.8,6.6,4.2,12.5h-2.9c-1.7-4-1.3-11.7-5.2-11.7h-5.7v11.7h-2.6ZM1199,171.7h6.3c2.6,0,4.4-1.9,4.4-4.6s-1.7-4.4-4.4-4.4h-6.3v9ZM1214.3,186.6l8.5-27.1h3.1l8.4,27.1h-2.8l-2.4-7.8h-9.5l-2.4,7.8h-2.8ZM1220.5,175.6h7.5l-3.7-12.2-3.8,12.2ZM1242,186.6v-23.9h-7.4v-3.2h17.5v3.2h-7.5v23.9h-2.6ZM1264.1,187.2c-6.2,0-10.7-6-10.7-14.1s4.2-14.3,10.7-14.3,10.6,6.3,10.6,14.3-4.4,14.1-10.6,14.1ZM1264.1,184c4.5,0,7.8-4.5,7.8-10.9s-3-11-7.8-11-7.8,4.8-7.8,11,3.3,10.9,7.8,10.9ZM1277.6,186.6v-27.1h9c4.2,0,6.9,3.3,6.9,7.8s-1.3,5.5-3.7,6.8c2.7,2,1.8,6.6,4.2,12.5h-2.9c-1.7-4-1.3-11.7-5.2-11.7h-5.7v11.7h-2.6ZM1280.2,171.7h6.3c2.6,0,4.4-1.9,4.4-4.6s-1.7-4.4-4.4-4.4h-6.3v9ZM1305.1,187.2c-4.8,0-7.7-3-8.5-8.4l2.6-.6c.5,3.9,2.5,5.8,5.7,5.8s5.3-1.9,5.3-4.5-1.7-4-5.8-5.5c-5-1.8-7.2-4.5-7.2-8.2s2.9-6.9,7.4-6.9,7,2.5,7.9,7.3l-2.7.7c-.6-3.2-2.3-4.9-5.4-4.9s-4.6,1.4-4.6,3.7,1.5,3.6,5.6,5.2c5.4,2.1,7.5,4.7,7.5,8.5s-3.1,7.8-7.9,7.8Z"/><g style="clip-path:url(#p);"><path d="M100.4,972.6h477.4c45.2,0,81.8-36.6,81.8-81.8h0c0-45.2-36.6-81.8-81.8-81.8H100.4c-45.2,0-81.8,36.6-81.8,81.8s36.6,81.8,81.8,81.8Z" style="fill:#fff;"/><path d="M577.8,972.6H100.4c-45.2,0-81.8-36.6-81.8-81.8h0c0-45.2,36.6-81.8,81.8-81.8h477.4c45.2,0,81.8,36.6,81.8,81.8h0c0,45.2-36.6,81.8-81.8,81.8Z" style="fill:none; stroke:#fff; stroke-width:2px;"/><g style="mask:url(#q);"><path d="M100.7,972.7h477.4c45.2,0,81.8-36.6,81.8-81.8h0c0-45.2-36.6-81.8-81.8-81.8H100.7c-45.2,0-81.8,36.6-81.8,81.8s36.6,81.8,81.8,81.8Z" style="fill:#fff;"/><path d="M578.1,972.7H100.7c-45.2,0-81.8-36.6-81.8-81.8h0c0-45.2,36.6-81.8,81.8-81.8h477.4c45.2,0,81.8,36.6,81.8,81.8h0c0,45.2-36.6,81.8-81.8,81.8Z" style="fill:none; stroke:#00e526; stroke-width:2px;"/></g><path d="M534.7,806c.4,0,3.9.5,6.7.9,1.1.2,2,0,5.1,0,2.9,0,8.4,0,11.2,0,2.8,0,2.9.3,2.9.5,0,.2.1.4.4.6,1.6,1,5.3.7,7,.4.6-.1,1.5-.4,2.5-.6.4,0,.7,0,0-1-3.7-5.3-4.6-6-4.9-7-.1-.3-.2-.7-.3-1.1,0-.4-.2-.7.2,0,2.2,4.8,3.4,6.6,4.3,7.4,2.2,1.9,6.5,3.3,6.4,3.3-3-1.7-4.8-3.2-4.6-3.1.5.2,1.6.9,2,1.2.9.6-3-1.2-3.5-1.5-.2,0,1.2.6,1.7.5,2.4,0-3.5-3.6-4.2-4-.2-.1-.5-2.4-1.4-5.7-.4-1.5-.4-1.8-.4-6.1,0-3,1.5-5.2,2.1-6.2.7-1.4,1-2.9,1.3-3.6.8-1.7,3.9-3.3,7-5.5,2.4-1.6,3.3-1.7,4.4-2.4,2-1.2,2.9-1.3,3.4-1.3.6,0-1.5.2-3.1.6-.2,0,0,.2.2.3,1.6.5,3.4,0,3.7,0,.4-.2-1,0-2.5.2-6.5,1-7.7,1.1-8.5,1.2-.4,0-.9.1-1.3.3-.2,0-.4.2.2.2.6,0,1.9,0,2.3,0,.9,0-2.7.8-4.8,1.6-1.6.6-2.3,1.1-4.4,1.9-2.3.8-3.7,2.1-4.3,2.6-.6.6-1.2,1.9-1.8,2.8-.5.7-1,1.3-1.4,2-.4.8-.2,1.4-.5,1.7-.7.8-2.3,1.8-3.8,3.8-.8,1.1-1,2-1.6,2.8-.7.9-1.5,2.5-2.8,4-1.2,1.3-2,2.1-2.7,2.6-.9.6-2.8,2.4-4.5,3.6-.9.7-1.7,1-2.7,1.5-1,.5-2,.8-2.9,1.4-1.3.9-2.4,1.7-3.3,2.2-.2.1-.4.2-.4.2.5-.9,2.9-1.3,7.5-1.5.9,0,1.1,0,.8.1-3.1.4-6,.7-6.8.6-.7,0,1.4-1.1,5-2.4,2.6-.7,4.5-1.3,5.5-1.6.5-.2,1-.4,1.6-.8" style="fill:none; stroke:#fff; stroke-linecap:round; stroke-width:2px;"/><path d="M565.4,807.1c0-.5-.7-1.8-1.9-3.2-.2-.3-.3-.5-.2-.6,1.1-.9,3.4,2.3,4.2,3.4,0,.1-.3.2-.6.3-2.2.2-4.8-3.6-6.2-4-1-.3-3.5,1.5-7.2,3.8-3,1.9-5.5,1.7-6.6,1.7-.4,0-.6-.1-.8-.3-.3-.3-.5-.7-.5-1.2-.1-.8,1-1.2,2.2-2.3,2.3-2.3,4.5-2.9,6.3-4.1,1.2-.8,2.3-2.3,3.4-3.4,1.1-1.1,1.9-2.5,2.2-2.5,1.6,0,1,3.3,1.4,4,.1.2.4,0,.6-.2.6-.9.4-5.4.6-8.4,0-1.3.3-2.3.5-3.1.1-.5.3-.9.3-1,0-.5-.5.9-1.3,2.2-2,3.2-3.7,5.5-4.4,6.3-1.6,1.7-2.6,3.3-4.4,5.5-.4.5-.7.8-.9,1-.2.2-.4.4-.8.9" style="fill:none; stroke:#fff; stroke-linecap:round; stroke-width:7px;"/><path d="M566.8,780.6s-.2.3-.8,1.1c-.4.5-1,1.4-1.5,1.9-.5.6-.7.8-1.1,1.1" style="fill:none; stroke:#fff; stroke-linecap:round; stroke-width:7px;"/><path d="M566.8,779.8s.4-.2,1.1-.6c.7-.4,1.3-.7,1.7-.9.2,0,.5-.2,1.1-.5" style="fill:none; stroke:#fff; stroke-linecap:round; stroke-width:7px;"/><path d="M588.6,809.8c-5.5-.7-6.8-1.3-12.5-3.4-5.5-2-7.8-6.7-8.8-11.4-1.1-5,2.9-13.6,6.6-16.2,5.9-4,14.1-6.9,20.2-7.8,3.1-.4,6.1-.4,9.3-.5" style="fill:none; stroke:#00e526; stroke-linecap:round; stroke-width:2px;"/><path d="M513.4,809c4,0,15.5.6,24.6-4.6,3-1.7,8.5-6.1,12.3-10.7,4.6-5.5,8.5-11.9,12.2-15.1,4-3.5,7.4-4.3,12.1-5.9,7.6-2.6,26-2.2,28.2-2.6" style="fill:none; stroke:#00e526; stroke-linecap:round; stroke-width:2px;"/><path d="M71.1,884.7c-6.2,0-10.7-5.7-10.7-13.9s4.7-14.5,11-14.5,7.8,2.9,9.5,7.7l-2.7.8c-1.3-3.3-3.8-5.2-6.8-5.2-4.8,0-8.1,4.7-8.1,11.1s3.3,10.7,7.8,10.7,6.1-2.4,7.4-6.4l2.6.7c-1.7,5.7-5.2,8.9-9.9,8.9ZM82.4,884l8.5-27.1h3.1l8.4,27.1h-2.8l-2.4-7.8h-9.5l-2.4,7.8h-2.8ZM88.7,873.1h7.5l-3.7-12.2-3.8,12.2ZM104.3,884v-27.1h2.6v23.8h12.5v3.2h-15.1ZM121.9,884v-27.1h2.6v23.8h12.5v3.2h-15.1ZM139.9,884v-27.1h2.7v27.1h-2.7ZM146.5,884v-27.1h2.8l11.4,21.4v-21.4h2.6v27.1h-2.7l-11.5-21.5v21.5h-2.6ZM175.8,884.7c-5.7,0-9.6-5.7-9.6-13.9s3.7-14.5,10.1-14.5,7.3,3,8.7,7.8l-2.6.7c-1.2-3.6-3.5-5.3-6.2-5.3-4.7,0-7.4,4.9-7.4,11.2s3.2,10.7,7.1,10.7,6.6-3.6,6.7-8.6h-6.1v-3.2h8.7v14.4h-2.3l-.3-3.5c-1.4,2.6-3.9,4.2-6.9,4.2ZM194.3,884l8.5-27.1h3.1l8.4,27.1h-2.8l-2.4-7.8h-9.5l-2.4,7.8h-2.8ZM200.5,873.1h7.5l-3.7-12.2-3.8,12.2ZM216.2,884v-27.1h2.6v23.8h12.5v3.2h-15.1ZM233.8,884v-27.1h2.6v23.8h12.5v3.2h-15.1ZM258.6,884v-27.1h8.8c4.2,0,6.9,3.3,6.9,7.7s-2.8,7.8-6.9,7.8h-6.2v11.6h-2.6ZM261.2,869.3h6.2c2.6,0,4.3-1.8,4.3-4.6s-1.7-4.5-4.3-4.5h-6.2v9.1ZM277.1,884v-27.1h2.6v11.7h11.8v-11.7h2.6v27.1h-2.6v-12.2h-11.8v12.2h-2.6ZM307.6,884.7c-6.2,0-10.7-6-10.7-14.1s4.2-14.3,10.7-14.3,10.6,6.3,10.6,14.3-4.4,14.1-10.6,14.1ZM307.6,881.5c4.5,0,7.8-4.5,7.8-10.9s-3-11-7.8-11-7.8,4.8-7.8,11,3.3,10.9,7.8,10.9ZM327,884v-23.9h-7.4v-3.2h17.5v3.2h-7.5v23.9h-2.6ZM349.1,884.7c-6.2,0-10.7-6-10.7-14.1s4.2-14.3,10.7-14.3,10.6,6.3,10.6,14.3-4.4,14.1-10.6,14.1ZM349.1,881.5c4.5,0,7.8-4.5,7.8-10.9s-3-11-7.8-11-7.8,4.8-7.8,11,3.3,10.9,7.8,10.9ZM371.4,884.7c-5.7,0-9.6-5.7-9.6-13.9s3.7-14.5,10.1-14.5,7.3,3,8.7,7.8l-2.6.7c-1.2-3.6-3.5-5.3-6.2-5.3-4.7,0-7.4,4.9-7.4,11.2s3.2,10.7,7.1,10.7,6.6-3.6,6.7-8.6h-6.1v-3.2h8.7v14.4h-2.3l-.3-3.5c-1.4,2.6-3.9,4.2-6.9,4.2ZM384.4,884v-27.1h9c4.2,0,6.9,3.3,6.9,7.8s-1.3,5.5-3.7,6.8c2.7,2,1.8,6.6,4.2,12.5h-3c-1.7-4-1.3-11.7-5.2-11.7h-5.7v11.7h-2.6ZM387,869.2h6.3c2.6,0,4.4-1.9,4.4-4.6s-1.7-4.4-4.4-4.4h-6.3v9ZM402.2,884l8.5-27.1h3.1l8.4,27.1h-2.8l-2.4-7.8h-9.5l-2.4,7.8h-2.8ZM408.4,873.1h7.5l-3.7-12.2-3.8,12.2ZM424.1,884v-27.1h8.8c4.2,0,6.9,3.3,6.9,7.7s-2.8,7.8-6.9,7.8h-6.2v11.6h-2.6ZM426.7,869.3h6.2c2.6,0,4.3-1.8,4.3-4.6s-1.7-4.5-4.3-4.5h-6.2v9.1ZM442.5,884v-27.1h2.6v11.7h11.8v-11.7h2.6v27.1h-2.6v-12.2h-11.8v12.2h-2.6ZM463.2,884v-27.1h15.1v3.2h-12.5v8.4h11.6v3.2h-11.6v9.1h12.8v3.2h-15.4ZM481.5,884v-27.1h9c4.2,0,6.9,3.3,6.9,7.8s-1.3,5.5-3.7,6.8c2.7,2,1.8,6.6,4.2,12.5h-3c-1.7-4-1.3-11.7-5.2-11.7h-5.7v11.7h-2.6ZM484.1,869.2h6.3c2.6,0,4.4-1.9,4.4-4.6s-1.7-4.4-4.4-4.4h-6.3v9ZM509.1,884.7c-4.8,0-7.7-3-8.5-8.4l2.6-.6c.5,3.9,2.5,5.8,5.7,5.8s5.3-1.9,5.3-4.5-1.7-4-5.8-5.5c-5-1.8-7.2-4.5-7.2-8.2s2.8-6.9,7.3-6.9,7.1,2.5,8,7.3l-2.7.7c-.6-3.2-2.3-4.9-5.4-4.9s-4.6,1.4-4.6,3.7,1.5,3.6,5.6,5.2c5.4,2.1,7.5,4.7,7.5,8.5s-3.1,7.8-7.9,7.8ZM522.4,889.3l-.9-1.5c1.1-.8,1.9-1.9,2-3.4-1.3.5-2.5-.8-2.5-2.3s.9-2.4,2-2.4,2.2.6,2.2,3.6-.9,4.4-2.8,6ZM61.2,927v-27.1h8.8c4.2,0,6.9,3.3,6.9,7.7s-2.8,7.8-6.9,7.8h-6.2v11.6h-2.6ZM63.8,912.2h6.2c2.6,0,4.3-1.8,4.3-4.6s-1.7-4.5-4.3-4.5h-6.2v9.1ZM79.6,927v-27.1h2.6v11.7h11.8v-11.7h2.6v27.1h-2.6v-12.2h-11.8v12.2h-2.6ZM110.2,927.7c-6.2,0-10.7-6-10.7-14.1s4.2-14.3,10.7-14.3,10.6,6.3,10.6,14.3-4.4,14.1-10.6,14.1ZM110.2,924.5c4.5,0,7.8-4.5,7.8-10.9s-3-11-7.8-11-7.8,4.8-7.8,11,3.3,10.9,7.8,10.9ZM129.6,927v-23.9h-7.4v-3.2h17.5v3.2h-7.5v23.9h-2.6ZM151.6,927.7c-6.2,0-10.7-6-10.7-14.1s4.2-14.3,10.7-14.3,10.6,6.3,10.6,14.3-4.4,14.1-10.6,14.1ZM151.6,924.5c4.5,0,7.8-4.5,7.8-10.9s-3-11-7.8-11-7.8,4.8-7.8,11,3.3,10.9,7.8,10.9ZM165.1,927v-27.1h8.8c4.2,0,6.6,2.5,6.6,6.8s-.9,4.8-2.7,6c2.4,1,3.7,3.4,3.7,6.5,0,4.7-3,7.8-7.5,7.8h-8.9ZM167.7,911.2h5.4c2.9,0,4.8-1.7,4.8-4.3s-1.5-3.7-4.2-3.7h-6.1v8.1ZM167.7,923.8h6.1c3.1,0,5-1.7,5-4.6s-2-4.8-5.3-4.8h-5.8v9.4ZM182.8,927l8.5-27.1h3.1l8.4,27.1h-2.8l-2.4-7.8h-9.5l-2.4,7.8h-2.8ZM189.1,916.1h7.5l-3.7-12.2-3.8,12.2ZM212.7,927.7c-4.8,0-7.7-3-8.5-8.4l2.6-.6c.5,3.9,2.5,5.8,5.7,5.8s5.3-1.9,5.3-4.5-1.7-4-5.8-5.5c-5-1.8-7.2-4.5-7.2-8.2s2.8-6.9,7.3-6.9,7.1,2.5,8,7.3l-2.7.7c-.6-3.2-2.3-4.9-5.4-4.9s-4.6,1.4-4.6,3.7,1.5,3.6,5.6,5.2c5.4,2.1,7.5,4.7,7.5,8.5s-3.1,7.8-7.9,7.8ZM223.8,927v-27.1h15.1v3.2h-12.5v8.4h11.6v3.2h-11.6v9.1h12.8v3.2h-15.4ZM242.2,927v-27.1h7.6c6.7,0,10.3,5.2,10.3,13.4s-3.6,13.7-10.3,13.7h-7.6ZM244.7,923.8h4.6c5.2,0,8.1-3.6,8.1-10.5s-2.9-10.2-8.1-10.2h-4.6v20.7ZM268.6,927l8.5-27.1h3.1l8.4,27.1h-2.8l-2.4-7.8h-9.5l-2.4,7.8h-2.8ZM274.8,916.1h7.5l-3.7-12.2-3.8,12.2ZM290.5,927v-27.1h9c4.2,0,6.9,3.3,6.9,7.8s-1.3,5.5-3.7,6.8c2.7,2,1.8,6.6,4.2,12.5h-3c-1.7-4-1.3-11.7-5.2-11.7h-5.7v11.7h-2.6ZM293.1,912.2h6.3c2.6,0,4.4-1.9,4.4-4.6s-1.7-4.4-4.4-4.4h-6.3v9ZM315.9,927v-23.9h-7.4v-3.2h17.5v3.2h-7.5v23.9h-2.6ZM328.4,927v-27.1h2.7v27.1h-2.7ZM343.1,927.7c-4.8,0-7.7-3-8.5-8.4l2.6-.6c.5,3.9,2.5,5.8,5.7,5.8s5.3-1.9,5.3-4.5-1.7-4-5.8-5.5c-5-1.8-7.2-4.5-7.2-8.2s2.8-6.9,7.3-6.9,7.1,2.5,8,7.3l-2.7.7c-.6-3.2-2.3-4.9-5.4-4.9s-4.6,1.4-4.6,3.7,1.5,3.6,5.6,5.2c5.4,2.1,7.5,4.7,7.5,8.5s-3.1,7.8-7.9,7.8ZM360,927v-23.9h-7.4v-3.2h17.5v3.2h-7.5v23.9h-2.6ZM374.5,932.3l-.9-1.5c1.1-.8,1.9-1.9,2-3.4-1.3.5-2.5-.8-2.5-2.3s.9-2.4,2-2.4,2.2.6,2.2,3.6-.9,4.4-2.8,6ZM387.3,927l8.5-27.1h3.1l8.4,27.1h-2.8l-2.4-7.8h-9.5l-2.4,7.8h-2.8ZM393.5,916.1h7.5l-3.7-12.2-3.8,12.2ZM409.2,927v-27.1h2.8l11.4,21.4v-21.4h2.6v27.1h-2.7l-11.5-21.5v21.5h-2.6ZM429.6,927v-27.1h7.6c6.7,0,10.3,5.2,10.3,13.4s-3.6,13.7-10.3,13.7h-7.6ZM432.2,923.8h4.6c5.2,0,8.1-3.6,8.1-10.5s-2.9-10.2-8.1-10.2h-4.6v20.7ZM467.7,927.7c-6.2,0-10.7-5.7-10.7-13.9s4.7-14.5,11-14.5,7.8,2.9,9.5,7.7l-2.7.8c-1.3-3.3-3.8-5.2-6.8-5.2-4.8,0-8.1,4.7-8.1,11.1s3.3,10.7,7.8,10.7,6.1-2.4,7.4-6.4l2.6.7c-1.7,5.7-5.2,8.9-9.9,8.9ZM489.1,927.7c-5.2,0-8.4-3.8-8.4-10.9v-16.8h2.6v16.8c0,5,2.1,7.7,5.7,7.7s5.9-2.6,5.9-7.6v-16.9h2.6v16.9c0,7-3.2,10.9-8.5,10.9ZM501.2,927v-27.1h9c4.2,0,6.9,3.3,6.9,7.8s-1.3,5.5-3.7,6.8c2.7,2,1.8,6.6,4.2,12.5h-3c-1.7-4-1.3-11.7-5.2-11.7h-5.7v11.7h-2.6ZM503.8,912.2h6.3c2.6,0,4.4-1.9,4.4-4.6s-1.7-4.4-4.4-4.4h-6.3v9ZM519,927l8.5-27.1h3.1l8.4,27.1h-2.8l-2.4-7.8h-9.5l-2.4,7.8h-2.8ZM525.2,916.1h7.5l-3.7-12.2-3.8,12.2ZM546.8,927v-23.9h-7.4v-3.2h17.5v3.2h-7.5v23.9h-2.6ZM568.8,927.7c-6.2,0-10.7-6-10.7-14.1s4.2-14.3,10.7-14.3,10.6,6.3,10.6,14.3-4.4,14.1-10.6,14.1ZM568.8,924.5c4.5,0,7.8-4.5,7.8-10.9s-3-11-7.8-11-7.8,4.8-7.8,11,3.3,10.9,7.8,10.9ZM582.3,927v-27.1h9c4.2,0,6.9,3.3,6.9,7.8s-1.3,5.5-3.7,6.8c2.7,2,1.8,6.6,4.2,12.5h-3c-1.7-4-1.3-11.7-5.2-11.7h-5.7v11.7h-2.6ZM584.9,912.2h6.3c2.6,0,4.4-1.9,4.4-4.6s-1.7-4.4-4.4-4.4h-6.3v9ZM609.9,927.7c-4.8,0-7.7-3-8.5-8.4l2.6-.6c.5,3.9,2.5,5.8,5.7,5.8s5.3-1.9,5.3-4.5-1.7-4-5.8-5.5c-5-1.8-7.2-4.5-7.2-8.2s2.8-6.9,7.3-6.9,7.1,2.5,8,7.3l-2.7.7c-.6-3.2-2.3-4.9-5.4-4.9s-4.6,1.4-4.6,3.7,1.5,3.6,5.6,5.2c5.4,2.1,7.5,4.7,7.5,8.5s-3.1,7.8-7.9,7.8Z"/></g></g><g id="s"><path d="M1638.4,435.9c-1.3-4.7-3.8-9.6-7.1-13.8-5.5-23.4-24.7-41.8-45.3-52.7-19-10-39.5-17.7-59.6-25.1-19.1-7-38.7-12.9-58.6-17.1-20.6-4.4-41.8-7.2-63-7.8-55.7-8.6-112.6-10.5-168.6-7.9-90.6,4.2-180.3,19.5-269.5,35-48.3,8.4-96.5,16.8-145,23.4-20.1,2.6-40.2,5-60.4,6.8-19.4,1.8-39.2,4-58.6,2.3-4.4-.8-8.6-1.9-12.8-3.4-2.3-1.2-4.5-2.4-6.6-3.8-1-.9-2-1.9-3-2.9-.5-.8-1-1.6-1.5-2.5-.2-.8-.5-1.6-.7-2.4,1.6-2.7,3.4-5.3,5.2-7.9,10-12.1,21.6-22.8,33.1-33.4,13-11.9,26-23.7,39.2-35.4,20.9-18.5,42.1-36.6,63.9-54,18.2-8.9,36.8-17.2,55.5-25.1,60.8-25.5,122.8-47.8,185.7-67.4,18.3-5.7,36.6-11.2,55-16.4,9.4-2.7,18.1-9.3,23-17.7,4.8-8.3,6.9-20.4,3.9-29.7-3.7-11.5-12.2-20.7-22.7-25.3-1.4-7.1-4.7-14.1-10.1-19.1-2.6-2-5.2-4-7.8-6-6-3.5-12.5-5.2-19.4-5.3-81.8-9.4-164.5,14.2-237.2,50.6-71.9,36-135.2,86.6-197.9,136.4-28.6,22.7-57.7,45.4-81.1,73.6-7.5,9.1-14.9,18.5-21.2,28.4-6.2,9.7-10.8,20.1-15,30.7-8.1,20.6-10.3,44.1-4.9,65.6,6.1,24.2,23.1,43.7,44,56.5,16.9,10.3,36.6,16.5,55.6,21.7,40.9,11.2,84.2,16.5,126.6,15.3,50-1.4,98.1-12.9,146.1-25,76.3-8.2,152-20.9,228-31.8,8.3-1.2,16.5-2.3,24.8-3.5,52.5-1.1,105.2.1,157.5,1.7,23.7.7,47.3,2,70.8,4.9,24.5,3.6,48.6,9.3,71.7,18.4,1.8.8,3.7,1.7,5.5,2.5-12.5,6.4-25,12.7-37.4,19.1-44.8,22.8-89.4,45.9-134.5,68.2-23.3,11.5-46.9,22.6-70.8,32.9-52.3,21.7-106.4,37.3-161.3,51-56,14-112.1,28-168.7,39.8-31.1,6.4-62.3,12.1-93.8,16.4-100.9,13.1-203.7,15.2-302.9,39.8-48.7,12.1-95.3,30.7-139.7,53.9-40.2,21-78.5,45.3-117.1,69.1-42.5,26.2-85.5,51.9-131.4,71.8-14.8,6-29.8,11.4-45.1,15.9-9.4,2.8-18,9.2-23,17.7-4.8,8.3-6.9,20.4-3.9,29.7,1,3.2,2.4,6.2,4.2,9,.6,9.8,3.8,19.8,11.2,26.6,2.6,2,5.2,4,7.8,6,5.5,3.2,11.4,4.9,17.6,5.2,2.9,3.9,6.5,7.3,10.9,9.6,9.6,5.1,19,5.9,29.7,3.9,101.1-18.8,195.9-62.3,286.5-109.6,25.3-13.2,50.4-26.9,75.5-40.5,9.5-5.1,15.9-15,18.2-25.6,13.1-6.7,26.2-13.5,39.2-20.4,1.5-.5,3-1.1,4.4-1.6,14.9-2.9,30-5.4,45-7.5,53.5-6.9,107.3-10.3,161-14.8,59.5-5,118.4-12.6,177-24.4,60.3-12.2,120.4-25.2,180.6-38.2,29.1-6.3,58.2-13.1,86.5-22.3,31-10.1,61.3-22.7,91.1-35.9,46.7-20.8,92.2-44.3,136.2-70.4,7.8-3.7,15.4-7.7,22.9-11.9,33-18.7,63.9-41.2,94.5-63.5,17.9-13.1,35.5-26.5,53-40.1,2.1-1.7,4.2-3.3,6.4-5,12.2-.8,24-6.8,29.8-18.5,3.9-7.7,7.7-15.7,10.9-23.8,3-4.3,5.8-8.8,8.2-13.5,4.7-9.2,6.7-19.4,3.9-29.7Z" style="fill:#efefef; filter:url(#t); stroke:#000; stroke-miterlimit:10;"/></g><g id="v"><text transform="translate(629.7 358.1) rotate(-49.3)" style="font-family:Krungthep, Krungthep; font-size:64px;"><tspan x="0" y="0"> </tspan></text><text transform="translate(639.8 346.4) rotate(-48.7)" style="font-family:Krungthep, Krungthep; font-size:64px;"><tspan x="0" y="0"> </tspan></text><text transform="translate(650 334.7) rotate(-48)" style="font-family:Krungthep, Krungthep; font-size:64px;"><tspan x="0" y="0"> </tspan></text><text transform="translate(660.2 323.2) rotate(-46.6)" style="font-family:Krungthep, Krungthep; font-size:64px;"><tspan x="0" y="0">2</tspan></text><text transform="translate(689.1 292.5) rotate(-44.2)" style="font-family:Krungthep, Krungthep; font-size:64px;"><tspan x="0" y="0">0</tspan></text><text transform="translate(719.2 263.1) rotate(-41.2)" style="font-family:Krungthep, Krungthep; font-size:64px;"><tspan x="0" y="0">2</tspan></text><text transform="translate(750.8 235.5) rotate(-37.6)" style="font-family:Krungthep, Krungthep; font-size:64px;"><tspan x="0" y="0">6</tspan></text><text transform="translate(784.3 210) rotate(-34.8)" style="font-family:Krungthep, Krungthep; font-size:64px;"><tspan x="0" y="0"> </tspan></text><text transform="translate(796.9 201.3) rotate(-33.2)" style="font-family:Krungthep, Krungthep; font-size:64px;"><tspan x="0" y="0"> </tspan></text><text transform="translate(809.3 192.7) rotate(-30.2)" style="font-family:Krungthep, Krungthep; font-size:64px;"><tspan x="0" y="0">u</tspan></text><text transform="translate(845.4 171.7) rotate(-25.7)" style="font-family:Krungthep, Krungthep; font-size:64px;"><tspan x="0" y="0">p</tspan></text><text transform="translate(883.2 153.5) rotate(-21.7)" style="font-family:Krungthep, Krungthep; font-size:64px;"><tspan x="0" y="0">d</tspan></text><text transform="translate(922.2 138) rotate(-18.6)" style="font-family:Krungthep, Krungthep; font-size:64px;"><tspan x="0" y="0">a</tspan></text><text transform="translate(962.3 124.6) rotate(-16.6)" style="font-family:Krungthep, Krungthep; font-size:64px;"><tspan x="0" y="0">t</tspan></text><text transform="translate(992.6 115.4) rotate(-14.6)" style="font-family:Krungthep, Krungthep; font-size:64px;"><tspan x="0" y="0">e</tspan></text><text transform="translate(100.1 1014.2) rotate(-17.8)" style="font-family:Krungthep, Krungthep; font-size:64px;"><tspan x="0" y="0"> </tspan></text><text transform="translate(114.9 1009.5) rotate(-18)" style="font-family:Krungthep, Krungthep; font-size:64px;"><tspan x="0" y="0"> </tspan></text><text transform="translate(129.7 1004.7) rotate(-18.5)" style="font-family:Krungthep, Krungthep; font-size:64px;"><tspan x="0" y="0">2</tspan></text><text transform="translate(170 991.3) rotate(-19.4)" style="font-family:Krungthep, Krungthep; font-size:64px;"><tspan x="0" y="0">0</tspan></text><text transform="translate(210 977.2) rotate(-20.8)" style="font-family:Krungthep, Krungthep; font-size:64px;"><tspan x="0" y="0">2</tspan></text><text transform="translate(251 961.8) rotate(-23.8)" style="font-family:Krungthep, Krungthep; font-size:64px;"><tspan x="0" y="0">6</tspan></text><text transform="translate(292.7 942.8) rotate(-30.1)" style="font-family:Krungthep, Krungthep; font-size:64px;"><tspan x="0" y="0"> </tspan></text><text transform="translate(311.1 931.3) rotate(-42.4)" style="font-family:Krungthep, Krungthep; font-size:64px;"><tspan x="0" y="0"> </tspan></text><text transform="translate(321.4 920.8) rotate(-36.9)" style="font-family:Krungthep, Krungthep; font-size:64px;"><tspan x="0" y="0">u</tspan></text><text transform="translate(354.8 895.7) rotate(-32.4)" style="font-family:Krungthep, Krungthep; font-size:64px;"><tspan x="0" y="0">p</tspan></text><text transform="translate(390.3 873.3) rotate(-28.9)" style="font-family:Krungthep, Krungthep; font-size:64px;"><tspan x="0" y="0">d</tspan></text><text transform="translate(427 853) rotate(-25.4)" style="font-family:Krungthep, Krungthep; font-size:64px;"><tspan x="0" y="0">a</tspan></text><text transform="translate(465 835.1) rotate(-21.9)" style="font-family:Krungthep, Krungthep; font-size:64px;"><tspan x="0" y="0">t</tspan></text><text transform="translate(493.8 823.2) rotate(-17.5)" style="font-family:Krungthep, Krungthep; font-size:64px;"><tspan x="0" y="0">e</tspan></text><text transform="translate(73.6 1007.6) rotate(-19.5)" style="font-family:Krungthep, Krungthep; font-size:72px;"><tspan x="0" y="0"> </tspan></text><text transform="translate(90.1 1001.7) rotate(-19.9)" style="font-family:Krungthep, Krungthep; font-size:72px;"><tspan x="0" y="0"> </tspan></text><text transform="translate(106.5 995.8) rotate(-20.4)" style="font-family:Krungthep, Krungthep; font-size:72px;"><tspan x="0" y="0"> </tspan></text><text transform="translate(122.9 989.7) rotate(-21)" style="font-family:Krungthep, Krungthep; font-size:72px;"><tspan x="0" y="0"> </tspan></text><text transform="translate(139.2 983.4) rotate(-21.6)" style="font-family:Krungthep, Krungthep; font-size:72px;"><tspan x="0" y="0"> </tspan></text><text transform="translate(155.4 977) rotate(-22.3)" style="font-family:Krungthep, Krungthep; font-size:72px;"><tspan x="0" y="0"> </tspan></text><text transform="translate(171.6 970.4) rotate(-23.1)" style="font-family:Krungthep, Krungthep; font-size:72px;"><tspan x="0" y="0"> </tspan></text><text transform="translate(188.2 963.3) rotate(-23.9)" style="font-family:Krungthep, Krungthep; font-size:72px;"><tspan x="0" y="0"> </tspan></text><text transform="translate(204.8 955.9) rotate(-25)" style="font-family:Krungthep, Krungthep; font-size:72px;"><tspan x="0" y="0"> </tspan></text><text transform="translate(221.4 948.2) rotate(-26.2)" style="font-family:Krungthep, Krungthep; font-size:72px;"><tspan x="0" y="0"> </tspan></text><text transform="translate(237.9 940.1) rotate(-27.8)" style="font-family:Krungthep, Krungthep; font-size:72px;"><tspan x="0" y="0"> </tspan></text><text transform="translate(254.4 931.3) rotate(-29.8)" style="font-family:Krungthep, Krungthep; font-size:72px;"><tspan x="0" y="0"> </tspan></text><text transform="translate(271 921.8) rotate(-32.5)" style="font-family:Krungthep, Krungthep; font-size:72px;"><tspan x="0" y="0"> </tspan></text><text transform="translate(286.5 911.8) rotate(-34.2)" style="font-family:Krungthep, Krungthep; font-size:72px;"><tspan x="0" y="0"> </tspan></text><text transform="translate(300.8 902.1) rotate(-32.8)" style="font-family:Krungthep, Krungthep; font-size:72px;"><tspan x="0" y="0"> </tspan></text><text transform="translate(315.3 892.7) rotate(-31.5)" style="font-family:Krungthep, Krungthep; font-size:72px;"><tspan x="0" y="0"> </tspan></text><text transform="translate(330.1 883.7) rotate(-30.2)" style="font-family:Krungthep, Krungthep; font-size:72px;"><tspan x="0" y="0"> </tspan></text><text transform="translate(345 874.9) rotate(-29)" style="font-family:Krungthep, Krungthep; font-size:72px;"><tspan x="0" y="0"> </tspan></text><text transform="translate(360 866.5) rotate(-27.1)" style="font-family:Krungthep, Krungthep; font-size:72px;"><tspan x="0" y="0"> </tspan></text><text transform="translate(374.9 858.7) rotate(-23.5)" style="font-family:Krungthep, Krungthep; font-size:72px;"><tspan x="0" y="0"> </tspan></text><text transform="translate(390.3 852.1) rotate(-20.1)" style="font-family:Krungthep, Krungthep; font-size:72px;"><tspan x="0" y="0"> </tspan></text><text transform="translate(406.4 846.2) rotate(-17.9)" style="font-family:Krungthep, Krungthep; font-size:72px;"><tspan x="0" y="0"> </tspan></text><text transform="translate(422.8 840.9) rotate(-16.4)" style="font-family:Krungthep, Krungthep; font-size:72px;"><tspan x="0" y="0"> </tspan></text><text transform="translate(439.4 836) rotate(-15.2)" style="font-family:Krungthep, Krungthep; font-size:72px;"><tspan x="0" y="0"> </tspan></text><text transform="translate(456.1 831.5) rotate(-14.2)" style="font-family:Krungthep, Krungthep; font-size:72px;"><tspan x="0" y="0"> </tspan></text><text transform="translate(473 827.2) rotate(-13.2)" style="font-family:Krungthep, Krungthep; font-size:72px;"><tspan x="0" y="0"> </tspan></text><text transform="translate(489.9 823.2) rotate(-12.3)" style="font-family:Krungthep, Krungthep; font-size:72px;"><tspan x="0" y="0"> </tspan></text><text transform="translate(506.8 819.5) rotate(-11.1)" style="font-family:Krungthep, Krungthep; font-size:72px;"><tspan x="0" y="0"> </tspan></text><text transform="translate(523.8 816.2) rotate(-9.7)" style="font-family:Krungthep, Krungthep; font-size:72px;"><tspan x="0" y="0"> </tspan></text><text transform="translate(540.8 813.3) rotate(-8.2)" style="font-family:Krungthep, Krungthep; font-size:72px;"><tspan x="0" y="0"> </tspan></text><text transform="translate(558 810.9) rotate(-7.6)" style="font-family:Krungthep, Krungthep; font-size:72px;"><tspan x="0" y="0"> </tspan></text><text transform="translate(575.4 808.5) rotate(-7.2)" style="font-family:Redaction-Regular, Redaction; font-size:74px;"><tspan x="0" y="0">B</tspan></text><text transform="translate(623.8 802.5) rotate(-6.9)" style="font-family:Redaction-Regular, Redaction; font-size:74px;"><tspan x="0" y="0">O</tspan></text><text transform="translate(671.6 796.6) rotate(-6.9)" style="font-family:Redaction-Regular, Redaction; font-size:74px;"><tspan x="0" y="0">Y</tspan></text><text transform="translate(718.3 791) rotate(-7)" style="font-family:Redaction-Regular, Redaction; font-size:74px;"><tspan x="0" y="0">C</tspan></text><text transform="translate(767.1 785) rotate(-7.2)" style="font-family:Redaction-Regular, Redaction; font-size:74px;"><tspan x="0" y="0">O</tspan></text><text transform="translate(820.7 778.2) rotate(-7.5)" style="font-family:Redaction-Regular, Redaction; font-size:74px;"><tspan x="0" y="0">T</tspan></text><text transform="translate(869 771.8) rotate(-8)" style="font-family:Redaction-Regular, Redaction; font-size:74px;"><tspan x="0" y="0">T</tspan></text><text transform="translate(917.2 765) rotate(-8.4)" style="font-family:Redaction-Regular, Redaction; font-size:74px;"><tspan x="0" y="0"> </tspan></text><text transform="translate(935.4 762.3) rotate(-8.8)" style="font-family:Redaction-Regular, Redaction; font-size:74px;"><tspan x="0" y="0"> </tspan></text><text transform="translate(953.8 759.7) rotate(-9.8)" style="font-family:Redaction-Regular, Redaction; font-size:74px;"><tspan x="0" y="0">R</tspan></text><text transform="translate(1005.6 750.7) rotate(-12.3)" style="font-family:Redaction-Regular, Redaction; font-size:74px;"><tspan x="0" y="0">É</tspan></text><text transform="translate(1054.7 740) rotate(-15)" style="font-family:Redaction-Regular, Redaction; font-size:74px;"><tspan x="0" y="0">U</tspan></text><text transform="translate(1109 725.3) rotate(-17.2)" style="font-family:Redaction-Regular, Redaction; font-size:74px;"><tspan x="0" y="0">S</tspan></text><text transform="translate(1149.3 712.8) rotate(-19.2)" style="font-family:Redaction-Regular, Redaction; font-size:74px;"><tspan x="0" y="0">S</tspan></text><text transform="translate(1188.2 699.1) rotate(-20.8)" style="font-family:Redaction-Regular, Redaction; font-size:74px;"><tspan x="0" y="0">I</tspan></text><text transform="translate(1214.8 691.4) rotate(-23.6)" style="font-family:Krungthep, Krungthep; font-size:64px;"><tspan x="0" y="0"> </tspan></text><text transform="translate(1229 685.3) rotate(-24.3)" style="font-family:Krungthep, Krungthep; font-size:64px;"><tspan x="0" y="0"> </tspan></text><text transform="translate(1243.1 678.9) rotate(-24.9)" style="font-family:Krungthep, Krungthep; font-size:64px;"><tspan x="0" y="0"> </tspan></text><text transform="translate(1257.2 672.7) rotate(-26.3)" style="font-family:Krungthep, Krungthep; font-size:64px;"><tspan x="0" y="0">m</tspan></text><text transform="translate(1314.2 644.2) rotate(-27.8)" style="font-family:Krungthep, Krungthep; font-size:64px;"><tspan x="0" y="0">i</tspan></text><text transform="translate(1332.9 634.4) rotate(-28.8)" style="font-family:Krungthep, Krungthep; font-size:64px;"><tspan x="0" y="0">s</tspan></text><text transform="translate(1365.4 616.6) rotate(-30.3)" style="font-family:Krungthep, Krungthep; font-size:64px;"><tspan x="0" y="0">e</tspan></text><text transform="translate(1402 595) rotate(-31.5)" style="font-family:Krungthep, Krungthep; font-size:64px;"><tspan x="0" y="0"> </tspan></text><text transform="translate(1415.1 587.1) rotate(-32.9)" style="font-family:Krungthep, Krungthep; font-size:64px;"><tspan x="0" y="0">à</tspan></text><text transform="translate(1451.3 563.5) rotate(-34.5)" style="font-family:Krungthep, Krungthep; font-size:64px;"><tspan x="0" y="0"> </tspan></text><text transform="translate(1464.8 554.4) rotate(-36)" style="font-family:Krungthep, Krungthep; font-size:64px;"><tspan x="0" y="0">j</tspan></text><text transform="translate(1491.9 534.9) rotate(-38.8)" style="font-family:Krungthep, Krungthep; font-size:64px;"><tspan x="0" y="0">o</tspan></text><text transform="translate(1526.9 506.7) rotate(-43.3)" style="font-family:Krungthep, Krungthep; font-size:64px;"><tspan x="0" y="0">u</tspan></text><text transform="translate(1558.5 476.2) rotate(-45.9)" style="font-family:Krungthep, Krungthep; font-size:64px;"><tspan x="0" y="0">r</tspan></text><text transform="translate(712.4 458.6) rotate(-.9)" style="font-family:Krungthep, Krungthep; font-size:72px;"><tspan x="0" y="0"> </tspan></text><text transform="translate(730.9 458.3) rotate(-2.5)" style="font-family:Krungthep, Krungthep; font-size:72px;"><tspan x="0" y="0"> </tspan></text><text transform="translate(749.2 457.5) rotate(-4)" style="font-family:Krungthep, Krungthep; font-size:72px;"><tspan x="0" y="0"> </tspan></text><text transform="translate(767.5 456.2) rotate(-5.2)" style="font-family:Krungthep, Krungthep; font-size:72px;"><tspan x="0" y="0"> </tspan></text><text transform="translate(785.6 454.5) rotate(-6.3)" style="font-family:Krungthep, Krungthep; font-size:72px;"><tspan x="0" y="0"> </tspan></text><text transform="translate(803.6 452.5) rotate(-7.2)" style="font-family:Krungthep, Krungthep; font-size:72px;"><tspan x="0" y="0"> </tspan></text><text transform="translate(821.1 450.3) rotate(-8)" style="font-family:Krungthep, Krungthep; font-size:72px;"><tspan x="0" y="0"> </tspan></text><text transform="translate(838.3 447.9) rotate(-8.7)" style="font-family:Krungthep, Krungthep; font-size:72px;"><tspan x="0" y="0"> </tspan></text><text transform="translate(855.6 445.2) rotate(-9.2)" style="font-family:Krungthep, Krungthep; font-size:72px;"><tspan x="0" y="0"> </tspan></text><text transform="translate(872.9 442.4) rotate(-9.7)" style="font-family:Krungthep, Krungthep; font-size:72px;"><tspan x="0" y="0"> </tspan></text><text transform="translate(890.1 439.5) rotate(-10)" style="font-family:Krungthep, Krungthep; font-size:72px;"><tspan x="0" y="0"> </tspan></text><text transform="translate(907.4 436.4) rotate(-10.2)" style="font-family:Krungthep, Krungthep; font-size:72px;"><tspan x="0" y="0"> </tspan></text><text transform="translate(924.6 433.3) rotate(-10.4)" style="font-family:Krungthep, Krungthep; font-size:72px;"><tspan x="0" y="0"> </tspan></text><text transform="translate(941.9 430.1) rotate(-10.4)" style="font-family:Krungthep, Krungthep; font-size:72px;"><tspan x="0" y="0"> </tspan></text><text transform="translate(959.2 426.9) rotate(-10.3)" style="font-family:Krungthep, Krungthep; font-size:72px;"><tspan x="0" y="0"> </tspan></text><text transform="translate(976.5 423.8) rotate(-10.1)" style="font-family:Krungthep, Krungthep; font-size:72px;"><tspan x="0" y="0"> </tspan></text><text transform="translate(993.7 420.7) rotate(-9.8)" style="font-family:Krungthep, Krungthep; font-size:72px;"><tspan x="0" y="0"> </tspan></text><text transform="translate(1010.9 417.7) rotate(-9.3)" style="font-family:Krungthep, Krungthep; font-size:72px;"><tspan x="0" y="0"> </tspan></text><text transform="translate(1028.1 414.9) rotate(-8.7)" style="font-family:Krungthep, Krungthep; font-size:72px;"><tspan x="0" y="0"> </tspan></text><text transform="translate(1045.3 412.3) rotate(-7.9)" style="font-family:Krungthep, Krungthep; font-size:72px;"><tspan x="0" y="0"> </tspan></text><text transform="translate(1062.5 409.9) rotate(-6.9)" style="font-family:Krungthep, Krungthep; font-size:72px;"><tspan x="0" y="0"> </tspan></text><text transform="translate(1079.7 407.8) rotate(-5.6)" style="font-family:Krungthep, Krungthep; font-size:72px;"><tspan x="0" y="0"> </tspan></text><text transform="translate(1097 406.2) rotate(-4.9)" style="font-family:Krungthep, Krungthep; font-size:72px;"><tspan x="0" y="0"> </tspan></text><text transform="translate(1114.5 404.7) rotate(-4.8)" style="font-family:Krungthep, Krungthep; font-size:72px;"><tspan x="0" y="0"> </tspan></text><text transform="translate(1132 403.2) rotate(-4.6)" style="font-family:Krungthep, Krungthep; font-size:72px;"><tspan x="0" y="0"> </tspan></text><text transform="translate(1149.4 401.8) rotate(-4.2)" style="font-family:Krungthep, Krungthep; font-size:72px;"><tspan x="0" y="0"> </tspan></text><text transform="translate(1166.9 400.5) rotate(-3.8)" style="font-family:Krungthep, Krungthep; font-size:72px;"><tspan x="0" y="0"> </tspan></text><text transform="translate(1184.3 399.4) rotate(-3.3)" style="font-family:Krungthep, Krungthep; font-size:72px;"><tspan x="0" y="0"> </tspan></text><text transform="translate(1201.7 398.4) rotate(-2.6)" style="font-family:Krungthep, Krungthep; font-size:72px;"><tspan x="0" y="0"> </tspan></text><text transform="translate(1219.1 397.6) rotate(-1.9)" style="font-family:Krungthep, Krungthep; font-size:72px;"><tspan x="0" y="0"> </tspan></text><text transform="translate(1236.5 397) rotate(-1.1)" style="font-family:Krungthep, Krungthep; font-size:72px;"><tspan x="0" y="0"> </tspan></text><text transform="translate(1253.9 396.6) rotate(-.2)" style="font-family:Krungthep, Krungthep; font-size:72px;"><tspan x="0" y="0"> </tspan></text><text transform="translate(1271.2 396.6) rotate(.8)" style="font-family:Krungthep, Krungthep; font-size:72px;"><tspan x="0" y="0"> </tspan></text><text transform="translate(1288.6 396.8) rotate(1.9)" style="font-family:Krungthep, Krungthep; font-size:72px;"><tspan x="0" y="0"> </tspan></text><text transform="translate(1305.6 397) rotate(4.2)" style="font-family:Krungthep, Krungthep; font-size:72px;"><tspan x="0" y="0">2</tspan></text><text transform="translate(1352.6 400.4) rotate(8.3)" style="font-family:Krungthep, Krungthep; font-size:72px;"><tspan x="0" y="0">0</tspan></text><text transform="translate(1399 407.1) rotate(13.3)" style="font-family:Krungthep, Krungthep; font-size:72px;"><tspan x="0" y="0">2</tspan></text><text transform="translate(1444.6 417.8) rotate(19.2)" style="font-family:Krungthep, Krungthep; font-size:72px;"><tspan x="0" y="0">6</tspan></text><text transform="translate(557.5 399.1) rotate(43.7)" style="font-family:Redaction-Regular, Redaction; font-size:74px;"><tspan x="0" y="0">B</tspan></text><text transform="translate(605.6 439.7) rotate(19.4)" style="font-family:Redaction-Regular, Redaction; font-size:74px;"><tspan x="0" y="0">O</tspan></text><text transform="translate(657.4 457.4) rotate(7.9)" style="font-family:Redaction-Regular, Redaction; font-size:74px;"><tspan x="0" y="0">Y</tspan></text><text transform="translate(708 464.2) rotate(.9)" style="font-family:Redaction-Regular, Redaction; font-size:74px;"><tspan x="0" y="0">C</tspan></text><text transform="translate(760.4 464.9) rotate(-4.8)" style="font-family:Redaction-Regular, Redaction; font-size:74px;"><tspan x="0" y="0">O</tspan></text><text transform="translate(816.7 459.9) rotate(-9.2)" style="font-family:Redaction-Regular, Redaction; font-size:74px;"><tspan x="0" y="0">T</tspan></text><text transform="translate(866.5 451.7) rotate(-12.5)" style="font-family:Redaction-Regular, Redaction; font-size:74px;"><tspan x="0" y="0">T</tspan></text><text transform="translate(913.9 441.2) rotate(-11.6)" style="font-family:Redaction-Regular, Redaction; font-size:74px;"><tspan x="0" y="0"> </tspan></text><text transform="translate(931.9 437.5) rotate(-11.1)" style="font-family:Redaction-Regular, Redaction; font-size:74px;"><tspan x="0" y="0"> </tspan></text><text transform="translate(949.9 433.9) rotate(-10.3)" style="font-family:Redaction-Regular, Redaction; font-size:74px;"><tspan x="0" y="0">S</tspan></text><text transform="translate(987.8 427) rotate(-9)" style="font-family:Redaction-Regular, Redaction; font-size:74px;"><tspan x="0" y="0">U</tspan></text><text transform="translate(1043.3 418.2) rotate(-7.6)" style="font-family:Redaction-Regular, Redaction; font-size:74px;"><tspan x="0" y="0">C</tspan></text><text transform="translate(1091.8 411.7) rotate(-6.2)" style="font-family:Redaction-Regular, Redaction; font-size:74px;"><tspan x="0" y="0">C</tspan></text><text transform="translate(1140.4 406.4) rotate(-4.6)" style="font-family:Redaction-Regular, Redaction; font-size:74px;"><tspan x="0" y="0">E</tspan></text><text transform="translate(1188.7 402.6) rotate(-2.9)" style="font-family:Redaction-Regular, Redaction; font-size:74px;"><tspan x="0" y="0">S</tspan></text><text transform="translate(1229.3 400.5) rotate(-1)" style="font-family:Redaction-Regular, Redaction; font-size:74px;"><tspan x="0" y="0">S</tspan></text><path d="M1655.3,839.1v2.2" style="fill:none;"/></g></svg>