<?xml version="1.0" encoding="UTF-8"?><svg xmlns="http://www.w3.org/2000/svg" xmlns:xlink="http://www.w3.org/1999/xlink" viewBox="0 0 380.7 721.1"><defs><filter id="b" x="-1" y="1.3" width="388" height="722" filterUnits="userSpaceOnUse"><feOffset dx="7" dy="12"/><feGaussianBlur result="c" stdDeviation="5"/><feFlood flood-color="#000" flood-opacity=".8"/><feComposite in2="c" operator="in"/><feComposite in="SourceGraphic"/></filter></defs><g id="a"><path d="M24,158.5h48.7c15.1,0,19.1,8.8,19.1,17.7v1.1c0,9.8-5.5,14.1-8.9,15.3,4.6,1.7,11.9,6.3,11.9,20v1.3c0,12.3-5,22.5-21.8,22.5H24v-77.9ZM43.8,176.2v11h23c4.1,0,5.3-2.5,5.3-5.5v-.2c0-3-1.2-5.3-5.3-5.3h-23ZM43.8,204.7v13.4h24.2c5.1,0,6.1-3.7,6.1-6.7v-.3c0-3.4-1-6.4-6.1-6.4h-24.2Z" style="stroke:#fff; stroke-miterlimit:10;"/><path d="M121.2,236.5c-23.9,0-28.3-17.1-28.3-29.2v-1.7c0-11.9,4.3-28.6,28.3-28.6h5.3c24.9,0,28.3,16.8,28.3,28.5v1.9c0,12.1-3.1,29.1-28.3,29.1h-5.2ZM123.8,192.9c-9.3,0-11.7,7-11.7,13.2v.4c0,6.2,2.3,13.9,11.7,13.9s11.7-8.1,11.7-13.9v-.4c0-6.2-2.4-13.2-11.7-13.2Z" style="stroke:#fff; stroke-miterlimit:10;"/><path d="M151,219.1h8.5c1.4,0,1.7-.9,1.7-1.8h0c0-1.3-.5-2.8-1.6-5.8l-17.6-51.1h20.2l10.4,36.2,9.7-36.2h18.8l-18,58.8c-3.7,11.8-7.7,17.3-14.4,17.3h-17.6v-17.4h0Z" style="stroke:#fff; stroke-miterlimit:10;"/><path d="M215,236.5c-24,0-27.6-17.4-27.6-29.1v-1.9c0-11.6,3.5-28.5,27.5-28.5h4.3c25,0,27.6,17.4,27.6,25.1v.3h-19.3c-.2-2.1-1.5-9.8-10.3-9.8h-.3c-8.1,0-10.2,6.7-10.2,13.1v.5c0,6.8,2.3,14.3,10.2,14.3h.3c8.9,0,10.2-8,10.3-10.2h19.3v.2c0,7.7-2,25.9-27.6,25.9h-4.2Z" style="stroke:#fff; stroke-miterlimit:10;"/><path d="M271.6,236.5c-23.9,0-28.3-17.1-28.3-29.2v-1.7c0-11.9,4.3-28.6,28.3-28.6h5.3c24.9,0,28.3,16.8,28.3,28.5v1.9c0,12.1-3.1,29.1-28.3,29.1h-5.2ZM274.1,192.9c-9.3,0-11.7,7-11.7,13.2v.4c0,6.2,2.3,13.9,11.7,13.9s11.7-8.1,11.7-13.9v-.4c0-6.2-2.4-13.2-11.7-13.2Z" style="stroke:#fff; stroke-miterlimit:10;"/><path d="M318.4,236.5c-6.4,0-9.9-5.2-9.9-16v-23h-7.1v-17.3h7.1v-16.4h18.8v16.4h7.1v17.3h-7.1v16.6c0,3.4.4,4.9,3.1,4.9h4v17.5h-16Z" style="stroke:#fff; stroke-miterlimit:10;"/><path d="M351.6,236.5c-6.4,0-9.9-5.2-9.9-16v-23h-7.1v-17.3h7.1v-16.4h18.8v16.4h7.1v17.3h-7.1v16.6c0,3.4.4,4.9,3.1,4.9h4v17.5h-16Z" style="stroke:#fff; stroke-miterlimit:10;"/><line x1="25" y1="240" x2="366.6" y2="240" style="fill:none; stroke:#000;"/><path d="M114.9,311.4c-6.9,0-10.6-3.8-10.6-11.5v-16.6h-7.7v-12.4h7.7v-11.8h20.2v11.8h7.7v12.4h-7.7v12c0,2.5.5,3.5,3.4,3.5h4.3v12.6h-17.2Z" style="stroke:#fff; stroke-miterlimit:10;"/><path d="M129.5,255.4h17v22.6c1.4-1.7,6.8-8,17.3-8h.4c12.6,0,16.5,9,16.5,15.4v26h-17v-19.3c0-5.4-2.3-9.3-8.1-9.3s-8.9,4.1-8.9,9.9v18.8h-17v-56h0Z" style="stroke:#fff; stroke-miterlimit:10;"/><path d="M225.9,296.5c0,5.4-2.6,14.9-22.5,14.9h-3c-18.7,0-22.7-10.8-22.7-19.8v-1.4c0-8.9,3.7-19.4,22.5-19.4h3.1c19.9,0,22.7,11.7,22.7,20.9v2.2h-33.1c.4,4,3.1,7.1,9.3,7.1s8.4-3.8,8.6-4.6h15.2ZM193,286h17.5c-.6-3.6-2.9-5.8-8.8-5.8s-8.1,2.3-8.8,5.8h0Z" style="stroke:#fff; stroke-miterlimit:10;"/><line x1="97.7" y1="314.9" x2="225.9" y2="314.9" style="fill:none; stroke:#000;"/><line x1="25" y1="408.6" x2="366.6" y2="408.7" style="fill:none; stroke:red;"/><line x1="68.8" y1="484.9" x2="306.2" y2="484.9" style="fill:none; stroke:red;"/><path d="M57.4,404.4c-29.7,0-32.8-16.7-32.8-26.5v-1h22.6c.2,4,1.7,10.5,13.5,10.5h.6c11.5,0,13.2-3.4,13.2-7h0c0-3.9-1.4-6.3-12.7-6.8l-9.9-.4c-20.8-.8-26.4-10.9-26.4-22.4v-.9c0-12.1,5.9-22.7,30.9-22.7h6.4c26.6,0,32.7,11.7,32.7,23.6v.8h-22.3c-.2-2.7-1.4-7.9-13-7.9h-.7c-10.8,0-11.8,2.6-11.8,5.5h0c0,3.1,1.6,5.5,11.7,5.8l9.7.3c20.4.8,28.4,7.4,28.4,22.4v1.4c0,12.5-5.1,25.4-33.4,25.4h-6.7Z" style="fill:red; stroke:#fff; stroke-miterlimit:10;"/><path d="M124.3,404.4c-24.9,0-28.7-16.6-28.7-27.9v-1.8c0-11.1,3.6-27.3,28.6-27.3h4.5c25.9,0,28.7,16.6,28.7,24.1v.3h-20.1c-.2-2-1.5-9.3-10.8-9.3h-.3c-8.4,0-10.6,6.4-10.6,12.5v.5c0,6.5,2.3,13.6,10.6,13.6h.3c9.2,0,10.6-7.6,10.8-9.7h20.1v.2c0,7.3-2.1,24.8-28.7,24.8h-4.3Z" style="fill:red; stroke:#fff; stroke-miterlimit:10;"/><path d="M184.4,404.4c-24.9,0-29.5-16.4-29.5-28v-1.6c0-11.4,4.5-27.4,29.5-27.4h5.5c25.8,0,29.4,16,29.4,27.3v1.8c0,11.5-3.3,27.9-29.5,27.9h-5.4ZM187.1,362.6c-9.7,0-12.2,6.7-12.2,12.6v.4c0,5.9,2.4,13.3,12.2,13.3s12.1-7.7,12.1-13.3v-.4c0-5.9-2.5-12.6-12.1-12.6Z" style="fill:red; stroke:#fff; stroke-miterlimit:10;"/><path d="M232.6,404.4c-6.7,0-10.3-5-10.3-15.3v-22h-7.4v-16.5h7.4v-15.7h19.5v15.7h7.4v16.5h-7.4v15.9c0,3.3.5,4.7,3.3,4.7h4.2v16.7h-16.6Z" style="fill:red; stroke:#fff; stroke-miterlimit:10;"/><path d="M269.2,345.9h-19.7v-16.1h19.7v16.2h0ZM269.2,404.4h-19.7v-53.9h19.7v53.9Z" style="fill:red; stroke:#fff; stroke-miterlimit:10;"/><path d="M287.2,405.1h-.8c-13,0-18-8.5-18-17.4v-1.2c0-9,4.2-14.3,15.7-15.7l18.7-2.3c1.6-.3,2.2-1.1,2.2-2.6s-.8-4.1-8.5-4.1h-.3c-8.3,0-8.5,3.8-8.8,5.5h-18.3v-.6c0-7.2,1.6-18.1,24.9-18.1h4.1c24.3,0,25.9,10,25.9,17.4v20c0,1.5.3,2.3,1.6,2.3h2.1v15.7h-16.4c-3.4,0-5.7-2.5-6.3-7.2-1.9,2.6-6.9,8.2-18.3,8.2h.3ZM305.1,378.7l-13,3.2c-3.4.8-4.8,1.9-4.8,4.6h0c0,2.6,1.3,5.6,6.1,5.6,7.2,0,11.7-5.5,11.7-11.1v-2.3h0Z" style="fill:red; stroke:#fff; stroke-miterlimit:10;"/><path d="M332.7,374.6v-16.1h34.4v16.1h-34.4Z" style="fill:red; stroke:#fff; stroke-miterlimit:10;"/><path d="M88.5,403.4v28.5c1.6-1.6,7.5-8.5,19-8.5h1.5c17.7,0,23.3,13,23.3,27.2v2.1c0,14.1-6.2,27.7-24,27.7h-1.5c-10.9,0-16.9-6.4-18.7-8.3-.5,1.9-.8,4.9-1,7.3h-18.4v-76h19.8,0ZM88.5,452c0,6.2,3.9,13.1,11.8,13.1h.5c8.8,0,11.5-7,11.5-13.1v-.4c0-6.6-2.6-13.1-11.5-13.1h-.5c-8.2,0-11.8,6.6-11.8,13.1v.4Z" style="fill:red; stroke:#fff; stroke-miterlimit:10;"/><path d="M149,481.4h-.8c-13.1,0-18.1-8.7-18.1-17.7v-1.2c0-9.2,4.2-14.6,15.8-16l18.8-2.4c1.6-.3,2.2-1.1,2.2-2.6s-.8-4.2-8.6-4.2h-.3c-8.4,0-8.6,3.9-8.8,5.6h-18.4v-.6c0-7.3,1.6-18.4,25.1-18.4h4.1c24.5,0,26.1,10.2,26.1,17.7v20.3c0,1.5.3,2.4,1.6,2.4h2.1v16h-16.5c-3.5,0-5.7-2.6-6.4-7.3-1.9,2.6-6.9,8.4-18.4,8.4h.3ZM167,454.4l-13.1,3.3c-3.5.8-4.8,1.9-4.8,4.7h0c0,2.7,1.3,5.7,6.2,5.7,7.3,0,11.7-5.6,11.7-11.3v-2.3h0Z" style="fill:red; stroke:#fff; stroke-miterlimit:10;"/><path d="M189.9,425.4h19.6v9.7c2-2.6,8-10.9,20.2-10.9h.5c14.6,0,19.2,12.2,19.2,20.9v35.3h-19.8v-26.3c0-7.3-2.7-12.7-9.5-12.7s-10.4,5.6-10.4,13.4v25.6h-19.8v-55Z" style="fill:red; stroke:#fff; stroke-miterlimit:10;"/><path d="M249.4,480.4v-76h19.8v42.5l13.4-21.4h21.3l-15.9,24.3,18.3,30.6h-22.5l-14.6-24.7v24.7h-19.8Z" style="fill:red; stroke:#fff; stroke-miterlimit:10;"/><path d="M42.7,555.7v24.4h-18.7v-78h40.8c18.1,0,23.2,11.4,23.2,25.8v1.7c0,14.1-5.3,26.1-23.2,26.1h-22.1ZM42.7,536.2h19.9c4.3,0,6.2-2.8,6.2-7.1v-.3c0-4.5-1.8-7.1-6.2-7.1h-19.9v14.6Z" style="fill:red; stroke:#fff; stroke-miterlimit:10;"/><path d="M86.5,502.2h17.9v31.4c1.5-2.4,7.1-11.1,18.2-11.1h.4c13.2,0,17.3,12.5,17.3,21.4v36.2h-17.9v-26.9c0-7.5-2.5-13-8.5-13s-9.4,5.8-9.4,13.7v26.2h-17.9v-78h0Z" style="fill:red; stroke:#fff; stroke-miterlimit:10;"/><path d="M165.7,580.1c-22.6,0-26.8-17.1-26.8-29.2v-1.7c0-11.9,4.1-28.6,26.8-28.6h5c23.5,0,26.7,16.8,26.7,28.5v1.9c0,12.1-3,29.1-26.8,29.1h-4.9ZM168.2,536.5c-8.8,0-11.1,7-11.1,13.2v.4c0,6.2,2.2,13.9,11.1,13.9s11-8.1,11-13.9v-.4c0-6.2-2.3-13.2-11-13.2Z" style="fill:red; stroke:#fff; stroke-miterlimit:10;"/><path d="M210.9,580.1c-6.1,0-9.4-5.2-9.4-16v-23h-6.7v-17.3h6.7v-16.4h17.8v16.4h6.7v17.3h-6.7v16.6c0,3.4.4,4.9,3,4.9h3.8v17.5h-15.1Z" style="fill:red; stroke:#fff; stroke-miterlimit:10;"/><path d="M250.3,580.1c-22.6,0-26.8-17.1-26.8-29.2v-1.7c0-11.9,4.1-28.6,26.8-28.6h5c23.5,0,26.7,16.8,26.7,28.5v1.9c0,12.1-3,29.1-26.8,29.1h-4.9ZM252.8,536.5c-8.8,0-11.1,7-11.1,13.2v.4c0,6.2,2.2,13.9,11.1,13.9s11-8.1,11-13.9v-.4c0-6.2-2.3-13.2-11-13.2Z" style="fill:red; stroke:#fff; stroke-miterlimit:10;"/><line x1="24" y1="583.6" x2="282" y2="583.6" style="fill:none; stroke:red;"/><path d="M120.5,666.7h-28.5l-3.9,12.2h-19.3l24.7-76h25.7l26.1,76h-20.9l-3.9-12.2ZM106,621.6l-8.2,26.1h16.6l-8.4-26.1Z" style="fill:red; stroke:#fff; stroke-miterlimit:10;"/><path d="M144.9,679l-14.3-55h19l7,34.6,6.9-34.6h18.8l7,34.5,6.9-34.5h17.4l-13.4,55h-20.4l-7.2-33.3-7.2,33.3h-20.6,0Z" style="fill:red; stroke:#fff; stroke-miterlimit:10;"/><path d="M226,679h-.8c-12.1,0-16.7-8.7-16.7-17.7v-1.2c0-9.2,3.9-14.6,14.6-16l17.4-2.4c1.5-.3,2-1.1,2-2.6s-.8-4.2-7.9-4.2h-.3c-7.7,0-7.9,3.9-8.1,5.6h-16.9v-.6c0-7.3,1.5-18.4,23.2-18.4h3.8c22.6,0,24.1,10.2,24.1,17.7v20.3c0,1.5.3,2.4,1.5,2.4h1.9v16h-15.2c-3.2,0-5.3-2.6-5.9-7.3-1.8,2.6-6.4,8.4-16.9,8.4h.3ZM242.7,652l-12.1,3.3c-3.2.8-4.4,1.9-4.4,4.7h0c0,2.7,1.2,5.7,5.7,5.7,6.7,0,10.8-5.6,10.8-11.3v-2.3h0Z" style="fill:red; stroke:#fff; stroke-miterlimit:10;"/><path d="M281,633.1c1.4-3.2,6.1-11.3,15.1-11.3h.8c11.9,0,15.2,12.6,15.2,24.3v5.5h-17.7v-1.9c0-6.1-1.8-11.3-6.5-11.3s-6.7,4.9-6.7,11.8v27.7h-18.3v-55h18.1v10.1Z" style="fill:red; stroke:#fff; stroke-miterlimit:10;"/><path d="M367.6,601v76h-18.2v-8c-1.2,2.1-6.1,9-17.4,9h-1.2c-15.8,0-21.9-13.2-21.9-27.8v-2.1c0-14,5.6-27.1,21.3-27.1h1.3c11.2,0,16,6,17.7,8v-28h18.4ZM349.4,649c0-6.1-3.7-12.7-11.3-12.7h-.3c-7.9,0-10.1,6.6-10.1,12.7v.5c0,6,2.7,13,10.2,13h.3c7.8,0,11.3-6.8,11.3-13v-.5Z" style="fill:red; stroke:#fff; stroke-miterlimit:10;"/><line x1="70.2" y1="682.5" x2="369" y2="682.5" style="fill:none; stroke:red;"/><path d="M102.5,50.2c-4.2,0-7.1-3.8-7.1-9.2s3.1-9.7,7.3-9.7,5.2,1.9,6.3,5.2l-1.8.5c-.9-2.2-2.5-3.5-4.6-3.5-3.2,0-5.4,3.1-5.4,7.4s2.2,7.2,5.2,7.2,4.1-1.6,4.9-4.2l1.7.5c-1.1,3.8-3.5,6-6.6,6ZM110,49.7l5.6-18h2l5.6,18h-1.8l-1.6-5.2h-6.4l-1.6,5.2h-1.9ZM114.2,42.4h5l-2.5-8.1-2.5,8.1ZM124.6,49.7v-18h1.8v15.9h8.3v2.2h-10.1ZM136.3,49.7v-18h1.8v15.9h8.3v2.2h-10.1ZM148.3,49.7v-18h1.8v18h-1.8ZM152.8,49.7v-18h1.8l7.6,14.3v-14.3h1.7v18h-1.8l-7.7-14.3v14.3h-1.7ZM172.3,50.2c-3.8,0-6.4-3.8-6.4-9.3s2.5-9.7,6.7-9.7,4.9,2,5.8,5.2l-1.7.5c-.8-2.4-2.3-3.5-4.1-3.5-3.1,0-4.9,3.3-4.9,7.5s2.1,7.1,4.7,7.1,4.4-2.4,4.5-5.8h-4.1v-2.1h5.8v9.6h-1.5l-.2-2.4c-.9,1.7-2.6,2.8-4.6,2.8ZM184.6,49.7l5.6-18h2l5.6,18h-1.8l-1.6-5.2h-6.4l-1.6,5.2h-1.9ZM188.8,42.4h5l-2.5-8.1-2.5,8.1ZM199.2,49.7v-18h1.8v15.9h8.3v2.2h-10.1ZM210.9,49.7v-18h1.8v15.9h8.3v2.2h-10.1ZM95.8,75.7v-18h5.9c2.8,0,4.6,2.2,4.6,5.1s-1.8,5.2-4.6,5.2h-4.1v7.7h-1.8ZM97.6,65.8h4.1c1.7,0,2.9-1.2,2.9-3s-1.1-3-2.9-3h-4.1v6ZM108.2,75.7v-18h1.7v7.8h7.9v-7.8h1.7v18h-1.7v-8.2h-7.9v8.2h-1.7ZM128.5,76.2c-4.1,0-7.1-4-7.1-9.4s2.8-9.5,7.1-9.5,7.1,4.2,7.1,9.5-2.9,9.4-7.1,9.4ZM128.5,74c3,0,5.2-3,5.2-7.3s-2-7.3-5.2-7.3-5.2,3.2-5.2,7.3,2.2,7.3,5.2,7.3ZM141.5,75.7v-15.9h-4.9v-2.1h11.6v2.1h-5v15.9h-1.7ZM156.2,76.2c-4.1,0-7.1-4-7.1-9.4s2.8-9.5,7.1-9.5,7.1,4.2,7.1,9.5-2.9,9.4-7.1,9.4ZM156.2,74c3,0,5.2-3,5.2-7.3s-2-7.3-5.2-7.3-5.2,3.2-5.2,7.3,2.2,7.3,5.2,7.3ZM171.1,76.2c-3.8,0-6.4-3.8-6.4-9.3s2.5-9.7,6.7-9.7,4.9,2,5.8,5.2l-1.7.5c-.8-2.4-2.3-3.5-4.1-3.5-3.1,0-4.9,3.3-4.9,7.5s2.1,7.1,4.7,7.1,4.4-2.4,4.5-5.8h-4.1v-2.1h5.8v9.6h-1.5l-.2-2.4c-.9,1.7-2.6,2.8-4.6,2.8ZM179.7,75.7v-18h6c2.8,0,4.6,2.2,4.6,5.2s-.9,3.7-2.5,4.5c1.8,1.3,1.2,4.4,2.8,8.4h-2c-1.1-2.7-.9-7.8-3.5-7.8h-3.8v7.8h-1.7ZM181.4,65.8h4.2c1.7,0,2.9-1.2,2.9-3s-1.1-3-2.9-3h-4.2v6ZM191.6,75.7l5.6-18h2l5.6,18h-1.8l-1.6-5.2h-6.4l-1.6,5.2h-1.9ZM195.7,68.4h5l-2.5-8.1-2.5,8.1ZM206.2,75.7v-18h5.9c2.8,0,4.6,2.2,4.6,5.1s-1.8,5.2-4.6,5.2h-4.1v7.7h-1.8ZM207.9,65.8h4.1c1.7,0,2.9-1.2,2.9-3s-1.1-3-2.9-3h-4.1v6ZM218.5,75.7v-18h1.7v7.8h7.9v-7.8h1.7v18h-1.7v-8.2h-7.9v8.2h-1.7ZM232.2,75.7v-18h10.1v2.1h-8.4v5.6h7.7v2.1h-7.7v6h8.5v2.2h-10.2ZM244.5,75.7v-18h6c2.8,0,4.6,2.2,4.6,5.2s-.9,3.7-2.5,4.5c1.8,1.3,1.2,4.4,2.8,8.4h-2c-1.1-2.7-.9-7.8-3.5-7.8h-3.8v7.8h-1.7ZM246.2,65.8h4.2c1.7,0,2.9-1.2,2.9-3s-1.1-3-2.9-3h-4.2v6ZM262.8,76.2c-3.2,0-5.2-2-5.6-5.6l1.7-.4c.4,2.6,1.7,3.9,3.8,3.9s3.6-1.2,3.6-3-1.1-2.6-3.9-3.6c-3.4-1.2-4.8-3-4.8-5.5s1.9-4.6,4.9-4.6,4.7,1.7,5.3,4.9l-1.8.5c-.4-2.2-1.5-3.2-3.6-3.2s-3,.9-3,2.5,1,2.4,3.7,3.5c3.6,1.4,5,3.1,5,5.7s-2.1,5.2-5.3,5.2ZM271.7,79.2l-.6-1c.7-.5,1.3-1.3,1.3-2.3-.9.3-1.7-.5-1.7-1.5s.6-1.6,1.3-1.6,1.4.4,1.4,2.4-.6,3-1.8,4ZM95.8,101.7v-18h5.9c2.8,0,4.6,2.2,4.6,5.1s-1.8,5.2-4.6,5.2h-4.1v7.7h-1.8ZM97.6,91.8h4.1c1.7,0,2.9-1.2,2.9-3s-1.1-3-2.9-3h-4.1v6ZM108.2,101.7v-18h1.7v7.8h7.9v-7.8h1.7v18h-1.7v-8.2h-7.9v8.2h-1.7ZM128.5,102.2c-4.1,0-7.1-4-7.1-9.4s2.8-9.5,7.1-9.5,7.1,4.2,7.1,9.5-2.9,9.4-7.1,9.4ZM128.5,100c3,0,5.2-3,5.2-7.3s-2-7.3-5.2-7.3-5.2,3.2-5.2,7.3,2.2,7.3,5.2,7.3ZM141.5,101.7v-15.9h-4.9v-2.1h11.6v2.1h-5v15.9h-1.7ZM156.2,102.2c-4.1,0-7.1-4-7.1-9.4s2.8-9.5,7.1-9.5,7.1,4.2,7.1,9.5-2.9,9.4-7.1,9.4ZM156.2,100c3,0,5.2-3,5.2-7.3s-2-7.3-5.2-7.3-5.2,3.2-5.2,7.3,2.2,7.3,5.2,7.3ZM165.4,94.5v-1.9h4.7v1.9h-4.7ZM172.7,101.7v-18h5.9c2.8,0,4.4,1.7,4.4,4.5s-.6,3.2-1.8,4c1.6.7,2.4,2.3,2.4,4.3,0,3.1-2,5.2-5,5.2h-5.9ZM174.4,91.2h3.6c1.9,0,3.2-1.1,3.2-2.9s-1-2.5-2.8-2.5h-4.1v5.4ZM174.4,99.5h4.1c2.1,0,3.3-1.2,3.3-3.1s-1.3-3.2-3.5-3.2h-3.9v6.3ZM184.5,101.7l5.6-18h2l5.6,18h-1.8l-1.6-5.2h-6.4l-1.6,5.2h-1.9ZM188.7,94.4h5l-2.5-8.1-2.5,8.1ZM204.5,102.2c-3.2,0-5.2-2-5.6-5.6l1.7-.4c.4,2.6,1.7,3.9,3.8,3.9s3.6-1.2,3.6-3-1.1-2.6-3.9-3.6c-3.4-1.2-4.8-3-4.8-5.5s1.9-4.6,4.9-4.6,4.7,1.7,5.3,4.9l-1.8.5c-.4-2.2-1.5-3.2-3.6-3.2s-3,.9-3,2.5,1,2.4,3.7,3.5c3.6,1.4,5,3.1,5,5.7s-2.1,5.2-5.3,5.2ZM211.8,101.7v-18h10.1v2.1h-8.4v5.6h7.7v2.1h-7.7v6h8.5v2.2h-10.2ZM224.1,101.7v-18h5.1c4.5,0,6.9,3.5,6.9,8.9s-2.4,9.1-6.9,9.1h-5.1ZM225.8,99.6h3c3.5,0,5.4-2.4,5.4-7s-1.9-6.8-5.4-6.8h-3v13.8ZM241.7,101.7l5.6-18h2l5.6,18h-1.8l-1.6-5.2h-6.4l-1.6,5.2h-1.9ZM245.9,94.4h5l-2.5-8.1-2.5,8.1ZM256.3,101.7v-18h6c2.8,0,4.6,2.2,4.6,5.2s-.9,3.7-2.5,4.5c1.8,1.3,1.2,4.4,2.8,8.4h-2c-1.1-2.7-.9-7.8-3.5-7.8h-3.8v7.8h-1.7ZM258,91.8h4.2c1.7,0,2.9-1.2,2.9-3s-1.1-3-2.9-3h-4.2v6ZM273.2,101.7v-15.9h-4.9v-2.1h11.6v2.1h-5v15.9h-1.7ZM281.6,101.7v-18h1.8v18h-1.8ZM291.3,102.2c-3.2,0-5.2-2-5.6-5.6l1.7-.4c.4,2.6,1.7,3.9,3.8,3.9s3.6-1.2,3.6-3-1.1-2.6-3.9-3.6c-3.4-1.2-4.8-3-4.8-5.5s1.9-4.6,4.9-4.6,4.7,1.7,5.3,4.9l-1.8.5c-.4-2.2-1.5-3.2-3.6-3.2s-3,.9-3,2.5,1,2.4,3.7,3.5c3.6,1.4,5,3.1,5,5.7s-2.1,5.2-5.3,5.2ZM302.7,101.7v-15.9h-4.9v-2.1h11.6v2.1h-5v15.9h-1.7ZM316.1,102.2c-3.2,0-5.2-2-5.6-5.6l1.7-.4c.4,2.6,1.7,3.9,3.8,3.9s3.6-1.2,3.6-3-1.1-2.6-3.9-3.6c-3.4-1.2-4.8-3-4.8-5.5s1.9-4.6,4.9-4.6,4.7,1.7,5.3,4.9l-1.8.5c-.4-2.2-1.5-3.2-3.6-3.2s-3,.9-3,2.5,1,2.4,3.7,3.5c3.6,1.4,5,3.1,5,5.7s-2.1,5.2-5.3,5.2ZM325,105.2l-.6-1c.7-.5,1.3-1.3,1.3-2.3-.9.3-1.7-.5-1.7-1.5s.6-1.6,1.3-1.6,1.4.4,1.4,2.4-.6,3-1.8,4ZM94.7,127.7l5.6-18h2l5.6,18h-1.8l-1.6-5.2h-6.4l-1.6,5.2h-1.9ZM98.9,120.4h5l-2.5-8.1-2.5,8.1ZM109.3,127.7v-18h1.8l7.6,14.3v-14.3h1.7v18h-1.8l-7.7-14.3v14.3h-1.7ZM122.9,127.7v-18h5.1c4.5,0,6.9,3.5,6.9,8.9s-2.4,9.1-6.9,9.1h-5.1ZM124.6,125.6h3c3.5,0,5.4-2.4,5.4-7s-1.9-6.8-5.4-6.8h-3v13.8ZM148.3,128.2c-4.2,0-7.1-3.8-7.1-9.2s3.1-9.7,7.3-9.7,5.2,1.9,6.3,5.2l-1.8.5c-.9-2.2-2.5-3.5-4.6-3.5-3.2,0-5.4,3.1-5.4,7.4s2.2,7.2,5.2,7.2,4.1-1.6,4.9-4.2l1.7.5c-1.1,3.8-3.5,6-6.6,6ZM162.6,128.2c-3.5,0-5.6-2.5-5.6-7.3v-11.2h1.8v11.2c0,3.4,1.4,5.1,3.8,5.1s3.9-1.7,3.9-5.1v-11.3h1.7v11.3c0,4.7-2.1,7.2-5.7,7.2ZM170.6,127.7v-18h6c2.8,0,4.6,2.2,4.6,5.2s-.9,3.7-2.5,4.5c1.8,1.3,1.2,4.4,2.8,8.4h-2c-1.1-2.7-.9-7.8-3.5-7.8h-3.8v7.8h-1.7ZM172.4,117.8h4.2c1.7,0,2.9-1.2,2.9-3s-1.1-3-2.9-3h-4.2v6ZM182.5,127.7l5.6-18h2l5.6,18h-1.8l-1.6-5.2h-6.4l-1.6,5.2h-1.9ZM186.7,120.4h5l-2.5-8.1-2.5,8.1ZM201,127.7v-15.9h-4.9v-2.1h11.6v2.1h-5v15.9h-1.7ZM215.7,128.2c-4.1,0-7.1-4-7.1-9.4s2.8-9.5,7.1-9.5,7.1,4.2,7.1,9.5-2.9,9.4-7.1,9.4ZM215.7,126c3,0,5.2-3,5.2-7.3s-2-7.3-5.2-7.3-5.2,3.2-5.2,7.3,2.2,7.3,5.2,7.3ZM224.7,127.7v-18h6c2.8,0,4.6,2.2,4.6,5.2s-.9,3.7-2.5,4.5c1.8,1.3,1.2,4.4,2.8,8.4h-2c-1.1-2.7-.9-7.8-3.5-7.8h-3.8v7.8h-1.7ZM226.5,117.8h4.2c1.7,0,2.9-1.2,2.9-3s-1.1-3-2.9-3h-4.2v6ZM243.1,128.2c-3.2,0-5.2-2-5.6-5.6l1.7-.4c.4,2.6,1.7,3.9,3.8,3.9s3.6-1.2,3.6-3-1.1-2.6-3.9-3.6c-3.4-1.2-4.8-3-4.8-5.5s1.9-4.6,4.9-4.6,4.7,1.7,5.3,4.9l-1.8.5c-.4-2.2-1.5-3.2-3.6-3.2s-3,.9-3,2.5,1,2.4,3.7,3.5c3.6,1.4,5,3.1,5,5.7s-2.1,5.2-5.3,5.2Z"/><path d="M332.2,39.4c0,.3-.3.4-.4.5,0,0,0,0,0,0,0,0,0,0-.1,0,0,0-.2.1-.5.2,0,0-.1.1-.2.2-.7.6-1.5,1.2-2.4,1.8,0,0,0,0,0,0,0,0,0,0,0,0l.2-.2c-.1.2-.3.5-.5.6-.2.2-.4.2-.6.3-.6.6-1.3,1.2-1.8,1.8-.2.2-.3.4-.5.6-.1.2-.3.4-.4.6,0,.1,0,.3,0,.4,0,.2,0,.4-.1.5-.1.3-.4.5-.6.7,0,0,0,0,0,0,0,.2-.2.4-.2.6,0,0,0,0,0,0-.3,0-.4.2-.6.5,0,.1-.2.3-.3.4,0,.1-.2.1-.3.1,0,0,0,0,0,0,0,0,0,0,0,.2,0,.1.1.3,0,.3-.5.2-.4.5-.3.7,0,0,0,.1,0,.2,0,.2-.1.3-.3.3,0,0-.1,0-.1.2,0,.1,0,.2,0,.3,0,0,0,.2,0,.3,0,0-.1.2-.2.4,0,.4-.1.6-.2.7,0,0,0,0,0,.1,0,.1-.1.3-.2.4,0,.2-.2.4-.2.5-.3.3-.6.5-.9.8-.1.1-.4.1-.8,0-.4-.1-.8-.4-1.2-.7-.4-.3-.7-.7-.9-1-.2-.3-.3-.6-.2-.8.2-.3.3-.6.5-.9.2-.4.4-.7.6-1,.1-.2.3-.4.4-.7,0,0,0,0,0,0,0,0,0-.1,0-.2h0c0-.2,0-.4.1-.6,0-.2.2-.2.3-.3,0,0,.1,0,.2-.1,0,0,0,0,0-.1,0-.2.2-.6.5-.8.1-.1.3-.2.5-.3.2-.1.5-.2.5-.4,0-.2.2-.4.4-.5.1-.1.3-.2.2-.4,0-.1,0-.2.2-.3,0,0,.2-.1.3-.3.1-.1.2-.2.4-.3.2,0,.3-.2.3-.4,0-.2,0-.4.2-.6,0,0,0-.1.1-.2,0,0,.1-.2.2-.3,0,0,.2,0,.3,0,0,0,0,0,0,0,0,0,0-.1.1-.2,0,0,0,0,0,0,0-.1,0-.2,0-.3,0-.2.1-.3.3-.3.1,0,.2-.1.3-.3,0,0,0-.2,0-.3,0-.2,0-.3.2-.4,0,0,.1,0,.2,0,0,0,0,0,0,0,0,0,0,0,0,0,.1-.2.2-.5.3-.7,0,0,0,0,0,0,0-.1,0-.3,0-.4,0-.1,0-.3,0-.5,0-.1,0-.3,0-.4,0,0,0,0,.2,0,0,0,.2,0,.2,0,0,0,0,0,0-.1h0s.1-.2.1-.2c0,0,0,0,0,0,0,0,0,0,.2-.1,0,0,.1,0,.2-.1.1-.2.2-.3.3-.5,0,0,0-.1,0-.2,0,0,0-.1-.1-.2,0,0-.1-.2-.2-.3,0,0,0-.1,0-.1,0,0,0,0,0,0,0,0,0,0,0,0,0,0,0,0,0,0,0,0,0,0,0,0,0,0,.2-.1.2-.2,0,0,.2-.1.2-.2,0,0,.2-.1.4-.2.1,0,.2,0,.3-.1,0,0,.1-.1.2-.2,0-.1,0-.2.2-.2,0,0,0,0,.2,0,0,0,.1,0,.2.1,0,0,.2-.1.3-.2,0,0,0,0,0,0h0c0-.2-.2-.6,0-.5,0,0,.1,0,.2.1,0,0,.1,0,.2,0,0,0,0,0,0-.2,0-.1,0-.2.1-.2,0,0,0,0,0,0,0,0,.2,0,.4.1.2-.1.4-.2.7-.3.4-.2.8-.3,1.2-.4.2,0,.5,0,.8.3.3.2.6.6.9,1,.3.4.4.8.5,1.2,0,.4,0,.6,0,.8-.2.2-.3.4-.5.6,0,0,0,0,0,0,0,.1,0,.3,0,.4,0,0,0,0,0,.1Z" style="fill:#00e526;"/><path d="M312.8,61.3c.2,0,.1,0,0,0,0,0,0,0,0,0,0,0,0,0,0,0,0,0,0,0-.2,0,0,0,0,0,0,0,0,0-.2,0-.4,0,0,0,0,0,0,0,0,0,0,0,0,0-.1,0-.2,0-.3,0-.2,0-.3,0-.4-.1,0,0,0,0,0,0,0,0,0,0,0,0,0,0,.1,0,.2,0,0,0,.1,0,.2,0,0,0,0,0,0,0,0,0,0,0,0,0,0,0,0,0,0,0,0,0,0,0,0,0-.2,0-.2,0-.2,0,0,0,0,0,0,0,0,0-.1,0-.2,0,0,0,0,0,0,0,0,0,0,0,0,0,0,0,.2,0,.1,0-.3-.1-.1,0,0,0,0,0,0,0,.1,0,0,0,0,0-.1,0,0,0,0,0,.1,0,0,0,0,0,0,0,0,0,0,0,0,0,.1,0,.2,0,.2,0,0,0,0,0,0,0,0,0,0,0,.1,0,0,0,0,0,.1,0,0,0-.1,0-.2,0,0,0-.2,0-.6-.2-.3-.1-.8-.3-1.3-.5-.5-.2-.9-.3-1.3-.5-.3-.1-.6-.2-.6-.2,0,0-.1,0-.2,0,0,0-.1,0-.1,0,0,0,0,0,0,0,0,0,0,0,0,0-.1,0-.2,0-.3-.1,0,0,0,0,0,0,0,0,0,0,0,0,0,0,0,0,0,0,0,0,0,0,0,0,0,0,.1,0,.2,0,.1,0,.3,0,.2,0,0,0,0,0,0,0,0,0,0,0,0,0,0,0,0,0,0,0,0,0,0,0,.1,0,0,0,0,0,.1,0,0,0,.1,0,0,0-.1,0-.2,0-.2,0,0,0,0,0,0,0,0,0,0,0,0,0,0,0,.1,0,.2,0,0,0,0,0,0,0,0,0,0,0,0,0,0,0,0,0,0,0,0,0-.2,0-.2,0,0,0,0,0,0,0,0,0,0,0,0,0,0,0,0,0,0,0,0,0-.1,0,0,0,0,0,0,0,.1,0,0,0,0,0,0,0,0,0,0,0,0,0,0,0,0,0-.1,0,0,0,0,0,0,0,0,0-.1,0-.2,0-.1,0-.2,0-.2,0,0,0,0,0-.1,0,0,0,0,0,0,0,0,0,.1,0,.1,0,0,0,0,0,0,0,0,0,0,0,0,0,0,0,0,0,0,0,0,0,0,0,0,0,0,0,0,0-.1,0,0,0-.1,0-.2,0,0,0-.1,0-.2,0-.1,0-.2,0-.3-.1,0,0,0,0,0,0,0,0,0,0,0,0,0,0,0,0,0,0,0,0,0,0,0,0,0,0,0,0,0,0,0,0,0,0,0,0,0,0,0,0,0,0,0,0,0,0,.1,0,0,0,0,0,.1,0,0,0,0,0,0,0,0,0,0,0,0,0,0,0,0,0,.2,0,0,0,.1,0,.2,0,0,0,0,0,0,0,0,0,0,0,0,0,0,0,0,0,0,0-.2,0-.5-.2-.3-.1,0,0,.1,0,.2,0,0,0,.1,0,.2,0,0,0,0,0,0,0,0,0-.1,0,0,0,0,0,0,0,0,0,0,0,.1,0,.3.1,0,0,0,0,.1,0,0,0,.2,0,.3,0,0,0,.3,0,.6.2.3.1.8.3,1.2.5.5.2.9.3,1.2.5.3.1.6.2.6.2,0,0,.2,0,.2,0,0,0,0,0,0,0,0,0,.2,0,.3.1,0,0,0,0,0,0Z" style="fill:#00e526;"/><path d="M356.9,37c0,.4-.4,1-.7,1.3,0,0,0,0,0,0,0,0-.1.1-.2.2-.1.2-.3.5-.8,1,0,.2-.2.4-.3.5-1.1,1.9-2.4,3.8-3.6,5.6,0,0,0,0,0,0-.2.5-.5,1.1-.8,1.5-.4.4-.6.7-.8,1-1,1.5-1.9,3-2.8,4.6-.3.5-.5,1-.8,1.5-.2.5-.4.9-.6,1.4,0,.3-.1.6-.2.8v-.4c.1,0,.1,0,.1,0,0,.4,0,.7,0,1,0,.6-.3,1.4-.4,1.9,0,0,0,.2,0,.2,0,.4,0,.9-.1,1.3,0,0,0,0,0,0-.3.3-.4.8-.5,1.5,0,.3,0,.7-.2,1.1,0,.3-.2.4-.3.5,0,0,0,0,0,0,0,.1,0,.2,0,.4,0,.2.2.4,0,.7-.5.9-.3,1.3-.1,1.6,0,0,0,.2,0,.3,0,.3,0,.6-.2.9-.1.2,0,.7,0,1,0,.1,0,.3,0,.5,0,.2,0,.5,0,.7,0,.7,0,1.1,0,1.4,0,0,0,.2,0,.2,0,.3,0,.6,0,.9,0,.2,0,.4,0,.6h0c0,.2,0,.3,0,.5-.2.7-.4,1.5-.6,2.2-.1.4-.4.7-.8.9-.4.2-.9.2-1.4.1-.5-.1-.9-.4-1.2-.7-.3-.3-.4-.7-.4-1.1,0-.7.1-1.4.2-2.2,0-.1,0-.2,0-.3h0c0-.8.1-1.6.2-2.4,0-.6.2-1.3.3-1.9,0,0,0-.1,0-.2,0-.6,0-1.1,0-1.5,0-.3.1-.5.2-.7,0-.1.1-.2.1-.4,0,0,0-.2,0-.3,0-.4,0-1.2.3-1.9,0-.3.2-.6.4-.9.2-.5.4-.9.4-1.1,0-.4.1-.8.2-1.2.1-.4.2-.7.2-.9,0-.2,0-.4.1-.7,0-.2.2-.4.2-.8,0-.4.2-.6.3-.9.1-.3.2-.5.2-.9,0,0,0-.2,0-.3v-.3c.2-.3.3-.6.4-.8,0-.1.2-.3.2-.5,0-.2.2-.5.3-.6.1-.2.3-.3.4-.3,0,0,0,0,.1,0,0-.1.1-.3.2-.4,0,0,0,0,0,0,0-.2,0-.4,0-.6,0-.3.2-.6.4-.8.1-.2.3-.4.4-.6,0-.2.1-.4.2-.6,0-.3.2-.6.3-.8,0,0,.1-.1.2-.1,0,0,0,0,0,0,0,0,0,0,0,0,.2-.5.4-1,.6-1.5,0,0,0,0,0-.1,0-.2,0-.5,0-.6,0-.2.1-.6.2-1,0-.3.2-.5.2-.8,0-.1.1-.2.3-.3.1,0,.2-.2.3-.3,0,0,0-.1,0-.2,0,0,0-.1,0-.2,0,0,.1-.2.3-.4,0,0,.2-.2.3-.3.2-.4.3-.7.5-1.1,0,0,0-.2,0-.3,0,0,0-.1-.1-.2,0,0-.1-.2-.2-.3,0,0,0-.1,0-.2,0,0,0,0,0,0,0,0,0,0,0,0,0,0,0,0,0,0,0,0,0,0,0-.1,0-.2.2-.4.3-.5.1-.2.3-.4.3-.6,0-.2.3-.4.5-.6.1-.2.3-.3.4-.4,0-.1.2-.3.2-.5,0-.2.1-.4.3-.5,0,0,.1,0,.2,0,0,0,.2,0,.3,0,.1-.2.2-.4.3-.6,0,0,0,0,0,0h0c-.1-.3-.3-.7,0-.8,0,0,.2,0,.3,0,0,0,.2,0,.2,0,0,0,0-.2,0-.3,0-.2,0-.3.1-.4,0,0,0,0,0,0,.1,0,.3-.2.5-.2.3-.4.6-.7.8-1.1.5-.6,1-1.2,1.5-1.8.3-.3.6-.5,1.1-.5.5,0,1,0,1.3.4.4.3.7.6.9,1,.2.4.2.8,0,1.1-.2.5-.5,1.1-.7,1.6,0,0,0,0,0,0,0,.2,0,.5,0,.7,0,0,0,.1,0,.2Z" style="fill:#00e526;"/><path d="M342.5,89.8c.2.1.1,0,0,0,0,0,0,0,0,0,0,0,0,0,0,0,0,0,0,0-.1,0,0,0,0,0,0,0,0,0-.2,0-.4-.2,0,0,0,0,0,0,0,0,0,0,0,0,0,0-.2-.1-.2-.2-.2-.1-.3-.2-.4-.2,0,0,0,0,0,0,0,0,0,0,0,0,0,0,0,0,.1.1,0,0,.1,0,.1.1,0,0,0,0,0,0,0,0,0,0,0,0,0,0,0,0,0,0,0,0,0,0,0,0-.2-.2-.2-.1-.2-.1,0,0,0,0,0,0,0,0,0,0-.2-.1,0,0,0,0,0,0,0,0,0,0,0,0,0,0,.2.1,0,0-.3-.2,0,0,0,0,0,0,0,0,.1,0,0,0,0,0,0,0,0,0,0,0,0,0,0,0,0,0,0,0,0,0,0,0,0,0,.1,0,.2.1.2.1,0,0,0,0,0,0,0,0,0,0,0,0,0,0,0,0,.1,0,0,0-.1,0-.2-.1,0,0-.2-.2-.5-.4-.3-.2-.7-.5-1.1-.8-.4-.3-.8-.6-1.1-.8-.3-.2-.5-.3-.5-.4,0,0-.1,0-.2-.1,0,0,0,0,0,0,0,0,0,0,0,0,0,0,0,0,0,0,0,0-.2-.1-.2-.2,0,0,0,0,0,0,0,0,0,0,0,0,0,0,0,0,0,0,0,0,0,0,0,0,0,0,.1,0,.2.1.1,0,.2.2.2.1,0,0,0,0,0,0,0,0,0,0,0,0,0,0,0,0,0,0,0,0,0,0,0,0,0,0,0,0,.1,0,0,0,.1,0,0,0-.1,0-.2-.1-.1-.1,0,0,0,0,0,0,0,0,0,0,0,0,0,0,.1,0,.2.1,0,0,0,0,0,0,0,0,0,0,0,0,0,0,0,0,0,0,0,0-.2-.1-.2-.2,0,0,0,0,0,0,0,0,0,0,0,0,0,0,0,0,0,0,0,0,0,0,0,0,0,0,0,0,.1,0,0,0,0,0,0,0,0,0,0,0,0,0,0,0,0,0-.1,0,0,0,0,0,0,0,0,0-.1,0-.2-.1,0,0-.1-.1-.2-.1,0,0,0,0-.1,0,0,0,0,0,0,0,0,0,0,0,0,0,0,0,0,0,0,0,0,0,0,0,0,0,0,0,0,0,0,0,0,0,0,0,0,0,0,0,0,0,0,0,0,0-.1,0-.2-.1,0,0-.1,0-.2-.1,0,0-.2-.1-.2-.2,0,0,0,0,0,0,0,0,0,0,0,0,0,0,0,0,0,0,0,0,0,0,0,0,0,0,0,0,0,0,0,0,0,0,0,0,0,0,0,0,0,0,0,0,0,0,.1,0,0,0,0,0,0,0,0,0,0,0,0,0,0,0,0,0,0,0,0,0,0,0,.1.1,0,0,.1,0,.2.1,0,0,0,0,0,0,0,0,0,0,0,0,0,0,0,0,0,0-.2-.1-.5-.3-.3-.2,0,0,.1,0,.2.1,0,0,.1,0,.1,0,0,0,0,0,0,0,0,0-.1,0,0,0,0,0,0,0,0,0,0,0,.1,0,.2.2,0,0,0,0,.1,0,0,0,.2.1.3.2,0,0,.2.2.5.4.3.2.7.5,1.1.8.4.3.8.6,1.1.8.3.2.5.4.5.4,0,0,.1.1.2.2,0,0,0,0,0,0,0,0,.2.1.3.2,0,0,0,0,0,0Z" style="fill:#00e526;"/><path d="M372.7,59.9c.2.3.1.9,0,1.2,0,0,0,0,0,0,0,0,0,.1,0,.2,0,.2,0,.5-.2,1,0,.2,0,.3,0,.5,0,1.6-.4,3.2-.7,4.7,0,.2,0,.4-.1.5,0,0,0,0,0,0,0,.4,0,1-.2,1.3-.2.4-.3.7-.4.9-.3,1.4-.6,2.7-.9,4.1,0,.4-.1.9-.2,1.3,0,.4,0,.8-.1,1.2,0,.2,0,.5,0,.7,0,.3,0,.6,0,.8,0,.5-.2,1.1-.3,1.5,0,0,0,.1,0,.2,0,.3,0,.7,0,1,0,0,0,0,0,0-.3.3-.3.6-.4,1.2,0,.2,0,.5-.1.9,0,.2-.1.3-.2.4,0,0,0,0,0,0,0,0,0,.2,0,.3,0,.1.2.3,0,.5-.3.5-.3.8-.2,1.1,0,0,0,.1.1.2,0,0,0,.1.1.2,0,.2,0,.5-.2.7-.1.2,0,.5,0,.8,0,.1,0,.2,0,.4,0,.2,0,.4,0,.6,0,.5.1.8.2,1,0,0,0,.1,0,.2,0,.2,0,.4,0,.6,0,.3,0,.5.1.8,0,.5-.2,1.1-.3,1.6,0,.3-.3.5-.6.7-.4.2-.8.3-1.3.3-.5,0-1-.1-1.3-.3-.4-.2-.6-.5-.6-.8,0-.6-.1-1.2-.2-1.8,0-.7,0-1.5,0-2.2,0-.5,0-1,.2-1.5,0,0,0-.1,0-.2,0-.4-.2-.9-.2-1.2,0-.2,0-.4.1-.5,0,0,0,0,0,0,0,0,0-.2,0-.3,0,0,0-.1,0-.2,0-.3,0-.9.2-1.4,0-.2.2-.5.3-.7.2-.4.3-.7.3-.9,0-.3,0-.6.1-.9,0-.3.2-.5,0-.7,0-.2,0-.3,0-.5,0-.1.1-.3.2-.6,0-.3.1-.5.2-.7.1-.2.2-.4.1-.7,0-.3-.1-.7,0-.9,0-.1,0-.2,0-.4,0-.2,0-.4,0-.5,0-.1.2-.2.3-.3,0,0,0,0,0,0,0-.1,0-.2,0-.3,0,0,0,0,0,0,0-.1-.2-.3-.2-.4,0-.3,0-.5.1-.7,0-.2.1-.4.1-.6,0-.1,0-.3,0-.5,0-.2,0-.5,0-.7,0,0,0-.1.2-.2,0,0,0,0,0,0,0,0,0,0,0,0,0-.4,0-.8,0-1.2,0,0,0,0,0-.1,0-.2-.1-.4-.2-.5,0-.1-.1-.4-.2-.7,0-.2,0-.4,0-.6,0-.1,0-.2.1-.3,0,0,.1-.2.1-.3,0,0,0-.1,0-.2,0,0,0-.1,0-.2,0,0,0-.2,0-.3,0,0,0-.2.1-.3,0,0,0,0,0,0,0-.3,0-.6,0-.9,0,0-.1-.1-.2-.2,0,0-.1,0-.2-.1-.1,0-.2,0-.3-.2,0,0,0,0,0-.1,0,0,0,0,0,0,0,0,0,0,0,0,0,0,0,0,0,0,0,0,0,0,0,0,0-.1,0-.3,0-.5,0-.2,0-.3,0-.5,0-.1,0-.4.2-.6,0-.2.1-.3.1-.4,0-.1,0-.3,0-.4,0-.2,0-.3,0-.4,0,0,0,0,.2,0,0,0,.1,0,.2,0,0-.2,0-.3,0-.5,0,0,0,0,0,0,0,0,0,0,0,0-.2-.1-.5-.3-.3-.6,0,0,.1,0,.2-.1,0,0,.2,0,.2-.1,0,0,0-.1,0-.2,0,0-.2-.2,0-.3,0,0,0,0,0,0,0,0,.1-.2.3-.3,0-.3.1-.7.2-1,.1-.6.2-1.1.3-1.7,0-.3.3-.6.6-.8.4-.2.8-.3,1.3-.3.5,0,1,.1,1.3.3.4.2.6.5.6.8,0,.5.2.9.2,1.4,0,0,0,0,0,0,0,.2.2.4.3.5,0,0,0,0,0,.1Z" style="fill:#00e526;"/><path d="M370.4,107.7c.2,0,.1,0,0,0,0,0,0,0,0,0,0,0,0,0,0,0,0,0,0,0-.2,0,0,0,0,0,0,0,0,0-.2.1-.4.2,0,0,0,0,0,0,0,0,0,0,0,0-.1,0-.2,0-.3,0-.2,0-.4.1-.4.2,0,0,0,0,0,0s0,0,0,0c0,0,.1,0,.2,0,0,0,.1,0,.2,0,0,0,0,0,0,0,0,0,0,0,0,0,0,0,0,0,0,0,0,0,0,0,0,0-.3,0-.3,0-.2,0,0,0,0,0,0,0,0,0-.1,0-.2,0,0,0,0,0,0,0,0,0,0,0,0,0,.1,0,.2,0,.1,0-.4,0-.1,0,0,0,0,0,.1,0,.1,0,0,0,0,0-.1,0,0,0,0,0,.1,0,0,0,0,0,0,0,0,0,0,0,0,0,.1,0,.2,0,.2,0,0,0,0,0,0,0,0,0,0,0,.1,0,0,0,0,0,.1,0,0,0-.1,0-.2,0,0,0-.3,0-.6,0-.4,0-.8,0-1.3,0s-1,0-1.3,0c-.4,0-.6,0-.6,0,0,0-.2,0-.2,0,0,0-.1,0-.1,0s0,0,0,0c0,0,0,0,0,0-.1,0-.2,0-.3,0,0,0,0,0,0,0,0,0,0,0,0,0,0,0,0,0,0,0,0,0,0,0,0,0,0,0,.2,0,.3,0,.1,0,.3,0,.2,0,0,0,0,0,0,0,0,0,0,0,0,0,0,0,0,0,0,0,0,0,0,0,.1,0,0,0,0,0,.1,0,0,0,.1,0,0,0-.1,0-.2,0-.2,0,0,0,0,0,0,0,0,0,0,0,0,0,0,0,.1,0,.2,0,0,0,0,0,0,0,0,0,0,0,0,0,0,0,0,0,0,0,0,0-.2,0-.3,0,0,0,0,0,0,0,0,0,0,0,0,0,0,0,0,0,0,0,0,0-.1,0,0,0,0,0,0,0,.1,0h0s0,0,0,0c0,0,0,0-.1,0,0,0,0,0,0,0,0,0-.1,0-.2,0-.1,0-.2,0-.2,0,0,0,0,0-.2,0,0,0,0,0,0,0,0,0,.1,0,.1,0,0,0,0,0,0,0,0,0,0,0,0,0,0,0,0,0,0,0,0,0,0,0,0,0,0,0,0,0-.1,0,0,0-.1,0-.2,0,0,0-.1,0-.2,0-.1,0-.2,0-.3,0,0,0,0,0,0,0,0,0,0,0,0,0,0,0,0,0,0,0,0,0,0,0,0,0,0,0,0,0,0,0,0,0,0,0,0,0,0,0,0,0,0,0,0,0,0,0,.1,0,0,0,0,0,.1,0,0,0,0,0,0,0,0,0,0,0,0,0,0,0,0,0,.2,0,0,0,.1,0,.2,0,0,0,0,0,0,0,0,0,0,0,0,0h0c-.2,0-.6,0-.4,0,0,0,.1,0,.2,0,0,0,.2,0,.2,0,0,0,0,0,0,0,0,0-.2,0,0,0,0,0,0,0,0,0,0,0,.1,0,.3,0,0,0,0,0,.2,0,0,0,.2,0,.3,0,0,0,.3,0,.6,0,.4,0,.8,0,1.3,0s1,0,1.3,0c.4,0,.6,0,.6,0,0,0,.2,0,.3,0,0,0,0,0,0,0,0,0,.2,0,.3,0,0,0,0,0,0,0Z" style="fill:#00e526;"/><path d="M313.9,63.9c.2-.2.3,0,.4,0,0,0,0,0,0,0,0,0,0,0,0,0,0,0-.2,0-.2,0-.2,0-.6,0-.8.1,0,0-.1,0-.2,0-.2,0,0,0,0,0,0,0,.1.2.3,0h0c0,0,0-.2.1-.3.1,0,.2-.2.3-.2,0,0,0,0,0,0,.2-.4.4-.9.5-1.4,0-.1,0-.3,0-.4,0,0,0-.1,0-.2,0,0,0,0,0,0,0,0-.1,0-.2,0,0,0,0,.1,0,.2,0,.2.5.3.7.2,0,0,0,0,0,0,.1,0,.2,0,.2,0,0,0,0,0,0,0,0,0,0,0,0,0-.1-.2-.2-.2-.3-.1,0,0-.1,0-.2.1,0,0-.2,0-.2,0,0,0,0,0,0,0,0,0,0,0,0,.1,0,.1,0,.2,0,.2-.4,0-.3.2-.2.4,0,0,0,.1,0,.1,0,.1-.1.1-.2.1-.1,0-.1.2,0,.3,0,0,0,0,0,0,0,0,0,0,0,0,0,0,0,0,0,.2,0,.2,0,.3.1.3,0,0,0,0,0,0,0,0,0,.1,0,.2,0,0,0,.2,0,.2,0,.1-.2.3-.3.5,0,.1-.3.2-.7.3-.4,0-.9,0-1.3,0-.5,0-1-.1-1.3-.3-.4-.1-.6-.3-.6-.4,0-.3,0-.6,0-1,0-.4,0-.9.3-1.4.1-.3.3-.5.4-.8,0,0,0,0,0,0,0,0,0,0,0,0,0-.3,0-.5.2-.7,0-.1.2-.2.3-.2,0,0,.1,0,.2,0,0,0,0,0,0-.1.1-.2.3-.5.6-.6.1,0,.3,0,.5-.1.3,0,.5,0,.6-.2.1-.2.4-.3.7-.3,0,0,0,0,.1,0,.2,0,.4,0,.5-.2.2-.1.4-.1.7,0,.2,0,.4.1.7.3.3.2.5.4.6.5.1.2.2.4.4.5.3.2.4.4.5.5,0,0,0,.2,0,.3,0,0,0,0,0,0,0,.1,0,.2,0,.4,0,0,0,.2-.2.3,0,0,0,0,0,0,0,0,0,.1,0,.2,0,0,0,0,0,0,0,0,.2.1.3.2.1.1,0,.3,0,.4,0,.1,0,.2,0,.3,0,0,0,.2,0,.3,0,.1.1.3,0,.4,0,0,0,0-.1,0,0,0,0,0,0,0,0,0,0,0,0,0,0,.2,0,.4,0,.7,0,0,0,0,0,0,0,0,.1.2.2.3,0,0,0,0,0,0,0,0,.1.3.2.5,0,.1,0,.3,0,.4,0,0,0,.1-.1.2,0,0-.2,0-.2.2,0,0,0,0,0,.1,0,0,0,0,0,.1s0,.1-.1.2c0,0-.1.1-.2.2,0,.2-.2.5-.3.7,0,0,0,.2,0,.2,0,0,0,.1.1.2,0,0,.1.2.2.3,0,0,0,.1,0,.1,0,0,0,0,0,0,0,0,0,0,0,0,0,0,0,0,0,0,0,0,0,0,0,.1,0,0-.2.2-.3.3,0,0,0,0,0,0-.1,0-.2.2-.3.2,0,0-.3.2-.5.2-.1,0-.3,0-.4.1-.1,0-.2.1-.3.2-.1.1-.2.2-.4.2,0,0,0,0-.2-.1,0,0-.1-.1-.2-.2-.2,0-.4.1-.6.1,0,0,0,0,0,0h0c-.1.3-.4.6-.9.4-.1,0-.2-.2-.2-.2,0,0,0-.2-.2-.2,0,0-.2,0-.3,0-.1,0-.3,0-.4,0,0,0,0,0,0,0,0,0,0,0,0,0,0,0,0-.2,0-.4-.2-.1-.3-.3-.5-.4-.3-.2-.5-.5-.8-.8-.1-.2-.2-.5,0-.9.1-.4.4-1,.9-.9.2,0,.5-.2.6-.4.1-.2.3-.4.4-.5.2-.3.4-.5.4-.5.1,0,.3,0,.4,0,0,0,0,0,0,0,0,0,.2-.1.3-.2,0,0,0,0,0,0Z" style="fill:#00e526;"/><path d="M341.4,85.8c.2.1.1.4.1.5,0,0,0,0,0,0,0,0,0,0,0,.1,0,0,0,.2-.1.5,0,0,0,.1,0,.2,0,.8,0,1.6-.2,2.5,0,0,0,0,0,0,0,0,0,0,0,0,0,0,0-.3-.3-.6-.4-.4-1-.4-1.3-.4-.4,0-.5.2-.5.2,0,0,0,.1,0,.2.2,0,.4-.2.5-.4,0-.1.2-.2.2-.4,0-.1,0-.3.1-.4,0,0,0-.2,0-.3,0-.1,0-.2-.1-.3,0-.2.1-.4.2-.6,0,0,0,0,0,0,0-.1,0-.3,0-.4,0,0,0,0,0,0,.3-.1.3-.3.3-.5,0,0,0-.2,0-.3,0,0,0,0,0,0,0,0,.1,0,.2-.1,0,0,0,0,0,0,0,0,0,0,0,0-.1,0-.2,0-.1,0,.3-.3,0-.2-.1-.1,0,0,0,0,0,0,0,0,0,0,.2,0,0,0,0,0,0,0,.1,0,.3.2.4.2,0,0,.1,0,.1,0,0,0,0,0,0,0,0,.1,0,.2,0,.3,0,0,0,0,0,0,0,0,0,.1-.1.2,0,0,0,0,0,0,0,.1-.2.2-.2.3-.2,0-.5.2-.8.3-.1,0-.4,0-.7-.3-.3-.2-.6-.6-.9-1-.3-.4-.5-.8-.7-1.2-.1-.4-.1-.6,0-.7.2-.2.4-.5.6-.7.1-.1.2-.2.4-.4.2-.1.4-.3.7-.4.4-.2.8-.4,1.7-.4,0,0,.2,0,.3,0,.3,0,.6,0,.9.1.5.2.8.4,1,.6.3.2.3.4.4.6,0,.1,0,.2.1.3,0,0,0,.1.1.2.2.3.4.8.4,1.3,0,.2,0,.4-.1.5,0,0,0,0,0,.1-.1.2-.3.4-.2.5,0,.2,0,.4,0,.6,0,.2-.1.3,0,.4,0,.1,0,.2,0,.3,0,0-.1.2-.2.3,0,.2-.1.3-.2.4-.1.1-.2.2-.1.4,0,.2.1.4,0,.6,0,0,0,.1,0,.2,0,.1,0,.2-.1.3,0,0-.2.1-.3.1,0,0,0,0,0,0,0,0,0,.1,0,.2,0,0,0,0,0,0,0,0,.1.2.1.3,0,.2-.1.3-.2.4-.1,0-.2.2-.3.3,0,0,0,.2-.1.3,0,.2-.1.3-.2.4,0,0,0,0,0,0,0,0-.1,0-.2,0,0,0,0,0,0,0,0,0,0,0,0,0-.2.3-.5.6-1,.8,0,0,0,0-.1,0-.2.1-.5.2-.7.3-.2.1-1,0-1.6-.4-.4-.3-.7-.6-.8-.9-.1-.1-.1-.3,0-.5,0-.1,0-.3,0-.4,0,0,0-.1,0-.2,0,0,0,0,0-.1,0,0,0,0,0,0,0,0,0,0,0-.2,0,0,0-.1,0-.2,0-.2-.1-.3-.2-.5,0,0-.1,0-.2,0,0,0-.1,0-.2,0-.1,0-.2,0-.3,0,0,0-.1,0,0,0,0,0,0,0,0,0,0,0,0,0,0,0,0,0,0,0,0,0,0,0,0,0,0,0,0,0,0-.2,0-.2,0,0,0-.2,0-.3,0,0,0-.2,0-.3,0,0,0-.2,0-.2,0,0,0-.1,0-.2,0,0,0-.2,0-.2,0,0,0,0,.2,0,0,0,.1,0,.2,0,0,0,0-.2,0-.3,0,0,0,0,0,0h0c-.2,0-.6-.1-.4-.3,0,0,.1,0,.2,0,0,0,.2,0,.2,0,0,0,0,0,0,0,0,0-.2-.1,0-.2,0,0,0,0,0,0,0,0,.1-.1.3-.2,0-.2,0-.4.1-.5,0-.3.2-.6.3-.9,0-.1.3-.3.6-.4.4-.1.8-.2,1.3-.2.5,0,1,0,1.3.2.4,0,.6.2.6.4,0,.2.2.4.3.6,0,0,0,0,0,0,0,0,.2.2.3.2,0,0,0,0,0,0Z" style="fill:#00e526;"/><path d="M369.1,112c0,.1,0,.2,0,.2.1,0,.1-.2.1-.3,0,0,0,0,0,0,0,0,0,0,0,0,0,0,0-.1-.1-.1,0,0,0,0,0,0,0,.3-.3,1-.4,1.7,0,0,0,0,0,0,0,.2.1.4,0,.6,0,0,0,.1,0,.2,0-.1-.2-.2-.3-.3-.1-.2-.4-.4-.6-.5-.2,0-.4,0-.5,0-.2,0-.2.1-.2.2,0,0,.1,0,.2,0,0,0,.2-.2.3-.3,0-.1.1-.2.2-.4,0-.1,0-.2,0-.3,0-.1,0-.3,0-.3,0-.2.2-.4.3-.6,0,0,0,0,0,0,0-.2,0-.3,0-.5,0,0,0,0,0,0,.3,0,.3-.2.4-.5,0,0,0-.1,0-.2h0c0,0,0,0,0,0,0,0,.1-.1.2-.2,0,0,0,0,0,0,0,0,0,0,0-.1,0,0-.2-.1-.1-.2.4-.3.1-.4,0-.5,0,0-.1,0-.1,0,0,0,0-.2,0-.2,0,0,0-.1-.2-.1,0,0,0,0,0,0h0s0,0,0,.1c0,.3.2.4.3.5,0,0,0,0,0,0,0,0,0,0,0,.1,0,0,0,0-.1.1-.1,0-.4-.1-.6-.1-.1,0-.3-.2-.4-.6-.2-.3-.3-.8-.4-1.3,0-.5-.1-1,0-1.3,0-.4.2-.6.3-.7.3-.1.7-.3,1.1-.3.5,0,1.3-.2,2.4.6.5.4.7.8.9,1.2,0,.2.1.4.2.5,0,0,0,0,0,.1.2.3.4.7.4.9,0,.2,0,.3,0,.4,0,0,0,.1,0,.2,0,0,0,0,0,.1,0,.2,0,.6,0,1,0,.1-.2.3-.3.5,0,0,0,0,0,0v.2c-.2.2-.4.3-.4.4,0,.2,0,.4-.2.5,0,.1-.2.3-.1.4,0,.1,0,.2,0,.3,0,0-.1.2-.2.3,0,.2-.2.2-.3.3-.1.1-.2.2-.2.4,0,.2,0,.4,0,.6,0,0,0,.1-.1.2,0,.1-.1.2-.2.3,0,0-.2,0-.3,0,0,0,0,0,0,0,0,0,0,.1-.1.2,0,0,0,0,0,0,0,.1,0,.3,0,.4,0,.2-.2.3-.4.4-.1,0-.3.1-.4.2,0,0-.1.1-.2.2,0,0,0,0-.1,0-.2.2-.4.3-.6.3,0,0-.1,0-.2,0t0,0s0,0,0,0c-.4.1-1,.2-1.7-.2,0,0-.1,0-.2,0-.3-.2-.6-.4-.8-.5-.2-.1-.4-.5-.5-.8,0,0,0,0,0-.1,0-.1-.1-.2-.2-.3,0,0,0-.1,0-.2,0,0,.1-.1,0-.2,0,0,0,0,0,0,0,0,0,0,0,0,0,0,0-.1,0-.2,0,0,0-.1,0-.2,0-.2-.1-.4-.1-.5,0,0-.1,0-.2,0,0,0-.1,0-.2,0-.1,0-.2,0-.3,0,0,0,0,0,0,0,0,0,0,0,0,0,0,0,0,0,0,0,0,0,0,0,0,0,0,0,0,0,0,0,0,0,0-.2,0-.3,0-.1,0-.2,0-.3,0-.1,0-.3.2-.4,0-.1.1-.2.2-.3,0,0,0-.2,0-.3,0-.1,0-.3,0-.4,0,0,0,0,.2,0,0,0,.2,0,.2,0,0-.1,0-.3.1-.4,0,0,0,0,0,0,0,0,0,0,0,0-.2-.2-.4-.5-.1-.7,0,0,.2,0,.3,0,0,0,.2,0,.2,0,0,0,0-.1,0-.2,0-.1,0-.3.1-.4,0,0,0,0,0,0,.1,0,.3-.1.5-.1,0,0,.1-.1.2-.2.1,0,.3-.2.5-.2.3-.2.7-.3,1.1-.5.2,0,.5,0,.9.2.2.1.4.3.6.5.1.1.3.4.1.5,0,0-.2,0-.3,0-.1,0-.3,0-.3.2,0,.2.2.6.4.7.3.2.4.4.6.5.2.3.3.5.3.6,0,.1-.1.3-.2.5,0,0,0,0,0,0,0,0,0,.2,0,.4,0,0,0,0,0,.1Z" style="fill:#00e526;"/><path d="M309.1,23.3c0,.2,0,.5-.2.6,0,0,0,0,0,0,0,0,0,0,0,.1,0,0-.1.2-.3.5,0,0,0,.2,0,.2-.4.9-.8,1.7-1.4,2.5,0,0,0,0,0,0,0,.2-.2.5-.3.6-.2.2-.3.3-.4.4-.1.2-.2.3-.3.5-.3.5-.7.9-1,1.4-.1.2-.2.4-.4.6-.1.2-.2.4-.3.6,0,.1,0,.2,0,.4,0,.2,0,.3-.1.4-.1.3-.3.5-.5.7,0,0,0,0,0,0,0,.2-.2.3-.2.5,0,0,0,0,0,0-.2,0-.3.2-.5.5,0,.1-.1.2-.3.4,0,0-.2.1-.2.1,0,0,0,0,0,0,0,0,0,0,0,.2,0,.1,0,.2,0,.3-.4.2-.4.4-.3.6,0,0,0,0,0,.1,0,.1-.1.2-.3.3-.1,0-.2.2-.2.4,0,0,0,.1,0,.2,0,0-.1.2-.1.3,0,.3-.1.4-.2.5,0,0,0,0,0,0,0,0,0,.2-.1.3,0,.1-.1.3-.1.4-.2.2-.4.5-.6.7-.1.1-.3.2-.6.1-.3,0-.6-.2-.8-.3-.3-.2-.5-.4-.7-.6-.1-.2-.2-.4-.1-.6.1-.3.2-.6.4-.9.2-.3.3-.7.5-1,.1-.2.3-.4.4-.6,0,0,0,0,0,0,0-.2.1-.5.2-.6,0-.1.1-.2.2-.2,0,0,0,0,.1-.1,0,0,0,0,0,0,0-.2.2-.4.4-.6,0,0,.2-.2.4-.2.2-.1.4-.2.4-.3,0-.2.2-.3.3-.4.1-.1.2-.2.2-.3,0-.1,0-.2.1-.2,0,0,.1-.1.2-.2,0-.1.2-.2.3-.3.1,0,.2-.1.2-.3,0-.2,0-.4.1-.5,0,0,0-.1.1-.2,0,0,0-.2.2-.2,0,0,.1,0,.2,0,0,0,0,0,0,0,0,0,0-.1,0-.2,0,0,0,0,0,0,0,0,0-.2,0-.3,0-.1.1-.2.2-.3,0,0,.1-.1.2-.2,0,0,0-.2,0-.2,0-.1,0-.3.1-.3,0,0,0,0,.1,0h0s0,0,0,0c0-.1,0-.2.1-.4,0,0,0-.2,0-.2,0,0,0,0,0,0,0-.1,0-.2,0-.3,0,0,0-.2,0-.4,0-.1,0-.2,0-.3,0,0,0,0,.1-.1,0,0,.1,0,.1-.1,0,0,0,0,0,0,0,0,0,0,0,0,0,0,0,0,.1-.1,0,0,0,0,.1-.1,0-.2,0-.3.1-.5,0,0,0,0,0-.1,0,0,0,0-.1-.1,0,0-.1,0-.2-.1,0,0,0,0,0,0,0,0,0,0,0,0,0,0,0,0,0,0,0,0,0,0,0,0,0,0,0,0,0,0,0,0,0-.1.1-.2,0,0,0-.2.1-.2,0,0,.1-.2.2-.2,0,0,.1-.1.2-.2,0,0,0-.1,0-.2,0,0,0-.2,0-.2,0,0,0,0,.1,0,0,0,.1,0,.2,0,0,0,0-.2,0-.2,0,0,0,0,0,0,0,0,0,0,0,0-.1-.1-.3-.3-.1-.4,0,0,.1,0,.2,0,0,0,.1,0,.1,0,0,0,0,0,0-.1,0,0,0-.1,0-.2,0,0,0,0,0,0,0,0,.1,0,.2,0,0-.2.2-.3.3-.5,0-.1.1-.2.2-.3.1-.2.2-.3.4-.5.1-.1.3-.2.6-.3,0,0,.2,0,.4,0,0,0,.3,0,.5,0,.2,0,.2.2.2.2,0,.2-.2.2-.4.3-.1,0-.3,0-.4.3,0,0,0,.2.2.3.2.1.5,0,.6,0,.2,0,.3,0,.3,0,.2,0,.3.2.3.4,0,.2,0,.3,0,.5,0,0,0,.1,0,.2,0,0,0,0,0,0,0,.1,0,.2.1.3,0,0,0,0,0,0Z" style="fill:#00e526;"/><path d="M286.3,54.2c.2,0,0,0,0,0,0,0,0,0,0,0,0,0,0,0,0,0,0,0,0,0-.1,0,0,0,0,0,0,0,0,0-.1,0-.3,0,0,0,0,0,0,0,0,0,0,0,0,0,0,0-.1,0-.2,0-.1,0-.2,0-.3,0,0,0,0,0,0,0s0,0,0,0c0,0,0,0,.1,0,0,0,0,0,.1,0,0,0,0,0,0,0,0,0,0,0,0,0,0,0,0,0,0,0,0,0,0,0,0,0-.2,0-.2,0-.2,0,0,0,0,0,0,0,0,0,0,0-.1,0,0,0,0,0,0,0,0,0,0,0,0,0,0,0,.2,0,0,0-.2,0,0,0,0,0,0,0,0,0,0,0,0,0,0,0,0,0,0,0,0,0,0,0,0,0,0,0,0,0,0,0,0,0,0,0,0,0,.1,0,.2,0,0,0,0,0,0,0,0,0,0,0,0,0,0,0,0,0,0,0,0,0,0,0-.1,0,0,0-.2,0-.4,0-.2,0-.6,0-.9,0s-.6,0-.9,0c-.2,0-.4,0-.4,0,0,0-.1,0-.1,0,0,0,0,0,0,0s0,0,0,0c0,0,0,0,0,0,0,0-.2,0-.2,0,0,0,0,0,0,0,0,0,0,0,0,0,0,0,0,0,0,0,0,0,0,0,0,0,0,0,.1,0,.2,0,0,0,.2,0,.2,0,0,0,0,0,0,0,0,0,0,0,0,0,0,0,0,0,0,0,0,0,0,0,0,0,0,0,0,0,.1,0,0,0,0,0,0,0,0,0-.1,0-.1,0,0,0,0,0,0,0,0,0,0,0,0,0,0,0,0,0,.1,0,0,0,0,0,0,0,0,0,0,0,0,0,0,0,0,0,0,0,0,0-.1,0-.2,0,0,0,0,0,0,0,0,0,0,0,0,0,0,0,0,0,0,0,0,0,0,0,0,0,0,0,0,0,0,0h0s0,0,0,0c0,0,0,0-.1,0,0,0,0,0,0,0,0,0,0,0-.2,0,0,0-.1,0-.2,0,0,0,0,0-.1,0,0,0,0,0,0,0,0,0,0,0,0,0,0,0,0,0,0,0,0,0,0,0,0,0,0,0,0,0,0,0,0,0,0,0,0,0,0,0,0,0,0,0,0,0,0,0-.1,0,0,0,0,0-.1,0,0,0-.1,0-.2,0,0,0,0,0,0,0,0,0,0,0,0,0,0,0,0,0,0,0,0,0,0,0,0,0,0,0,0,0,0,0,0,0,0,0,0,0,0,0,0,0,0,0,0,0,0,0,0,0,0,0,0,0,0,0,0,0,0,0,0,0,0,0,0,0,0,0,0,0,0,0,.1,0,0,0,0,0,.1,0,0,0,0,0,0,0,0,0,0,0,0,0h0c-.2,0-.4,0-.2,0,0,0,0,0,.1,0,0,0,.1,0,.1,0,0,0,0,0,0,0,0,0-.1,0,0,0,0,0,0,0,0,0,0,0,0,0,.2,0,0,0,0,0,.1,0,0,0,.1,0,.2,0,0,0,.2,0,.4,0,.2,0,.6,0,.9,0s.6,0,.9,0c.2,0,.4,0,.4,0,0,0,.1,0,.2,0,0,0,0,0,0,0,0,0,.1,0,.2,0,0,0,0,0,0,0Z" style="fill:#00e526;"/><path d="M289.4,18.2c0,.2-.2.5-.4.6,0,0,0,0,0,0,0,0,0,0,0,.1,0,0-.2.2-.5.4,0,0-.1.2-.2.2-.6.9-1.3,1.6-2.1,2.3,0,0,0,0,0,0-.1.2-.3.5-.5.6-.2.2-.4.3-.5.3-.6.6-1.2,1.2-1.7,1.8,0,0-.1.2-.2.2h0c0,0-.2.2-.2.3-.1.2-.2.4-.3.6,0,.1,0,.3,0,.4,0,.2,0,.3-.1.5-.1.3-.3.6-.5.8,0,0,0,0,0,0,0,.2-.2.4-.2.6,0,0,0,0,0,0-.2,0-.3.3-.5.6,0,.1-.2.3-.3.5,0,.1-.2.1-.2.2,0,0,0,0,0,0,0,0,0,0,0,.2,0,.1,0,.2,0,.3-.4.3-.4.5-.3.7,0,0,0,.1,0,.1,0,0,0,0,0,.1,0,0-.2.2-.3.2-.1,0-.2.3-.2.5,0,0,0,.1,0,.2,0,0-.1.2-.1.3,0,.3-.1.5-.2.6,0,0,0,0,0,.1,0,.1,0,.2-.1.4,0,.2-.1.3-.1.4-.2.3-.4.5-.6.8-.1.1-.3.2-.6.2-.3,0-.6,0-.9-.2-.3-.1-.5-.4-.7-.6-.2-.2-.2-.4-.2-.6.1-.3.2-.7.4-1,.2-.4.3-.8.6-1.2.1-.3.3-.5.5-.8,0,0,0,0,0,0,0-.3.1-.5.2-.7h0c0-.1.1-.2.2-.3,0,0,0,0,.1-.1,0,0,0,0,0-.1,0-.2.2-.5.4-.7,0-.1.2-.2.4-.3.2-.1.4-.3.4-.4,0-.2.2-.3.3-.5.1-.1.2-.3.2-.4,0-.1,0-.2.2-.3,0,0,.2-.2.2-.3,0-.1.2-.2.3-.3.1-.1.2-.2.2-.4,0-.2,0-.4.2-.5,0,0,0-.1.1-.2,0,0,.1-.2.2-.3,0,0,.2,0,.2-.1,0,0,0,0,0,0,0,0,0-.1,0-.2,0,0,0,0,0,0,0,0,0,0,0,0h0c0-.2,0-.2,0-.3,0-.2.1-.2.3-.3,0,0,.2-.1.2-.3,0,0,0-.2.1-.3,0-.1.1-.3.2-.3,0,0,0,0,.1,0,0,0,0,0,0,0,0,0,0,0,0,0,.1-.2.2-.4.4-.7,0,0,0,0,0,0,0-.1,0-.2,0-.3,0,0,0-.3.1-.5,0-.1.1-.2.1-.3,0,0,0,0,.2-.1,0,0,.1,0,.2,0,0,0,0,0,0-.1,0,0,0,0,0-.1,0,0,0,0,.2-.1,0,0,.1,0,.2-.1,0-.2.2-.3.3-.5,0,0,0-.1,0-.2,0,0,0,0,0-.1,0,0,0-.1-.1-.2,0,0,0,0,0,0,0,0,0,0,0,0,0,0,0,0,0,0,0,0,0,0,0,0,0,0,0,0,0,0,0,0,.1-.1.2-.2,0,0,.1-.2.2-.2,0,0,.2-.2.3-.2,0,0,.2-.1.2-.2,0,0,0-.1.1-.2,0,0,0-.2.1-.2,0,0,0,0,.1,0,0,0,0,0,.1,0,0,0,.1-.2.2-.2,0,0,0,0,0,0,0,0,0,0,0,0,0-.2-.2-.4,0-.4,0,0,.1,0,.2,0,0,0,.1,0,.1,0,0,0,0,0,0-.1,0,0,0-.2,0-.2,0,0,0,0,0,0,0,0,.1,0,.3,0,.1-.1.3-.3.4-.4.2-.2.5-.5.7-.7.1-.1.3-.2.6-.1.3,0,.6,0,.9.2.3.1.6.3.7.6.2.2.2.5.1.7-.1.3-.2.6-.3.9,0,0,0,0,0,0,0,.1,0,.3,0,.4,0,0,0,0,0,0Z" style="fill:#00e526;"/><path d="M273.7,43.6c.2,0,.2,0,.2.2,0,0,0,0,0,0,0,0,0,0,0,0,0,0,0,.1.1.3,0,0,0,0,.1,0,0,0,.1.2.2.2-.1,0-.3,0-.3,0,0,0,0,.1,0,.1,0,0,0,0,0,0,0,0,0,0,.1,0,0,0,.1,0,.2.1,0,0,0,0,0,0,.2,0,.4-.2.5-.5,0,0,0-.2,0-.3,0,0,0-.2,0-.2,0,0,0,0-.1,0,0,0,0,0,0,0,0,0,0,0,0,0,0,0,0-.1,0-.2,0,0,0,0,0,0,0,0-.1,0-.2,0,0,0,0,0,0,0,0-.2,0-.2-.2-.3,0,0-.1,0-.2-.1,0,0,0-.1,0-.2,0,0,0,0,0,0,0,0,0,0,0,0,0,0-.1.1-.2,0-.1-.3-.3-.1-.3,0,0,0,0,0,0,0,0,0,0,0-.1,0,0,0,0,0,0,0,0,0-.1,0-.2,0,0,0,0,0,0,0,0,0,0,0-.1,0-.1.1-.2.2-.2.2,0,0,0,0,0,0,0,0,0,0-.1.1,0,0-.1.1-.2.2-.2,0-.3,0-.5.1,0,0-.3,0-.4-.2-.2-.2-.4-.4-.5-.7-.2-.3-.3-.6-.3-.8,0-.2,0-.4,0-.5.2-.2.4-.3.6-.5.3-.2.6-.3,1-.4.3,0,.5,0,.8-.1,0,0,0,0,0,0,.2,0,.3-.1.5-.1,0,0,.1,0,.2,0,.1,0,.2,0,.3,0,0,0,0,0,.1,0,0,0,0,0,.1,0,.2,0,.5,0,.7.2.1,0,.2.2.3.3.1.2.2.3.3.3.2,0,.3.2.4.3.1.1.2.2.3.2.1,0,.2,0,.2.2,0,0,0,.2.2.3,0,.1.1.3.1.4,0,.1,0,.2,0,.3,0,0,0,0,0,.1.1.1.3.3.3.4,0,0,0,.1,0,.2,0,0,0,.2,0,.3,0,0,0,.1-.1.2,0,0,0,0,0,0,0,0,0,.1,0,.2,0,0,0,0,0,0,0,0,.1.1.1.2,0,.1,0,.2,0,.4,0,0-.1.2-.1.3,0,0,0,.2,0,.3,0,.1,0,.3-.1.3,0,0,0,0-.1,0,0,0,0,0,0,0,0,0,0,0,0,0,0,.2-.2.4-.3.6,0,0,0,0,0,0,0,0,0,.1,0,.2,0,0,0,0,0,.1,0,.1-.1.3-.3.4,0,0-.2.2-.3.3,0,0-.1,0-.2,0,0,0-.1,0-.2,0,0,0,0,0,0,0,0,0,0,0,0,0,0,0-.1,0-.2,0,0,0-.1,0-.2,0-.2,0-.4.1-.6.1,0,0,0,0-.1.1,0,0,0,0,0,.1,0,0,0,.1-.1.2,0,0,0,0-.1,0,0,0,0,0,0,0,0,0,0,0,0,0,0,0,0,0,0,0,0,0,0,0,0,0-.1,0-.3,0-.4-.1-.2,0-.3-.1-.4-.2-.1,0-.3-.2-.5-.4,0-.1-.2-.2-.3-.3,0,0,0,0,0,0,0,0,0,0-.2,0,0,0-.1,0-.1-.1,0,0,0,0,0-.1,0,0,0,0,0-.1,0,0,0-.1-.1-.2,0,0,0,0,0,0,0,0,0,0,0,0-.2,0-.4.2-.4,0,0,0,0,0,0-.1,0,0,0,0,0-.1,0,0,0,0-.1,0,0,0-.1,0-.1,0,0,0,0,0,0,0,0,0,0-.1,0-.2,0-.1-.2-.3-.2-.5-.1-.3-.2-.6-.3-1.1,0-.2,0-.7.5-.9.4-.2.7,0,.8.4.1.3.4.6.7.4.4-.2.5-.5.5-.5,0-.1.1,0,.2,0,0,0,0,0,0,0,0,0,.2,0,.2,0,0,0,0,0,0,0Z" style="fill:#00e526;"/><path d="M298,49.2c.2.1,0,.4,0,.5,0,0,0,0,0,0,0,0,0,0,0,.1,0,0,0,.2-.1.4,0,0,0,.1,0,.2,0,.3,0,.7,0,.9,0,0,0,0,0,0,0,0,0-.1-.3-.5-.2-.2-.8-.7-1.4-.6-.6,0-.7.3-.9.4-.2.2-.2.2-.2.2,0,0,.1-.1.2-.3,0,0,0,0,0,0,0-.2.1-.4.2-.5.1-.1.2-.2.3-.3.3-.5.6-1.1.8-1.7,0-.2.1-.4.2-.6,0-.2,0-.3,0-.5,0-.1,0-.2,0-.3,0-.1,0-.2,0-.3,0-.1,0-.2,0-.3,0,0,0,.2.1.3,0,0,0,0,0,0,.1.2.2.2.2.3,0,0,0,0,0,0,0-.2,0-.2-.1-.2,0,0,0,0-.2,0,0,0,0,0,0,0,0,0,0,0-.1,0,0,0,0,0,0,0,0,0,0,0,0,0,0,0,0,.2-.1.2-.3,0-.3.2-.3.3,0,0,0,0,0,.1,0,0-.1.1-.3.1,0,0-.1.1-.2.3,0,0,0,0,0,.1,0,0,0,.1-.1.2,0,0,0,0,0,0,0,.2,0,.3,0,.4,0,0,0,0,0,0,0,0,0,.1,0,.2,0,0,0,.2,0,.2,0,.1-.2.3-.3.5,0,.1-.2.2-.5.2-.3,0-.6,0-.9,0-.3,0-.6-.2-.8-.3-.2-.1-.3-.3-.3-.5,0-.3,0-.6.1-1,.1-.4.3-.9.6-1.2,0,0,0-.1.1-.2.1-.2.3-.3.4-.5,0,0,0,0,0,0,0-.2.2-.4.3-.6,0-.1.2-.2.3-.2,0,0,.1,0,.2,0,0,0,0,0,0,0,.1-.1.4-.4.8-.5,0,0,.2,0,.3,0,.1,0,.2,0,.3,0,.3,0,.6,0,.7,0,.2,0,.5,0,.8.1.3.1.5.3.7.4.2.1.4.3.4.6,0,.2,0,.5,0,.7,0,0,0,0,0,0,0,.2,0,.3-.1.4,0,.1-.1.2,0,.4,0,.2,0,.3,0,.5,0,0,0,.1,0,.2,0,0,0,.2,0,.3,0,0-.1.1-.2.1,0,0,0,0,0,0,0,0,0,.1,0,.2,0,0,0,0,0,0,0,0,.1.1.1.2,0,.1,0,.2,0,.3,0,0-.1.2-.1.3,0,0,0,.2,0,.2,0,.1,0,.2,0,.3,0,0,0,0-.1,0h0s0,0,0,0c0,.2,0,.4,0,.6,0,0,0,0,0,0,0,0,0,.2,0,.3,0,0,0,.2,0,.4,0,.1,0,.2,0,.3,0,0,0,0-.1.1,0,0-.1,0-.1.1,0,0,0,0,0,0,0,0,0,0,0,0,0,0,0,0-.1.2,0,0,0,0-.1.1,0,.2-.1.3-.3.6,0,0,0,.1,0,.2,0,0,0,.1,0,.2,0,.1,0,.2-.2.4-.1.2-.3.3-.7.4-.2,0-.3,0-.4,0-.1,0-.3,0-.4,0-.1,0-.2,0-.4,0-.2,0-.5-.2-.8-.4-.6-.8-.5-1-.6-1.2,0-.1,0-.2,0-.3,0,0,0,0,0-.1,0,0,0-.2,0-.3,0,0,0-.2,0-.2,0,0,0-.1,0-.2,0,0,0-.2,0-.2,0,0,0,0,.1,0,0,0,0,0,.1,0,0,0,0-.2,0-.2,0,0,0,0,0,0h0c-.2,0-.4-.2-.2-.3,0,0,0,0,.1,0,0,0,.1,0,.1,0,0,0,0,0,0,0,0,0-.1,0,0-.2,0,0,0,0,0,0,0,0,0,0,.2-.1,0-.2,0-.3.1-.5,0-.3.1-.5.2-.8,0-.1.2-.3.4-.3.2,0,.6-.1.9-.1.3,0,.6,0,.9.1.2,0,.4.2.4.4,0,.2.1.4.2.6,0,0,0,0,0,0,0,0,.1.2.2.2,0,0,0,0,0,0Z" style="fill:#00e526;"/><path d="M48.8,43.4c-.9.2-2.6.4-3.5.5,0,0,0,0,0,0-.2,0-.4,0-.7.1-.5,0-1.2.2-2.4.5-.2,0-.3,0-.5.1-.4.1-.9.3-1.3.4-4.7,1.6-8.6,5-11.8,9.2,0,0,0,.1-.1.2-.3.5-.7,1-1,1.5-.3.5-.6,1.1-.8,1.6-.4,1.1-.6,2-.8,2.7-.6,3.3-.6,6.8-.6,10.3,0,.7.1,1.3.4,1.7.4.6,1.7,1,2.9,1.3.3,0,.5.1.8.1.9.2,1.8.3,2.8.3.7,0,1.4,0,2,0,.9,0,1.7,0,2.3,0,1.6,0,3.3,0,4.6,0,.2,0,.4,0,.6,0,1,0,2.1-.2,3.1-.3,0,0,.1,0,.2,0,.9,0,2,0,3.7-.2.8,0,1.6-.2,2.7-.3.7,0,1,0,1.3,0,0,0,.2,0,.2,0,.3,0,.5,0,.9-.2.4-.1.9-.3,1.6-.3,2.2,0,3.1-.4,3.8-.6.2,0,.4-.1.6-.2.6-.2,1.5-.3,2.2-.3.6,0,1.6-.3,2.4-.5.3,0,.7-.2,1.2-.3.5,0,1.1-.2,1.7-.4,1.6-.4,2.4-.6,3.1-.8.2,0,.4,0,.5-.1.3,0,.6-.2,1-.3.3,0,.6-.2,1-.2.9-.2,1.7-.4,2.4-.6,1.4-.3,2.8-.6,4.1-.9.3,0,.6-.2,1-.3.9-.2,1.8-.3,2.5-.3.7,0,1.1.3,1.2.6,0,.3-.2.7-.8,1.1-.6.4-1.3.7-2.2,1-.3.1-.6.2-.9.3-1.5.5-2.9.9-4.4,1.2-1.1.3-2.1.5-3.2.8-1.1.3-2.2.5-3.3.7-1.5.3-3.1.6-4.6.9-.2,0-.3,0-.5,0-1.3.3-2.6.6-3.5.8-.7.1-1.3.2-1.8.2-.3,0-.6,0-.9.1-.2,0-.4,0-.6.1-1,.2-2.8.5-4.5.6-.7,0-1.6,0-2.4.1-1.2,0-2.2,0-2.8.1-.9.1-2,.2-3,.2-.9,0-1.7,0-2.2.1-.5,0-1,0-1.7,0-.5,0-1.1,0-1.9,0-.9,0-1.6,0-2.2,0-.8,0-1.4-.1-2.3,0-1,0-2,0-2.8,0-.4,0-.8,0-1.2-.1-.5,0-1.1-.1-1.6-.2,0,0-.1,0-.2,0-.5-.1-.8-.2-1.2-.4-.1,0-.2,0-.3-.1-.4,0-.7-.2-1.1-.3,0,0-.1,0-.2,0-.4,0-.8-.2-1.4-.6-.9-.6-1.3-1.6-1.4-2.5,0-.4,0-.7,0-1.1,0-.3,0-.6,0-.9,0-.5,0-1,0-1.5,0-.8,0-1.5,0-2.1,0-.2,0-.4,0-.5,0,0,0,0,0,0,0,0,0,0,0,0,0-1.3,0-2.6.1-3.9,0-.1,0-.2,0-.3,0-.6,0-1.1,0-1.5,0-.4,0-1.4.3-2.4.1-.7.4-1.4.6-2,.1-.4.3-.7.6-1,0,0,0-.1.1-.2.2-.2.3-.4.5-.6,0-.1.2-.3.3-.5,0-.1.2-.3.3-.5,0-.1.3-.5.7-.8.2-.2.4-.5.7-.8.6-.8,1.2-1.6,1.8-2.3.1-.2.2-.3.3-.5,0-.1,0-.2,0-.3,0-.1,0-.3.2-.4,0-.1.2-.3.3-.3,0,0,0,0,.1,0,0,0,0,0,.1,0,0,0,0,0,0,0,0,0,0-.1.2-.2.4-.3.8-.7,1.2-1,.5-.4.9-.7,1.3-1,.4-.3,1.1-.7,1.7-1.1.5-.2.9-.5,1.3-.7.4-.2.8-.4,1.2-.6.5-.2.9-.5,1.4-.6,0,0,.2,0,.4,0,.1,0,.2,0,.4,0,.5-.2,1-.3,1.6-.5,0,0,0,0,0,0,0,0,0,0,0,0,.1,0,.3-.2.4-.3.3-.2.8-.4,1.4-.4.2,0,.4,0,.5,0,.1,0,.2,0,.4,0,.2,0,.4,0,.6-.2.3-.1.6-.2,1-.2,0,0,0,0,0,0,.3,0,.6,0,1,0,1.1-.1,2.2-.2,3.3-.3,1.9-.1,3.7-.1,5.6-.1.9,0,1.8.1,2.4.4.6.2,1,.6,1,.9,0,.3-.4.6-1,.9-.6.2-1.5.4-2.3.5-1.4,0-2.8.2-4.2.4,0,0-.1,0-.2,0-.5,0-1,.2-1.5.4-.1,0-.2,0-.3,0Z" style="fill:#00e526;"/><path d="M41,76.1c-.7.3-2.1.7-2.9.9,0,0,0,0,0,0-.2,0-.4.1-.6.2-.5.2-1.1.4-2.5.9-.4.2-.7.3-1.1.5-.4.2-.8.4-1.2.7-3.4,1.9-6.3,4.8-8.4,8.1,0,0,0,0,0,.1-.3.5-.5,1-.8,1.6-.2.4-.3.9-.4,1.2-.2.9-.1,1.5,0,2,0,.2,0,.3.2.5,1,1.9,5.3,2.8,8.6,3.4,1.1.2,2.3.4,3.5.6.4,0,.8.1,1.2.2h-.1c.6,0,1.3,0,2,0,.6,0,1.2-.1,1.7-.2.8,0,1.4-.2,2-.3,1.4-.2,2.9-.3,4.1-.4.2,0,.4,0,.5,0,.9-.1,1.8-.3,2.7-.5,0,0,.1,0,.2,0,.8,0,1.8-.1,3.3-.4.7-.1,1.4-.2,2.3-.4.6,0,.9,0,1.1,0,0,0,.1,0,.2,0,.2,0,.5,0,.7-.2.4-.1.8-.3,1.4-.3,1.9-.1,2.7-.5,3.3-.7.2,0,.3-.1.5-.2.5-.2,1.3-.3,2-.3.5,0,1.4-.3,2.1-.5.3,0,.6-.2,1.1-.3.4-.1,1-.2,1.5-.4,1.4-.4,2.1-.6,2.7-.8.2,0,.3,0,.5-.1.5-.1,1.1-.3,1.7-.5.4-.1.8-.2,1.2-.3.3,0,.6-.2.9-.3,1.5-.3,3-.7,4.5-1,.8-.2,1.5-.3,2.1-.2.6,0,1,.2,1.1.5.1.3,0,.7-.5,1.2-.5.4-1.2.8-2,1.1-1.6.5-3.1.9-4.6,1.4-.3,0-.5.1-.7.2-1.7.4-3.3.9-5,1.2-1.3.3-2.7.6-4,.9-.1,0-.3,0-.4,0-1.1.3-2.2.6-3,.8-.7.2-1.1.2-1.5.3-.3,0-.5,0-.8.1-.1,0-.3,0-.5.1-.9.2-2.4.6-3.9.7-.6,0-1.4.1-2.1.2-1,0-2,.2-2.4.3-.8.2-1.8.3-2.6.4-.8,0-1.5.2-1.9.3-.5.1-.9.2-1.5.2-.4,0-.9,0-1.6.1-.8,0-1.4,0-1.9,0-.7,0-1.2,0-2,.1-.9.1-1.8.2-2.5.2-.3,0-.7,0-1.1,0-.3,0-.6,0-.9,0h-.1c-.2,0-.4,0-.6-.1-.4,0-.7-.2-1-.3,0,0-.2,0-.3,0-.3,0-.6,0-.9-.1,0,0-.1,0-.2,0-.3,0-.6,0-1.1,0-.7,0-1.3-.2-1.9-.4-.5-.1-1-.3-1.6-.4-.4,0-.9-.2-1.3-.2-.7-.1-1.4-.3-1.8-.5-.2,0-.3-.2-.4-.2,0,0,0,0,0,0,0,0,0,0,0,0-1.1-.4-2.3-.8-3.3-1.9,0,0-.2-.2-.3-.3-.2-.2-.3-.4-.5-.6-.2-.3-.3-.6-.4-.8-.2-.4-.5-1.4-.5-2.4,0-.7.1-1.4.2-2,0-.3.2-.6.4-.8,0,0,0,0,0,0,.1-.2.3-.5.4-.7,0-.1.1-.3.2-.5,0-.1.1-.3.2-.4,0-.1.3-.4.5-.8.2-.2.3-.5.5-.8.5-.7,1-1.5,1.5-2.2,0-.2.2-.3.2-.5,0,0,0-.2,0-.3,0-.1,0-.3,0-.4,0-.1.1-.2.2-.3,0,0,0,0,.1,0,0,0,0,0,0,0,0,0,0,0,0,0,0,0,0-.1.1-.2.3-.3.6-.7,1-1,.4-.4.8-.7,1.1-1,.3-.3.9-.7,1.4-1,.4-.2.8-.5,1.1-.7.3-.2.7-.4,1-.7,0,0,.1,0,.2-.1.3-.2.6-.4.9-.5,0,0,.2,0,.3,0,0,0,.2,0,.3,0,.4-.2.9-.4,1.3-.6,0,0,0,0,0,0,0,0,0,0,0,0,.3-.3.7-.7,1.4-.9.2,0,.3,0,.4,0,.1,0,.2,0,.4,0,.1,0,.3-.1.5-.2.2-.1.5-.3.8-.3,0,0,0,0,0,0,.2,0,.6,0,.9,0,1-.3,1.9-.5,2.9-.7,1.6-.3,3.2-.6,4.9-.7.8,0,1.6,0,2.2.2.6.2.9.5.9.8,0,.3-.3.6-.8.9-.5.3-1.2.5-1.9.6-1.2.2-2.4.5-3.6.8,0,0-.1,0-.2,0-.5.1-.9.3-1.3.5,0,0-.2,0-.3.1Z" style="fill:#00e526;"/><path d="M47.5,99.5c-.5.5-1.7,1.2-2.3,1.6,0,0,0,0,0,0-.2,0-.3.2-.5.3-.4.3-.9.6-2.1,1.3-.3.2-.6.5-.9.7-.4.3-.9.7-1.3,1-2.9,2.2-5.6,4.6-7.7,7.4,0,0,0,0,0,.1-.6.8-1.2,1.9-1.5,2.6-.5.9-.8,1.5-1,2-.3.9-.5,1.8-.6,2.7-.1.4.6,1.4,1.6,2l-.5-.2c1.1.1,2.1.3,3.2.4,1.1.1,2.1.2,3.2.3,1,0,2,.1,2.9.1.6,0,1.1,0,1.6,0,.7,0,1.3,0,1.9,0,1.3,0,2.7,0,3.7.2.2,0,.3,0,.5,0,.8,0,1.7,0,2.5,0,0,0,.1,0,.2,0,.7.2,1.6.2,3,.2.6,0,1.3,0,2.1,0,.5,0,.8,0,1,.1,0,0,.1,0,.2,0,.2,0,.4,0,.7,0,.3,0,.8-.2,1.3-.1,1.7.2,2.5,0,3.1-.1.2,0,.3,0,.5-.1.5,0,1.2,0,1.8,0,.4,0,1.3,0,2-.2.3,0,.6,0,1,0,.4,0,.9,0,1.4-.1,1.3-.2,1.9-.3,2.5-.4.1,0,.3,0,.4,0,.4,0,1-.2,1.5-.3.3,0,.6-.1.8-.2h0c.3-.1.7-.2.9-.3,1.3-.4,2.5-.8,3.6-1.4.6-.3,1.2-.5,1.8-.6.5,0,1,0,1.1.3.2.3.1.7-.2,1.2-.3.5-.8,1-1.5,1.4-1.3.8-2.7,1.5-4.2,2-.3.1-.6.2-.9.3h0c-1.6.4-3,.6-4.5.7-1.2.1-2.5.2-3.7.2-.1,0-.3,0-.4,0-1,.1-2.1.3-2.8.3-.6,0-1.1,0-1.4,0-.3,0-.5,0-.7,0-.1,0-.3,0-.5,0-.8,0-2.3.1-3.6,0-.6,0-1.3,0-1.9-.2-.9,0-1.8-.2-2.2-.2-.8,0-1.6,0-2.4,0-.7,0-1.4,0-1.7,0-.4,0-.8,0-1.4,0-.4,0-.8,0-1.5-.1-.7,0-1.3,0-1.7-.1-.6,0-1.1-.1-1.8,0-.8,0-1.6,0-2.2,0-.3,0-.6,0-1,0-.5,0-.9,0-1.4,0-.4,0-.7-.1-.9-.2,0,0-.2,0-.2,0-.3,0-.6,0-.9,0,0,0,0,0-.1,0-.3,0-.6,0-1,0-.6,0-1.2,0-1.7-.2-.4,0-.9-.1-1.4-.2-.2,0-.5,0-.7,0h-.4c-.2-.2-.3-.3-.5-.4-.6-.4-1.1-.8-1.4-1.2-.1-.2-.2-.3-.2-.5,0,0,0,0,0,0,0,0,0,0,0,0-.3-.5-.5-1.1-.5-1.7,0-.7,0-1.3.2-2,0,0,0-.2,0-.3,0-.5.1-.9.2-1.2,0-.3.2-1.1.5-1.9.2-.5.4-1,.6-1.5.1-.3.3-.5.4-.7.2-.2.3-.4.5-.6,0-.1.1-.3.2-.4,0-.1.1-.3.2-.4,0-.1.3-.4.5-.7.2-.2.3-.4.5-.6.5-.6.9-1.3,1.5-1.9,0-.1.1-.3.2-.4,0,0,0-.2,0-.3,0-.1,0-.2,0-.4,0-.1.1-.2.2-.3,0,0,0,0,0,0,0,0,0,0,0,0,0,0,0,0,0,0,0,0,0-.1.1-.2.3-.3.6-.6.9-.8.3-.3.7-.6.9-.9.3-.3.8-.6,1.2-1,.3-.2.7-.5.9-.7.2-.2.5-.4.7-.6,0,0,0,0,0,0,.3-.3.6-.5.9-.7,0,0,.2,0,.3,0,0,0,.2,0,.3,0,.3-.2.7-.5,1-.7,0,0,0,0,0,0,0,0,0,0,0,0,.2-.3.4-.8,1-1.1.2,0,.3,0,.4,0,.1,0,.2,0,.3,0,.1,0,.2-.2.4-.3.2-.2.4-.4.6-.5,0,0,0,0,0,0,.2,0,.5-.2.8-.3.8-.5,1.5-.9,2.3-1.3,1.3-.7,2.6-1.4,4-2,.7-.3,1.4-.4,2-.3.6,0,.9.3,1,.6,0,.3-.1.7-.5,1-.4.4-.9.7-1.5,1-1,.5-1.9,1.1-2.8,1.7,0,0,0,0-.1.1-.3.3-.6.5-.9.8,0,0-.1.1-.2.2Z" style="fill:#00e526;"/><path d="M74.7,113.4c.3-.1.9,0,1.2,0,0,0,0,0,0,0,0,0,.2,0,.2,0,.2,0,.5,0,1.1.1.2,0,.3,0,.5,0,1.8,0,3.6.2,5.4.5h.2s0,0,.1,0c0,0,0,0,0,0,.3,0,.6,0,1.2.3.2,0,.3.2.6.4.2.2.4.6.5.9.1.8-.1,1.1-.2,1.3-.3.5-.5.6-.6.7-.2.1-.3.2-.4.3-1,.9-1.9,1.6-2.8,2.4-.2.1-.4.3-.5.5-.3.3-.7.6-1,.9-.3.3-.6.6-.9.9-.2.2-.3.4-.4.6-.2.2-.3.5-.5.6-.4.4-.8.8-1.2,1.1,0,0-.1,0-.2.1-.2.3-.5.5-.7.8,0,0,0,0,0,0-.3,0-.6.4-1,.8-.2.2-.4.4-.6.6-.2.2-.3.2-.4.2,0,0,0,0,0,0,0,0-.1.1-.2.3,0,.2-.1.3-.3.5-.7.4-.8.7-.9,1,0,0,0,.1,0,.2-.1.2-.4.4-.6.5-.2,0-.4.4-.5.7,0,0-.2.2-.3.3-.1.1-.3.3-.4.5-.3.5-.5.7-.6.9,0,0,0,.1-.1.2-.1.2-.3.4-.4.5-.2.2-.4.5-.5.7-.4.4-.9.8-1.3,1.2-.2.2-.5.3-.9.3-.3,0-.6-.1-.9-.4-.2-.2-.4-.5-.4-.9,0-.3,0-.6.3-.9.4-.5.8-1,1.2-1.4.5-.6,1-1.1,1.5-1.7.4-.4.7-.8,1.1-1.1,0,0,0,0,.1-.1.2-.4.5-.7.7-1,.2-.2.3-.3.5-.4,0,0,.2-.1.2-.2,0,0,0,0,.1-.2.2-.3.6-.7,1.1-1.1.2-.2.4-.3.7-.5.3-.2.7-.4.8-.6.2-.3.5-.5.7-.7.2-.2.5-.4.5-.5,0-.2.2-.3.4-.4.1,0,.3-.2.5-.4.2-.2.4-.3.6-.4.2-.1.4-.3.6-.5.2-.3.4-.6.6-.7,0,0,.2-.2.3-.3.1-.1.3-.3.4-.4.1,0,.3-.1.4-.2,0,0,0,0,.1,0,0,0,.2-.2.3-.3,0,0,0,0,0,0,0-.1,0-.3.2-.4.2-.2.3-.4.5-.5,0,0,.1,0,.2-.1,0,0,.2-.2.3-.3.1-.1.2-.3.3-.4.2-.2.3-.4.5-.5,0,0,.1,0,.2,0h0s0,0,0,0c.3-.3.6-.6.9-.9,0,0,0,0,0,0,0-.2.2-.3.2-.4,0-.1.2-.4.3-.5,0,0,0,0,0,0,0,0,0,.2,0,.3,0,.2,0,.4.1.6.2.4.5.4.5.4,0,0,0,0,0,0,0,0,0,0-.1,0,0,0,0,0-.1,0,0,0,0,0-.1,0h.1s-.1,0-.2,0c-.1,0-.2,0-.3,0-.3,0-.6,0-1,0,0,0-.1,0-.2.1,0,0,0,0,0,.1,0,0,0,.1-.1.2,0,0,0,0-.1,0,0,0,0,0,0,0,0,0,0,0,0,0s0,0,0,0c0,0,0,0,0,0-.2,0-.3,0-.5,0-.2,0-.4,0-.5,0-.2,0-.4,0-.6-.1-.2,0-.3,0-.5,0-.1,0-.3,0-.4,0-.2,0-.3,0-.5,0,0,0,0,0-.1-.1,0,0,0,0,0-.1-.2,0-.3,0-.5,0,0,0,0,0,0,0h0c-.1.2-.3.4-.6.2,0,0-.1,0-.1-.2,0,0,0-.1-.1-.1,0,0-.1,0-.2,0-.1,0-.2.1-.3,0,0,0,0,0,0,0,0,0-.2,0-.3-.2-.4,0-.7,0-1.1-.1-.6,0-1.2-.2-1.8-.2-.3,0-.6-.2-.8-.4,0-.1-.2-.3-.2-.4,0,0,0-.2,0-.2,0,0,0,0,0,0,0,0,0,0,0,0,0,0,0,0,0,0,0,0,0,0,0,0,0,0,0,0,0,0,0,0,0,0,0,0,0,0,0,0,0,0,0,0,0,0,0,0,0,0,0,0,0,0,0,0,0,0,0,0,0,0,0,0,0,.1,0,0,0,0,0,.1,0,0,0,0,0,0,0,0,0,0,0,0,0,0,0,0,0,0,0,0,0,0,0,0,0,0,0,0,.2-.2,0-.2,0-.3-.1-.3,0,0,0,0,0,0,0,0,0,0,0,0,0,0,0,0,0,0,0,0,0,0,0,0,0,0,0,0,0,0,0,0,0,0,0,0,0,0,0-.2,0-.2,0-.1.1-.3.2-.4.2-.2.5-.4.8-.4.5,0,1-.1,1.5-.1,0,0,0,0,0,0,.2,0,.4-.1.5-.2,0,0,0,0,.1,0Z" style="fill:#00e526;"/><path d="M76.5,84c.3,0,.7.2.9.3,0,0,0,0,0,0,0,0,.1,0,.2,0,.1,0,.3.2.7.4.1,0,.2.1.4.2,1,.5,2.1,1.1,3,1.6.2.1.4.3.7.4,0,0,0,0,0,0,.3.1.8.4,1.2.7.4.4.8,1,.8,1.5.1,1.3-.4,1.8-.7,2.3-.4.6-.9,1-1.3,1.5-.2.3-.5.5-.7.8-.2.2-.4.5-.6.7-.1.2-.2.3-.3.5-.1.2-.2.4-.3.5-.3.3-.6.6-.9.8,0,0,0,0-.1.1-.2.2-.4.4-.5.6,0,0,0,0,0,0-.3,0-.5.3-.8.6-.1.1-.3.3-.5.5-.1.1-.2.1-.3.1,0,0,0,0,0,0,0,0,0,.1-.1.2,0,0,0,0,0,.1,0,0,0,.2-.2.2-.6.2-.6.5-.7.7,0,0,0,.1,0,.2,0,.2-.3.3-.5.4-.1,0-.3.3-.4.5,0,0-.1.2-.2.2,0,0-.2.2-.3.3-.2.4-.4.5-.5.7,0,0,0,0,0,.1,0,.1-.2.3-.3.4-.1.2-.3.4-.4.5-.4.3-.7.6-1.1.8-.2.1-.5.2-.7.1-.3,0-.6-.2-.8-.5s-.4-.5-.4-.8c0-.3,0-.6.2-.7.3-.4.6-.7.9-1.1.4-.4.8-.8,1.2-1.2.3-.3.6-.5.9-.8,0,0,0,0,0,0,.2-.3.4-.6.5-.8.1-.2.3-.2.4-.3,0,0,.1,0,.2-.1,0,0,0,0,.1-.1.1-.1.3-.3.5-.5,0,0,.2-.2.3-.3.2-.1.4-.2.6-.3.3-.1.5-.3.6-.4.1-.2.4-.4.6-.5.2-.1.4-.3.4-.4,0-.1.2-.2.3-.3.1,0,.2-.2.4-.3.2-.2.3-.2.4-.3.2-.1.3-.2.4-.4.1-.2.2-.5.4-.6,0,0,.1-.1.2-.2,0-.1.2-.2.3-.3,0,0,.2,0,.3-.1,0,0,0,0,0,0,0,0,.1-.1.2-.2,0,0,0,0,0,0,0-.1,0-.2,0-.3,0-.2.2-.3.4-.4.1,0,.2-.2.3-.3,0,0,.1-.2.2-.3,0-.2.1-.3.2-.4,0,0,0,0,0,0,0,0,0,0,0,0,0,0,0,0,0,0,0,0,0,0,0,0,.1-.2.2-.5.2-.6,0,0,0,0,0,0,0,0,0,0-.2,0,0,0,0,.2,0,.2,0,0-.1,0-.2,0,0,0,0,0-.1-.1,0,0,0-.1-.1-.2,0,0,0,0-.1,0,0,0,0,0-.1,0,0,0-.1,0-.2-.1,0,0-.1-.1-.2-.2,0,0-.2,0-.3,0-.1,0-.3,0-.4-.1,0,0-.1,0-.2,0,0,0,0,0-.1.1,0,0-.1.1-.2.1,0,0,0,0-.1,0,0,0,0,0,0,0,0,0,0,0,0,0,0,0,0,0,0,0,0,0,0,0,0,0-.1,0-.2-.1-.3-.2-.1,0-.2-.1-.4-.2-.1,0-.3-.2-.4-.3-.1,0-.2-.2-.3-.2,0,0-.2,0-.3-.1-.1,0-.3,0-.3-.1,0,0,0,0,0-.1,0,0,0-.1,0-.2-.1,0-.2-.1-.4-.2,0,0,0,0,0,0,0,0,0,0,0,0-.2,0-.4.2-.5,0,0,0,0-.1,0-.2,0,0,0-.1,0-.1,0,0,0,0-.2,0,0,0-.2,0-.3,0,0,0,0,0,0,0,0,0-.1-.2-.1-.3-.2-.1-.5-.3-.7-.4-.4-.2-.8-.5-1.2-.7-.2-.1-.3-.3-.4-.6,0-.3,0-.6,0-.9,0-.3.3-.6.6-.8.3-.2.5-.2.8-.2.4,0,.8.2,1.1.3,0,0,0,0,0,0,.2,0,.3,0,.5,0,0,0,0,0,.1,0Z" style="fill:#00e526;"/><path d="M75.8,61.3c.4,0,1.1.2,1.5.3,0,0,0,0,0,0,0,0,.2,0,.3,0,.2,0,.6.2,1.3.5.2,0,.4.1.6.2,1.1.3,2.2.8,3.3,1.3.4.2.8.4,1.3.8.4.4,1.3.9,1.4,2.3v.3s-.2.5-.2.5c-.2.3-.3.5-.5.7,0,0,0,0,0,0-.3.5-.8,1.1-1.1,1.4-.4.4-.7.6-1,.8-1.2,1.2-2.5,2.4-3.7,3.7-.3.3-.6.7-.9,1h0c0,0-.1.1-.2.2-.3.4-.6.8-.9,1.2-.2.3-.3.5-.4.7-.2.3-.3.6-.5.8-.4.5-.9,1.1-1.2,1.5,0,0-.1.1-.2.2-.2.4-.5.7-.7,1.1,0,0,0,0,0,0-.4.2-.6.5-1.1,1.1-.2.2-.4.5-.7.9-.2.2-.3.3-.4.3,0,0,0,0,0,0,0,0-.1.2-.2.3,0,.2-.1.4-.3.6-.7.6-.8,1-.9,1.3,0,0,0,.2,0,.2-.1.2-.4.5-.6.7-.2.1-.4.5-.5.9,0,.1-.2.3-.3.4-.1.2-.3.4-.4.6-.3.6-.5.9-.6,1.1,0,0,0,.1-.1.2-.1.2-.3.5-.4.7-.2.3-.4.6-.5.8-.5.5-.9,1.1-1.4,1.6-.2.3-.6.5-.9.5-.3,0-.7,0-1-.2-.3-.2-.4-.5-.5-.9,0-.4,0-.7.2-1,.4-.6.8-1.2,1.2-1.9.5-.7,1-1.5,1.5-2.2.4-.5.8-1,1.1-1.5,0,0,0-.1.1-.2.3-.5.5-.9.7-1.2.2-.3.3-.4.5-.5.1,0,.2-.2.3-.3,0,0,0-.1.1-.2.2-.4.6-1,1.1-1.4.2-.2.5-.4.7-.7.4-.3.7-.6.8-.8.2-.3.5-.7.8-.9.3-.3.5-.5.5-.7,0-.2.2-.3.4-.5.1-.1.3-.3.5-.6.2-.3.4-.5.6-.6.2-.2.4-.4.6-.7.2-.4.4-.7.6-1,.1-.1.2-.2.3-.4.1-.2.3-.4.5-.5.1-.1.3-.2.4-.3,0,0,0,0,0,0h0s0,0,0,0c0-.1.2-.2.3-.3,0,0,0,0,0,0,0-.1,0-.3.2-.5.2-.3.4-.5.6-.7.2-.1.4-.3.5-.5.1-.1.2-.3.4-.5.2-.3.3-.5.5-.7,0,0,.1,0,.2-.1,0,0,0,0,0,0,0,0,0,0,0,0,.3-.4.6-.8.9-1.2,0,0,0,0,0-.1.1-.2.2-.4.2-.5,0-.2.3-.5.5-.8.1-.2.3-.4.4-.6,0-.1.2-.2.3-.2,0,0,.2-.1.3-.2,0,0,0-.1,0-.2,0,0,0-.1,0-.2,0,0,.1-.1.2-.3,0,0,.1-.2.2-.3,0,0,0,0,0,0l-.2.7c0,.1,0,.3,0,.3,0,0,0,0-.1,0,0,0-.1,0-.2,0,0,0,0,0-.1,0,0,0-.1,0-.2.1,0,0,0,0-.1,0,0,0,0,0,0,0,0,0,0,0,0,0,0,0,0,0,0,0,0,0,0,0,0,0-.1,0-.3-.1-.4-.2,0,0,0,0,0,0-.2,0-.3-.2-.5-.2-.2,0-.4-.2-.6-.3-.2,0-.3-.2-.5-.3-.1,0-.3,0-.5-.1-.2,0-.4,0-.5-.1,0,0,0,0,0-.2,0,0,0-.1,0-.2-.2,0-.4-.1-.6-.2,0,0,0,0,0,0,0,0,0,0,0,0-.2.1-.5.3-.7,0,0,0-.1-.1-.1-.2,0,0,0-.1-.1-.1,0,0-.1,0-.2,0-.1,0-.3,0-.4,0,0,0,0,0,0,0,0,0-.2-.1-.3-.3-.4-.1-.8-.3-1.2-.4-.7-.2-1.4-.4-2.1-.6-.3-.1-.7-.3-.9-.6-.2-.3-.3-.6-.2-.9,0-.3.3-.6.6-.8.3-.2.6-.3,1-.2.6,0,1.2.1,1.8.2,0,0,0,0,0,0,.2,0,.5,0,.7,0,0,0,.1,0,.2,0Z" style="fill:#00e526;"/></g><g id="d" style="filter:url(#b);"><path d="M348.3,276.5c-6.7-7.1-15.7-12.3-24.9-13.9-2.2-1.6-4.7-2.5-7.4-2.4-37.6,1.9-73.4,12.4-109,23.8-32.7,10.5-65.5,21-98.2,31.6-4.3.4-8.7.6-13.1.3-.3,0-2.3-.3-3.1-.4-.7-.2-2.3-.6-2.3-.6-1.1-.3-2.3-.7-3.4-1.2-.2,0-.3-.1-.4-.1-.2-.1-.4-.3-.7-.5-.6-.4-1.2-.8-1.7-1.2.2,0-1.6-1.7-1.9-2.1-.2-.3-.5-.6-.6-.8-.7-1.2-1.4-2.3-2.1-3.5-.6-1-1.2-2-1.7-2.9.6-2.3,1.3-4.7,2-7,1.5-4.5,1.9-5.6,4.1-10.3,1.5-3.2,3.1-6.3,4.8-9.4,54.8-57.1,108.1-115.9,154.5-181.4,14.9-21,29-42.7,41.1-65.8,3.8-7.2,1.3-17.1-5.5-21.6s-7.3-2.7-10.8-1.9c-1.7-.2-3.3-.1-5.2,0-5,.6-40.5,7.5-44.8,13-10.3,13.1-16.1,28.7-24.2,43.3-8.1,14.8-18,26.3-28.9,39.3-3,3.5-4.3,8.2-3.9,12.7-2.2,2.3-4.4,4.7-6.6,7-28.9,30.6-60.3,58.3-89.2,88.8-27.4,28.9-57.5,67.5-56.7,112.1.4,21.9,9.5,43.6,26.2,57.3,17.8,14.6,39.9,12.7,60.3,9.8,22.8-3.2,45.1-8.6,66.8-16.1,21.3-7.4,42-16.5,62.9-25,20.5-8.4,41.2-16.3,62.7-21.5.8-.2,1.6-.4,2.3-.5.4,0,.8,0,1.2,0,1.6,0,3.2,0,4.8.2.2,0,1.8.3,2.4.4.7.2,2,.5,2.2.6.2,0,.3.1.5.2.1.1.2.3.2.3.4.7.8,1.5,1.1,2.1.2.7.8,2.5.9,2.8.1.6.2.8.2.6,0,.6.1,1.1.1,1.7,0,1.7,0,3.3,0,5,0,.3,0,.5,0,.7,0,.6-.2,1.3-.3,1.9-1.3,7.4-2.9,11.9-6,17.8-.5.9-.9,1.9-1.1,3-3.4,5-7.6,9.6-12.4,14.1-11.5,6.8-23.2,13.3-34.2,21.1-17.3,12.2-33.6,25.9-48.8,40.9-30.8,23-61.1,48.9-81.2,83.3-10.6,18.2-17.4,39.6-15.3,61.4-.4,3.2-.8,6.5-.9,9.8-1.7,45.5,34.4,82.5,72.7,95,22.2,7.2,45.5,8,68.1,6.2,7.5-.6,60.8-41.5,58.1-50.3-2.2-7.4-10.4-14.6-17.9-11.7-6.6,2.6-13.4,4.7-20.4,6.1-7.7,1.6-11.2,1.9-18.9,2-14.8.2-26.3-1.6-40.3-6.5-3.2-1.1-6.4-2.4-9.6-3.8-.1,0-.2-.1-.3-.1-.6-.3-1.2-.6-1.8-1-1.8-1-3.6-2-5.4-3.2-1.3-.9-2.6-1.8-3.9-2.7-.6-.4-1.1-.8-1.7-1.3-.2-.2-.4-.4-.8-.8-1.1-1.2-2.2-2.3-3.3-3.5-.5-.6-1-1.2-1.5-1.8-.1-.2-.2-.3-.3-.4-.1-.2-.3-.5-.5-.8-1.4-2.4-2.8-4.9-3.9-7.5.1.1-.9-2.9-1.1-3.4-.5-1.8-.9-3.5-1.3-5.3-.2-.9-.3-1.8-.5-2.7,0,0,0,0,0-.1-.1-1.6-.3-3.2-.3-4.8,0-1.9,0-3.7,0-5.6,0-.8,0-1.6.1-2.4,0-.2.2-2.3.2-2.2.2-1.6,1.1-6.1,1.7-8.6.5-1.8,1-3.5,1.6-5.2.2-.6.4-1.2.6-1.9.1-.3.4-1,.5-1.3,2.9-6.6,6.3-12.9,10.2-18.8,1.4-2.2,2.4-3.5,4.8-6.5,2.3-2.9,4.7-5.7,7.1-8.5,4.9-5.6,10.1-10.9,15.4-16.1,11.1-11,23.3-21.9,35-31.2,12.6-10,25.4-19.8,36.6-31.7,17.3-11.1,33.6-23.8,47.1-39.7,21.2-24.9,36.1-57.7,34.3-92.9,0-2-.5-3.9-1.2-5.8-.6-13.2-5.3-26.6-14.2-36.2Z" style="fill:#efefef; stroke:#000; stroke-miterlimit:10;"/></g><g id="e"><path d="M61.2,313c-13.9-34.2,45.4-86,76.6-118.2,51.4-53.3,127.9-159.2,136.3-177.5" style="fill:none;"/><path d="M81.4,254.7l-6.3,8-.7-.5.4-.6c.8-1.2.7-2.2-.4-3.1l-11.7-9.1c-1.1-.9-2.1-.7-3.1.3l-.5.5-.7-.5,5.8-7.5c2.8-3.6,6.2-4.6,8.7-2.7,1.6,1.2,2.1,3.4,1.4,5.8,2.5-2,5.2-2.2,7.4-.5,2.8,2.2,2.7,6.1-.3,9.8ZM71.1,242.3c-2.1-1.6-4.3-1.2-6.1,1.1l-2.5,3.2.5.4.7-.9,6,4.7,2-2.5c1.7-2.1,1.5-4.4-.5-6ZM79.5,247.4c-2.3-1.8-4.8-1.4-6.7,1.1l-2.3,3,6.9,5.4-.7.9.5.4,2.9-3.7c2-2.6,1.8-5.1-.5-7Z"/><path d="M79.7,240.1c-4.7-4.2-5.1-10.8-1.4-14.9,3.7-4.1,10-4.5,14.7-.2,4.7,4.2,5.2,10.8,1.4,14.9-3.7,4.1-10,4.4-14.7.2ZM91.1,228.1c-4.7-4.3-9.6-4.7-12.2-1.7-2.4,2.7-1.6,7,2.5,10.7,4.7,4.3,9.6,4.7,12.2,1.7,2.4-2.7,1.6-7-2.5-10.7Z"/><path d="M98.8,209.8c-.5-2.2-1.7-2.5-2.9-1.4l-.4.3-.6-.6,4.4-4.5.6.6c-.5.8-.5,1.8-.2,3.4l2.1,10.2,4.5,4.4c1,1,2,.9,3.1,0l.5-.5.6.6-6.1,6.3-.6-.6.4-.5c.9-1.1.9-2.1-.1-3.1l-3.9-3.8-11.7-2.1c-1.3-.2-2.1-.1-2.9.3l-.6-.6,5.3-5.4.6.6-.5.6c-.7,1-.3,1.9,1.2,2.2l8.2,1.5.2,1.1h.6s-2-8.9-2-8.9Z"/><path d="M106.5,211.7c-4.5-4.5-4.8-11-.8-15s4.3-2.6,7-2l-.7-.7c-.2,0-1.2,0-1.4,0l.7-2.6,5.2,5.2-.7.7-1.4-.6c-3.1-1.3-5.7-.9-7.6.9-2.8,2.8-2,7.3,2,11.2,3.9,3.9,8.6,4.6,11.6,1.7s2.7-4.8,1.8-8.5h.1c1.9,3.6,1.5,7.5-1.1,10.1-4,4-10.2,3.9-14.5-.4Z"/><path d="M120.5,197.5c-4.5-4.4-4.7-11-.8-15,3.9-3.9,10.2-4,14.7.4,4.5,4.4,4.7,11,.8,15-3.9,4-10.2,4-14.7-.4ZM132.5,186c-4.5-4.5-9.4-5.1-12.1-2.2-2.5,2.6-1.9,6.9,2.1,10.8,4.5,4.5,9.4,5.1,12.1,2.2,2.5-2.6,1.9-6.9-2.1-10.8Z"/><path d="M139.9,161.4l5.2,4.2-.7.7-1.6-.8c-2.4-1.2-4.1-.9-5.8.8l-2,2.2.4.4.7-.8,11.9,10.8c1,.9,2.1.9,3.1,0l.5-.5.6.6-6,6.6-.6-.6.4-.6c.9-1.1.8-2.2-.2-3.1l-12.4-11.2-1.3,1.4c-1.6,1.8-1.7,3.5-.2,5.8l.9,1.5-.7.7-4.7-4.7,12.1-13.4Z"/><path d="M152.5,146.8l5.3,4.1-.6.8-1.6-.7c-2.5-1.1-4.2-.8-5.7,1l-1.9,2.2.5.4.7-.8,12.2,10.5c1.1.9,2.1.8,3.1-.2l.5-.5.7.6-5.8,6.7-.7-.6.4-.6c.8-1.2.8-2.2-.3-3.1l-12.7-10.9-1.2,1.4c-1.6,1.8-1.6,3.5-.1,5.8l1,1.5-.7.8-4.8-4.6,11.8-13.7Z"/><path d="M185.1,135.4c1.1.9,2.1.8,3.1-.3l.5-.5.7.5-5.5,6.9-.7-.5.4-.6c.8-1.2.7-2.2-.4-3.1l-11.5-9.2c-1.1-.9-2.1-.8-3.1.3l-.5.5-.7-.5,6.2-7.8c2.7-3.3,6.1-4.3,8.6-2.3,2,1.6,2.3,4.8,1.1,7,1.3-.8,2.5-.9,4-.5l5.5,1.6c1.1.3,1.8,0,2.7-.8l.3-.3.7.5-3.3,4.1-8.1-2.7c-1.6-.5-2.6-.3-3.6.9l-2.5,3.1.5.4.7-.8,5,4ZM180.9,127.7c1.6-2,1.3-4.5-.7-6.1-2.1-1.7-4.4-1.4-6,.7l-2.8,3.5.5.4.7-.8,6.3,5,2.1-2.7Z"/><path d="M198.4,120.8l.5.4,4.2-5.4c1.5-2,1.4-4-.5-6.4l-1.2-1.6.6-.8,5.3,5.4-10.5,13.5-.7-.5.4-.6c.8-1.2.7-2.2-.4-3.1l-11.7-9.1c-1.1-.9-2.1-.7-3.1.3l-.5.5-.7-.5,10.6-13.5,6,4.2-.6.8-2.3-.9c-2.5-1-4.2-.7-5.6,1.1l-4,5.2.5.4.7-.9,6.3,4.9,1.9-2.5c.9-1.2.9-2.1-.3-3.6l-.7-.8.6-.8,6.3,4.9-.6.8-1-.4c-1.7-.8-2.6-.6-3.5.6l-1.9,2.5,6.6,5.2-.7.9ZM183.4,105.4l1-5.8c.3-1.6-1.5-2.6-2.5-1.3-.5.7-.5,1.3,0,2.5l1.5,4.7h0Z"/><path d="M205.2,103.7l-8.8-6.7c-1.1-.8-2.1-.7-3.1.4l-.5.5-.7-.5,5.4-7,.7.5-.4.6c-.8,1.2-.6,2.2.5,3.1l8.3,6.3c2.9,2.2,6.1,1.9,8.1-.7,2.2-2.9,1.3-6.5-2.3-9.2l-6.9-5.3c-1.2-.9-2.3-.8-3.3.2l-.5.5-.7-.5,4.4-5.8.7.5-.3.6c-.7,1.3-.5,2.3.7,3.2l7.2,5.5c4.3,3.3,5.1,8,2,12-2.9,3.8-6.9,4.5-10.5,1.8Z"/><path d="M221.1,89.2l.8.6c.2,0,1-.2,1.3-.2l-.3,2.6-6-4.3.6-.8,1.8.4c3.1.7,5.4,0,6.9-2.1,1.6-2.2,1.4-4.4-.4-5.8-1.3-1-3-.9-4.8.2l-4.7,2.9c-2.2,1.3-4.3,1.3-6.1,0-2.8-2.1-3.2-5.6-1.1-8.5,1.5-2,3.7-2.9,6.3-2.5l-.9-.6c-.3,0-1.3,0-1.5,0l.3-2.5,5.7,4.1-.6.8-1.3-.3c-3.3-.8-5.4-.2-6.9,1.8-1.3,1.7-1.1,3.6.5,4.8,1.2.9,2.7.8,4.3-.1l5.1-3.2c2.2-1.4,4.5-1.4,6.5,0,3,2.3,3.3,6.1.8,9.6-1.5,2-3.6,3-6.4,3Z"/><path d="M231.1,75.8l.8.6c.2,0,1-.2,1.3-.2l-.2,2.6-6-4.3.6-.9,1.9.4c3.1.6,5.4,0,6.9-2.1,1.6-2.2,1.4-4.4-.5-5.8-1.3-1-3-.9-4.8.3l-4.7,3c-2.2,1.4-4.3,1.4-6.1,0-2.8-2.1-3.3-5.5-1.1-8.5,1.5-2,3.7-2.9,6.3-2.6l-.9-.6c-.3,0-1.3,0-1.5,0l.3-2.5,5.8,4.1-.6.9-1.3-.3c-3.3-.8-5.4-.2-6.9,1.9-1.2,1.7-1,3.6.6,4.8,1.2.9,2.7.8,4.3-.2l5-3.2c2.2-1.4,4.5-1.4,6.5,0,3.1,2.2,3.4,6.1.9,9.5-1.4,2-3.5,3-6.3,3.1Z"/><path d="M246.1,58.4l.5-.5.7.5-5.2,7.2-.7-.5.4-.6c.7-1.2.6-2.2-.6-3l-12-8.6c-1.1-.8-2.1-.6-3.1.4l-.5.5-.7-.5,5.2-7.2.7.5-.4.6c-.7,1.2-.6,2.2.6,3l12,8.6c1.1.8,2.1.6,3.1-.4Z"/><path d="M45.6,264.3c-10.5,12.9-15,40-11,65.2,3.1,19.4,30.8,33,48.6,39" style="fill:none;"/><path d="M52.5,283.5l.6-2.1c2.7,1.1,3.8,2.9,3.1,5.4l-1.1,4.3c-.3,1.2-1,2-2.1,2.7-1.1.6-2.2.8-3.3.4l-1.1-.3c-1.5-.4-3-2.3-4.6-5.7l-.2-.3c-1.6-3.4-3.1-5.2-4.4-5.6h-.2s-2.3,8.5-2.3,8.5l-2.1-.6,3.4-12.8,2.1.6c1.5.4,3,2.3,4.6,5.6l.2.4c1.6,3.4,3.1,5.3,4.6,5.7l1.1.3c.6.2,1.1,0,1.7-.2s.9-.8,1-1.3l.6-2.1c.4-1.3-.2-2.2-1.5-2.7Z"/><path d="M53.3,302.4l-.3,4.4c0,1.2-.6,2.2-1.5,3-.9.8-2,1.2-3.2,1.1l-11-.7c-1.2,0-2.2-.6-3-1.5-.8-.9-1.2-2-1.1-3.2l.3-4.4c0-1.2.6-2.2,1.5-3,.9-.8,2-1.2,3.2-1.1l11,.7c1.2,0,2.2.6,3,1.5.8.9,1.2,2,1.1,3.2ZM37.5,301.5c-.6,0-1.1.3-1.4.6-.3.3-.5.8-.6,1.4,0,.6.1,1.1.5,1.6.4.5.9.7,1.5.7l7.5.5-7.5-4.8ZM49,306.5c1.2-.2,1.9-.9,1.9-2,0-.6-.1-1.1-.5-1.6s-.9-.7-1.5-.7l-7.5-.5,7.6,4.9Z"/><path d="M48.6,317l-.2-2.2c2.9,0,4.6,1.4,4.8,3.9l.4,4.4c.1,1.2-.2,2.3-1,3.2-.8.9-1.8,1.5-2.9,1.6h-1.1c-1.5.3-3.6-.9-6.3-3.5l-.3-.3c-2.7-2.6-4.7-3.8-6.1-3.7h-.2s.9,8.8.9,8.8l-2.2.2-1.3-13.1,2.2-.2c1.5-.2,3.6,1.1,6.3,3.6l.3.3c2.7,2.6,4.8,3.8,6.3,3.6h1.1c.6-.2,1.1-.4,1.5-.9.4-.5.5-1,.5-1.6l-.2-2.2c-.1-1.3-.9-2-2.4-2Z"/><path d="M50,336.6c.6-.5,1.2-.7,1.7-.7.5,0,1,.3,1.4.7l1.5,1.6c.8.9,1.2,1.9,1.2,3.1,0,1.2-.5,2.2-1.3,3.1l-3.2,3.1c-.9.8-1.9,1.2-3.1,1.2-1.2,0-2.3-.5-3.1-1.3l-3.1-3.2c-.8-.9-1.2-1.9-1.2-3.1,0-1.2.5-2.3,1.3-3.1l5.6-5.4c1.5-1.5,3.3-2.2,5.5-2.1,2.1,0,3.9.8,5.4,2.3l2.3,2.4-1.6,1.5-1.5-1.6c-.8-.9-1.9-1.3-3.1-1.3-1.2,0-2.3.4-3.1,1.2l-1.6,1.5ZM48.3,344.4l3.2-3.1c.4-.4.6-.9.7-1.5,0-.6-.2-1.1-.6-1.6-.4-.4-.9-.7-1.5-.7-.6,0-1.1.2-1.6.6l-3.2,3.1c-.4.4-.6.9-.7,1.5,0,.6.2,1.1.6,1.6.4.4.9.7,1.6.7.6,0,1.1-.2,1.6-.6Z"/><path d="M247.4,315.8c18.4-7.8,58.5-17.8,70-7.6s3.5,62.3-48.1,97.7" style="fill:none;"/><path d="M272.5,307.8l-9.9,2.4-.2-.9.7-.2c1.3-.5,1.9-1.3,1.5-2.7l-3.5-14.4c-.3-1.3-1.2-1.9-2.6-1.7h-.7c0,.1-.2-.7-.2-.7l9.2-2.3c4.4-1.1,7.8.2,8.5,3.3.5,1.9-.5,4-2.5,5.4,3.2,0,5.4,1.5,6.1,4.2.8,3.4-1.7,6.4-6.3,7.6ZM272.1,291.7c-.6-2.6-2.6-3.6-5.5-2.9l-4,1v.6c.1,0,1.2-.3,1.2-.3l1.8,7.4,3.1-.8c2.6-.6,3.9-2.6,3.3-5ZM275.5,301c-.7-2.8-3-4.1-6-3.3l-3.6.9,2.1,8.5-1.1.3v.6c.1,0,4.7-1.1,4.7-1.1,3.2-.8,4.6-2.9,3.9-5.8Z"/><path d="M280.5,295.1c-.7-6.3,3.4-11.4,8.9-12,5.5-.6,10.4,3.4,11.1,9.7.7,6.3-3.4,11.5-8.9,12.1-5.5.6-10.4-3.4-11.1-9.7ZM297.1,293.8c-.7-6.3-4-9.9-7.9-9.5-3.6.4-5.9,4.1-5.3,9.6.7,6.3,4,9.9,7.9,9.5,3.6-.4,5.9-4.1,5.3-9.6Z"/><path d="M318.1,289c1.6-1.6,1.2-2.7-.3-3.2l-.5-.2.2-.9,6.2,1.3-.2.8c-.9,0-1.8.5-3,1.7l-7.5,7.2-1.3,6.1c-.3,1.4.3,2.2,1.6,2.6l.7.2-.2.9-8.6-1.8.2-.9h.7c1.4.3,2.3-.3,2.6-1.7l1.1-5.3-4.4-11.1c-.5-1.2-1-1.9-1.8-2.2l.2-.8,7.4,1.6-.2.9h-.8c-1.2-.2-1.8.7-1.2,2.1l3.1,7.8-.8.8.3.5,6.5-6.5Z"/><path d="M325.1,299.2c5.5-3.1,11.9-1.6,14.6,3.3,1.3,2.4,1.3,4.8,0,7.2l.9-.5c.1-.2.4-1.2.5-1.4l2.3,1.4-6.5,3.6-.5-.9.9-1.2c2.1-2.6,2.5-5.2,1.2-7.5-1.9-3.4-6.5-3.9-11.3-1.2-4.9,2.7-6.8,7-4.8,10.7,1.5,2.7,3.8,3.9,7.7,4h0c-4,1-7.6-.5-9.4-3.7-2.8-5-.9-10.9,4.4-13.8Z"/><path d="M334.4,320.7c6.3.6,10.5,5.6,9.9,11.2-.6,5.5-5.4,9.5-11.7,8.9-6.3-.6-10.5-5.6-10-11.2.6-5.5,5.5-9.5,11.8-8.9ZM332.3,337.1c6.3.6,10.5-1.9,10.9-5.8.4-3.6-2.8-6.6-8.4-7.1-6.3-.6-10.5,1.9-10.9,5.8-.4,3.6,2.8,6.6,8.4,7.1Z"/><path d="M334.4,364.7l-6.3-2.1.4-.9,1.7.2c2.7.3,4.2-.6,5.1-2.8l1.1-2.7-.6-.2-.4,1-15-6c-1.3-.5-2.2-.1-2.9,1.2l-.3.6-.8-.3,3.3-8.2.8.3-.2.7c-.4,1.4,0,2.3,1.3,2.8l15.5,6.2.7-1.7c.9-2.2.3-3.9-1.8-5.5l-1.4-1.1.4-.9,6,2.8-6.7,16.8Z"/><path d="M322.5,384.2l-5.8-3.2.5-.8,1.7.5c2.6.8,4.3.2,5.5-1.8l1.6-2.5-.5-.3-.6.9-13.6-8.6c-1.2-.7-2.2-.5-3,.6l-.4.6-.7-.5,4.7-7.5.7.5-.3.6c-.7,1.3-.4,2.3.7,3l14.1,8.9,1-1.6c1.3-2,1-3.7-.7-5.8l-1.2-1.3.5-.8,5.4,3.9-9.7,15.3Z"/><path d="M182.7,511c-5.4.5,49.8-49.6,84.9-75.2,23.3-17.1,55.3-46.8,73.4-69.7" style="fill:none;"/><path d="M197.5,490.4l.7.7c.1,0,1,0,1.3,0l-.8,2.5-5-5.4.8-.7,1.7.7c3,1.3,5.3,1,7.2-.7,2-1.8,2.2-4,.7-5.7-1.1-1.2-2.8-1.5-4.8-.7l-5.2,2c-2.4.9-4.5.5-6-1.2-2.4-2.6-2.1-6.1.6-8.5,1.8-1.7,4.2-2.1,6.7-1.3l-.8-.8c-.3,0-1.3-.2-1.4-.2l.8-2.4,4.8,5.2-.8.7-1.3-.6c-3.1-1.4-5.3-1.3-7.2.4-1.6,1.4-1.7,3.3-.4,4.8,1,1.1,2.5,1.3,4.3.7l5.6-2.1c2.5-.9,4.7-.5,6.4,1.3,2.5,2.8,2.1,6.6-1.1,9.5-1.8,1.6-4.1,2.2-6.8,1.8Z"/><path d="M207.5,476l-7.3-8.3c-.9-1-1.9-1.1-3.1-.3l-.6.4-.6-.7,6.7-5.8.6.7-.5.5c-1,1-1.1,2-.1,3.1l6.9,7.8c2.4,2.8,5.6,3.1,8,.9,2.8-2.4,2.6-6.1-.4-9.5l-5.7-6.5c-1-1.1-2.1-1.3-3.3-.5l-.6.4-.6-.7,5.5-4.8.6.7-.5.5c-1,1.1-1,2.2,0,3.3l6,6.8c3.6,4.1,3.4,8.8-.5,12.2-3.6,3.1-7.7,3-10.7-.4Z"/><path d="M220.9,459.9c-4.1-4.9-3.8-11.4.5-15,2.1-1.7,4.5-2.2,7.1-1.4l-.7-.8c-.2,0-1.2-.2-1.4-.2l.9-2.5,4.7,5.7-.8.7-1.4-.7c-3-1.6-5.6-1.4-7.6.3-3,2.5-2.6,7.1,1,11.4,3.6,4.3,8.2,5.4,11.4,2.7,2.4-2,3.1-4.5,2.5-8.4h.1c1.6,3.7.8,7.6-2,10-4.4,3.7-10.5,2.9-14.4-1.7Z"/><path d="M236.4,447c-4-5-3.6-11.4.9-15,2.1-1.7,4.5-2.1,7.1-1.2l-.7-.8c-.2,0-1.2-.2-1.4-.2l1-2.5,4.6,5.8-.8.6-1.3-.7c-3-1.6-5.5-1.6-7.6,0-3.1,2.5-2.8,7,.7,11.4,3.5,4.3,8.1,5.5,11.3,2.9,2.4-1.9,3.2-4.4,2.7-8.3h.1c1.5,3.8.7,7.6-2.2,9.9-4.5,3.6-10.6,2.7-14.4-2Z"/><path d="M260.9,438.4l.4.5,5.5-4c2-1.5,2.4-3.5,1.3-6.3l-.7-1.9.8-.6,3.7,6.6-13.7,10.2-.5-.7.5-.5c1.1-.9,1.2-2,.4-3.1l-8.8-11.9c-.8-1.1-1.8-1.3-3.1-.5l-.6.4-.5-.7,13.8-10.2,4.7,5.7-.8.6-2-1.5c-2.1-1.7-3.9-1.8-5.7-.4l-5.3,3.9.4.5.9-.6,4.8,6.4,2.5-1.9c1.2-.9,1.4-1.8.7-3.5l-.4-1,.8-.6,4.8,6.4-.8.6-.8-.7c-1.4-1.2-2.3-1.3-3.5-.4l-2.5,1.9,5,6.8-.9.6Z"/><path d="M273.9,427.2l.7.8c.1,0,1,0,1.3,0l-.9,2.4-4.7-5.7.8-.7,1.7.8c2.9,1.4,5.3,1.3,7.2-.3,2.1-1.7,2.5-3.9,1-5.7-1-1.3-2.7-1.6-4.8-1l-5.3,1.7c-2.5.8-4.5.2-5.9-1.5-2.2-2.7-1.8-6.2,1.1-8.5,1.9-1.6,4.3-1.9,6.7-.9l-.7-.8c-.3,0-1.3-.3-1.4-.3l.9-2.3,4.5,5.4-.8.7-1.2-.6c-3-1.6-5.2-1.6-7.2,0-1.6,1.3-1.9,3.2-.7,4.7.9,1.1,2.4,1.5,4.2.9l5.7-1.8c2.5-.8,4.7-.2,6.3,1.7,2.4,2.9,1.7,6.7-1.6,9.5-1.9,1.5-4.2,2-6.9,1.4Z"/><path d="M287.1,416.3l.7.8c.1,0,1,0,1.3,0l-.8,2.5-4.9-5.5.8-.7,1.7.8c2.9,1.3,5.3,1.1,7.2-.6,2-1.8,2.3-4,.8-5.7-1.1-1.2-2.8-1.5-4.8-.8l-5.2,1.9c-2.4.9-4.5.4-6-1.3-2.3-2.6-2-6.1.7-8.5,1.9-1.6,4.2-2,6.7-1.2l-.8-.8c-.3,0-1.3-.2-1.4-.2l.8-2.4,4.7,5.2-.8.7-1.2-.6c-3.1-1.5-5.3-1.4-7.2.3-1.6,1.4-1.8,3.3-.5,4.8,1,1.1,2.5,1.4,4.3.8l5.6-2c2.5-.9,4.7-.4,6.3,1.4,2.5,2.8,2,6.6-1.2,9.5-1.8,1.6-4.1,2.2-6.8,1.6Z"/><path d="M65.8,363.3c56,8.5,132.9-36.7,204.3-59.4" style="fill:none;"/><path d="M86.6,364.2l-4.4.2-.4-11c0-.6-.3-1.1-.7-1.5-.5-.4-1-.6-1.6-.6-.6,0-1.1.3-1.5.7s-.6,1-.6,1.6l.4,11-4.4.2-.5-15.4,4.4-.2v2.2c.1-.7.3-1.3.7-1.7.4-.4.9-.6,1.5-.6h2.2c1.5-.1,2.6.4,3.4,1.4.3-.5.8-.9,1.3-1.2s1.2-.4,1.9-.5h2.2c1.2-.1,2.3.3,3.2,1.1.9.8,1.4,1.9,1.4,3.1l.4,11-4.4.2-.4-11c0-.6-.3-1.1-.7-1.5-.4-.4-1-.6-1.6-.6-.6,0-1.1.3-1.5.7-.4.4-.6,1-.6,1.6l.4,11Z"/><path d="M98.3,345.3l-.4-2.2,4.3-.7.4,2.2-4.3.7ZM101.2,362.6l-2.5-15.2,4.3-.7,2.5,15.2-4.3.7Z"/><path d="M118.9,347.8l-2.1.5c-.5-1.4-1.4-1.9-2.5-1.7-.8.2-1.3.5-1.6.8-.3.4-.4.9-.3,1.5.1.6,1.4,1.2,3.7,1.9,1.9.5,3.1,1,3.5,1.6.4.5.7,1.1.8,1.8.3,1.2,0,2.3-.6,3.3s-1.6,1.7-2.7,2l-2.2.5c-2.9.7-4.6-.4-5.3-3.3l2.2-.5c.5,1.4,1.3,1.9,2.5,1.7.8-.2,1.3-.5,1.6-.8.3-.4.4-.9.3-1.5-.1-.6-1.4-1.2-3.7-1.9-1.9-.5-3.1-1-3.5-1.6-.4-.5-.7-1.1-.8-1.8-.3-1.2,0-2.3.6-3.4.6-1,1.6-1.7,2.7-2l2.2-.5c2.7-.6,4.4.5,5.3,3.3Z"/><path d="M137.1,347.1l-8.4,2.5.6,2.1c.2.6.5,1,1.1,1.3.5.3,1.1.4,1.7.2l2.1-.6c1.4-.4,1.9-1.3,1.5-2.7l2.1-.6c.5,2.9-.5,4.7-3,5.5l-4.2,1.3c-1.2.3-2.3.2-3.3-.4-1.1-.6-1.8-1.4-2.1-2.6l-1.9-6.3c-.3-1.2-.2-2.3.4-3.4.6-1.1,1.4-1.8,2.6-2.1l4.2-1.3c1.2-.3,2.3-.2,3.3.4,1.1.6,1.8,1.5,2.1,2.6l1.3,4.2ZM128,347.5l4.2-1.3-.6-2.1c-.2-.6-.5-1-1.1-1.3-.5-.3-1.1-.4-1.7-.2-.6.2-1,.5-1.3,1.1s-.4,1.1-.2,1.7l.6,2.1Z"/><path d="M160.8,336.4l-.8-2.1c-.2-.6-.6-1-1.2-1.2-.6-.3-1.1-.3-1.7,0l-2.1.8c-1.2.5-1.6,1.4-1.3,2.8l-2.1.8c-.7-2.9.2-4.8,2.6-5.7l4.1-1.5c1.1-.4,2.2-.4,3.4.1,1.1.5,1.9,1.3,2.3,2.5l3.8,10.3-4.1,1.5-.8-2.1c.4,1.4,0,2.4-1.3,2.8l-2.1.8c-1.1.4-2.2.4-3.4-.1-1.1-.5-1.9-1.3-2.3-2.5h0c-.4-1.1-.4-2.3.1-3.4.5-1.1,1.3-1.9,2.5-2.3l4.1-1.5ZM155.6,328.9l-3.6-3.4,2.1-.8,3.6,3.4-2.1.8ZM161.5,338.5l-2.1.8c-.6.2-1,.6-1.2,1.1s-.3,1.1,0,1.7h0c.2.6.6,1,1.1,1.2.6.3,1.1.3,1.7,0,.6-.2,1-.6,1.2-1.2.3-.6.3-1.1,0-1.7l-.8-2.1Z"/><path d="M181.5,318.9l-.8-2,4.1-1.6.8,2-4.1,1.6ZM182.3,320.9l4.1-1.6,5.7,14.3c.4,1.1.4,2.2,0,3.4-.5,1.1-1.3,1.9-2.4,2.4l-2,.8c-2.4,1-4.3.2-5.7-2.4l2-.8c.7,1.3,1.6,1.7,2.9,1.2.6-.2,1-.6,1.2-1.2.2-.6.2-1.1,0-1.7l-5.7-14.3Z"/><path d="M194.4,316l4.1-1.7c1.1-.5,2.2-.4,3.4,0,1.1.5,1.9,1.3,2.4,2.4l2.5,6.1c.4,1.1.4,2.2,0,3.4s-1.3,1.9-2.4,2.4l-4.1,1.7c-1.1.5-2.2.4-3.4,0-1.1-.5-1.9-1.3-2.4-2.4l-2.5-6.1c-.5-1.1-.4-2.3,0-3.4.5-1.1,1.3-1.9,2.4-2.4ZM196.1,320.1l2.5,6.1c.2.5.6.9,1.2,1.2.6.2,1.1.2,1.7,0,.6-.2,1-.6,1.2-1.2.2-.6.2-1.1,0-1.7l-2.5-6.1c-.2-.6-.6-1-1.2-1.2s-1.1-.2-1.7,0c-.6.2-1,.6-1.2,1.2s-.2,1.1,0,1.7Z"/><path d="M219,306.1l5.7,14.3-4.1,1.6-.8-2c.4,1.4,0,2.4-1.2,2.9l-2,.8c-1.1.4-2.2.4-3.4,0-1.1-.5-1.9-1.3-2.4-2.4l-4.1-10.2,4.1-1.6,4.1,10.2c.2.5.6.9,1.2,1.2.6.2,1.1.2,1.7,0s1-.6,1.2-1.2c.2-.6.2-1.1,0-1.7l-4.1-10.2,4.1-1.6Z"/><path d="M232.8,317.2l-4.1,1.6-5.6-14.4,4.1-1.6,1.6,4.1c-.4-1.4-.4-2.6,0-3.6.4-1,1.2-1.7,2.4-2.1l2-.8,1.6,4.1-4.1,1.6c-.6.2-1,.6-1.2,1.2s-.3,1.1,0,1.7l3.2,8.2Z"/></g><g id="f"><path d="M144.5,593.9s5.9-34.9,12.3-46,29.4-41.2,29.4-41.2" style="fill:none;"/><path d="M134,567.9l-.5,2.1c-2.8-1.1-3.8-2.8-3.2-5.3l1.1-4.3c.3-1.2,1-2.1,2-2.7s2.2-.8,3.3-.5l1.1.3c1.5.4,3,2.2,4.7,5.6l.2.3c1.7,3.4,3.2,5.2,4.5,5.5h.2s2.2-8.5,2.2-8.5l2.1.5-3.3,12.8-2.1-.5c-1.5-.4-3-2.2-4.7-5.6l-.2-.4c-1.6-3.3-3.2-5.2-4.7-5.6l-1.1-.3c-.6-.1-1.1,0-1.7.3-.5.3-.9.8-1,1.3l-.5,2.1c-.3,1.3.2,2.2,1.6,2.7Z"/><path d="M136,545.5l1.7-4.1c.5-1.1,1.3-1.9,2.4-2.3s2.3-.4,3.4,0l10.1,4.4c1.1.5,1.9,1.3,2.3,2.4.5,1.1.4,2.3,0,3.4l-1.7,4.1c-.5,1.1-1.3,1.9-2.4,2.3-1.1.5-2.3.4-3.4,0l-10.1-4.4c-1.1-.5-1.9-1.3-2.3-2.4-.5-1.1-.4-2.3,0-3.4ZM141.5,543.1c-1.2-.2-2.1.2-2.5,1.3-.2.6-.2,1.1,0,1.7.2.6.6,1,1.2,1.2l6.9,3-5.5-7.1ZM150.5,551.7c.6.1,1.1.1,1.5-.1.4-.2.8-.6,1-1.1.2-.6.2-1.1,0-1.7-.2-.6-.6-1-1.2-1.2l-6.9-3,5.5,7.1Z"/><path d="M148.5,532l-1.2,1.8c-2.2-1.9-2.6-4-1.1-6.1l2.5-3.6c.7-1,1.6-1.6,2.8-1.8,1.2-.2,2.3,0,3.3.7l.9.6c1.3.9,2.1,3.1,2.5,6.9v.4c.4,3.7,1.2,6,2.4,6.8h.2c0,.1,5-7.2,5-7.2l1.8,1.2-7.5,10.9-1.8-1.2c-1.3-.9-2.1-3.1-2.5-6.9v-.4c-.4-3.7-1.3-6-2.5-6.9l-.9-.6c-.5-.3-1-.4-1.6-.3-.6.1-1.1.4-1.4.9l-1.2,1.8c-.8,1.1-.6,2.1.6,3Z"/><path d="M163.7,518.1c-.5-.5-.9-1-.9-1.5s0-1,.5-1.5l1.3-1.8c.7-1,1.7-1.5,2.9-1.7,1.2-.2,2.3,0,3.3.8l3.5,2.6c1,.7,1.5,1.7,1.7,2.9.2,1.2,0,2.3-.8,3.3l-2.6,3.6c-.7,1-1.7,1.5-2.9,1.7-1.2.2-2.3,0-3.3-.8l-6.2-4.6c-1.7-1.3-2.7-2.9-3-5.1-.3-2.1.2-4,1.4-5.7l2-2.7,1.8,1.3-1.3,1.8c-.7,1-1,2.1-.8,3.3.2,1.2.8,2.2,1.7,2.9l1.8,1.3ZM171.7,518.5l-3.5-2.6c-.5-.4-1-.5-1.6-.4-.6,0-1.1.4-1.4.9-.4.5-.5,1-.4,1.6,0,.6.4,1.1.9,1.4l3.5,2.6c.5.4,1,.5,1.6.4.6,0,1.1-.4,1.5-.9.4-.5.5-1,.4-1.6s-.4-1.1-.9-1.4Z"/><path d="M125.3,562.1c-6.2,40.8,15.4,79.1,49.1,97.3,5.5,3,30,12.3,47.3,14.4" style="fill:none;"/><path d="M147.7,611.2l-14.3,5.8-1.6-4.1,2-.8c-1.4.4-2.4,0-2.9-1.2l-.8-2c-.5-1.1-.4-2.2,0-3.4.5-1.1,1.3-1.9,2.4-2.4l10.2-4.1,1.6,4.1-10.2,4.1c-.5.2-.9.6-1.2,1.2-.2.6-.2,1.1,0,1.7.2.6.6,1,1.2,1.2.6.2,1.1.2,1.7,0l10.2-4.1,1.6,4.1Z"/><path d="M149.5,614.5l2.5,3.6-1.8,1.2c.6-.4,1.2-.6,1.7-.5.5.1,1,.5,1.4,1.1l1.2,1.8c.7,1,.9,2.1.7,3.3-.2,1.2-.9,2.1-1.9,2.8l-5.5,3.7c-1,.7-2.1.9-3.3.7-1.2-.2-2.1-.8-2.8-1.8l-2.5-3.7-3.6,2.5-2.5-3.6,16.4-11.1ZM141,625.5l1.2,1.8c.3.5.8.8,1.4.9.6.1,1.1,0,1.6-.3l5.5-3.7c.5-.3.8-.8.9-1.4.1-.6,0-1.2-.3-1.6-.3-.5-.8-.8-1.4-.9-.6-.1-1.2,0-1.7.3l-7.3,4.9Z"/><path d="M158,648.5l-3.2-3.1,1.5-1.6c-1.1.9-2.2,1-3.1,0l-1.6-1.5c-.9-.8-1.3-1.9-1.3-3.1s.4-2.3,1.2-3.1l4.6-4.7c.8-.9,1.9-1.3,3.1-1.3,1.2,0,2.3.4,3.1,1.2l3.2,3.1,3.1-3.2,3.2,3.1-13.8,14.2ZM164,635.9l-1.6-1.5c-.4-.4-1-.6-1.6-.6-.6,0-1.1.2-1.6.7l-4.6,4.7c-.4.4-.6.9-.6,1.6,0,.6.2,1.1.7,1.6.4.4,1,.6,1.6.6.6,0,1.1-.2,1.5-.7l6.1-6.3Z"/><path d="M175.5,650l1.2-1.8c.3-.5.4-1.1.3-1.7s-.5-1.1-1-1.4l-1.9-1.2c-1.1-.7-2.1-.5-3,.7l-1.9-1.2c1.9-2.3,3.9-2.8,6.1-1.4l3.7,2.4c1,.6,1.7,1.6,1.9,2.8.3,1.2,0,2.3-.6,3.3l-5.9,9.3-3.7-2.3,1.2-1.9c-.9,1.2-1.9,1.4-3,.7l-1.9-1.2c-1-.6-1.7-1.6-1.9-2.8-.3-1.2,0-2.3.6-3.3h0c.6-1,1.6-1.7,2.8-1.9,1.2-.3,2.3,0,3.3.6l3.7,2.4ZM174.3,651.8l-1.9-1.2c-.5-.3-1.1-.4-1.7-.3s-1.1.5-1.4,1h0c-.3.5-.4,1.1-.3,1.7.1.6.5,1.1,1,1.4.5.3,1.1.4,1.7.3.6-.1,1-.5,1.4-1l1.2-1.9Z"/><path d="M189.9,644.6l4.1,1.5-1.5,4.1,2.1.8-.8,2.1-2.1-.8-3.1,8.2c-.2.7-.2,1.3,0,1.8.3.5.6.8,1,1h.2c0,0-.8,2.1-.8,2.1l-2.1-.8c-1.1-.4-2-1.2-2.5-2.3-.5-1.1-.5-2.2-.1-3.4l3.1-8.2-2.1-.8.8-2.1,2.1.8,1.5-4.1Z"/><path d="M208.6,664.6l-8.5-2.5-.6,2.1c-.2.6-.1,1.1.2,1.7.3.5.7.9,1.3,1.1l2.1.6c1.4.4,2.3,0,2.7-1.5l2.1.6c-1.2,2.7-3,3.7-5.5,3l-4.2-1.2c-1.2-.3-2-1-2.6-2.1s-.7-2.2-.4-3.3l1.9-6.3c.3-1.2,1.1-2,2.1-2.6,1.1-.6,2.2-.7,3.3-.4l4.2,1.2c1.2.3,2,1.1,2.6,2.1.6,1.1.7,2.2.4,3.3l-1.2,4.2ZM200.8,660l4.2,1.2.6-2.1c.2-.6.1-1.1-.2-1.7-.3-.5-.7-.9-1.3-1.1-.6-.2-1.1-.1-1.7.2-.5.3-.9.7-1.1,1.3l-.6,2.1Z"/></g></svg>