<svg width="387" height="842" viewBox="0 0 387 842" fill="none" xmlns="http://www.w3.org/2000/svg">
<path d="M1.50684 184.369H54.2082C70.5833 184.369 74.9123 195.636 74.9123 207.059V208.512C74.9123 221.025 68.9834 226.633 65.3132 228.139C70.301 230.267 78.2062 236.186 78.2062 253.788V255.397C78.2062 271.129 72.8419 284.265 54.5847 284.265H1.50684V184.369ZM22.8697 207.059V221.181H47.7147C52.1378 221.181 53.4553 217.962 53.4553 214.172V213.912C53.4553 210.018 52.1378 207.059 47.7147 207.059H22.8697ZM22.8697 243.611V260.797H49.0322C54.5847 260.797 55.6199 256.072 55.6199 252.178V251.763C55.6199 247.453 54.4905 243.559 49.0322 243.559H22.8697V243.611Z" fill="black" stroke="white" stroke-miterlimit="10"/>
<path d="M105.626 284.317C79.7459 284.317 74.9463 262.406 74.9463 246.83V244.701C74.9463 229.385 79.6518 208.045 105.626 208.045H111.367C138.282 208.045 141.952 229.54 141.952 244.597V247.038C141.952 262.51 138.564 284.369 111.273 284.369H105.72L105.626 284.317ZM108.355 228.398C98.2855 228.398 95.6504 237.38 95.6504 245.324V245.844C95.6504 253.787 98.1914 263.704 108.355 263.704C118.331 263.704 120.966 253.372 120.966 245.844V245.324C120.966 237.38 118.331 228.398 108.355 228.398Z" fill="black" stroke="white" stroke-miterlimit="10"/>
<path d="M137.791 261.991H147.014C148.519 261.991 148.896 260.901 148.896 259.707V259.551C148.896 258.097 148.331 256.072 147.202 252.282L128.098 186.757H149.931L161.224 233.227L171.67 186.757H191.998L172.517 262.095C168.565 277.256 164.236 284.265 156.895 284.265H137.885V261.991H137.791Z" fill="black" stroke="white" stroke-miterlimit="10"/>
<path d="M206.067 284.317C180.093 284.317 176.234 262.043 176.234 246.986V244.546C176.234 229.644 179.999 207.993 205.973 207.993H210.678C237.688 207.993 240.511 230.267 240.511 240.236V240.652H219.619C219.431 237.952 218.019 228.139 208.42 228.139H208.138C199.385 228.139 197.127 236.757 197.127 244.909V245.584C197.127 254.307 199.574 263.86 208.138 263.86H208.42C218.019 263.86 219.431 253.632 219.619 250.828H240.511V251.088C240.511 260.901 238.347 284.265 210.584 284.265H206.067V284.317Z" fill="black" stroke="white" stroke-miterlimit="10"/>
<path d="M267.254 284.317C241.374 284.317 236.574 262.406 236.574 246.83V244.701C236.574 229.385 241.28 208.045 267.254 208.045H272.995C299.91 208.045 303.58 229.54 303.58 244.597V247.038C303.58 262.51 300.192 284.369 272.901 284.369H267.348L267.254 284.317ZM269.983 228.398C259.913 228.398 257.278 237.38 257.278 245.324V245.844C257.278 253.787 259.819 263.704 269.983 263.704C279.959 263.704 282.594 253.372 282.594 245.844V245.324C282.594 237.38 279.959 228.398 269.983 228.398Z" fill="black" stroke="white" stroke-miterlimit="10"/>
<path d="M316.865 284.317C309.901 284.317 306.137 277.619 306.137 263.756V234.213H298.42V212.043H306.137V190.963H326.465V212.043H334.182V234.213H326.465V255.553C326.465 259.966 326.935 261.887 329.853 261.887H334.182V284.317H316.865Z" fill="black" stroke="white" stroke-miterlimit="10"/>
<path d="M352.803 284.317C345.839 284.317 342.074 277.619 342.074 263.756V234.213H334.357V212.043H342.074V190.963H362.402V212.043H370.119V234.213H362.402V255.553C362.402 259.966 362.873 261.887 365.79 261.887H370.119V284.317H352.803Z" fill="black" stroke="white" stroke-miterlimit="10"/>
<path d="M76.4656 382.208C68.1854 382.208 63.7096 376.847 63.7096 365.751V342.105H54.5342V324.359H63.7096V307.486H87.8789V324.359H97.0543V342.105H87.8789V359.185C87.8789 362.717 88.4384 364.255 91.9071 364.255H97.0543V382.208H76.4656Z" fill="black" stroke="white" stroke-miterlimit="10"/>
<path d="M93.9199 302.208H114.312V334.458C115.996 332.006 122.451 323.071 134.985 323.071H135.453C150.513 323.071 155.19 335.871 155.19 345.014V382.208H134.798V354.572C134.798 346.842 131.992 341.232 125.07 341.232C118.148 341.232 114.406 347.133 114.406 355.32V382.208H94.0135V302.208H93.9199Z" fill="black" stroke="white" stroke-miterlimit="10"/>
<path d="M209.4 360.858C209.4 368.514 206.27 382.208 182.485 382.208H178.908C156.464 382.208 151.725 366.777 151.725 353.912V351.86C151.725 339.192 156.106 324.195 178.64 324.195H182.395C206.181 324.195 209.579 340.928 209.579 354.109V357.188H169.877C170.413 362.91 173.543 367.291 180.965 367.291C189.728 367.291 191.069 361.884 191.248 360.66H209.4V360.858ZM169.966 345.94H190.98C190.264 340.731 187.492 337.653 180.428 337.653C173.364 337.653 170.771 341.007 169.877 345.94H169.966Z" fill="black" stroke="white" stroke-miterlimit="10"/>
<path d="M47.8942 499.043C18.9794 499.043 15.9912 477.585 15.9912 465.118V463.826H37.9629C38.1387 468.942 39.6328 477.337 51.0581 477.337H51.6733C62.8349 477.337 64.5048 472.966 64.5048 468.346V468.197C64.5048 463.329 63.1865 460.25 52.2006 459.604L42.5331 459.107C22.3191 458.064 16.8701 445.1 16.8701 430.347V429.205C16.8701 413.658 22.5827 400.048 46.9274 400.048H53.1674C79.0061 400.048 84.9824 415.098 84.9824 430.248V431.291H63.2744C63.0986 427.814 61.9561 421.158 50.6187 421.158H49.9155C39.457 421.158 38.4024 424.486 38.4024 428.212V428.361C38.4024 432.235 39.9843 435.315 49.8277 435.662L59.2316 436.06C79.094 437.103 86.8281 445.547 86.8281 464.82V466.608C86.8281 482.652 81.9064 499.143 54.3978 499.143H47.9821L47.8942 499.043Z" fill="#FF0000" stroke="white" stroke-miterlimit="10"/>
<path d="M112.985 499.043C88.7284 499.043 85.125 477.734 85.125 463.329V460.995C85.125 446.739 88.6405 426.026 112.897 426.026H117.292C142.515 426.026 145.152 447.335 145.152 456.872V457.27H125.641C125.465 454.687 124.147 445.299 115.182 445.299H114.919C106.745 445.299 104.636 453.544 104.636 461.343V461.988C104.636 470.333 106.921 479.473 114.919 479.473H115.182C124.147 479.473 125.465 469.687 125.641 467.005H145.152V467.254C145.152 476.641 143.13 498.994 117.204 498.994H112.985V499.043Z" fill="#FF0000" stroke="white" stroke-miterlimit="10"/>
<path d="M169.145 499.043C144.976 499.043 140.494 478.082 140.494 463.18V461.144C140.494 446.491 144.889 426.076 169.145 426.076H174.506C199.642 426.076 203.07 446.64 203.07 461.045V463.379C203.07 478.181 199.906 499.093 174.419 499.093H169.233L169.145 499.043ZM171.782 445.547C162.378 445.547 159.917 454.14 159.917 461.74V462.237C159.917 469.836 162.29 479.324 171.782 479.324C181.098 479.324 183.559 469.439 183.559 462.237V461.74C183.559 454.14 181.098 445.547 171.782 445.547Z" fill="#FF0000" stroke="white" stroke-miterlimit="10"/>
<path d="M213.744 499.043C207.241 499.043 203.725 492.636 203.725 479.373V451.11H196.519V429.9H203.725V409.734H222.709V429.9H229.916V451.11H222.709V471.525C222.709 475.747 223.148 477.585 225.873 477.585H229.916V499.043H213.744Z" fill="#FF0000" stroke="white" stroke-miterlimit="10"/>
<path d="M250.454 424.089H231.295V403.425H250.454V424.138V424.089ZM250.454 499.043H231.295V429.9H250.454V499.043Z" fill="#FF0000" stroke="white" stroke-miterlimit="10"/>
<path d="M266.877 500.048H266.086C253.43 500.048 248.597 489.12 248.597 477.795V476.255C248.597 464.681 252.639 457.876 263.889 456.188L282.082 453.207C283.664 452.81 284.191 451.816 284.191 449.879C284.191 447.942 283.4 444.614 275.929 444.614H275.666C267.58 444.614 267.404 449.482 267.141 451.667H249.388V450.873C249.388 441.634 250.97 427.726 273.644 427.726H277.599C301.241 427.726 302.823 440.591 302.823 449.979V475.56C302.823 477.497 303.087 478.54 304.405 478.54H306.426V498.707H290.519C287.179 498.707 284.982 495.478 284.367 489.468C282.521 492.796 277.687 499.998 266.614 499.998L266.877 500.048ZM284.191 466.122L271.535 470.245C268.195 471.288 266.877 472.679 266.877 476.156V476.305C266.877 479.533 268.108 483.358 272.853 483.358C279.884 483.358 284.191 476.305 284.191 469.102V466.172V466.122Z" fill="#FF0000" stroke="white" stroke-miterlimit="10"/>
<path d="M313.394 460.832L313.394 440.228L346.799 440.228L346.799 460.832L313.394 460.832Z" fill="#FF0000" stroke="white" stroke-miterlimit="10"/>
<path d="M77.0809 497.238V534.123C78.6729 532.029 84.3336 523.14 95.5664 523.14H97.07C114.317 523.14 119.713 539.947 119.713 558.288V561.047C119.713 579.285 113.698 596.859 96.3625 596.859H94.9473C84.3336 596.859 78.496 588.532 76.7271 586.131C76.1964 588.634 75.931 592.466 75.7542 595.531H57.8877V497.238H77.1693H77.0809ZM77.0809 560.127C77.0809 568.199 80.8841 577.037 88.5791 577.037H89.0213C97.6007 577.037 100.166 568.046 100.166 560.127V559.616C100.166 551.136 97.6007 542.706 89.0213 542.706H88.5791C80.6188 542.706 77.0809 551.187 77.0809 559.616V560.127Z" fill="#FF0000" stroke="white" stroke-miterlimit="10"/>
<path d="M134.951 597.238H134.155C121.418 597.238 116.554 585.999 116.554 574.351V572.767C116.554 560.863 120.622 553.864 131.944 552.127L150.252 549.062C151.844 548.653 152.375 547.632 152.375 545.639C152.375 543.647 151.579 540.224 144.061 540.224H143.796C135.658 540.224 135.482 545.231 135.216 547.478H117.35V546.661C117.35 537.159 118.942 522.854 141.761 522.854H145.741C169.534 522.854 171.126 536.086 171.126 545.741V572.052C171.126 574.044 171.391 575.117 172.718 575.117H174.752V595.859H158.743C155.382 595.859 153.171 592.538 152.552 586.356C150.695 589.779 145.83 597.187 134.686 597.187L134.951 597.238ZM152.463 562.345L139.727 566.585C136.366 567.658 135.039 569.089 135.039 572.665V572.818C135.039 576.139 136.278 580.072 141.054 580.072C148.13 580.072 152.463 572.818 152.463 565.41V562.396V562.345Z" fill="#FF0000" stroke="white" stroke-miterlimit="10"/>
<path d="M174.25 525.353H193.355V537.92C195.301 534.6 201.138 523.769 212.99 523.769H213.432C227.672 523.769 232.095 539.504 232.095 550.744V596.467H212.813V562.494C212.813 552.991 210.16 546.095 203.615 546.095C197.069 546.095 193.532 553.349 193.532 563.413V596.467H174.25V525.353Z" fill="#FF0000" stroke="white" stroke-miterlimit="10"/>
<path d="M231.264 596.557V498.213H250.545V553.183L263.547 525.442H284.244L268.766 556.912L286.544 596.557H264.697L250.545 564.576V596.557H231.264Z" fill="#FF0000" stroke="white" stroke-miterlimit="10"/>
<path d="M29.1107 692.732V724.04H10.6201V624.092H51.0225C68.9429 624.092 73.9931 638.734 73.9931 657.114V659.243C73.9931 677.363 68.6985 692.68 51.0225 692.68H29.1107V692.732ZM29.1107 667.758H48.8232C53.0589 667.758 54.9324 664.123 54.9324 658.62V658.204C54.9324 652.441 53.1404 649.066 48.8232 649.066H29.1107V667.758Z" fill="#FF0000" stroke="white" stroke-miterlimit="10"/>
<path d="M72.5146 624.092H90.2722V664.383C91.7384 661.319 97.3589 650.156 108.274 650.156H108.681C121.796 650.156 125.869 666.148 125.869 677.571V724.04H108.111V689.513C108.111 679.855 105.667 672.846 99.6397 672.846C93.6119 672.846 90.3536 680.219 90.3536 690.447V724.04H72.5962V624.092H72.5146Z" fill="#FF0000" stroke="white" stroke-miterlimit="10"/>
<path d="M151.024 724.04C128.624 724.04 124.47 702.129 124.47 686.553V684.424C124.47 669.108 128.543 647.768 151.024 647.768H155.993C179.29 647.768 182.467 669.263 182.467 684.32V686.761C182.467 702.233 179.534 724.092 155.912 724.092H151.106L151.024 724.04ZM153.468 668.121C144.752 668.121 142.472 677.103 142.472 685.047V685.567C142.472 693.51 144.671 703.427 153.468 703.427C162.103 703.427 164.383 693.095 164.383 685.567V685.047C164.383 677.103 162.103 668.121 153.468 668.121Z" fill="#FF0000" stroke="white" stroke-miterlimit="10"/>
<path d="M194.591 724.04C188.564 724.04 185.305 717.342 185.305 703.479V673.936H178.626V651.766H185.305V630.686H202.9V651.766H209.579V673.936H202.9V695.276C202.9 699.689 203.307 701.61 205.832 701.61H209.579V724.04H194.591Z" fill="#FF0000" stroke="white" stroke-miterlimit="10"/>
<path d="M233.597 724.04C211.196 724.04 207.042 702.129 207.042 686.553V684.424C207.042 669.108 211.115 647.768 233.597 647.768H238.566C261.862 647.768 265.039 669.263 265.039 684.32V686.761C265.039 702.233 262.106 724.092 238.484 724.092H233.678L233.597 724.04ZM236.04 668.121C227.325 668.121 225.044 677.103 225.044 685.047V685.567C225.044 693.51 227.243 703.427 236.04 703.427C244.675 703.427 246.956 693.095 246.956 685.567V685.047C246.956 677.103 244.675 668.121 236.04 668.121Z" fill="#FF0000" stroke="white" stroke-miterlimit="10"/>
<path d="M101.967 819.593H72.0726L68.0281 835.285H47.8057L73.6552 737.843H100.56L127.904 835.285H106.011L101.967 819.593ZM86.7559 761.735L78.1393 795.245H95.5482L86.7559 761.735Z" fill="#FF0000" stroke="white" stroke-miterlimit="10"/>
<path d="M127.549 835.285L112.602 764.823H132.472L139.858 809.216L147.068 764.823H166.762L174.148 809.064L181.358 764.823H199.646L185.578 835.285H164.213L156.651 792.613L149.09 835.285H127.461H127.549Z" fill="#FF0000" stroke="white" stroke-miterlimit="10"/>
<path d="M212.635 835.285H211.843C199.182 835.285 194.347 824.149 194.347 812.608V811.038C194.347 799.244 198.391 792.309 209.645 790.588L227.846 787.551C229.428 787.146 229.956 786.134 229.956 784.16C229.956 782.185 229.164 778.794 221.691 778.794H221.427C213.338 778.794 213.162 783.755 212.899 785.982H195.138V785.172C195.138 775.757 196.721 761.583 219.405 761.583H223.361C247.013 761.583 248.596 774.694 248.596 784.261V810.33C248.596 812.304 248.859 813.367 250.178 813.367H252.2V833.918H236.286C232.945 833.918 230.747 830.628 230.132 824.503C228.285 827.895 223.449 835.234 212.371 835.234L212.635 835.285ZM230.044 800.712L217.383 804.914C214.042 805.977 212.723 807.394 212.723 810.937V811.089C212.723 814.379 213.954 818.277 218.701 818.277C225.735 818.277 230.044 811.089 230.044 803.749V800.763V800.712Z" fill="#FF0000" stroke="white" stroke-miterlimit="10"/>
<path d="M270.283 776.54C271.778 772.491 276.702 762.012 286.11 762.012H286.989C299.474 762.012 302.903 778.109 302.903 793.194V800.281H284.351V797.8C284.351 789.954 282.505 783.374 277.493 783.374C272.482 783.374 270.459 789.65 270.459 798.559V834.044H251.292V763.582H270.283V776.54Z" fill="#FF0000" stroke="white" stroke-miterlimit="10"/>
<path d="M361.006 735.285V832.727H341.927V822.502C340.696 825.135 335.509 834.044 323.727 834.044H322.496C305.966 834.044 299.548 817.137 299.548 798.408V795.674C299.548 777.755 305.439 760.949 321.88 760.949H323.199C334.893 760.949 339.993 768.694 341.751 771.174V735.285H360.919H361.006ZM341.927 796.838C341.927 788.992 338.058 780.59 330.057 780.59H329.706C321.441 780.59 319.067 788.992 319.067 796.838V797.496C319.067 805.241 321.88 814.15 329.794 814.15H330.057C338.234 814.15 341.927 805.393 341.927 797.496V796.838Z" fill="#FF0000" stroke="white" stroke-miterlimit="10"/>
<line x1="12.6377" y1="504.428" x2="343.445" y2="504.428" stroke="#FF0000"/>
<line x1="1.50684" y1="289.708" x2="370.119" y2="289.708" stroke="black"/>
<line x1="54.5342" y1="387.679" x2="208.373" y2="387.679" stroke="black"/>
<line x1="54.5342" y1="602.286" x2="286.544" y2="602.286" stroke="#FF0000"/>
<line x1="7.2666" y1="729.467" x2="261.686" y2="729.467" stroke="#FF0000"/>
<line x1="43.6865" y1="840.785" x2="357.653" y2="840.785" stroke="#FF0000"/>
<path d="M125.184 172.924C125.733 172.924 126.834 172.631 130.093 171.107C130.943 170.709 131.183 170.389 131.348 170.046C131.696 169.321 131.64 168.966 131.624 168.824C131.561 168.259 129.692 170.463 128.72 171.12C127.514 171.936 124.662 172.887 124.318 173.063C123.273 173.598 126.865 172.441 128.431 172.285C130.769 172.052 132.449 172.208 132.918 172.19C133.708 172.162 134.363 171.509 134.792 171.303C135.208 171.102 135.559 170.862 137.532 170.321C138.393 170.086 139.17 169.605 139.925 169.157C141.235 168.379 143.192 167.108 143.886 166.67C144.382 166.357 144.64 165.987 145.362 164.853C145.879 164.039 146.876 163.194 147.397 162.697C147.889 162.228 148.206 161.584 149.693 160.185C150.521 159.407 152.056 158.329 152.874 157.69C153.813 156.957 154.124 156.701 155.425 156.112C156.503 155.625 158.484 154.88 159.622 154.407C161.024 153.824 161.515 153.517 162.694 153.084C163.614 152.746 165.224 152.272 166.163 151.99C167.87 151.478 168.91 151.454 169.42 151.366C169.546 151.344 169.684 151.296 167.675 151.335C165.665 151.375 161.502 151.495 158.41 151.681C155.319 151.868 153.424 152.116 149.259 152.218C145.094 152.321 138.716 152.27 135.217 152.216C131.719 152.162 131.293 152.106 130.732 152.011C128.484 151.63 127.651 151.372 126.156 151.148C123.46 150.744 122.566 151.262 122.616 151.262C123.305 151.262 124.336 151.385 125.23 151.618C126.876 152.046 128.687 153.114 129.283 153.358C129.902 153.611 130.279 154.072 130.874 154.791C131.889 156.019 132.086 156.771 132.235 159.013C132.32 160.291 132.382 162.487 132.35 163.85C131.921 166.268 131.624 166.781 131.21 167.894C131.123 168.141 131.077 168.263 130.977 168.542" stroke="white" stroke-width="2" stroke-linecap="round"/>
<path d="M130.437 150.697C130.429 150.697 130.421 150.697 133.952 150.716C137.483 150.735 144.555 150.773 148.251 150.799C152.055 150.825 152.364 150.861 153.029 150.883C154.216 150.923 155.118 150.855 155.452 150.741C155.629 150.681 155.828 150.636 155.616 150.57C155.404 150.504 154.776 150.423 150.635 150.29C146.494 150.158 138.859 149.978 134.742 149.865C130.625 149.753 130.258 149.714 129.91 149.694C129.562 149.673 129.243 149.673 129.124 149.816C129.096 150.242 129.561 150.936 130.17 151.587C130.408 151.835 130.502 151.919 130.736 152.135" stroke="white" stroke-width="2" stroke-linecap="round"/>
<path d="M138.156 155.109C138.139 155.093 138.13 157.227 137.653 159.298C137.544 159.769 136.22 156.872 135.683 155.624C135.146 154.376 135.057 154.304 134.923 154.267C134.208 154.071 133.676 153.664 133.634 153.559C133.553 153.36 134.193 153.744 134.904 154.337C136.411 155.595 137.555 156.731 138.079 157.087C138.548 157.406 139.075 157.505 139.589 157.574C139.858 157.611 140.15 157.598 141.278 157.07C142.406 156.543 144.363 155.488 145.54 154.877C146.717 154.266 147.054 154.131 147.819 153.944C149.754 153.47 151.198 153.259 151.877 153.162C154.026 152.853 155.207 152.113 155.949 151.732C156.065 151.692 156.179 151.672 156.573 151.662C156.966 151.652 157.636 151.652 158.327 151.6" stroke="white" stroke-width="8" stroke-linecap="round"/>
<path d="M133.239 169.44C133.222 169.44 133.258 169.346 133.54 168.969C134.144 168.16 135.467 167.054 136.864 165.835C137.466 165.31 137.775 164.889 138.347 163.953C138.919 163.018 139.725 161.559 140.277 160.641C141.37 158.822 142.105 158.465 143.249 158.136C144.456 157.788 146.025 157.79 146.727 157.487C146.966 157.384 147.124 157.196 147.184 157.12C147.276 157.004 146.693 157.533 145.585 158.73C144.716 159.668 143.29 161.337 142.403 162.319C141.258 163.586 140.804 163.897 140.536 164.031C139.85 164.372 138.943 164.162 138.019 163.751C136.246 162.963 135.431 161.444 135.475 161.109C135.54 160.623 136.502 160.062 137.849 159.315C138.565 158.917 139.404 158.587 140.254 158.293C141.105 157.998 141.956 157.776 143.256 157.53C144.556 157.284 146.28 157.021 147.31 156.84C149.029 156.537 149.451 156.141 149.969 155.605C150.081 155.482 150.166 155.398 150.285 155.325C150.405 155.253 150.556 155.195 150.816 155.136" stroke="white" stroke-width="8" stroke-linecap="round"/>
<path d="M122.487 152.756C124.94 153.164 126.268 153.267 127.832 154.442C130.565 156.494 130.789 158.197 131.345 160.822C131.925 163.567 129.806 168.386 127.832 169.788C124.687 172.023 120.265 173.599 117.048 174.133C115.414 174.33 113.776 174.376 112.089 174.423" stroke="#00E526" stroke-width="2" stroke-linecap="round"/>
<path d="M178.736 152.608C175.742 152.608 167.172 152.288 160.379 155.198C158.145 156.155 154.029 158.668 151.223 161.242C147.819 164.366 144.873 167.957 142.091 169.77C139.086 171.728 136.56 172.215 133.103 173.092C127.4 174.538 113.717 174.323 112.089 174.538" stroke="#00E526" stroke-width="2" stroke-linecap="round"/>
<mask id="mask0_47_168" style="mask-type:alpha" maskUnits="userSpaceOnUse" x="47" y="0" width="349" height="162">
<rect x="47.4336" y="1" width="73.9424" height="160.69" fill="#D9D9D9"/>
<rect x="169.004" y="1" width="226.93" height="160.69" fill="#D9D9D9"/>
<rect x="120.873" width="48.1309" height="150.83" fill="#D9D9D9"/>
</mask>
<g mask="url(#mask0_47_168)">
<rect x="49.5078" y="8.89746" width="323.858" height="143.842" rx="71.9208" fill="white" stroke="#00E526" stroke-width="2"/>
</g>
<path d="M115.075 47.3301C110.923 47.3301 107.947 43.5381 107.947 38.0901C107.947 32.5461 111.091 28.3941 115.291 28.3941C118.171 28.3941 120.499 30.3141 121.627 33.5541L119.803 34.0581C118.915 31.8741 117.283 30.6021 115.243 30.6021C112.075 30.6021 109.819 33.7221 109.819 37.9941C109.819 42.1941 112.003 45.1461 115.051 45.1461C117.331 45.1461 119.131 43.5381 119.971 40.8981L121.699 41.3781C120.595 45.1461 118.243 47.3301 115.075 47.3301ZM122.603 46.8741L128.243 28.8261H130.283L135.875 46.8741H134.027L132.419 41.6661H126.059L124.475 46.8741H122.603ZM126.755 39.5541H131.747L129.275 31.4421L126.755 39.5541ZM137.184 46.8741V28.8261H138.936V44.7141H147.264V46.8741H137.184ZM148.927 46.8741V28.8261H150.679V44.7141H159.007V46.8741H148.927ZM160.909 46.8741V28.8261H162.685V46.8741H160.909ZM165.333 46.8741V28.8261H167.181L174.813 43.0821V28.8261H176.541V46.8741H174.717L167.061 32.5461V46.8741H165.333ZM184.854 47.3301C181.086 47.3301 178.47 43.5141 178.47 38.0661C178.47 32.7861 180.942 28.3941 185.19 28.3941C188.046 28.3941 190.086 30.3861 191.022 33.6021L189.318 34.0821C188.55 31.7061 187.014 30.5781 185.19 30.5781C182.07 30.5781 180.27 33.8421 180.27 38.0661C180.27 42.5541 182.382 45.1701 184.974 45.1701C187.47 45.1701 189.342 42.7461 189.438 39.4101H185.382V37.2741H191.166V46.8741H189.63L189.462 44.5221C188.526 46.2501 186.846 47.3301 184.854 47.3301ZM197.181 46.8741L202.821 28.8261H204.861L210.453 46.8741H208.605L206.997 41.6661H200.637L199.053 46.8741H197.181ZM201.333 39.5541H206.325L203.853 31.4421L201.333 39.5541ZM211.763 46.8741V28.8261H213.515V44.7141H221.843V46.8741H211.763ZM223.505 46.8741V28.8261H225.257V44.7141H233.585V46.8741H223.505ZM108.427 74.8741V56.8261H114.283C117.115 56.8261 118.915 59.0101 118.915 61.9621C118.915 64.9381 117.067 67.1461 114.283 67.1461H110.179V74.8741H108.427ZM110.179 65.0101H114.283C115.987 65.0101 117.139 63.8101 117.139 61.9621C117.139 60.1141 116.035 58.9621 114.283 58.9621H110.179V65.0101ZM120.731 74.8741V56.8261H122.459V64.6021H130.331V56.8261H132.059V74.8741H130.331V66.7141H122.459V74.8741H120.731ZM141.113 75.3301C136.985 75.3301 134.009 71.3461 134.009 65.9221C134.009 60.5701 136.817 56.3941 141.113 56.3941C145.409 56.3941 148.169 60.5941 148.169 65.9221C148.169 71.3461 145.241 75.3301 141.113 75.3301ZM141.113 73.1941C144.113 73.1941 146.321 70.1941 146.321 65.8981C146.321 61.7221 144.305 58.5541 141.113 58.5541C137.945 58.5541 135.905 61.7221 135.905 65.8981C135.905 70.1701 138.113 73.1941 141.113 73.1941ZM154.034 74.8741V58.9621H149.09V56.8261H160.73V58.9621H155.762V74.8741H154.034ZM168.746 75.3301C164.618 75.3301 161.642 71.3461 161.642 65.9221C161.642 60.5701 164.45 56.3941 168.746 56.3941C173.042 56.3941 175.802 60.5941 175.802 65.9221C175.802 71.3461 172.874 75.3301 168.746 75.3301ZM168.746 73.1941C171.746 73.1941 173.954 70.1941 173.954 65.8981C173.954 61.7221 171.938 58.5541 168.746 58.5541C165.578 58.5541 163.538 61.7221 163.538 65.8981C163.538 70.1701 165.746 73.1941 168.746 73.1941ZM183.635 75.3301C179.867 75.3301 177.251 71.5141 177.251 66.0661C177.251 60.7861 179.723 56.3941 183.971 56.3941C186.827 56.3941 188.867 58.3861 189.803 61.6021L188.099 62.0821C187.331 59.7061 185.795 58.5781 183.971 58.5781C180.851 58.5781 179.051 61.8421 179.051 66.0661C179.051 70.5541 181.163 73.1701 183.755 73.1701C186.251 73.1701 188.123 70.7461 188.219 67.4101H184.163V65.2741H189.947V74.8741H188.411L188.243 72.5221C187.307 74.2501 185.627 75.3301 183.635 75.3301ZM192.286 74.8741V56.8261H198.286C201.07 56.8261 202.918 59.0101 202.918 62.0101C202.918 64.0501 202.054 65.7061 200.446 66.5221C202.27 67.8661 201.646 70.9381 203.278 74.8741H201.31C200.182 72.1861 200.446 67.0981 197.83 67.0981H194.014V74.8741H192.286ZM194.014 64.9621H198.238C199.966 64.9621 201.142 63.7141 201.142 61.9141C201.142 60.1381 200.014 58.9621 198.238 58.9621H194.014V64.9621ZM204.166 74.8741L209.806 56.8261H211.846L217.438 74.8741H215.59L213.982 69.6661H207.622L206.038 74.8741H204.166ZM208.318 67.5541H213.31L210.838 59.4421L208.318 67.5541ZM218.747 74.8741V56.8261H224.603C227.435 56.8261 229.235 59.0101 229.235 61.9621C229.235 64.9381 227.387 67.1461 224.603 67.1461H220.499V74.8741H218.747ZM220.499 65.0101H224.603C226.307 65.0101 227.459 63.8101 227.459 61.9621C227.459 60.1141 226.355 58.9621 224.603 58.9621H220.499V65.0101ZM231.052 74.8741V56.8261H232.78V64.6021H240.652V56.8261H242.38V74.8741H240.652V66.7141H232.78V74.8741H231.052ZM244.809 74.8741V56.8261H254.889V58.9621H246.537V64.5301H254.241V66.6661H246.537V72.7141H255.057V74.8741H244.809ZM257.044 74.8741V56.8261H263.044C265.828 56.8261 267.676 59.0101 267.676 62.0101C267.676 64.0501 266.812 65.7061 265.204 66.5221C267.028 67.8661 266.404 70.9381 268.036 74.8741H266.068C264.94 72.1861 265.204 67.0981 262.588 67.0981H258.772V74.8741H257.044ZM258.772 64.9621H262.996C264.724 64.9621 265.9 63.7141 265.9 61.9141C265.9 60.1381 264.772 58.9621 262.996 58.9621H258.772V64.9621ZM275.404 75.3301C272.236 75.3301 270.244 73.3621 269.764 69.7141L271.492 69.2821C271.852 71.8501 273.148 73.1701 275.308 73.1701C277.42 73.1701 278.86 71.9221 278.86 70.1461C278.86 68.5861 277.732 67.5061 274.972 66.4981C271.612 65.2981 270.172 63.5221 270.172 61.0261C270.172 58.1701 272.068 56.3941 275.068 56.3941C278.02 56.3941 279.772 58.0741 280.372 61.2901L278.596 61.7701C278.188 59.6101 277.06 58.5301 275.02 58.5301C273.148 58.5301 271.972 59.4421 271.972 61.0021C271.972 62.4421 272.98 63.4261 275.692 64.4821C279.316 65.8501 280.66 67.6261 280.66 70.1461C280.66 73.2901 278.596 75.3301 275.404 75.3301ZM284.314 78.3541L283.738 77.3461C284.482 76.8181 285.034 76.0741 285.082 75.0901C284.194 75.4021 283.402 74.5861 283.402 73.5541C283.402 72.6661 283.978 71.9221 284.722 71.9221C285.298 71.9221 286.162 72.3541 286.162 74.3461C286.162 75.9301 285.562 77.2981 284.314 78.3541ZM108.427 102.874V84.8261H114.283C117.115 84.8261 118.915 87.0101 118.915 89.9621C118.915 92.9381 117.067 95.1461 114.283 95.1461H110.179V102.874H108.427ZM110.179 93.0101H114.283C115.987 93.0101 117.139 91.8101 117.139 89.9621C117.139 88.1141 116.035 86.9621 114.283 86.9621H110.179V93.0101ZM120.731 102.874V84.8261H122.459V92.6021H130.331V84.8261H132.059V102.874H130.331V94.7141H122.459V102.874H120.731ZM141.113 103.33C136.985 103.33 134.009 99.3461 134.009 93.9221C134.009 88.5701 136.817 84.3941 141.113 84.3941C145.409 84.3941 148.169 88.5941 148.169 93.9221C148.169 99.3461 145.241 103.33 141.113 103.33ZM141.113 101.194C144.113 101.194 146.321 98.1941 146.321 93.8981C146.321 89.7221 144.305 86.5541 141.113 86.5541C137.945 86.5541 135.905 89.7221 135.905 93.8981C135.905 98.1701 138.113 101.194 141.113 101.194ZM154.034 102.874V86.9621H149.09V84.8261H160.73V86.9621H155.762V102.874H154.034ZM168.746 103.33C164.618 103.33 161.642 99.3461 161.642 93.9221C161.642 88.5701 164.45 84.3941 168.746 84.3941C173.042 84.3941 175.802 88.5941 175.802 93.9221C175.802 99.3461 172.874 103.33 168.746 103.33ZM168.746 101.194C171.746 101.194 173.954 98.1941 173.954 93.8981C173.954 89.7221 171.938 86.5541 168.746 86.5541C165.578 86.5541 163.538 89.7221 163.538 93.8981C163.538 98.1701 165.746 101.194 168.746 101.194ZM177.971 95.7221V93.8501H182.651V95.7221H177.971ZM185.302 102.874V84.8261H191.158C193.966 84.8261 195.574 86.4821 195.574 89.3381C195.574 91.1141 194.974 92.5061 193.75 93.3221C195.334 93.9941 196.198 95.5781 196.198 97.6421C196.198 100.762 194.182 102.874 191.23 102.874H185.302ZM187.03 92.3381H190.654C192.598 92.3381 193.87 91.2341 193.87 89.4581C193.87 87.8741 192.838 86.9621 191.086 86.9621H187.03V92.3381ZM187.03 100.714H191.11C193.174 100.714 194.422 99.5621 194.422 97.6421C194.422 95.6501 193.078 94.4261 190.918 94.4261H187.03V100.714ZM197.111 102.874L202.751 84.8261H204.791L210.383 102.874H208.535L206.927 97.6661H200.567L198.983 102.874H197.111ZM201.263 95.5541H206.255L203.783 87.4421L201.263 95.5541ZM217.044 103.33C213.876 103.33 211.884 101.362 211.404 97.7141L213.132 97.2821C213.492 99.8501 214.788 101.17 216.948 101.17C219.06 101.17 220.5 99.9221 220.5 98.1461C220.5 96.5861 219.372 95.5061 216.612 94.4981C213.252 93.2981 211.812 91.5221 211.812 89.0261C211.812 86.1701 213.708 84.3941 216.708 84.3941C219.66 84.3941 221.412 86.0741 222.012 89.2901L220.236 89.7701C219.828 87.6101 218.7 86.5301 216.66 86.5301C214.788 86.5301 213.612 87.4421 213.612 89.0021C213.612 90.4421 214.62 91.4261 217.332 92.4821C220.956 93.8501 222.3 95.6261 222.3 98.1461C222.3 101.29 220.236 103.33 217.044 103.33ZM224.419 102.874V84.8261H234.499V86.9621H226.147V92.5301H233.851V94.6661H226.147V100.714H234.667V102.874H224.419ZM236.653 102.874V84.8261H241.741C246.229 84.8261 248.605 88.2821 248.605 93.7541C248.605 99.1301 246.229 102.874 241.741 102.874H236.653ZM238.381 100.738H241.429C244.885 100.738 246.829 98.3621 246.829 93.7541C246.829 89.0741 244.885 86.9621 241.429 86.9621H238.381V100.738ZM254.299 102.874L259.939 84.8261H261.979L267.571 102.874H265.723L264.115 97.6661H257.755L256.171 102.874H254.299ZM258.451 95.5541H263.443L260.971 87.4421L258.451 95.5541ZM268.88 102.874V84.8261H274.88C277.664 84.8261 279.512 87.0101 279.512 90.0101C279.512 92.0501 278.648 93.7061 277.04 94.5221C278.864 95.8661 278.24 98.9381 279.872 102.874H277.904C276.776 100.186 277.04 95.0981 274.424 95.0981H270.608V102.874H268.88ZM270.608 92.9621H274.832C276.56 92.9621 277.736 91.7141 277.736 89.9141C277.736 88.1381 276.608 86.9621 274.832 86.9621H270.608V92.9621ZM285.824 102.874V86.9621H280.88V84.8261H292.52V86.9621H287.552V102.874H285.824ZM294.151 102.874V84.8261H295.927V102.874H294.151ZM303.927 103.33C300.759 103.33 298.767 101.362 298.287 97.7141L300.015 97.2821C300.375 99.8501 301.671 101.17 303.831 101.17C305.943 101.17 307.383 99.9221 307.383 98.1461C307.383 96.5861 306.255 95.5061 303.495 94.4981C300.135 93.2981 298.695 91.5221 298.695 89.0261C298.695 86.1701 300.591 84.3941 303.591 84.3941C306.543 84.3941 308.295 86.0741 308.895 89.2901L307.119 89.7701C306.711 87.6101 305.583 86.5301 303.543 86.5301C301.671 86.5301 300.495 87.4421 300.495 89.0021C300.495 90.4421 301.503 91.4261 304.215 92.4821C307.839 93.8501 309.183 95.6261 309.183 98.1461C309.183 101.29 307.119 103.33 303.927 103.33ZM315.238 102.874V86.9621H310.294V84.8261H321.934V86.9621H316.966V102.874H315.238ZM328.677 103.33C325.509 103.33 323.517 101.362 323.037 97.7141L324.765 97.2821C325.125 99.8501 326.421 101.17 328.581 101.17C330.693 101.17 332.133 99.9221 332.133 98.1461C332.133 96.5861 331.005 95.5061 328.245 94.4981C324.885 93.2981 323.445 91.5221 323.445 89.0261C323.445 86.1701 325.341 84.3941 328.341 84.3941C331.293 84.3941 333.045 86.0741 333.645 89.2901L331.869 89.7701C331.461 87.6101 330.333 86.5301 328.293 86.5301C326.421 86.5301 325.245 87.4421 325.245 89.0021C325.245 90.4421 326.253 91.4261 328.965 92.4821C332.589 93.8501 333.933 95.6261 333.933 98.1461C333.933 101.29 331.869 103.33 328.677 103.33ZM337.588 106.354L337.012 105.346C337.756 104.818 338.308 104.074 338.356 103.09C337.468 103.402 336.676 102.586 336.676 101.554C336.676 100.666 337.252 99.9221 337.996 99.9221C338.572 99.9221 339.436 100.354 339.436 102.346C339.436 103.93 338.836 105.298 337.588 106.354ZM107.299 130.874L112.939 112.826H114.979L120.571 130.874H118.723L117.115 125.666H110.755L109.171 130.874H107.299ZM111.451 123.554H116.443L113.971 115.442L111.451 123.554ZM121.88 130.874V112.826H123.728L131.36 127.082V112.826H133.088V130.874H131.264L123.608 116.546V130.874H121.88ZM135.497 130.874V112.826H140.585C145.073 112.826 147.449 116.282 147.449 121.754C147.449 127.13 145.073 130.874 140.585 130.874H135.497ZM137.225 128.738H140.273C143.729 128.738 145.673 126.362 145.673 121.754C145.673 117.074 143.729 114.962 140.273 114.962H137.225V128.738ZM160.918 131.33C156.766 131.33 153.79 127.538 153.79 122.09C153.79 116.546 156.934 112.394 161.134 112.394C164.014 112.394 166.342 114.314 167.47 117.554L165.646 118.058C164.758 115.874 163.126 114.602 161.086 114.602C157.918 114.602 155.662 117.722 155.662 121.994C155.662 126.194 157.846 129.146 160.894 129.146C163.174 129.146 164.974 127.538 165.814 124.898L167.542 125.378C166.438 129.146 164.086 131.33 160.918 131.33ZM175.143 131.33C171.663 131.33 169.575 128.81 169.575 124.058V112.826H171.327V124.058C171.327 127.418 172.695 129.17 175.143 129.17C177.663 129.17 179.079 127.442 179.079 124.082V112.826H180.807V124.082C180.807 128.762 178.671 131.33 175.143 131.33ZM183.216 130.874V112.826H189.216C192 112.826 193.848 115.01 193.848 118.01C193.848 120.05 192.984 121.706 191.376 122.522C193.2 123.866 192.576 126.938 194.208 130.874H192.24C191.112 128.186 191.376 123.098 188.76 123.098H184.944V130.874H183.216ZM184.944 120.962H189.168C190.896 120.962 192.072 119.714 192.072 117.914C192.072 116.138 190.944 114.962 189.168 114.962H184.944V120.962ZM195.095 130.874L200.735 112.826H202.775L208.367 130.874H206.519L204.911 125.666H198.551L196.967 130.874H195.095ZM199.247 123.554H204.239L201.767 115.442L199.247 123.554ZM213.613 130.874V114.962H208.669V112.826H220.309V114.962H215.341V130.874H213.613ZM228.324 131.33C224.196 131.33 221.22 127.346 221.22 121.922C221.22 116.57 224.028 112.394 228.324 112.394C232.62 112.394 235.38 116.594 235.38 121.922C235.38 127.346 232.452 131.33 228.324 131.33ZM228.324 129.194C231.324 129.194 233.532 126.194 233.532 121.898C233.532 117.722 231.516 114.554 228.324 114.554C225.156 114.554 223.116 117.722 223.116 121.898C223.116 126.17 225.324 129.194 228.324 129.194ZM237.309 130.874V112.826H243.309C246.093 112.826 247.941 115.01 247.941 118.01C247.941 120.05 247.077 121.706 245.469 122.522C247.293 123.866 246.669 126.938 248.301 130.874H246.333C245.205 128.186 245.469 123.098 242.853 123.098H239.037V130.874H237.309ZM239.037 120.962H243.261C244.989 120.962 246.165 119.714 246.165 117.914C246.165 116.138 245.037 114.962 243.261 114.962H239.037V120.962ZM255.669 131.33C252.501 131.33 250.509 129.362 250.029 125.714L251.757 125.282C252.117 127.85 253.413 129.17 255.573 129.17C257.685 129.17 259.125 127.922 259.125 126.146C259.125 124.586 257.997 123.506 255.237 122.498C251.877 121.298 250.437 119.522 250.437 117.026C250.437 114.17 252.333 112.394 255.333 112.394C258.285 112.394 260.037 114.074 260.637 117.29L258.861 117.77C258.453 115.61 257.325 114.53 255.285 114.53C253.413 114.53 252.237 115.442 252.237 117.002C252.237 118.442 253.245 119.426 255.957 120.482C259.581 121.85 260.925 123.626 260.925 126.146C260.925 129.29 258.861 131.33 255.669 131.33Z" fill="black"/>
<path d="M103.145 183.736C103.695 183.736 104.796 183.444 108.055 181.919C108.905 181.521 109.145 181.201 109.309 180.859C109.658 180.133 109.602 179.779 109.586 179.636C109.523 179.072 107.654 181.275 106.682 181.932C105.475 182.748 102.623 183.699 102.28 183.875C101.235 184.41 104.827 183.253 106.393 183.097C108.731 182.865 110.411 183.02 110.879 183.003C111.67 182.974 112.325 182.321 112.754 182.115C113.17 181.915 113.521 181.674 115.494 181.134C116.354 180.898 117.131 180.418 117.887 179.969C119.197 179.192 121.154 177.92 121.848 177.483C122.344 177.17 122.602 176.8 123.324 175.665C123.841 174.852 124.838 174.006 125.359 173.51C125.851 173.04 126.168 172.396 127.655 170.997C128.482 170.219 130.018 169.142 130.836 168.502C131.775 167.769 132.085 167.513 133.386 166.925C134.465 166.437 136.446 165.692 137.584 165.219C138.986 164.637 139.476 164.329 140.656 163.896C141.576 163.559 143.186 163.084 144.125 162.803C145.832 162.291 146.871 162.266 147.382 162.178C147.508 162.157 147.646 162.108 145.637 162.148C143.627 162.187 139.464 162.308 136.372 162.494C133.28 162.68 131.386 162.928 127.221 163.03C123.056 163.133 116.678 163.082 113.179 163.028C109.681 162.974 109.255 162.919 108.694 162.824C106.446 162.443 105.613 162.184 104.118 161.96C101.422 161.556 100.528 162.074 100.578 162.074C101.267 162.074 102.298 162.197 103.192 162.43C104.838 162.858 106.649 163.926 107.245 164.17C107.864 164.423 108.241 164.885 108.836 165.603C109.851 166.832 110.048 167.584 110.197 169.825C110.282 171.103 110.344 173.299 110.312 174.662C109.883 177.081 109.586 177.593 109.172 178.706C109.085 178.953 109.039 179.075 108.939 179.355" stroke="white" stroke-width="2" stroke-linecap="round"/>
<path d="M108.399 161.509C108.391 161.509 108.383 161.509 111.914 161.528C115.445 161.547 122.517 161.585 126.213 161.611C130.017 161.638 130.326 161.673 130.99 161.696C132.178 161.735 133.08 161.667 133.414 161.554C133.591 161.494 133.79 161.449 133.578 161.383C133.366 161.316 132.738 161.235 128.597 161.103C124.456 160.971 116.821 160.79 112.704 160.677C108.587 160.565 108.22 160.526 107.872 160.506C107.523 160.486 107.205 160.486 107.086 160.628C107.058 161.054 107.523 161.749 108.132 162.399C108.37 162.648 108.464 162.731 108.698 162.948" stroke="white" stroke-width="2" stroke-linecap="round"/>
<path d="M116.117 165.922C116.101 165.905 116.092 168.04 115.615 170.11C115.506 170.581 114.182 167.685 113.645 166.437C113.108 165.189 113.019 165.117 112.885 165.08C112.17 164.884 111.638 164.476 111.596 164.371C111.515 164.172 112.155 164.556 112.866 165.15C114.373 166.407 115.517 167.543 116.041 167.9C116.51 168.218 117.037 168.318 117.551 168.387C117.82 168.423 118.112 168.41 119.24 167.883C120.368 167.355 122.325 166.3 123.502 165.689C124.679 165.079 125.016 164.944 125.78 164.757C127.716 164.283 129.16 164.072 129.839 163.974C131.988 163.665 133.169 162.925 133.911 162.545C134.027 162.505 134.141 162.485 134.535 162.474C134.928 162.464 135.598 162.464 136.289 162.413" stroke="white" stroke-width="8" stroke-linecap="round"/>
<path d="M111.201 180.252C111.184 180.252 111.22 180.159 111.502 179.781C112.106 178.973 113.429 177.867 114.826 176.648C115.428 176.122 115.737 175.701 116.309 174.766C116.881 173.83 117.687 172.372 118.239 171.453C119.332 169.634 120.067 169.277 121.211 168.948C122.418 168.601 123.987 168.602 124.689 168.3C124.928 168.197 125.086 168.008 125.146 167.933C125.238 167.816 124.655 168.345 123.547 169.542C122.678 170.48 121.252 172.15 120.365 173.131C119.22 174.398 118.766 174.71 118.498 174.843C117.811 175.184 116.905 174.975 115.981 174.564C114.208 173.776 113.393 172.256 113.437 171.921C113.502 171.436 114.464 170.874 115.811 170.127C116.527 169.73 117.366 169.399 118.216 169.105C119.067 168.811 119.918 168.589 121.218 168.343C122.518 168.097 124.242 167.833 125.271 167.652C126.991 167.35 127.413 166.953 127.931 166.417C128.043 166.295 128.128 166.21 128.247 166.138C128.367 166.065 128.518 166.008 128.778 165.948" stroke="white" stroke-width="8" stroke-linecap="round"/>
<path d="M100.449 163.568C102.902 163.977 104.23 164.079 105.794 165.254C108.527 167.307 108.751 169.009 109.307 171.634C109.887 174.379 107.768 179.198 105.794 180.6C102.648 182.835 98.2269 184.411 95.0101 184.945C93.3759 185.142 91.7381 185.188 90.0508 185.235" stroke="#00E526" stroke-width="2" stroke-linecap="round"/>
<path d="M156.698 163.421C153.704 163.421 145.134 163.1 138.341 166.01C136.107 166.967 131.991 169.48 129.185 172.054C125.781 175.178 122.835 178.77 120.052 180.582C117.048 182.54 114.522 183.028 111.064 183.905C105.362 185.351 91.6785 185.136 90.0508 185.351" stroke="#00E526" stroke-width="2" stroke-linecap="round"/>
<mask id="mask1_47_168" style="mask-type:alpha" maskUnits="userSpaceOnUse" x="25" y="10" width="349" height="163">
<rect x="25.3955" y="11.8124" width="73.9424" height="160.69" fill="#D9D9D9"/>
<rect x="146.966" y="11.8124" width="226.93" height="160.69" fill="#D9D9D9"/>
<rect x="98.835" y="10.8124" width="48.1309" height="150.83" fill="#D9D9D9"/>
</mask>
<g mask="url(#mask1_47_168)">
<rect x="27.4697" y="19.7098" width="323.858" height="143.842" rx="71.9208" fill="white" stroke="#00E526" stroke-width="2"/>
</g>
<path d="M93.0365 58.1425C88.8845 58.1425 85.9085 54.3505 85.9085 48.9025C85.9085 43.3585 89.0525 39.2065 93.2525 39.2065C96.1325 39.2065 98.4605 41.1265 99.5885 44.3665L97.7645 44.8705C96.8765 42.6865 95.2445 41.4145 93.2045 41.4145C90.0365 41.4145 87.7805 44.5345 87.7805 48.8065C87.7805 53.0065 89.9645 55.9585 93.0125 55.9585C95.2925 55.9585 97.0925 54.3505 97.9325 51.7105L99.6605 52.1905C98.5565 55.9585 96.2045 58.1425 93.0365 58.1425ZM100.565 57.6865L106.205 39.6385H108.245L113.837 57.6865H111.989L110.381 52.4785H104.021L102.437 57.6865H100.565ZM104.717 50.3665H109.709L107.237 42.2545L104.717 50.3665ZM115.146 57.6865V39.6385H116.898V55.5265H125.226V57.6865H115.146ZM126.888 57.6865V39.6385H128.64V55.5265H136.968V57.6865H126.888ZM138.871 57.6865V39.6385H140.647V57.6865H138.871ZM143.295 57.6865V39.6385H145.143L152.775 53.8945V39.6385H154.503V57.6865H152.679L145.023 43.3585V57.6865H143.295ZM162.816 58.1425C159.048 58.1425 156.432 54.3265 156.432 48.8785C156.432 43.5985 158.904 39.2065 163.152 39.2065C166.008 39.2065 168.048 41.1985 168.984 44.4145L167.28 44.8945C166.512 42.5185 164.976 41.3905 163.152 41.3905C160.032 41.3905 158.232 44.6545 158.232 48.8785C158.232 53.3665 160.344 55.9825 162.936 55.9825C165.432 55.9825 167.304 53.5585 167.4 50.2225H163.344V48.0865H169.128V57.6865H167.592L167.424 55.3345C166.488 57.0625 164.808 58.1425 162.816 58.1425ZM175.143 57.6865L180.783 39.6385H182.823L188.415 57.6865H186.567L184.959 52.4785H178.599L177.015 57.6865H175.143ZM179.295 50.3665H184.287L181.815 42.2545L179.295 50.3665ZM189.724 57.6865V39.6385H191.476V55.5265H199.804V57.6865H189.724ZM201.467 57.6865V39.6385H203.219V55.5265H211.547V57.6865H201.467ZM86.3885 85.6865V67.6385H92.2445C95.0765 67.6385 96.8765 69.8225 96.8765 72.7745C96.8765 75.7505 95.0285 77.9585 92.2445 77.9585H88.1405V85.6865H86.3885ZM88.1405 75.8225H92.2445C93.9485 75.8225 95.1005 74.6225 95.1005 72.7745C95.1005 70.9265 93.9965 69.7745 92.2445 69.7745H88.1405V75.8225ZM98.6932 85.6865V67.6385H100.421V75.4145H108.293V67.6385H110.021V85.6865H108.293V77.5265H100.421V85.6865H98.6932ZM119.075 86.1425C114.947 86.1425 111.971 82.1585 111.971 76.7345C111.971 71.3825 114.779 67.2065 119.075 67.2065C123.371 67.2065 126.131 71.4065 126.131 76.7345C126.131 82.1585 123.203 86.1425 119.075 86.1425ZM119.075 84.0065C122.075 84.0065 124.283 81.0065 124.283 76.7105C124.283 72.5345 122.267 69.3665 119.075 69.3665C115.907 69.3665 113.867 72.5345 113.867 76.7105C113.867 80.9825 116.075 84.0065 119.075 84.0065ZM131.996 85.6865V69.7745H127.052V67.6385H138.692V69.7745H133.724V85.6865H131.996ZM146.708 86.1425C142.58 86.1425 139.604 82.1585 139.604 76.7345C139.604 71.3825 142.412 67.2065 146.708 67.2065C151.004 67.2065 153.764 71.4065 153.764 76.7345C153.764 82.1585 150.836 86.1425 146.708 86.1425ZM146.708 84.0065C149.708 84.0065 151.916 81.0065 151.916 76.7105C151.916 72.5345 149.9 69.3665 146.708 69.3665C143.54 69.3665 141.5 72.5345 141.5 76.7105C141.5 80.9825 143.708 84.0065 146.708 84.0065ZM161.597 86.1425C157.829 86.1425 155.213 82.3265 155.213 76.8785C155.213 71.5985 157.685 67.2065 161.933 67.2065C164.789 67.2065 166.829 69.1985 167.765 72.4145L166.061 72.8945C165.293 70.5185 163.757 69.3905 161.933 69.3905C158.813 69.3905 157.013 72.6545 157.013 76.8785C157.013 81.3665 159.125 83.9825 161.717 83.9825C164.213 83.9825 166.085 81.5585 166.181 78.2225H162.125V76.0865H167.909V85.6865H166.373L166.205 83.3345C165.269 85.0625 163.589 86.1425 161.597 86.1425ZM170.248 85.6865V67.6385H176.248C179.032 67.6385 180.88 69.8225 180.88 72.8225C180.88 74.8625 180.016 76.5185 178.408 77.3345C180.232 78.6785 179.608 81.7505 181.24 85.6865H179.272C178.144 82.9985 178.408 77.9105 175.792 77.9105H171.976V85.6865H170.248ZM171.976 75.7745H176.2C177.928 75.7745 179.104 74.5265 179.104 72.7265C179.104 70.9505 177.976 69.7745 176.2 69.7745H171.976V75.7745ZM182.128 85.6865L187.768 67.6385H189.808L195.4 85.6865H193.552L191.944 80.4785H185.584L184 85.6865H182.128ZM186.28 78.3665H191.272L188.8 70.2545L186.28 78.3665ZM196.709 85.6865V67.6385H202.565C205.397 67.6385 207.197 69.8225 207.197 72.7745C207.197 75.7505 205.349 77.9585 202.565 77.9585H198.461V85.6865H196.709ZM198.461 75.8225H202.565C204.269 75.8225 205.421 74.6225 205.421 72.7745C205.421 70.9265 204.317 69.7745 202.565 69.7745H198.461V75.8225ZM209.013 85.6865V67.6385H210.741V75.4145H218.613V67.6385H220.341V85.6865H218.613V77.5265H210.741V85.6865H209.013ZM222.771 85.6865V67.6385H232.851V69.7745H224.499V75.3425H232.203V77.4785H224.499V83.5265H233.019V85.6865H222.771ZM235.006 85.6865V67.6385H241.006C243.79 67.6385 245.638 69.8225 245.638 72.8225C245.638 74.8625 244.774 76.5185 243.166 77.3345C244.99 78.6785 244.366 81.7505 245.998 85.6865H244.03C242.902 82.9985 243.166 77.9105 240.55 77.9105H236.734V85.6865H235.006ZM236.734 75.7745H240.958C242.686 75.7745 243.862 74.5265 243.862 72.7265C243.862 70.9505 242.734 69.7745 240.958 69.7745H236.734V75.7745ZM253.365 86.1425C250.197 86.1425 248.205 84.1745 247.725 80.5265L249.453 80.0945C249.813 82.6625 251.109 83.9825 253.269 83.9825C255.381 83.9825 256.821 82.7345 256.821 80.9585C256.821 79.3985 255.693 78.3185 252.933 77.3105C249.573 76.1105 248.133 74.3345 248.133 71.8385C248.133 68.9825 250.029 67.2065 253.029 67.2065C255.981 67.2065 257.733 68.8865 258.333 72.1025L256.557 72.5825C256.149 70.4225 255.021 69.3425 252.981 69.3425C251.109 69.3425 249.933 70.2545 249.933 71.8145C249.933 73.2545 250.941 74.2385 253.653 75.2945C257.277 76.6625 258.621 78.4385 258.621 80.9585C258.621 84.1025 256.557 86.1425 253.365 86.1425ZM262.276 89.1665L261.7 88.1585C262.444 87.6305 262.996 86.8865 263.044 85.9025C262.156 86.2145 261.364 85.3985 261.364 84.3665C261.364 83.4785 261.94 82.7345 262.684 82.7345C263.26 82.7345 264.124 83.1665 264.124 85.1585C264.124 86.7425 263.524 88.1105 262.276 89.1665ZM86.3885 113.687V95.6385H92.2445C95.0765 95.6385 96.8765 97.8225 96.8765 100.775C96.8765 103.751 95.0285 105.959 92.2445 105.959H88.1405V113.687H86.3885ZM88.1405 103.823H92.2445C93.9485 103.823 95.1005 102.623 95.1005 100.775C95.1005 98.9265 93.9965 97.7745 92.2445 97.7745H88.1405V103.823ZM98.6932 113.687V95.6385H100.421V103.415H108.293V95.6385H110.021V113.687H108.293V105.527H100.421V113.687H98.6932ZM119.075 114.143C114.947 114.143 111.971 110.159 111.971 104.735C111.971 99.3825 114.779 95.2065 119.075 95.2065C123.371 95.2065 126.131 99.4065 126.131 104.735C126.131 110.159 123.203 114.143 119.075 114.143ZM119.075 112.007C122.075 112.007 124.283 109.007 124.283 104.711C124.283 100.535 122.267 97.3665 119.075 97.3665C115.907 97.3665 113.867 100.535 113.867 104.711C113.867 108.983 116.075 112.007 119.075 112.007ZM131.996 113.687V97.7745H127.052V95.6385H138.692V97.7745H133.724V113.687H131.996ZM146.708 114.143C142.58 114.143 139.604 110.159 139.604 104.735C139.604 99.3825 142.412 95.2065 146.708 95.2065C151.004 95.2065 153.764 99.4065 153.764 104.735C153.764 110.159 150.836 114.143 146.708 114.143ZM146.708 112.007C149.708 112.007 151.916 109.007 151.916 104.711C151.916 100.535 149.9 97.3665 146.708 97.3665C143.54 97.3665 141.5 100.535 141.5 104.711C141.5 108.983 143.708 112.007 146.708 112.007ZM155.933 106.535V104.663H160.613V106.535H155.933ZM163.263 113.687V95.6385H169.119C171.927 95.6385 173.535 97.2945 173.535 100.151C173.535 101.927 172.935 103.319 171.711 104.135C173.295 104.807 174.159 106.391 174.159 108.455C174.159 111.575 172.143 113.687 169.191 113.687H163.263ZM164.991 103.151H168.615C170.559 103.151 171.831 102.047 171.831 100.271C171.831 98.6865 170.799 97.7745 169.047 97.7745H164.991V103.151ZM164.991 111.527H169.071C171.135 111.527 172.383 110.375 172.383 108.455C172.383 106.463 171.039 105.239 168.879 105.239H164.991V111.527ZM175.073 113.687L180.713 95.6385H182.753L188.345 113.687H186.497L184.889 108.479H178.529L176.945 113.687H175.073ZM179.225 106.367H184.217L181.745 98.2545L179.225 106.367ZM195.006 114.143C191.838 114.143 189.846 112.175 189.366 108.527L191.094 108.095C191.454 110.663 192.75 111.983 194.91 111.983C197.022 111.983 198.462 110.735 198.462 108.959C198.462 107.399 197.334 106.319 194.574 105.311C191.214 104.111 189.774 102.335 189.774 99.8385C189.774 96.9825 191.67 95.2065 194.67 95.2065C197.622 95.2065 199.374 96.8865 199.974 100.103L198.198 100.583C197.79 98.4225 196.662 97.3425 194.622 97.3425C192.75 97.3425 191.574 98.2545 191.574 99.8145C191.574 101.255 192.582 102.239 195.294 103.295C198.918 104.663 200.262 106.439 200.262 108.959C200.262 112.103 198.198 114.143 195.006 114.143ZM202.381 113.687V95.6385H212.461V97.7745H204.109V103.343H211.813V105.479H204.109V111.527H212.629V113.687H202.381ZM214.615 113.687V95.6385H219.703C224.191 95.6385 226.567 99.0945 226.567 104.567C226.567 109.943 224.191 113.687 219.703 113.687H214.615ZM216.343 111.551H219.391C222.847 111.551 224.791 109.175 224.791 104.567C224.791 99.8865 222.847 97.7745 219.391 97.7745H216.343V111.551ZM232.26 113.687L237.9 95.6385H239.94L245.532 113.687H243.684L242.076 108.479H235.716L234.132 113.687H232.26ZM236.412 106.367H241.404L238.932 98.2545L236.412 106.367ZM246.842 113.687V95.6385H252.842C255.626 95.6385 257.474 97.8225 257.474 100.823C257.474 102.863 256.61 104.519 255.002 105.335C256.826 106.679 256.202 109.751 257.834 113.687H255.866C254.738 110.999 255.002 105.911 252.386 105.911H248.57V113.687H246.842ZM248.57 103.775H252.794C254.522 103.775 255.698 102.527 255.698 100.727C255.698 98.9505 254.57 97.7745 252.794 97.7745H248.57V103.775ZM263.785 113.687V97.7745H258.841V95.6385H270.481V97.7745H265.513V113.687H263.785ZM272.113 113.687V95.6385H273.889V113.687H272.113ZM281.889 114.143C278.721 114.143 276.729 112.175 276.249 108.527L277.977 108.095C278.337 110.663 279.633 111.983 281.793 111.983C283.905 111.983 285.345 110.735 285.345 108.959C285.345 107.399 284.217 106.319 281.457 105.311C278.097 104.111 276.657 102.335 276.657 99.8385C276.657 96.9825 278.553 95.2065 281.553 95.2065C284.505 95.2065 286.257 96.8865 286.857 100.103L285.081 100.583C284.673 98.4225 283.545 97.3425 281.505 97.3425C279.633 97.3425 278.457 98.2545 278.457 99.8145C278.457 101.255 279.465 102.239 282.177 103.295C285.801 104.663 287.145 106.439 287.145 108.959C287.145 112.103 285.081 114.143 281.889 114.143ZM293.199 113.687V97.7745H288.255V95.6385H299.895V97.7745H294.927V113.687H293.199ZM306.639 114.143C303.471 114.143 301.479 112.175 300.999 108.527L302.727 108.095C303.087 110.663 304.383 111.983 306.543 111.983C308.655 111.983 310.095 110.735 310.095 108.959C310.095 107.399 308.967 106.319 306.207 105.311C302.847 104.111 301.407 102.335 301.407 99.8385C301.407 96.9825 303.303 95.2065 306.303 95.2065C309.255 95.2065 311.007 96.8865 311.607 100.103L309.831 100.583C309.423 98.4225 308.295 97.3425 306.255 97.3425C304.383 97.3425 303.207 98.2545 303.207 99.8145C303.207 101.255 304.215 102.239 306.927 103.295C310.551 104.663 311.895 106.439 311.895 108.959C311.895 112.103 309.831 114.143 306.639 114.143ZM315.549 117.167L314.973 116.159C315.717 115.631 316.269 114.887 316.317 113.903C315.429 114.215 314.637 113.399 314.637 112.367C314.637 111.479 315.213 110.735 315.957 110.735C316.533 110.735 317.397 111.167 317.397 113.159C317.397 114.743 316.797 116.111 315.549 117.167ZM85.2605 141.687L90.9005 123.639H92.9405L98.5325 141.687H96.6845L95.0765 136.479H88.7165L87.1325 141.687H85.2605ZM89.4125 134.367H94.4045L91.9325 126.255L89.4125 134.367ZM99.8416 141.687V123.639H101.69L109.322 137.895V123.639H111.05V141.687H109.226L101.57 127.359V141.687H99.8416ZM113.459 141.687V123.639H118.547C123.035 123.639 125.411 127.095 125.411 132.567C125.411 137.943 123.035 141.687 118.547 141.687H113.459ZM115.187 139.551H118.235C121.691 139.551 123.635 137.175 123.635 132.567C123.635 127.887 121.691 125.775 118.235 125.775H115.187V139.551ZM138.88 142.143C134.728 142.143 131.752 138.351 131.752 132.903C131.752 127.359 134.896 123.207 139.096 123.207C141.976 123.207 144.304 125.127 145.432 128.367L143.608 128.871C142.72 126.687 141.088 125.415 139.048 125.415C135.88 125.415 133.624 128.535 133.624 132.807C133.624 137.007 135.808 139.959 138.856 139.959C141.136 139.959 142.936 138.351 143.776 135.711L145.504 136.191C144.4 139.959 142.048 142.143 138.88 142.143ZM153.105 142.143C149.625 142.143 147.537 139.623 147.537 134.871V123.639H149.289V134.871C149.289 138.231 150.657 139.983 153.105 139.983C155.625 139.983 157.041 138.255 157.041 134.895V123.639H158.769V134.895C158.769 139.575 156.633 142.143 153.105 142.143ZM161.178 141.687V123.639H167.178C169.962 123.639 171.81 125.823 171.81 128.823C171.81 130.863 170.946 132.519 169.338 133.335C171.162 134.679 170.538 137.751 172.17 141.687H170.202C169.074 138.999 169.338 133.911 166.722 133.911H162.906V141.687H161.178ZM162.906 131.775H167.13C168.858 131.775 170.034 130.527 170.034 128.727C170.034 126.951 168.906 125.775 167.13 125.775H162.906V131.775ZM173.057 141.687L178.697 123.639H180.737L186.329 141.687H184.481L182.873 136.479H176.513L174.929 141.687H173.057ZM177.209 134.367H182.201L179.729 126.255L177.209 134.367ZM191.574 141.687V125.775H186.63V123.639H198.27V125.775H193.302V141.687H191.574ZM206.286 142.143C202.158 142.143 199.182 138.159 199.182 132.735C199.182 127.383 201.99 123.207 206.286 123.207C210.582 123.207 213.342 127.407 213.342 132.735C213.342 138.159 210.414 142.143 206.286 142.143ZM206.286 140.007C209.286 140.007 211.494 137.007 211.494 132.711C211.494 128.535 209.478 125.367 206.286 125.367C203.118 125.367 201.078 128.535 201.078 132.711C201.078 136.983 203.286 140.007 206.286 140.007ZM215.271 141.687V123.639H221.271C224.055 123.639 225.903 125.823 225.903 128.823C225.903 130.863 225.039 132.519 223.431 133.335C225.255 134.679 224.631 137.751 226.263 141.687H224.295C223.167 138.999 223.431 133.911 220.815 133.911H216.999V141.687H215.271ZM216.999 131.775H221.223C222.951 131.775 224.127 130.527 224.127 128.727C224.127 126.951 222.999 125.775 221.223 125.775H216.999V131.775ZM233.631 142.143C230.463 142.143 228.471 140.175 227.991 136.527L229.719 136.095C230.079 138.663 231.375 139.983 233.535 139.983C235.647 139.983 237.087 138.735 237.087 136.959C237.087 135.399 235.959 134.319 233.199 133.311C229.839 132.111 228.399 130.335 228.399 127.839C228.399 124.983 230.295 123.207 233.295 123.207C236.247 123.207 237.999 124.887 238.599 128.103L236.823 128.583C236.415 126.423 235.287 125.343 233.247 125.343C231.375 125.343 230.199 126.255 230.199 127.815C230.199 129.255 231.207 130.239 233.919 131.295C237.543 132.663 238.887 134.439 238.887 136.959C238.887 140.103 236.823 142.143 233.631 142.143Z" fill="black"/>
<path d="M77.75 194.707C78.2994 194.707 79.4006 194.414 82.6592 192.889C83.509 192.492 83.7495 192.171 83.9139 191.829C84.2624 191.103 84.2064 190.749 84.1906 190.607C84.1278 190.042 82.2585 192.245 81.2864 192.903C80.0799 193.718 77.228 194.669 76.8844 194.845C75.8391 195.38 79.4315 194.223 80.9972 194.068C83.3351 193.835 85.0153 193.99 85.4839 193.973C86.2741 193.944 86.9298 193.292 87.358 193.085C87.7744 192.885 88.1251 192.644 90.0986 192.104C90.959 191.868 91.7359 191.388 92.4917 190.939C93.801 190.162 95.7584 188.89 96.4523 188.453C96.9489 188.14 97.2066 187.77 97.9281 186.635C98.4454 185.822 99.4423 184.976 99.963 184.48C100.455 184.011 100.773 183.366 102.26 181.967C103.087 181.189 104.622 180.112 105.441 179.472C106.379 178.739 106.69 178.483 107.991 177.895C109.069 177.407 111.051 176.662 112.189 176.189C113.591 175.607 114.081 175.299 115.26 174.866C116.181 174.529 117.79 174.054 118.729 173.773C120.437 173.261 121.476 173.236 121.987 173.148C122.112 173.127 122.25 173.078 120.241 173.118C118.232 173.157 114.068 173.278 110.977 173.464C107.885 173.65 105.991 173.898 101.826 174.001C97.6606 174.103 91.2822 174.053 87.7836 173.999C84.285 173.945 83.8595 173.889 83.2987 173.794C81.0501 173.413 80.2172 173.154 78.7224 172.93C76.026 172.527 75.1329 173.044 75.1826 173.044C75.8717 173.044 76.9024 173.168 77.7963 173.4C79.4422 173.828 81.2535 174.896 81.8491 175.14C82.4682 175.394 82.8458 175.855 83.4401 176.574C84.4558 177.802 84.6524 178.554 84.8016 180.795C84.8866 182.073 84.9488 184.27 84.9167 185.632C84.4871 188.051 84.1901 188.563 83.7764 189.677C83.6893 189.923 83.6432 190.045 83.5432 190.325" stroke="white" stroke-width="2" stroke-linecap="round"/>
<path d="M83.0036 172.479C82.9953 172.479 82.9871 172.479 86.5185 172.498C90.0499 172.517 97.1212 172.555 100.818 172.581C104.621 172.608 104.931 172.644 105.595 172.666C106.783 172.706 107.684 172.638 108.018 172.524C108.195 172.464 108.395 172.419 108.182 172.353C107.97 172.286 107.342 172.205 103.201 172.073C99.0604 171.941 91.4253 171.76 87.3085 171.648C83.1917 171.535 82.8246 171.496 82.4763 171.476C82.1279 171.456 81.8095 171.456 81.6907 171.598C81.6624 172.024 82.127 172.719 82.7367 173.369C82.9749 173.618 83.0687 173.701 83.3023 173.918" stroke="white" stroke-width="2" stroke-linecap="round"/>
<path d="M90.7219 176.892C90.7054 176.875 90.6969 179.01 90.2191 181.081C90.1105 181.551 88.786 178.655 88.2493 177.407C87.7125 176.159 87.6234 176.087 87.489 176.05C86.7749 175.854 86.2427 175.446 86.2002 175.341C86.1198 175.142 86.7593 175.527 87.4702 176.12C88.9779 177.378 90.1217 178.513 90.6459 178.87C91.1141 179.188 91.6413 179.288 92.1551 179.357C92.4242 179.393 92.7161 179.38 93.8443 178.853C94.9726 178.325 96.9299 177.271 98.1066 176.66C99.2833 176.049 99.6202 175.914 100.385 175.727C102.32 175.253 103.764 175.042 104.443 174.944C106.592 174.636 107.774 173.895 108.515 173.515C108.632 173.475 108.745 173.455 109.139 173.445C109.533 173.434 110.203 173.434 110.893 173.383" stroke="white" stroke-width="8" stroke-linecap="round"/>
<path d="M85.8052 191.222C85.7886 191.222 85.824 191.129 86.1062 190.752C86.7109 189.943 88.0337 188.837 89.4306 187.618C90.0327 187.093 90.3411 186.671 90.9131 185.736C91.4852 184.8 92.2918 183.342 92.8436 182.423C93.9362 180.604 94.6718 180.247 95.8152 179.918C97.0229 179.571 98.5916 179.573 99.2936 179.27C99.5324 179.167 99.6905 178.978 99.7501 178.903C99.8426 178.786 99.2598 179.315 98.1511 180.512C97.2821 181.45 95.8567 183.12 94.9698 184.101C93.8245 185.368 93.3708 185.68 93.102 185.813C92.416 186.155 91.5097 185.945 90.5855 185.534C88.8125 184.746 87.9974 183.226 88.0418 182.891C88.106 182.406 89.0686 181.844 90.4153 181.097C91.1316 180.7 91.9703 180.37 92.8209 180.075C93.6714 179.781 94.5225 179.559 95.8227 179.313C97.1229 179.067 98.8463 178.803 99.876 178.622C101.596 178.32 102.018 177.924 102.535 177.388C102.648 177.265 102.732 177.18 102.852 177.108C102.971 177.036 103.123 176.978 103.382 176.919" stroke="white" stroke-width="8" stroke-linecap="round"/>
<path d="M75.0537 174.538C77.5061 174.947 78.8344 175.049 80.3989 176.224C83.1319 178.277 83.3553 179.979 83.9113 182.605C84.4919 185.349 82.3723 190.169 80.3989 191.57C77.253 193.805 72.8314 195.381 69.6146 195.916C67.9804 196.112 66.3426 196.158 64.6553 196.205" stroke="#00E526" stroke-width="2" stroke-linecap="round"/>
<path d="M131.302 174.391C128.309 174.391 119.738 174.07 112.945 176.981C110.712 177.937 106.595 180.45 103.79 183.025C100.385 186.148 97.4394 189.74 94.6569 191.553C91.6522 193.511 89.1262 193.998 85.6689 194.875C79.9667 196.321 66.283 196.106 64.6553 196.321" stroke="#00E526" stroke-width="2" stroke-linecap="round"/>
<mask id="mask2_47_168" style="mask-type:alpha" maskUnits="userSpaceOnUse" x="0" y="21" width="349" height="163">
<rect y="22.7826" width="73.9424" height="160.69" fill="#D9D9D9"/>
<rect x="121.57" y="22.7826" width="226.93" height="160.69" fill="#D9D9D9"/>
<rect x="73.4395" y="21.7826" width="48.1309" height="150.83" fill="#D9D9D9"/>
</mask>
<g mask="url(#mask2_47_168)">
<rect x="2.07422" y="30.6801" width="323.858" height="143.842" rx="71.9208" fill="white" stroke="#00E526" stroke-width="2"/>
</g>
<path d="M67.641 69.1127C63.489 69.1127 60.513 65.3207 60.513 59.8727C60.513 54.3287 63.657 50.1767 67.857 50.1767C70.737 50.1767 73.065 52.0967 74.193 55.3367L72.369 55.8407C71.481 53.6567 69.849 52.3847 67.809 52.3847C64.641 52.3847 62.385 55.5047 62.385 59.7767C62.385 63.9767 64.569 66.9287 67.617 66.9287C69.897 66.9287 71.697 65.3207 72.537 62.6807L74.265 63.1607C73.161 66.9287 70.809 69.1127 67.641 69.1127ZM75.1697 68.6567L80.8097 50.6087H82.8497L88.4417 68.6567H86.5937L84.9857 63.4487H78.6257L77.0417 68.6567H75.1697ZM79.3217 61.3367H84.3137L81.8417 53.2247L79.3217 61.3367ZM89.7508 68.6567V50.6087H91.5028V66.4967H99.8308V68.6567H89.7508ZM101.493 68.6567V50.6087H103.245V66.4967H111.573V68.6567H101.493ZM113.475 68.6567V50.6087H115.251V68.6567H113.475ZM117.899 68.6567V50.6087H119.747L127.379 64.8647V50.6087H129.107V68.6567H127.283L119.627 54.3287V68.6567H117.899ZM137.42 69.1127C133.652 69.1127 131.036 65.2967 131.036 59.8487C131.036 54.5687 133.508 50.1767 137.756 50.1767C140.612 50.1767 142.652 52.1687 143.588 55.3847L141.884 55.8647C141.116 53.4887 139.58 52.3607 137.756 52.3607C134.636 52.3607 132.836 55.6247 132.836 59.8487C132.836 64.3367 134.948 66.9527 137.54 66.9527C140.036 66.9527 141.908 64.5287 142.004 61.1927H137.948V59.0567H143.732V68.6567H142.196L142.028 66.3047C141.092 68.0327 139.412 69.1127 137.42 69.1127ZM149.748 68.6567L155.388 50.6087H157.428L163.02 68.6567H161.172L159.564 63.4487H153.204L151.62 68.6567H149.748ZM153.9 61.3367H158.892L156.42 53.2247L153.9 61.3367ZM164.329 68.6567V50.6087H166.081V66.4967H174.409V68.6567H164.329ZM176.071 68.6567V50.6087H177.823V66.4967H186.151V68.6567H176.071ZM60.993 96.6567V78.6087H66.849C69.681 78.6087 71.481 80.7927 71.481 83.7447C71.481 86.7207 69.633 88.9287 66.849 88.9287H62.745V96.6567H60.993ZM62.745 86.7927H66.849C68.553 86.7927 69.705 85.5927 69.705 83.7447C69.705 81.8967 68.601 80.7447 66.849 80.7447H62.745V86.7927ZM73.2977 96.6567V78.6087H75.0257V86.3847H82.8977V78.6087H84.6257V96.6567H82.8977V88.4967H75.0257V96.6567H73.2977ZM93.6795 97.1127C89.5515 97.1127 86.5755 93.1287 86.5755 87.7047C86.5755 82.3527 89.3835 78.1767 93.6795 78.1767C97.9755 78.1767 100.735 82.3767 100.735 87.7047C100.735 93.1287 97.8075 97.1127 93.6795 97.1127ZM93.6795 94.9767C96.6795 94.9767 98.8875 91.9767 98.8875 87.6807C98.8875 83.5047 96.8715 80.3367 93.6795 80.3367C90.5115 80.3367 88.4715 83.5047 88.4715 87.6807C88.4715 91.9527 90.6795 94.9767 93.6795 94.9767ZM106.601 96.6567V80.7447H101.657V78.6087H113.297V80.7447H108.329V96.6567H106.601ZM121.312 97.1127C117.184 97.1127 114.208 93.1287 114.208 87.7047C114.208 82.3527 117.016 78.1767 121.312 78.1767C125.608 78.1767 128.368 82.3767 128.368 87.7047C128.368 93.1287 125.44 97.1127 121.312 97.1127ZM121.312 94.9767C124.312 94.9767 126.52 91.9767 126.52 87.6807C126.52 83.5047 124.504 80.3367 121.312 80.3367C118.144 80.3367 116.104 83.5047 116.104 87.6807C116.104 91.9527 118.312 94.9767 121.312 94.9767ZM136.202 97.1127C132.434 97.1127 129.818 93.2967 129.818 87.8487C129.818 82.5687 132.29 78.1767 136.538 78.1767C139.394 78.1767 141.434 80.1687 142.37 83.3847L140.666 83.8647C139.898 81.4887 138.362 80.3607 136.538 80.3607C133.418 80.3607 131.618 83.6247 131.618 87.8487C131.618 92.3367 133.73 94.9527 136.322 94.9527C138.818 94.9527 140.69 92.5287 140.786 89.1927H136.73V87.0567H142.514V96.6567H140.978L140.81 94.3047C139.874 96.0327 138.194 97.1127 136.202 97.1127ZM144.852 96.6567V78.6087H150.852C153.636 78.6087 155.484 80.7927 155.484 83.7927C155.484 85.8327 154.62 87.4887 153.012 88.3047C154.836 89.6487 154.212 92.7207 155.844 96.6567H153.876C152.748 93.9687 153.012 88.8807 150.396 88.8807H146.58V96.6567H144.852ZM146.58 86.7447H150.804C152.532 86.7447 153.708 85.4967 153.708 83.6967C153.708 81.9207 152.58 80.7447 150.804 80.7447H146.58V86.7447ZM156.732 96.6567L162.372 78.6087H164.412L170.004 96.6567H168.156L166.548 91.4487H160.188L158.604 96.6567H156.732ZM160.884 89.3367H165.876L163.404 81.2247L160.884 89.3367ZM171.313 96.6567V78.6087H177.169C180.001 78.6087 181.801 80.7927 181.801 83.7447C181.801 86.7207 179.953 88.9287 177.169 88.9287H173.065V96.6567H171.313ZM173.065 86.7927H177.169C178.873 86.7927 180.025 85.5927 180.025 83.7447C180.025 81.8967 178.921 80.7447 177.169 80.7447H173.065V86.7927ZM183.618 96.6567V78.6087H185.346V86.3847H193.218V78.6087H194.946V96.6567H193.218V88.4967H185.346V96.6567H183.618ZM197.376 96.6567V78.6087H207.456V80.7447H199.104V86.3127H206.808V88.4487H199.104V94.4967H207.624V96.6567H197.376ZM209.61 96.6567V78.6087H215.61C218.394 78.6087 220.242 80.7927 220.242 83.7927C220.242 85.8327 219.378 87.4887 217.77 88.3047C219.594 89.6487 218.97 92.7207 220.602 96.6567H218.634C217.506 93.9687 217.77 88.8807 215.154 88.8807H211.338V96.6567H209.61ZM211.338 86.7447H215.562C217.29 86.7447 218.466 85.4967 218.466 83.6967C218.466 81.9207 217.338 80.7447 215.562 80.7447H211.338V86.7447ZM227.97 97.1127C224.802 97.1127 222.81 95.1447 222.33 91.4967L224.058 91.0647C224.418 93.6327 225.714 94.9527 227.874 94.9527C229.986 94.9527 231.426 93.7047 231.426 91.9287C231.426 90.3687 230.298 89.2887 227.538 88.2807C224.178 87.0807 222.738 85.3047 222.738 82.8087C222.738 79.9527 224.634 78.1767 227.634 78.1767C230.586 78.1767 232.338 79.8567 232.938 83.0727L231.162 83.5527C230.754 81.3927 229.626 80.3127 227.586 80.3127C225.714 80.3127 224.538 81.2247 224.538 82.7847C224.538 84.2247 225.546 85.2087 228.258 86.2647C231.882 87.6327 233.226 89.4087 233.226 91.9287C233.226 95.0727 231.162 97.1127 227.97 97.1127ZM236.881 100.137L236.305 99.1287C237.049 98.6007 237.601 97.8567 237.649 96.8727C236.761 97.1847 235.969 96.3687 235.969 95.3367C235.969 94.4487 236.545 93.7047 237.289 93.7047C237.865 93.7047 238.729 94.1367 238.729 96.1287C238.729 97.7127 238.129 99.0807 236.881 100.137ZM60.993 124.657V106.609H66.849C69.681 106.609 71.481 108.793 71.481 111.745C71.481 114.721 69.633 116.929 66.849 116.929H62.745V124.657H60.993ZM62.745 114.793H66.849C68.553 114.793 69.705 113.593 69.705 111.745C69.705 109.897 68.601 108.745 66.849 108.745H62.745V114.793ZM73.2977 124.657V106.609H75.0257V114.385H82.8977V106.609H84.6257V124.657H82.8977V116.497H75.0257V124.657H73.2977ZM93.6795 125.113C89.5515 125.113 86.5755 121.129 86.5755 115.705C86.5755 110.353 89.3835 106.177 93.6795 106.177C97.9755 106.177 100.735 110.377 100.735 115.705C100.735 121.129 97.8075 125.113 93.6795 125.113ZM93.6795 122.977C96.6795 122.977 98.8875 119.977 98.8875 115.681C98.8875 111.505 96.8715 108.337 93.6795 108.337C90.5115 108.337 88.4715 111.505 88.4715 115.681C88.4715 119.953 90.6795 122.977 93.6795 122.977ZM106.601 124.657V108.745H101.657V106.609H113.297V108.745H108.329V124.657H106.601ZM121.312 125.113C117.184 125.113 114.208 121.129 114.208 115.705C114.208 110.353 117.016 106.177 121.312 106.177C125.608 106.177 128.368 110.377 128.368 115.705C128.368 121.129 125.44 125.113 121.312 125.113ZM121.312 122.977C124.312 122.977 126.52 119.977 126.52 115.681C126.52 111.505 124.504 108.337 121.312 108.337C118.144 108.337 116.104 111.505 116.104 115.681C116.104 119.953 118.312 122.977 121.312 122.977ZM130.538 117.505V115.633H135.218V117.505H130.538ZM137.868 124.657V106.609H143.724C146.532 106.609 148.14 108.265 148.14 111.121C148.14 112.897 147.54 114.289 146.316 115.105C147.9 115.777 148.764 117.361 148.764 119.425C148.764 122.545 146.748 124.657 143.796 124.657H137.868ZM139.596 114.121H143.22C145.164 114.121 146.436 113.017 146.436 111.241C146.436 109.657 145.404 108.745 143.652 108.745H139.596V114.121ZM139.596 122.497H143.676C145.74 122.497 146.988 121.345 146.988 119.425C146.988 117.433 145.644 116.209 143.484 116.209H139.596V122.497ZM149.677 124.657L155.317 106.609H157.357L162.949 124.657H161.101L159.493 119.449H153.133L151.549 124.657H149.677ZM153.829 117.337H158.821L156.349 109.225L153.829 117.337ZM169.611 125.113C166.443 125.113 164.451 123.145 163.971 119.497L165.699 119.065C166.059 121.633 167.355 122.953 169.515 122.953C171.627 122.953 173.067 121.705 173.067 119.929C173.067 118.369 171.939 117.289 169.179 116.281C165.819 115.081 164.379 113.305 164.379 110.809C164.379 107.953 166.275 106.177 169.275 106.177C172.227 106.177 173.979 107.857 174.579 111.073L172.803 111.553C172.395 109.393 171.267 108.313 169.227 108.313C167.355 108.313 166.179 109.225 166.179 110.785C166.179 112.225 167.187 113.209 169.899 114.265C173.523 115.633 174.867 117.409 174.867 119.929C174.867 123.073 172.803 125.113 169.611 125.113ZM176.985 124.657V106.609H187.065V108.745H178.713V114.313H186.417V116.449H178.713V122.497H187.233V124.657H176.985ZM189.22 124.657V106.609H194.308C198.796 106.609 201.172 110.065 201.172 115.537C201.172 120.913 198.796 124.657 194.308 124.657H189.22ZM190.948 122.521H193.996C197.452 122.521 199.396 120.145 199.396 115.537C199.396 110.857 197.452 108.745 193.996 108.745H190.948V122.521ZM206.865 124.657L212.505 106.609H214.545L220.137 124.657H218.289L216.681 119.449H210.321L208.737 124.657H206.865ZM211.017 117.337H216.009L213.537 109.225L211.017 117.337ZM221.446 124.657V106.609H227.446C230.23 106.609 232.078 108.793 232.078 111.793C232.078 113.833 231.214 115.489 229.606 116.305C231.43 117.649 230.806 120.721 232.438 124.657H230.47C229.342 121.969 229.606 116.881 226.99 116.881H223.174V124.657H221.446ZM223.174 114.745H227.398C229.126 114.745 230.302 113.497 230.302 111.697C230.302 109.921 229.174 108.745 227.398 108.745H223.174V114.745ZM238.39 124.657V108.745H233.446V106.609H245.086V108.745H240.118V124.657H238.39ZM246.717 124.657V106.609H248.493V124.657H246.717ZM256.493 125.113C253.325 125.113 251.333 123.145 250.853 119.497L252.581 119.065C252.941 121.633 254.237 122.953 256.397 122.953C258.509 122.953 259.949 121.705 259.949 119.929C259.949 118.369 258.821 117.289 256.061 116.281C252.701 115.081 251.261 113.305 251.261 110.809C251.261 107.953 253.157 106.177 256.157 106.177C259.109 106.177 260.861 107.857 261.461 111.073L259.685 111.553C259.277 109.393 258.149 108.313 256.109 108.313C254.237 108.313 253.061 109.225 253.061 110.785C253.061 112.225 254.069 113.209 256.781 114.265C260.405 115.633 261.749 117.409 261.749 119.929C261.749 123.073 259.685 125.113 256.493 125.113ZM267.804 124.657V108.745H262.86V106.609H274.5V108.745H269.532V124.657H267.804ZM281.243 125.113C278.075 125.113 276.083 123.145 275.603 119.497L277.331 119.065C277.691 121.633 278.987 122.953 281.147 122.953C283.259 122.953 284.699 121.705 284.699 119.929C284.699 118.369 283.571 117.289 280.811 116.281C277.451 115.081 276.011 113.305 276.011 110.809C276.011 107.953 277.907 106.177 280.907 106.177C283.859 106.177 285.611 107.857 286.211 111.073L284.435 111.553C284.027 109.393 282.899 108.313 280.859 108.313C278.987 108.313 277.811 109.225 277.811 110.785C277.811 112.225 278.819 113.209 281.531 114.265C285.155 115.633 286.499 117.409 286.499 119.929C286.499 123.073 284.435 125.113 281.243 125.113ZM290.154 128.137L289.578 127.129C290.322 126.601 290.874 125.857 290.922 124.873C290.034 125.185 289.242 124.369 289.242 123.337C289.242 122.449 289.818 121.705 290.562 121.705C291.138 121.705 292.002 122.137 292.002 124.129C292.002 125.713 291.402 127.081 290.154 128.137ZM59.865 152.657L65.505 134.609H67.545L73.137 152.657H71.289L69.681 147.449H63.321L61.737 152.657H59.865ZM64.017 145.337H69.009L66.537 137.225L64.017 145.337ZM74.4461 152.657V134.609H76.2941L83.9261 148.865V134.609H85.6541V152.657H83.8301L76.1741 138.329V152.657H74.4461ZM88.0633 152.657V134.609H93.1513C97.6393 134.609 100.015 138.065 100.015 143.537C100.015 148.913 97.6393 152.657 93.1513 152.657H88.0633ZM89.7913 150.521H92.8393C96.2953 150.521 98.2393 148.145 98.2393 143.537C98.2393 138.857 96.2953 136.745 92.8393 136.745H89.7913V150.521ZM113.485 153.113C109.333 153.113 106.357 149.321 106.357 143.873C106.357 138.329 109.501 134.177 113.701 134.177C116.581 134.177 118.909 136.097 120.037 139.337L118.213 139.841C117.325 137.657 115.693 136.385 113.653 136.385C110.485 136.385 108.229 139.505 108.229 143.777C108.229 147.977 110.413 150.929 113.461 150.929C115.741 150.929 117.541 149.321 118.381 146.681L120.109 147.161C119.005 150.929 116.653 153.113 113.485 153.113ZM127.709 153.113C124.229 153.113 122.141 150.593 122.141 145.841V134.609H123.893V145.841C123.893 149.201 125.261 150.953 127.709 150.953C130.229 150.953 131.645 149.225 131.645 145.865V134.609H133.373V145.865C133.373 150.545 131.237 153.113 127.709 153.113ZM135.782 152.657V134.609H141.782C144.566 134.609 146.414 136.793 146.414 139.793C146.414 141.833 145.55 143.489 143.942 144.305C145.766 145.649 145.142 148.721 146.774 152.657H144.806C143.678 149.969 143.942 144.881 141.326 144.881H137.51V152.657H135.782ZM137.51 142.745H141.734C143.462 142.745 144.638 141.497 144.638 139.697C144.638 137.921 143.51 136.745 141.734 136.745H137.51V142.745ZM147.662 152.657L153.302 134.609H155.342L160.934 152.657H159.086L157.478 147.449H151.118L149.534 152.657H147.662ZM151.814 145.337H156.806L154.334 137.225L151.814 145.337ZM166.179 152.657V136.745H161.235V134.609H172.875V136.745H167.907V152.657H166.179ZM180.89 153.113C176.762 153.113 173.786 149.129 173.786 143.705C173.786 138.353 176.594 134.177 180.89 134.177C185.186 134.177 187.946 138.377 187.946 143.705C187.946 149.129 185.018 153.113 180.89 153.113ZM180.89 150.977C183.89 150.977 186.098 147.977 186.098 143.681C186.098 139.505 184.082 136.337 180.89 136.337C177.722 136.337 175.682 139.505 175.682 143.681C175.682 147.953 177.89 150.977 180.89 150.977ZM189.876 152.657V134.609H195.876C198.66 134.609 200.508 136.793 200.508 139.793C200.508 141.833 199.644 143.489 198.036 144.305C199.86 145.649 199.236 148.721 200.868 152.657H198.9C197.772 149.969 198.036 144.881 195.42 144.881H191.604V152.657H189.876ZM191.604 142.745H195.828C197.556 142.745 198.732 141.497 198.732 139.697C198.732 137.921 197.604 136.745 195.828 136.745H191.604V142.745ZM208.236 153.113C205.068 153.113 203.076 151.145 202.596 147.497L204.324 147.065C204.684 149.633 205.98 150.953 208.14 150.953C210.252 150.953 211.692 149.705 211.692 147.929C211.692 146.369 210.564 145.289 207.804 144.281C204.444 143.081 203.004 141.305 203.004 138.809C203.004 135.953 204.9 134.177 207.9 134.177C210.852 134.177 212.604 135.857 213.204 139.073L211.428 139.553C211.02 137.393 209.892 136.313 207.852 136.313C205.98 136.313 204.804 137.225 204.804 138.785C204.804 140.225 205.812 141.209 208.524 142.265C212.148 143.633 213.492 145.409 213.492 147.929C213.492 151.073 211.428 153.113 208.236 153.113Z" fill="black"/>
</svg>
